<svg height="465" id="Layer_1" viewbox="0 0 330 465" width="330" xmlns="http://www.w3.org/2000/svg">
<rect fill="#002b49" height="135" width="195" x="105" y="90"></rect>
<g>
<path d="m143.8,40.43v12.92h-.97c-.15,0-.27-.03-.37-.08-.1-.05-.2-.14-.3-.26l-7.3-9.44c.01.16.02.32.03.48,0,.16.01.3.01.44v8.87h-1.68v-12.92h.99c.17,0,.29.02.38.06s.18.13.28.27l7.32,9.45c-.02-.17-.03-.34-.04-.51,0-.16-.01-.32-.01-.46v-8.8h1.67Z" fill="#333e48"></path>
<path d="m150.25,44.06c.67,0,1.28.11,1.82.33s1,.53,1.39.95c.38.41.67.91.88,1.48.2.58.31,1.23.31,1.95s-.1,1.37-.31,1.95-.5,1.08-.88,1.48c-.38.41-.84.72-1.39.94-.54.22-1.15.33-1.82.33s-1.29-.11-1.83-.33c-.54-.22-1.01-.53-1.39-.94s-.68-.9-.89-1.48-.31-1.23-.31-1.95.1-1.37.31-1.95c.21-.58.5-1.07.89-1.48.38-.41.85-.73,1.39-.95s1.15-.33,1.83-.33Zm0,8.04c.86,0,1.51-.29,1.94-.87.43-.58.64-1.4.64-2.46s-.21-1.88-.64-2.46c-.43-.58-1.07-.88-1.94-.88s-1.53.29-1.96.88c-.43.58-.64,1.41-.64,2.46s.21,1.88.64,2.46c.43.58,1.08.87,1.96.87Z" fill="#333e48"></path>
<path d="m158.24,45.47c.2-.21.41-.4.62-.58.22-.17.45-.32.69-.45s.5-.22.78-.29c.28-.07.58-.1.9-.1.5,0,.95.08,1.33.25s.7.4.96.71c.26.3.45.67.58,1.09.13.43.2.9.2,1.41v5.82h-1.76v-5.82c0-.65-.15-1.16-.45-1.53-.3-.36-.76-.54-1.38-.54-.45,0-.87.11-1.26.32-.39.21-.76.5-1.09.87v6.71h-1.75v-9.14h1.05c.25,0,.4.12.46.35l.13.92Z" fill="#333e48"></path>
<path d="m166.53,47.19h4.5v1.49h-4.5v-1.49Z" fill="#333e48"></path>
<path d="m178.75,45.78c-.05.08-.1.13-.15.17-.05.03-.12.05-.21.05-.1,0-.2-.03-.32-.1s-.26-.14-.42-.22-.36-.15-.58-.21c-.22-.07-.49-.1-.79-.1-.25,0-.48.03-.69.09-.21.06-.38.15-.53.26-.14.11-.25.24-.33.4-.08.15-.12.32-.12.49,0,.23.07.42.2.57.13.15.31.28.53.39.22.11.47.21.75.29.28.09.56.18.85.27.29.1.58.21.86.33.28.12.53.28.75.46.22.18.4.4.53.66.14.26.2.57.2.94,0,.43-.08.82-.23,1.18-.15.36-.38.68-.67.94-.3.26-.67.47-1.1.62-.44.15-.94.22-1.5.22-.63,0-1.21-.11-1.75-.31-.53-.21-.98-.48-1.34-.8l.41-.67c.05-.08.11-.15.18-.19.07-.04.17-.07.29-.07.11,0,.23.04.35.13s.26.18.43.27.37.19.61.27c.24.08.54.12.9.12.3,0,.56-.04.78-.11.22-.07.41-.18.55-.31.15-.13.26-.28.33-.45.07-.17.11-.34.11-.53,0-.24-.07-.44-.2-.6-.13-.16-.31-.29-.53-.41s-.47-.21-.75-.3c-.28-.08-.57-.17-.86-.27-.29-.1-.58-.21-.86-.33-.28-.13-.53-.29-.75-.48-.22-.19-.4-.43-.53-.7-.13-.28-.2-.61-.2-1.01,0-.35.07-.69.22-1.02.15-.32.36-.61.64-.85.28-.25.62-.44,1.03-.59.41-.15.88-.22,1.41-.22.61,0,1.15.1,1.64.29.49.19.91.46,1.25.79l-.39.64Z" fill="#333e48"></path>
<path d="m188.69,52.04c-.22.25-.46.47-.75.65-.28.18-.58.33-.9.45-.32.12-.65.2-.99.25-.34.05-.67.08-1,.08-.63,0-1.21-.11-1.75-.32s-1-.52-1.4-.94c-.39-.41-.7-.92-.92-1.53-.22-.61-.33-1.31-.33-2.1,0-.64.1-1.23.3-1.78.2-.55.48-1.03.85-1.44.37-.41.82-.73,1.35-.96s1.13-.35,1.8-.35c.56,0,1.07.09,1.54.27.47.18.88.45,1.22.8.34.35.61.78.8,1.29.2.51.29,1.09.29,1.75,0,.27-.03.45-.09.54-.06.09-.17.14-.33.14h-5.99c.02.55.1,1.02.23,1.43.14.41.33.74.57,1.01s.53.47.87.6c.34.13.71.2,1.12.2.39,0,.73-.04,1.01-.13s.53-.19.74-.29c.21-.1.38-.2.52-.29s.27-.14.37-.14c.14,0,.25.05.33.16l.5.65Zm-1.45-4.28c0-.35-.05-.67-.15-.96-.1-.29-.25-.55-.44-.77-.19-.22-.43-.38-.7-.5s-.59-.18-.95-.18c-.74,0-1.32.21-1.74.64s-.69,1.02-.81,1.77h4.79Z" fill="#333e48"></path>
<path d="m197.12,45.92c-.05.07-.11.12-.16.16s-.12.06-.22.06-.2-.04-.3-.11c-.11-.07-.24-.16-.4-.24s-.35-.17-.58-.24c-.22-.07-.5-.11-.83-.11-.43,0-.81.08-1.14.23-.33.16-.6.38-.82.67s-.39.64-.5,1.05c-.11.41-.17.88-.17,1.4s.06,1.01.18,1.43c.12.42.29.77.51,1.05.22.29.49.5.81.65.32.15.67.22,1.06.22s.69-.05.94-.14c.25-.09.45-.19.61-.3.16-.11.3-.21.41-.3.11-.09.22-.14.33-.14.14,0,.25.05.33.16l.5.65c-.21.26-.45.48-.71.66-.26.18-.54.33-.83.44-.29.12-.6.2-.92.25-.32.05-.65.08-.98.08-.57,0-1.1-.11-1.6-.32s-.92-.52-1.29-.92c-.36-.4-.65-.9-.86-1.48-.21-.58-.32-1.25-.32-1.99,0-.68.09-1.31.28-1.88.19-.58.47-1.07.84-1.49.37-.42.82-.74,1.36-.98.54-.24,1.16-.36,1.85-.36.65,0,1.23.1,1.73.31.5.21.94.51,1.33.89l-.47.65Z" fill="#333e48"></path>
<path d="m206.93,44.21v9.14h-1.05c-.24,0-.4-.12-.47-.35l-.13-.92c-.2.21-.41.4-.62.58-.22.17-.45.32-.69.45s-.51.22-.78.29c-.28.07-.57.1-.89.1-.5,0-.95-.08-1.33-.25-.38-.17-.7-.4-.96-.71-.26-.3-.45-.67-.58-1.09-.13-.43-.2-.9-.2-1.41v-5.82h1.76v5.82c0,.65.15,1.16.45,1.53.3.36.76.54,1.38.54.45,0,.87-.11,1.26-.32.39-.21.76-.5,1.1-.88v-6.7h1.75Z" fill="#333e48"></path>
<path d="m211.05,45.96c.29-.6.65-1.07,1.06-1.41.41-.34.91-.51,1.49-.51.2,0,.38.02.56.07.18.04.33.11.46.2l-.12,1.32c-.04.16-.14.24-.3.24-.08,0-.21-.02-.38-.05-.17-.03-.35-.05-.54-.05-.28,0-.53.04-.75.12-.22.08-.41.2-.58.36-.17.16-.32.35-.45.58-.13.23-.26.49-.37.79v5.72h-1.75v-9.14h1.01c.19,0,.32.03.39.1.07.07.12.19.15.36l.11,1.29Z" fill="#333e48"></path>
<path d="m223.15,52.04c-.22.25-.46.47-.75.65-.28.18-.58.33-.9.45-.32.12-.65.2-.99.25-.34.05-.67.08-1,.08-.63,0-1.21-.11-1.75-.32s-1-.52-1.4-.94c-.39-.41-.7-.92-.92-1.53-.22-.61-.33-1.31-.33-2.1,0-.64.1-1.23.3-1.78.2-.55.48-1.03.85-1.44.37-.41.82-.73,1.35-.96s1.13-.35,1.8-.35c.56,0,1.07.09,1.54.27.47.18.88.45,1.22.8.34.35.61.78.8,1.29.2.51.29,1.09.29,1.75,0,.27-.03.45-.09.54-.06.09-.17.14-.33.14h-5.99c.02.55.1,1.02.23,1.43.14.41.33.74.57,1.01s.53.47.87.6c.34.13.71.2,1.12.2.39,0,.73-.04,1.01-.13s.53-.19.74-.29c.21-.1.38-.2.52-.29s.27-.14.37-.14c.14,0,.25.05.33.16l.5.65Zm-1.45-4.28c0-.35-.05-.67-.15-.96-.1-.29-.25-.55-.44-.77-.19-.22-.43-.38-.7-.5s-.59-.18-.95-.18c-.74,0-1.32.21-1.74.64s-.69,1.02-.81,1.77h4.79Z" fill="#333e48"></path>
<path d="m236.77,42.53c-.06.1-.12.18-.19.23-.07.05-.15.07-.25.07s-.23-.05-.37-.15c-.14-.1-.31-.21-.52-.33s-.45-.23-.74-.33-.63-.15-1.04-.15c-.38,0-.71.05-.99.15s-.52.23-.72.41c-.19.17-.34.37-.44.6-.1.23-.15.48-.15.75,0,.35.09.64.27.87.18.23.41.42.7.58s.62.3.98.42c.37.12.74.24,1.12.37s.76.28,1.12.45c.37.17.69.38.98.63s.52.57.7.94c.18.37.26.82.26,1.36,0,.57-.1,1.1-.29,1.6-.2.5-.48.93-.85,1.3-.37.37-.83.67-1.37.88-.54.21-1.16.32-1.85.32-.41,0-.82-.04-1.21-.12-.39-.08-.76-.2-1.11-.34-.35-.15-.67-.32-.98-.53s-.57-.44-.81-.7l.55-.92c.05-.07.12-.13.19-.18.08-.05.16-.07.26-.07.13,0,.27.07.44.2s.37.28.61.44.53.3.87.44.75.2,1.24.2c.4,0,.75-.05,1.06-.16.31-.11.58-.26.79-.45.21-.19.38-.43.49-.71s.17-.58.17-.92c0-.38-.09-.69-.26-.93s-.41-.44-.69-.6-.62-.3-.98-.41c-.37-.11-.74-.23-1.12-.36s-.76-.27-1.12-.43c-.37-.16-.69-.37-.98-.63s-.52-.59-.69-.98c-.17-.39-.26-.88-.26-1.45,0-.46.09-.91.27-1.34.18-.43.44-.81.79-1.15s.77-.6,1.27-.8,1.08-.3,1.73-.3c.73,0,1.39.12,2,.35.61.23,1.14.56,1.59.99l-.47.91Z" fill="#333e48"></path>
<path d="m241.97,53.49c-.74,0-1.31-.21-1.71-.62-.4-.41-.6-1-.6-1.77v-5.47h-1.06c-.1,0-.19-.03-.26-.09-.07-.06-.1-.16-.1-.28v-.71l1.48-.21.4-2.73c.02-.1.07-.18.14-.24.07-.06.16-.09.27-.09h.89v3.07h2.59v1.28h-2.59v5.35c0,.36.09.63.27.81.18.18.4.27.68.27.16,0,.3-.02.42-.06.12-.04.22-.09.3-.14s.16-.1.22-.14c.06-.04.11-.06.16-.06.06,0,.11.01.14.04s.07.07.1.13l.52.85c-.29.26-.63.47-1.03.61-.4.14-.81.22-1.23.22Z" fill="#333e48"></path>
<path d="m245.39,45.48c.51-.49,1.06-.85,1.66-1.09.6-.24,1.25-.36,1.97-.36.52,0,.98.09,1.39.26.4.17.74.41,1.02.72.28.3.48.67.62,1.1s.21.9.21,1.41v5.83h-.78c-.17,0-.31-.03-.4-.08-.09-.06-.16-.16-.22-.32l-.19-.8c-.23.21-.46.41-.69.57-.23.17-.47.31-.72.42s-.51.21-.8.27c-.28.06-.59.09-.94.09s-.7-.05-1.01-.15c-.32-.1-.59-.25-.82-.46-.23-.2-.42-.46-.55-.76-.14-.31-.2-.66-.2-1.07,0-.36.1-.71.29-1.04.19-.33.51-.63.95-.9.44-.26,1.02-.48,1.73-.65s1.59-.26,2.62-.29v-.67c0-.69-.15-1.21-.44-1.55-.29-.34-.73-.51-1.3-.51-.38,0-.71.05-.97.14s-.49.2-.67.32c-.19.12-.35.22-.5.32s-.29.14-.44.14c-.12,0-.22-.03-.31-.1s-.16-.14-.21-.23l-.32-.57Zm5.15,3.81c-.71.02-1.32.08-1.82.17-.5.09-.9.2-1.21.35-.31.14-.54.31-.67.51-.14.2-.21.41-.21.65s.04.42.11.59.18.3.31.4c.13.11.28.18.46.23.17.05.36.07.57.07.27,0,.52-.03.74-.08.23-.05.44-.13.63-.23.2-.1.39-.22.57-.37.18-.14.36-.31.53-.49v-1.8Z" fill="#333e48"></path>
<path d="m257.36,53.49c-.74,0-1.31-.21-1.71-.62-.4-.41-.6-1-.6-1.77v-5.47h-1.06c-.1,0-.19-.03-.26-.09-.07-.06-.1-.16-.1-.28v-.71l1.48-.21.4-2.73c.02-.1.07-.18.14-.24.07-.06.16-.09.27-.09h.89v3.07h2.59v1.28h-2.59v5.35c0,.36.09.63.27.81.18.18.4.27.68.27.16,0,.3-.02.42-.06.12-.04.22-.09.3-.14s.16-.1.22-.14c.06-.04.11-.06.16-.06.06,0,.11.01.14.04s.07.07.1.13l.52.85c-.29.26-.63.47-1.03.61-.4.14-.81.22-1.23.22Z" fill="#333e48"></path>
<path d="m268.47,52.04c-.22.25-.46.47-.75.65-.28.18-.58.33-.9.45-.32.12-.65.2-.99.25-.34.05-.67.08-1,.08-.63,0-1.21-.11-1.75-.32s-1-.52-1.4-.94c-.39-.41-.7-.92-.92-1.53-.22-.61-.33-1.31-.33-2.1,0-.64.1-1.23.3-1.78.2-.55.48-1.03.85-1.44.37-.41.82-.73,1.35-.96s1.13-.35,1.8-.35c.56,0,1.07.09,1.54.27.47.18.88.45,1.22.8.34.35.61.78.8,1.29.2.51.29,1.09.29,1.75,0,.27-.03.45-.09.54-.06.09-.17.14-.33.14h-5.99c.02.55.1,1.02.23,1.43.14.41.33.74.57,1.01s.53.47.87.6c.34.13.71.2,1.12.2.39,0,.73-.04,1.01-.13s.53-.19.74-.29c.21-.1.38-.2.52-.29s.27-.14.37-.14c.14,0,.25.05.33.16l.5.65Zm-1.45-4.28c0-.35-.05-.67-.15-.96-.1-.29-.25-.55-.44-.77-.19-.22-.43-.38-.7-.5s-.59-.18-.95-.18c-.74,0-1.32.21-1.74.64s-.69,1.02-.81,1.77h4.79Z" fill="#333e48"></path>
<path d="m271.28,53.35c-.16,0-.31-.03-.45-.09-.13-.06-.25-.14-.35-.25s-.18-.23-.23-.37c-.05-.14-.08-.3-.08-.47,0-.14.03-.28.08-.41s.13-.24.23-.34.22-.17.36-.23c.14-.06.29-.09.46-.09.19,0,.36.03.51.1.15.07.27.17.37.29.1.12.17.27.22.43s.07.34.07.52c0,.27-.04.56-.12.85-.08.3-.19.6-.34.89s-.34.58-.56.85c-.22.28-.47.53-.76.77l-.3-.28c-.09-.08-.13-.18-.13-.28,0-.04.01-.09.04-.13.03-.04.06-.09.1-.13.06-.07.14-.15.23-.26.1-.11.19-.23.28-.37.09-.14.18-.3.26-.47s.14-.35.18-.54h-.08Z" fill="#333e48"></path>
<path d="m182.25,74.95h-1.71c-.34,0-.59-.13-.75-.41l-3.2-4.48c-.1-.15-.21-.26-.33-.32-.12-.06-.3-.09-.54-.09h-1.25v5.3h-1.92v-12.92h3.73c.83,0,1.55.08,2.16.26.6.17,1.1.41,1.49.73.39.31.68.69.87,1.14.19.44.28.94.28,1.49,0,.45-.07.87-.21,1.27s-.34.75-.61,1.07c-.27.32-.59.59-.98.82-.38.23-.82.4-1.3.52.24.14.45.34.62.6l3.64,5.03Zm-6.03-6.7c.49,0,.93-.06,1.3-.18s.69-.29.94-.51c.25-.22.44-.48.57-.78s.19-.64.19-1c0-.74-.24-1.3-.73-1.68-.49-.38-1.22-.57-2.2-.57h-1.81v4.72h1.75Z" fill="#333e48"></path>
<path d="m185.59,62.98c0,.16-.03.32-.1.46-.07.15-.15.28-.27.39-.11.11-.24.2-.39.26-.15.06-.31.09-.47.09s-.31-.03-.46-.09c-.14-.06-.27-.15-.38-.26-.11-.11-.2-.24-.26-.39-.06-.15-.09-.3-.09-.46s.03-.33.09-.47c.06-.15.15-.28.26-.39.11-.11.24-.2.38-.26.14-.06.3-.09.46-.09s.32.03.47.09c.15.06.28.15.39.26.11.11.2.24.27.39.07.15.1.3.1.47Zm-.33,2.83v9.14h-1.75v-9.14h1.75Z" fill="#333e48"></path>
<path d="m194.21,67.52c-.05.07-.11.12-.16.16s-.12.06-.22.06-.2-.04-.3-.11c-.11-.07-.24-.16-.4-.24-.16-.09-.35-.17-.58-.24-.22-.08-.5-.11-.83-.11-.43,0-.81.08-1.14.23-.33.16-.6.38-.82.67-.22.29-.39.64-.5,1.05-.11.41-.17.88-.17,1.39s.06,1.01.18,1.43.29.77.51,1.05c.22.29.49.5.81.65.32.15.67.22,1.06.22s.69-.05.94-.14c.25-.09.45-.19.61-.3s.3-.21.41-.3c.11-.09.22-.14.33-.14.14,0,.25.05.33.16l.5.65c-.21.26-.45.48-.71.66-.26.18-.54.33-.83.44s-.6.2-.92.25c-.32.05-.65.08-.98.08-.57,0-1.1-.11-1.6-.31-.5-.21-.92-.52-1.29-.92-.36-.4-.65-.9-.86-1.48-.21-.59-.32-1.25-.32-1.99,0-.68.09-1.3.28-1.88.19-.58.47-1.07.84-1.49.37-.42.82-.74,1.36-.98.54-.24,1.16-.36,1.85-.36.65,0,1.23.11,1.73.31.5.21.94.51,1.33.89l-.47.65Z" fill="#333e48"></path>
<path d="m198.17,66.97c.38-.39.81-.71,1.27-.95.46-.24,1-.36,1.61-.36.5,0,.95.08,1.33.25s.7.4.96.71c.26.3.45.67.58,1.09.13.43.2.9.2,1.41v5.82h-1.76v-5.82c0-.65-.15-1.16-.45-1.53-.3-.36-.76-.54-1.38-.54-.45,0-.87.11-1.26.32-.39.21-.76.5-1.09.87v6.71h-1.75v-13.28h1.75v5.3Z" fill="#333e48"></path>
<path d="m223.43,68.49c0,.97-.15,1.85-.46,2.66-.31.81-.75,1.5-1.31,2.09-.56.58-1.24,1.04-2.03,1.36s-1.66.49-2.62.49-1.83-.16-2.61-.49-1.46-.78-2.03-1.36c-.56-.59-1-1.28-1.31-2.09-.31-.81-.47-1.69-.47-2.66s.16-1.85.47-2.66c.31-.81.75-1.51,1.31-2.09.56-.58,1.24-1.04,2.03-1.37.79-.33,1.66-.49,2.61-.49s1.83.16,2.62.49c.79.33,1.46.78,2.03,1.37.56.59,1,1.28,1.31,2.09.31.81.46,1.7.46,2.66Zm-1.96,0c0-.77-.1-1.46-.31-2.07-.21-.61-.51-1.13-.9-1.56-.39-.43-.86-.75-1.4-.98-.55-.23-1.16-.34-1.84-.34s-1.29.11-1.84.34c-.55.23-1.02.55-1.41.98-.39.43-.69.95-.9,1.56-.21.61-.32,1.3-.32,2.07s.11,1.46.32,2.07.51,1.13.9,1.55c.39.43.86.75,1.41.98.55.22,1.16.34,1.84.34s1.29-.11,1.84-.34,1.02-.55,1.4-.98c.39-.43.68-.94.9-1.55.21-.61.31-1.3.31-2.07Z" fill="#333e48"></path>
<path d="m232.52,64.13c-.06.1-.12.18-.19.22-.07.05-.15.07-.25.07s-.23-.05-.37-.15c-.14-.1-.31-.21-.52-.33s-.45-.23-.74-.33c-.29-.1-.63-.15-1.04-.15-.38,0-.71.05-.99.15-.29.1-.52.23-.72.4-.19.17-.34.37-.44.6-.1.23-.15.48-.15.75,0,.35.09.64.27.86s.41.42.7.58.62.3.98.42c.37.12.74.24,1.12.37.38.13.76.28,1.12.45.37.17.69.38.98.63.29.26.52.57.7.94.18.37.26.82.26,1.35,0,.57-.1,1.1-.29,1.6-.2.5-.48.93-.85,1.3-.37.37-.83.67-1.37.88-.54.21-1.16.32-1.85.32-.41,0-.82-.04-1.21-.12-.39-.08-.76-.2-1.11-.34s-.67-.32-.98-.53-.57-.44-.81-.7l.55-.92c.05-.07.12-.13.19-.18.08-.05.16-.07.26-.07.13,0,.27.07.44.2.17.13.37.28.61.44.24.16.53.3.87.44.34.13.75.2,1.24.2.4,0,.75-.05,1.06-.16.31-.11.58-.25.79-.45.21-.19.38-.43.49-.71.11-.28.17-.58.17-.92,0-.38-.09-.69-.26-.93s-.41-.44-.69-.6-.62-.3-.98-.41c-.37-.11-.74-.23-1.12-.36s-.76-.27-1.12-.43c-.37-.16-.69-.37-.98-.63-.29-.26-.52-.59-.69-.98-.17-.39-.26-.88-.26-1.45,0-.46.09-.91.27-1.34.18-.43.44-.81.79-1.15.34-.33.77-.6,1.27-.8s1.08-.3,1.73-.3c.73,0,1.39.12,2,.35.61.23,1.14.56,1.59.99l-.47.91Z" fill="#333e48"></path>
</g>
<rect fill="#fff" height="45" width="165" x="120" y="105"></rect>
<rect fill="#fff" height="45" width="165" x="120" y="165"></rect>
<text fill="#333e48" font-family="Lato" font-size="18" font-weight="500" transform="translate(190.38 134.14)"><tspan x="0" y="0">OS</tspan></text>
<text fill="#333e48" font-family="Lato" font-size="18" font-weight="500" transform="translate(157.57 194.14)"><tspan letter-spacing="0em" x="0" y="0">A</tspan><tspan x="12.23" y="0">pplic</tspan><tspan letter-spacing="0em" x="49.78" y="0">a</tspan><tspan x="58.65" y="0">tion</tspan></text>
<text fill="#333e48" font-family="Lato" font-size="18" font-weight="500" transform="translate(31.04 134.14)"><tspan x="0" y="0">NS.EL1</tspan></text>
<text fill="#333e48" font-family="Lato" font-size="18" font-weight="500" transform="translate(31.04 194.14)"><tspan x="0" y="0">NS.EL0</tspan></text>
<rect fill="#002b49" height="135" width="195" x="105" y="300"></rect>
<text fill="#333e48" font-family="Lato" font-size="18" font-weight="500" transform="translate(119.25 263.35)"><tspan letter-spacing="0em" x="0" y="0">S</tspan><tspan x="9.75" y="0">ecu</tspan><tspan letter-spacing="-.02em" x="37.95" y="0">r</tspan><tspan x="44.21" y="0">e </tspan><tspan letter-spacing="-.02em" x="58.28" y="0">S</tspan><tspan x="67.67" y="0">t</tspan><tspan letter-spacing="0em" x="74.19" y="0">a</tspan><tspan letter-spacing="0em" x="83.06" y="0">t</tspan><tspan x="89.52" y="0">e,</tspan><tspan letter-spacing="-.03em" x="103.18" y="0"> </tspan><tspan letter-spacing="-.11em" x="107.18" y="0">T</tspan><tspan x="115.92" y="0">rus</tspan><tspan letter-spacing="0em" x="140.4" y="0">t</tspan><tspan x="146.86" y="0">ed </tspan><tspan x="-8.85" y="21.6">E</tspan><tspan letter-spacing="-.02em" x="1.54" y="21.6">x</tspan><tspan x="10.21" y="21.6">ecution </tspan><tspan letter-spacing="-.01em" x="74.17" y="21.6">E</tspan><tspan letter-spacing="-.01em" x="84.32" y="21.6">n</tspan><tspan x="94.19" y="21.6">vi</tspan><tspan letter-spacing="-.02em" x="107.92" y="21.6">r</tspan><tspan x="114.17" y="21.6">onme</tspan><tspan letter-spacing="0em" x="158.89" y="21.6">n</tspan><tspan x="168.84" y="21.6">t</tspan></text>
<rect fill="#fff" height="45" width="165" x="120" y="315"></rect>
<rect fill="#fff" height="45" width="165" x="120" y="375"></rect>
<text fill="#333e48" font-family="Lato" font-size="18" font-weight="500" transform="translate(190.38 344.14)"><tspan x="0" y="0">OS</tspan></text>
<text fill="#333e48" font-family="Lato" font-size="18" font-weight="500" transform="translate(157.57 404.14)"><tspan letter-spacing="0em" x="0" y="0">A</tspan><tspan x="12.23" y="0">pplic</tspan><tspan letter-spacing="0em" x="49.78" y="0">a</tspan><tspan x="58.65" y="0">tion</tspan></text>
<text fill="#333e48" font-family="Lato" font-size="18" font-weight="500" transform="translate(37.93 344.14)"><tspan x="0" y="0">S.EL1</tspan></text>
<text fill="#333e48" font-family="Lato" font-size="18" font-weight="500" transform="translate(37.93 404.14)"><tspan x="0" y="0">S.EL0</tspan></text>
</svg>