<svg height="345" id="Layer_1" viewbox="0 0 870 345" width="870" xmlns="http://www.w3.org/2000/svg">
<rect fill="#002b49" height="120" width="510" x="180" y="195"></rect>
<g>
<path d="m363.77,223.59c0,1.27.16,2.51.48,3.72.32,1.21.78,2.35,1.39,3.43.1.2.13.35.08.46-.05.11-.12.19-.22.26l-.78.48c-.45-.69-.83-1.38-1.15-2.06-.32-.68-.57-1.36-.76-2.05-.2-.69-.34-1.38-.43-2.08-.09-.7-.13-1.42-.13-2.15s.04-1.46.13-2.16.23-1.4.43-2.08c.19-.69.45-1.37.76-2.05.31-.68.7-1.37,1.15-2.06l.78.48c.1.07.18.15.22.26s.02.26-.08.46c-.61,1.08-1.08,2.22-1.39,3.43-.32,1.21-.48,2.45-.48,3.72Z" fill="#fff"></path>
<path d="m375.18,227.58c.19,0,.34.06.45.17.11.11.16.26.16.44v1.06h-8.68v-.6c0-.12.02-.25.07-.38s.13-.26.24-.36l4.09-4.09c.34-.34.65-.67.93-.99.28-.32.51-.63.7-.95.19-.32.34-.64.45-.97.11-.33.16-.68.16-1.04s-.06-.68-.17-.95c-.11-.27-.27-.5-.47-.68-.2-.18-.43-.31-.7-.41-.27-.09-.56-.13-.87-.13s-.6.04-.86.13c-.26.09-.49.22-.7.38s-.38.35-.51.58c-.14.22-.24.46-.3.72-.08.23-.19.38-.32.46-.13.08-.32.1-.56.05l-.92-.16c.08-.6.25-1.13.5-1.58s.56-.84.93-1.15c.37-.31.8-.54,1.28-.7.48-.16,1-.23,1.56-.23s1.08.08,1.56.25c.48.16.89.4,1.24.71s.62.69.82,1.14c.2.45.3.95.3,1.52,0,.48-.07.93-.21,1.34-.14.41-.33.8-.58,1.17-.24.37-.52.73-.85,1.08-.32.35-.66.71-1.02,1.07l-3.28,3.35c.25-.07.51-.12.76-.16s.5-.06.72-.06h4.08Z" fill="#fff"></path>
<path d="m379.28,223.59c0-1.27-.16-2.51-.48-3.72-.32-1.21-.79-2.35-1.4-3.43-.1-.2-.13-.35-.08-.46.05-.11.13-.19.23-.26l.78-.48c.45.69.83,1.38,1.14,2.06.31.68.57,1.36.76,2.05.2.69.34,1.38.43,2.08.09.7.14,1.42.14,2.16s-.04,1.45-.14,2.15c-.09.7-.23,1.4-.43,2.08s-.45,1.37-.76,2.05c-.31.68-.69,1.37-1.14,2.06l-.78-.48c-.1-.07-.18-.15-.23-.26-.05-.11-.03-.26.08-.46.61-1.08,1.08-2.22,1.4-3.43.32-1.21.48-2.45.48-3.72Z" fill="#fff"></path>
<path d="m394.41,218.42c-.06.1-.12.18-.19.22-.07.05-.15.07-.25.07s-.23-.05-.37-.15c-.14-.1-.31-.21-.52-.33s-.45-.23-.74-.33-.63-.15-1.04-.15c-.38,0-.71.05-.99.15s-.52.23-.72.4c-.19.17-.34.37-.44.6-.1.23-.15.48-.15.75,0,.35.09.64.27.86.18.23.41.42.7.59s.62.3.98.42c.37.12.74.25,1.12.37.38.13.76.28,1.12.45.37.17.69.38.98.63s.52.57.7.94c.18.37.26.82.26,1.35,0,.57-.1,1.1-.29,1.6-.2.5-.48.93-.85,1.3s-.83.67-1.37.88c-.54.21-1.16.32-1.85.32-.41,0-.82-.04-1.21-.12-.39-.08-.76-.19-1.11-.34-.35-.15-.67-.32-.98-.53s-.57-.44-.81-.7l.55-.92c.05-.07.12-.13.19-.18.08-.05.16-.07.26-.07.13,0,.27.07.44.2s.37.28.61.44c.24.16.53.3.87.44s.75.2,1.24.2c.4,0,.75-.05,1.06-.16.31-.1.58-.25.79-.45s.38-.43.49-.71c.11-.28.17-.58.17-.92,0-.38-.09-.69-.26-.93-.17-.24-.41-.44-.69-.6s-.62-.3-.98-.41c-.37-.11-.74-.23-1.12-.36s-.76-.27-1.12-.43c-.37-.16-.69-.37-.98-.63-.29-.26-.52-.59-.69-.98-.17-.39-.26-.88-.26-1.45,0-.46.09-.91.27-1.34s.44-.81.79-1.15.77-.6,1.27-.8c.5-.2,1.08-.3,1.73-.3.73,0,1.39.12,2,.35.61.23,1.14.56,1.59,1l-.47.91Z" fill="#fff"></path>
<path d="m404.62,227.94c-.22.25-.46.47-.75.65-.28.18-.58.33-.9.45-.32.11-.65.2-.99.25-.34.05-.67.08-1,.08-.63,0-1.21-.11-1.75-.32s-1-.53-1.4-.94c-.39-.41-.7-.92-.92-1.53-.22-.61-.33-1.31-.33-2.1,0-.64.1-1.23.3-1.78s.48-1.03.85-1.44.82-.73,1.35-.96,1.13-.35,1.8-.35c.56,0,1.07.09,1.54.28.47.18.88.45,1.22.8.34.35.61.78.8,1.29.2.51.29,1.09.29,1.75,0,.27-.03.45-.09.54-.06.09-.17.14-.33.14h-5.99c.02.54.1,1.02.23,1.43.14.41.33.74.57,1.01s.53.47.87.6c.34.13.71.2,1.12.2.39,0,.73-.05,1.01-.14s.53-.19.74-.29c.21-.11.38-.2.52-.29s.27-.13.37-.13c.14,0,.25.05.33.16l.5.65Zm-1.45-4.28c0-.35-.05-.67-.15-.96-.1-.29-.25-.55-.44-.76-.19-.22-.43-.38-.7-.5s-.59-.18-.95-.18c-.74,0-1.32.21-1.74.64-.42.43-.69,1.02-.81,1.77h4.79Z" fill="#fff"></path>
<path d="m413.05,221.81c-.05.07-.11.12-.16.16s-.12.06-.22.06-.2-.04-.3-.11c-.11-.08-.24-.16-.4-.24-.16-.09-.35-.17-.58-.24-.22-.08-.5-.11-.83-.11-.43,0-.81.08-1.14.23s-.6.38-.82.67c-.22.29-.39.64-.5,1.05-.11.41-.17.88-.17,1.39s.06,1.01.18,1.43c.12.42.29.77.51,1.05s.49.5.81.65c.32.15.67.22,1.06.22s.69-.05.94-.14c.25-.09.45-.19.61-.3.16-.11.3-.21.41-.3.11-.09.22-.14.33-.14.14,0,.25.05.33.16l.5.65c-.21.26-.45.48-.71.66-.26.18-.54.33-.83.44-.29.11-.6.2-.92.25-.32.05-.65.08-.98.08-.57,0-1.1-.1-1.6-.31s-.92-.52-1.29-.92c-.36-.4-.65-.9-.86-1.48-.21-.58-.32-1.25-.32-1.99,0-.68.09-1.3.28-1.88.19-.58.47-1.07.84-1.49.37-.42.82-.74,1.36-.98.54-.24,1.16-.36,1.85-.36.65,0,1.23.11,1.73.32s.94.51,1.33.89l-.47.65Z" fill="#fff"></path>
<path d="m422.86,220.1v9.14h-1.05c-.24,0-.4-.12-.47-.35l-.13-.92c-.2.21-.41.4-.62.58-.22.17-.45.32-.69.45s-.51.22-.78.29c-.28.07-.57.1-.89.1-.5,0-.95-.08-1.33-.25-.38-.17-.7-.4-.96-.71s-.45-.67-.58-1.09-.2-.9-.2-1.41v-5.82h1.76v5.82c0,.65.15,1.16.45,1.53.3.36.76.54,1.38.54.45,0,.87-.11,1.26-.32.39-.21.76-.51,1.1-.88v-6.7h1.75Z" fill="#fff"></path>
<path d="m426.97,221.85c.29-.6.65-1.07,1.06-1.41s.91-.51,1.49-.51c.2,0,.38.02.56.07.18.04.33.11.46.2l-.12,1.32c-.04.16-.14.24-.3.24-.08,0-.21-.02-.38-.05s-.35-.05-.54-.05c-.28,0-.53.04-.75.12-.22.08-.41.2-.58.36-.17.16-.32.36-.45.59-.13.23-.26.49-.37.79v5.72h-1.75v-9.14h1.01c.19,0,.32.04.39.1.07.07.12.19.15.37l.11,1.29Z" fill="#fff"></path>
<path d="m439.08,227.94c-.22.25-.46.47-.75.65-.28.18-.58.33-.9.45-.32.11-.65.2-.99.25-.34.05-.67.08-1,.08-.63,0-1.21-.11-1.75-.32s-1-.53-1.4-.94c-.39-.41-.7-.92-.92-1.53-.22-.61-.33-1.31-.33-2.1,0-.64.1-1.23.3-1.78s.48-1.03.85-1.44.82-.73,1.35-.96,1.13-.35,1.8-.35c.56,0,1.07.09,1.54.28.47.18.88.45,1.22.8.34.35.61.78.8,1.29.2.51.29,1.09.29,1.75,0,.27-.03.45-.09.54-.06.09-.17.14-.33.14h-5.99c.02.54.1,1.02.23,1.43.14.41.33.74.57,1.01s.53.47.87.6c.34.13.71.2,1.12.2.39,0,.73-.05,1.01-.14s.53-.19.74-.29c.21-.11.38-.2.52-.29s.27-.13.37-.13c.14,0,.25.05.33.16l.5.65Zm-1.45-4.28c0-.35-.05-.67-.15-.96-.1-.29-.25-.55-.44-.76-.19-.22-.43-.38-.7-.5s-.59-.18-.95-.18c-.74,0-1.32.21-1.74.64-.42.43-.69,1.02-.81,1.77h4.79Z" fill="#fff"></path>
<path d="m459.6,216.32v12.92h-1.67v-9.2c0-.14,0-.28.01-.44,0-.16.02-.32.03-.48l-4.3,7.89c-.15.29-.38.44-.69.44h-.27c-.31,0-.54-.15-.68-.44l-4.38-7.92c.04.34.05.65.05.94v9.2h-1.68v-12.92h1.42c.17,0,.3.02.39.05s.18.12.27.27l4.32,7.74c.08.16.16.32.23.5.07.17.14.35.21.52.13-.35.27-.7.44-1.03l4.24-7.73c.08-.15.16-.24.26-.27.09-.03.22-.05.39-.05h1.42Z" fill="#fff"></path>
<path d="m466.05,219.95c.67,0,1.28.11,1.82.33.54.22,1,.53,1.39.94.38.41.67.91.88,1.49.2.58.31,1.23.31,1.95s-.1,1.37-.31,1.95-.5,1.08-.88,1.49c-.38.41-.84.72-1.39.94s-1.15.33-1.82.33-1.29-.11-1.83-.33-1.01-.53-1.39-.94c-.38-.41-.68-.9-.89-1.49s-.31-1.23-.31-1.95.1-1.37.31-1.95c.21-.58.5-1.07.89-1.49.38-.41.85-.72,1.39-.94.54-.22,1.15-.33,1.83-.33Zm0,8.05c.86,0,1.51-.29,1.94-.87.43-.58.64-1.4.64-2.46s-.21-1.88-.64-2.46c-.43-.58-1.07-.88-1.94-.88s-1.53.29-1.96.88c-.43.58-.64,1.41-.64,2.46s.21,1.88.64,2.46c.43.58,1.08.87,1.96.87Z" fill="#fff"></path>
<path d="m474.04,221.37c.2-.21.41-.4.62-.58s.45-.32.69-.45.5-.22.78-.29c.28-.07.58-.1.9-.1.5,0,.95.08,1.33.25s.7.4.96.71c.26.3.45.67.58,1.09s.2.9.2,1.41v5.82h-1.76v-5.82c0-.65-.15-1.16-.45-1.53-.3-.36-.76-.54-1.38-.54-.45,0-.87.11-1.26.32-.39.21-.76.5-1.09.87v6.71h-1.75v-9.14h1.05c.25,0,.4.12.46.35l.13.92Z" fill="#fff"></path>
<path d="m484.64,217.27c0,.16-.03.32-.1.46-.07.15-.15.28-.27.39-.11.11-.24.2-.39.26-.15.06-.31.09-.47.09s-.31-.03-.46-.09c-.14-.06-.27-.15-.38-.26-.11-.11-.2-.24-.26-.39-.06-.15-.09-.3-.09-.46s.03-.33.09-.47c.06-.15.15-.28.26-.39.11-.11.24-.2.38-.26.14-.06.3-.09.46-.09s.32.03.47.09c.15.06.28.15.39.26.11.11.2.24.27.39.07.15.1.3.1.47Zm-.33,2.83v9.14h-1.75v-9.14h1.75Z" fill="#fff"></path>
<path d="m489.71,229.39c-.74,0-1.31-.21-1.71-.62-.4-.41-.6-1-.6-1.77v-5.47h-1.06c-.1,0-.19-.03-.26-.09-.07-.06-.1-.16-.1-.28v-.71l1.48-.21.4-2.73c.02-.1.07-.18.14-.24.07-.06.16-.08.27-.08h.89v3.07h2.59v1.28h-2.59v5.36c0,.36.09.63.27.8.18.18.4.27.68.27.16,0,.3-.02.42-.06.12-.04.22-.09.3-.14.08-.05.16-.1.22-.14.06-.04.11-.06.16-.06.06,0,.11.01.14.04.03.03.07.07.1.13l.52.85c-.29.26-.63.47-1.03.61-.4.14-.81.22-1.23.22Z" fill="#fff"></path>
<path d="m497.21,219.95c.67,0,1.28.11,1.82.33.54.22,1,.53,1.39.94.38.41.67.91.88,1.49.2.58.31,1.23.31,1.95s-.1,1.37-.31,1.95-.5,1.08-.88,1.49c-.38.41-.84.72-1.39.94s-1.15.33-1.82.33-1.29-.11-1.83-.33-1.01-.53-1.39-.94c-.38-.41-.68-.9-.89-1.49s-.31-1.23-.31-1.95.1-1.37.31-1.95c.21-.58.5-1.07.89-1.49.38-.41.85-.72,1.39-.94.54-.22,1.15-.33,1.83-.33Zm0,8.05c.86,0,1.51-.29,1.94-.87.43-.58.64-1.4.64-2.46s-.21-1.88-.64-2.46c-.43-.58-1.07-.88-1.94-.88s-1.53.29-1.96.88c-.43.58-.64,1.41-.64,2.46s.21,1.88.64,2.46c.43.58,1.08.87,1.96.87Z" fill="#fff"></path>
<path d="m505.21,221.85c.29-.6.65-1.07,1.06-1.41s.91-.51,1.49-.51c.2,0,.38.02.56.07.18.04.33.11.46.2l-.12,1.32c-.04.16-.14.24-.3.24-.08,0-.21-.02-.38-.05s-.35-.05-.54-.05c-.28,0-.53.04-.75.12-.22.08-.41.2-.58.36-.17.16-.32.36-.45.59-.13.23-.26.49-.37.79v5.72h-1.75v-9.14h1.01c.19,0,.32.04.39.1.07.07.12.19.15.37l.11,1.29Z" fill="#fff"></path>
<path d="m336.36,245.24c0,.6-.21,1.12-.64,1.54-.43.43-.94.64-1.54.64s-1.11-.21-1.53-.64c-.43-.42-.64-.94-.64-1.54s.21-1.11.64-1.53.94-.64,1.53-.64,1.12.21,1.54.64c.42.43.64.94.64,1.53Z" fill="#fff"></path>
<path d="m354.83,241.3v-.25c0-.18.03-.3.1-.38s.16-.11.27-.11.2.04.27.11c.07.08.1.2.1.38v1.88c0,.18-.03.3-.1.38-.07.08-.16.11-.27.11-.11,0-.19-.04-.26-.11-.07-.07-.1-.18-.11-.34-.03-.49-.28-.93-.76-1.33s-1.1-.59-1.88-.59c-.81,0-1.46.21-1.94.63-.48.42-.72.91-.72,1.48,0,.29.07.56.2.8s.31.44.54.58c.22.15.47.27.76.36.28.09.72.19,1.32.29,1,.16,1.69.33,2.07.5.51.23.89.54,1.16.95.26.4.39.88.39,1.43,0,.84-.34,1.56-1.01,2.16-.67.59-1.58.89-2.72.89-1.28,0-2.31-.4-3.08-1.2v.42c0,.18-.03.3-.1.38-.07.08-.16.11-.27.11-.11,0-.19-.04-.26-.11s-.11-.2-.11-.38v-2.04c0-.18.03-.31.1-.39s.16-.11.27-.11c.11,0,.19.04.26.11s.1.18.11.34c.03.54.32,1.03.87,1.47.55.44,1.28.66,2.21.66s1.66-.23,2.19-.69c.54-.46.8-1.01.8-1.64,0-.39-.1-.73-.31-1.03-.21-.3-.51-.54-.91-.72-.28-.12-.87-.26-1.76-.41-1.22-.21-2.11-.52-2.65-.94s-.81-1.02-.81-1.8.31-1.44.93-2c.62-.56,1.43-.83,2.45-.83s1.92.33,2.66.98Z" fill="#fff"></path>
<path d="m366.23,241.57v-.52c0-.18.03-.3.1-.38.07-.08.16-.11.27-.11s.2.04.27.11.1.2.1.38v2.05c0,.18-.03.31-.1.39s-.16.11-.27.11c-.1,0-.18-.04-.25-.11-.07-.07-.11-.18-.12-.34-.03-.49-.3-.93-.8-1.31-.68-.52-1.45-.78-2.32-.78-.57,0-1.1.13-1.61.38-.38.18-.67.4-.9.67-.39.46-.69.96-.92,1.52-.16.41-.25.87-.25,1.39v1.29c0,1.1.4,2.06,1.2,2.87.8.81,1.72,1.22,2.78,1.22.63,0,1.2-.14,1.7-.41.5-.28.99-.69,1.46-1.25.1-.12.21-.18.33-.18.11,0,.19.03.25.1s.1.15.1.25c0,.13-.13.34-.38.62-.48.54-1.02.95-1.62,1.22-.6.27-1.21.41-1.82.41-.53,0-1.08-.1-1.63-.31-.42-.16-.77-.34-1.05-.55s-.61-.57-1.01-1.07c-.4-.5-.68-.96-.82-1.39-.15-.43-.22-.89-.22-1.4v-1.5c0-.73.19-1.47.58-2.23.39-.76.92-1.34,1.6-1.75.68-.41,1.41-.61,2.2-.61,1.22,0,2.27.42,3.15,1.25Z" fill="#fff"></path>
<path d="m371.38,246.25v3.85h1.36c.18,0,.31.03.39.1.08.07.11.16.11.27,0,.11-.04.19-.11.26s-.21.11-.39.11h-3.09c-.18,0-.3-.04-.38-.11s-.11-.16-.11-.26c0-.11.04-.2.11-.27.08-.07.2-.1.38-.1h.99v-8.81h-.99c-.18,0-.3-.03-.38-.1-.08-.07-.11-.16-.11-.27s.04-.2.11-.27c.08-.07.2-.1.38-.1h4.46c.92,0,1.69.29,2.32.88.63.58.95,1.24.95,1.97,0,.53-.2,1.02-.58,1.49-.39.46-1.04.85-1.96,1.16.53.36.98.77,1.35,1.23s.98,1.39,1.8,2.81h.56c.18,0,.3.03.38.1.08.07.11.16.11.27,0,.11-.04.19-.11.26s-.2.11-.38.11h-.98c-.91-1.63-1.62-2.73-2.12-3.29-.5-.56-1.08-.99-1.73-1.3h-2.35Zm0-.74h2.01c.64,0,1.23-.12,1.75-.35.52-.23.9-.51,1.14-.83.24-.32.36-.64.36-.97,0-.49-.25-.96-.74-1.41-.5-.45-1.1-.67-1.81-.67h-2.72v4.22Z" fill="#fff"></path>
<path d="m389.5,255.77h-9.82c-.18,0-.3-.03-.38-.1-.08-.07-.11-.16-.11-.27s.04-.2.11-.27c.08-.07.2-.1.38-.1h9.82c.18,0,.31.03.38.1.07.07.11.16.11.27s-.04.2-.11.27c-.07.07-.2.1-.38.1Z" fill="#fff"></path>
<path d="m392.99,245.88v4.23h5.68v-2.18c0-.18.03-.3.1-.38s.16-.11.27-.11.2.04.27.11c.07.08.1.2.1.38v2.92h-8.15c-.18,0-.3-.04-.38-.11s-.11-.16-.11-.26c0-.11.04-.2.11-.27.08-.07.2-.1.38-.1h.99v-8.81h-.99c-.18,0-.3-.03-.38-.1-.08-.07-.11-.16-.11-.27s.04-.2.11-.27c.08-.07.2-.1.38-.1h7.76v2.54c0,.18-.03.3-.1.38-.07.08-.16.11-.27.11s-.2-.04-.27-.11-.1-.2-.1-.38v-1.8h-5.29v3.84h2.65v-.83c0-.18.04-.3.11-.38s.16-.11.27-.11c.11,0,.19.04.26.11s.11.2.11.38v2.41c0,.18-.04.3-.11.38s-.16.11-.26.11c-.11,0-.2-.04-.27-.11s-.11-.2-.11-.38v-.83h-2.65Z" fill="#fff"></path>
<path d="m404.92,241.3v8.81h4.9v-2.94c0-.18.04-.3.11-.38s.16-.11.27-.11c.11,0,.19.04.26.11.07.07.11.2.11.38v3.67h-8.16c-.18,0-.3-.04-.38-.11s-.11-.16-.11-.26c0-.11.04-.2.11-.27.08-.07.2-.1.38-.1h1.76v-8.81h-1.76c-.18,0-.3-.03-.38-.1-.08-.07-.11-.16-.11-.27s.04-.2.11-.27c.08-.07.2-.1.38-.1h4.26c.18,0,.3.03.38.1.08.07.11.16.11.27s-.04.2-.11.27c-.08.07-.2.1-.38.1h-1.76Z" fill="#fff"></path>
<path d="m418.51,244.84c.68.3,1.2.72,1.56,1.25.36.53.54,1.08.54,1.66,0,.88-.36,1.67-1.08,2.34-.72.68-1.62,1.02-2.69,1.02-.63,0-1.29-.13-1.97-.4s-1.15-.54-1.42-.83c-.09-.09-.13-.19-.13-.3,0-.09.03-.18.1-.25s.15-.11.24-.11.2.04.32.13c.91.67,1.87,1.01,2.88,1.01.86,0,1.57-.27,2.15-.8.58-.54.87-1.13.87-1.79,0-.44-.14-.87-.43-1.29s-.69-.75-1.23-1c-.53-.24-1.07-.36-1.62-.36-.18,0-.3-.03-.38-.1-.08-.07-.11-.16-.11-.27,0-.11.04-.19.11-.26.07-.07.18-.11.33-.11h.63c.66,0,1.21-.19,1.64-.6.43-.4.65-.87.65-1.41s-.23-1.04-.68-1.46-1.04-.63-1.77-.63c-.51,0-.98.09-1.41.26s-.77.42-1.03.72c-.09.12-.17.19-.21.22-.05.03-.11.04-.17.04-.1,0-.18-.03-.25-.1-.07-.07-.11-.15-.11-.24,0-.23.25-.53.76-.89.71-.5,1.51-.75,2.42-.75s1.7.28,2.29.84c.6.56.9,1.23.9,2,0,.49-.14.96-.43,1.4s-.71.79-1.27,1.05Z" fill="#fff"></path>
<path d="m427.64,248.72h.32c.33,0,.61.12.84.35.23.23.35.51.35.84s-.12.62-.36.85c-.24.23-.52.34-.84.34h-.32c-.33,0-.61-.12-.84-.35-.23-.23-.35-.51-.35-.84s.12-.62.36-.85c.24-.23.52-.34.84-.34Z" fill="#fff"></path>
<path d="m442.22,250.84h-.95l-5.44-9.2v8.46h1.36c.18,0,.31.03.39.1.08.07.11.16.11.27,0,.11-.04.19-.11.26s-.21.11-.39.11h-2.72c-.18,0-.31-.04-.39-.11s-.11-.16-.11-.26c0-.11.04-.2.11-.27.08-.07.21-.1.39-.1h.62v-8.81h-.99c-.18,0-.3-.03-.38-.1-.08-.07-.11-.16-.11-.27s.04-.2.11-.27c.08-.07.2-.1.38-.1h1.93l5.45,9.22v-8.48h-1.36c-.18,0-.3-.03-.38-.1-.08-.07-.11-.16-.11-.27s.04-.2.11-.27c.07-.07.2-.1.38-.1h2.72c.18,0,.3.03.38.1.08.07.11.16.11.27s-.04.2-.11.27c-.08.07-.2.1-.38.1h-.62v9.54Z" fill="#fff"></path>
<path d="m452.04,241.3v-.25c0-.18.03-.3.1-.38s.16-.11.27-.11.2.04.27.11c.07.08.1.2.1.38v1.88c0,.18-.03.3-.1.38-.07.08-.16.11-.27.11-.11,0-.19-.04-.26-.11-.07-.07-.1-.18-.11-.34-.03-.49-.28-.93-.76-1.33s-1.1-.59-1.88-.59c-.81,0-1.46.21-1.94.63-.48.42-.72.91-.72,1.48,0,.29.07.56.2.8s.31.44.54.58c.22.15.47.27.76.36.28.09.72.19,1.32.29,1,.16,1.69.33,2.07.5.51.23.89.54,1.16.95.26.4.39.88.39,1.43,0,.84-.34,1.56-1.01,2.16-.67.59-1.58.89-2.72.89-1.28,0-2.31-.4-3.08-1.2v.42c0,.18-.03.3-.1.38-.07.08-.16.11-.27.11-.11,0-.19-.04-.26-.11s-.11-.2-.11-.38v-2.04c0-.18.03-.31.1-.39s.16-.11.27-.11c.11,0,.19.04.26.11s.1.18.11.34c.03.54.32,1.03.87,1.47.55.44,1.28.66,2.21.66s1.66-.23,2.19-.69c.54-.46.8-1.01.8-1.64,0-.39-.1-.73-.31-1.03-.21-.3-.51-.54-.91-.72-.28-.12-.87-.26-1.76-.41-1.22-.21-2.11-.52-2.65-.94s-.81-1.02-.81-1.8.31-1.44.93-2c.62-.56,1.43-.83,2.45-.83s1.92.33,2.66.98Z" fill="#fff"></path>
<path d="m460.05,243.23h.32c.33,0,.61.12.84.35s.35.51.35.83c0,.35-.12.63-.36.86-.24.23-.52.34-.84.34h-.32c-.33,0-.61-.12-.84-.35s-.35-.51-.35-.83c0-.35.12-.63.36-.86.24-.23.52-.34.84-.34Zm0,5.49h.32c.33,0,.61.12.84.35.23.23.35.51.35.84s-.12.62-.36.85c-.24.23-.52.34-.84.34h-.32c-.33,0-.61-.12-.84-.35-.23-.23-.35-.51-.35-.84s.12-.62.36-.85c.24-.23.52-.34.84-.34Z" fill="#fff"></path>
<path d="m482.17,239.66v10.44h2.53c.18,0,.3.03.38.1.08.07.11.16.11.27,0,.11-.04.19-.11.26s-.2.11-.38.11h-5.8c-.18,0-.3-.04-.38-.11s-.11-.16-.11-.26c0-.11.04-.2.11-.27.08-.07.2-.1.38-.1h2.53v-9.42l-2.41.76c-.12.04-.2.05-.25.05-.09,0-.17-.04-.24-.11s-.11-.16-.11-.26c0-.09.03-.17.09-.25.05-.05.14-.1.29-.15l3.38-1.06Z" fill="#fff"></path>
<path d="m539.2,244.42v1.83c0,1.59-.38,2.84-1.13,3.77-.59.73-1.34,1.09-2.24,1.09-.43,0-.84-.09-1.23-.26-.38-.17-.71-.41-.98-.72-.17-.19-.36-.5-.56-.93-.2-.43-.35-.82-.44-1.18-.13-.5-.2-1.09-.2-1.77v-1.83c0-1.59.38-2.85,1.13-3.78.59-.73,1.34-1.09,2.24-1.09.44,0,.85.09,1.23.26.38.17.71.42.98.73.18.2.36.51.56.94s.35.82.44,1.17c.13.5.19,1.1.19,1.78Zm-.74.1c0-.7-.1-1.35-.29-1.95-.2-.6-.42-1.08-.66-1.44-.15-.21-.34-.38-.57-.53-.33-.21-.71-.31-1.12-.31-.83,0-1.47.42-1.94,1.27s-.7,1.83-.7,2.95v1.63c0,.7.1,1.35.29,1.95s.42,1.08.67,1.44c.14.2.33.37.56.52.33.21.71.32,1.13.32.82,0,1.46-.42,1.93-1.27.47-.85.7-1.83.7-2.96v-1.63Z" fill="#fff"></path>
<path d="m271.55,266.84c0,.6-.21,1.12-.64,1.54s-.94.64-1.54.64-1.11-.21-1.53-.64c-.43-.42-.64-.94-.64-1.54s.21-1.11.64-1.53c.42-.42.94-.64,1.53-.64s1.12.21,1.54.64c.42.42.64.94.64,1.53Z" fill="#fff"></path>
<path d="m290.02,262.9v-.25c0-.18.03-.3.1-.38s.16-.12.27-.12.2.04.27.12c.07.08.1.2.1.38v1.88c0,.18-.03.3-.1.38-.07.08-.16.11-.27.11-.11,0-.19-.04-.26-.11-.07-.07-.1-.18-.11-.34-.03-.49-.28-.94-.76-1.33s-1.1-.59-1.88-.59c-.81,0-1.46.21-1.94.63s-.72.91-.72,1.48c0,.29.07.56.2.8s.31.44.54.58.47.27.76.36.72.19,1.32.29c1,.16,1.69.33,2.07.5.51.23.89.54,1.16.95.26.4.39.88.39,1.43,0,.84-.34,1.56-1.01,2.16s-1.58.89-2.72.89c-1.28,0-2.31-.4-3.08-1.21v.42c0,.18-.03.3-.1.38-.07.08-.16.11-.27.11-.11,0-.19-.04-.26-.11s-.11-.2-.11-.38v-2.04c0-.18.03-.31.1-.39s.16-.11.27-.11c.11,0,.19.04.26.11s.1.18.11.34c.03.54.32,1.03.87,1.47.55.44,1.28.66,2.21.66s1.66-.23,2.19-.7c.54-.46.8-1.01.8-1.64,0-.39-.1-.73-.31-1.03s-.51-.54-.91-.72c-.28-.12-.87-.26-1.76-.41-1.22-.21-2.11-.52-2.65-.94s-.81-1.02-.81-1.8.31-1.44.93-2c.62-.56,1.43-.83,2.45-.83s1.92.32,2.66.97Z" fill="#fff"></path>
<path d="m300.3,272.44v-1.06c-1.07.9-2.22,1.35-3.44,1.35-.88,0-1.58-.22-2.07-.67s-.75-1-.75-1.65c0-.71.33-1.34.98-1.87s1.61-.8,2.87-.8c.34,0,.71.02,1.11.07s.83.11,1.29.21v-1.2c0-.4-.19-.76-.56-1.05s-.94-.45-1.69-.45c-.57,0-1.38.17-2.42.5-.19.06-.31.09-.36.09-.09,0-.17-.04-.24-.11s-.1-.16-.1-.26c0-.1.03-.18.09-.24.08-.09.41-.21.99-.36.91-.25,1.61-.37,2.07-.37.93,0,1.66.23,2.18.69s.78.98.78,1.56v4.89h.98c.18,0,.31.03.39.1s.11.16.11.27c0,.11-.04.19-.11.26s-.21.11-.39.11h-1.73Zm0-3.67c-.35-.1-.71-.17-1.1-.22s-.79-.07-1.22-.07c-1.07,0-1.91.23-2.51.69-.46.35-.69.76-.69,1.24,0,.45.17.82.52,1.12.35.3.86.46,1.52.46s1.23-.13,1.78-.38c.55-.25,1.11-.66,1.69-1.22v-1.63Z" fill="#fff"></path>
<path d="m309.62,272.44h-1.25l-3.03-6.86h-.76c-.18,0-.3-.04-.38-.11s-.11-.16-.11-.27c0-.11.04-.19.11-.26s.2-.11.38-.11h2.77c.18,0,.3.04.38.11s.11.16.11.27c0,.11-.04.19-.11.26s-.2.11-.38.11h-1.22l2.71,6.12h.33l2.65-6.12h-1.23c-.18,0-.3-.04-.38-.11s-.11-.16-.11-.27c0-.11.04-.19.11-.26s.2-.11.38-.11h2.78c.18,0,.31.04.38.11.07.07.11.16.11.27,0,.11-.04.19-.11.26-.07.07-.2.11-.38.11h-.75l-3,6.86Z" fill="#fff"></path>
<path d="m323.77,268.81h-7.52c.13.96.53,1.72,1.2,2.31.67.58,1.5.88,2.49.88.55,0,1.13-.09,1.73-.27s1.1-.42,1.48-.72c.11-.09.21-.13.29-.13.09,0,.18.04.25.11s.11.16.11.26-.05.2-.14.29c-.28.29-.78.57-1.5.82s-1.45.38-2.21.38c-1.27,0-2.32-.42-3.17-1.24s-1.27-1.83-1.27-3.01c0-1.07.4-1.99,1.19-2.76.79-.77,1.78-1.15,2.95-1.15s2.2.39,2.98,1.18,1.16,1.81,1.15,3.06Zm-.75-.75c-.15-.81-.53-1.48-1.16-1.99-.62-.51-1.37-.76-2.23-.76s-1.6.25-2.22.76-1.01,1.17-1.16,1.99h6.77Z" fill="#fff"></path>
<path d="m345,272.44h-.95l-5.44-9.2v8.46h1.36c.18,0,.31.03.39.1s.11.16.11.27c0,.11-.04.19-.11.26s-.21.11-.39.11h-2.72c-.18,0-.31-.04-.39-.11s-.11-.16-.11-.26c0-.11.04-.2.11-.27s.21-.1.39-.1h.62v-8.81h-.99c-.18,0-.3-.03-.38-.1s-.11-.16-.11-.27.04-.2.11-.27.2-.1.38-.1h1.93l5.45,9.22v-8.48h-1.36c-.18,0-.3-.03-.38-.1s-.11-.16-.11-.27.04-.2.11-.27c.07-.07.2-.1.38-.1h2.72c.18,0,.3.03.38.1s.11.16.11.27-.04.2-.11.27-.2.1-.38.1h-.62v9.54Z" fill="#fff"></path>
<path d="m356.31,268.65c0,1.12-.4,2.09-1.21,2.88s-1.78,1.2-2.91,1.2-2.12-.4-2.93-1.2-1.2-1.76-1.2-2.88.4-2.09,1.2-2.89,1.78-1.2,2.93-1.2,2.11.4,2.91,1.2,1.21,1.76,1.21,2.89Zm-.75,0c0-.93-.33-1.71-.99-2.37-.66-.65-1.46-.97-2.39-.97s-1.74.33-2.39.98c-.66.65-.99,1.44-.99,2.36s.33,1.7.99,2.36c.66.66,1.46.98,2.39.98s1.74-.33,2.39-.98c.66-.65.99-1.44.99-2.36Z" fill="#fff"></path>
<path d="m360.6,264.83v1.12c.52-.52.98-.88,1.4-1.08s.88-.3,1.41-.3c.56,0,1.08.12,1.54.36.33.18.62.47.89.87s.4.83.4,1.25v4.65h.62c.18,0,.3.03.38.1s.11.16.11.27c0,.11-.04.19-.11.26s-.2.11-.38.11h-1.98c-.18,0-.31-.04-.39-.11s-.11-.16-.11-.26c0-.11.04-.2.11-.27s.21-.1.39-.1h.62v-4.53c0-.52-.19-.96-.57-1.32s-.89-.54-1.53-.54c-.49,0-.91.1-1.27.29s-.87.68-1.53,1.46v4.63h.83c.18,0,.3.03.38.1s.11.16.11.27c0,.11-.04.19-.11.26s-.2.11-.38.11h-2.41c-.18,0-.3-.04-.38-.11s-.11-.16-.11-.26c0-.11.04-.2.11-.27s.2-.1.38-.1h.83v-6.12h-.62c-.18,0-.3-.04-.38-.11s-.11-.16-.11-.27c0-.11.04-.19.11-.26s.2-.11.38-.11h1.36Z" fill="#fff"></path>
<path d="m377.55,266.83v1.05h-7.53v-1.05h7.53Z" fill="#fff"></path>
<path d="m387.03,265.31c0-.17.04-.29.11-.37s.16-.12.26-.12c.11,0,.2.04.27.12s.11.21.11.39v1.27c0,.18-.04.3-.11.38s-.16.12-.27.12c-.1,0-.18-.03-.25-.1-.07-.06-.11-.17-.12-.32-.04-.35-.22-.64-.54-.87-.48-.33-1.12-.49-1.91-.49s-1.47.17-1.92.5c-.35.25-.52.53-.52.84,0,.35.21.64.62.88.28.16.81.29,1.6.38,1.03.11,1.74.24,2.14.38.57.21.99.49,1.27.85s.42.76.42,1.18c0,.63-.3,1.18-.91,1.67s-1.49.73-2.65.73-2.12-.3-2.87-.89c0,.2-.01.33-.04.39s-.07.11-.13.15c-.06.04-.13.06-.21.06-.11,0-.19-.04-.26-.11s-.11-.2-.11-.38v-1.52c0-.18.03-.3.1-.38s.16-.11.27-.11c.11,0,.19.04.27.11.07.07.11.17.11.29,0,.27.07.49.2.68.21.28.53.51.98.7.45.18,1,.28,1.65.28.96,0,1.68-.18,2.14-.54s.7-.73.7-1.13c0-.46-.24-.82-.71-1.1-.48-.28-1.18-.46-2.1-.55s-1.57-.22-1.97-.37-.71-.38-.93-.69-.33-.63-.33-.98c0-.63.31-1.14.93-1.51s1.36-.56,2.22-.56c1.02,0,1.85.25,2.49.75Z" fill="#fff"></path>
<path d="m399.39,268.81h-7.52c.13.96.53,1.72,1.2,2.31.67.58,1.5.88,2.49.88.55,0,1.13-.09,1.73-.27s1.1-.42,1.48-.72c.11-.09.21-.13.29-.13.09,0,.18.04.25.11s.11.16.11.26-.05.2-.14.29c-.28.29-.78.57-1.5.82s-1.45.38-2.21.38c-1.27,0-2.32-.42-3.17-1.24s-1.27-1.83-1.27-3.01c0-1.07.4-1.99,1.19-2.76.79-.77,1.78-1.15,2.95-1.15s2.2.39,2.98,1.18,1.16,1.81,1.15,3.06Zm-.75-.75c-.15-.81-.53-1.48-1.16-1.99-.62-.51-1.37-.76-2.23-.76s-1.6.25-2.22.76-1.01,1.17-1.16,1.99h6.77Z" fill="#fff"></path>
<path d="m409.27,265.58v-.25c0-.18.04-.31.11-.39s.16-.12.26-.12c.11,0,.2.04.27.12s.11.21.11.39v1.67c0,.18-.04.31-.11.39-.07.08-.16.11-.27.11-.1,0-.18-.03-.25-.1s-.11-.18-.12-.34c-.04-.42-.31-.81-.82-1.19-.51-.38-1.2-.56-2.07-.56-1.1,0-1.93.34-2.5,1.03s-.85,1.47-.85,2.36c0,.96.31,1.74.94,2.37s1.44.93,2.43.93c.57,0,1.16-.11,1.75-.32s1.13-.55,1.61-1.02c.12-.12.23-.18.33-.18.1,0,.18.03.25.1.07.07.1.15.1.25,0,.25-.3.57-.89.96-.96.63-2.02.94-3.19.94s-2.17-.38-2.93-1.14c-.77-.76-1.15-1.72-1.15-2.89s.39-2.18,1.17-2.96c.78-.79,1.77-1.18,2.96-1.18s2.08.34,2.85,1.01Z" fill="#fff"></path>
<path d="m419.52,272.44v-1.08c-1.01.91-2.1,1.37-3.27,1.37-.72,0-1.27-.2-1.64-.59-.49-.52-.73-1.12-.73-1.8v-4.76h-.99c-.18,0-.3-.04-.38-.11s-.11-.16-.11-.27c0-.11.04-.19.11-.26s.2-.11.38-.11h1.73v5.51c0,.48.15.88.46,1.19s.69.47,1.14.47c1.2,0,2.3-.55,3.3-1.65v-4.76h-1.36c-.18,0-.3-.04-.38-.11s-.11-.16-.11-.27c0-.11.04-.19.11-.26s.2-.11.38-.11h2.1v6.87h.62c.18,0,.3.03.38.1s.11.16.11.27c0,.11-.04.19-.11.26s-.2.11-.38.11h-1.36Z" fill="#fff"></path>
<path d="m426.91,264.83v1.86c.96-.87,1.68-1.42,2.16-1.67.48-.25.92-.37,1.32-.37.44,0,.85.15,1.23.44.38.3.57.52.57.67,0,.11-.04.2-.11.28-.07.07-.17.11-.28.11-.06,0-.11,0-.15-.03s-.12-.09-.23-.2c-.21-.21-.38-.35-.54-.42s-.3-.11-.45-.11c-.32,0-.71.13-1.17.39s-1.24.89-2.36,1.89v4.04h3.27c.18,0,.31.03.39.1s.11.16.11.27c0,.11-.04.19-.11.26s-.21.11-.39.11h-5.79c-.18,0-.3-.03-.38-.1s-.11-.15-.11-.26c0-.1.04-.18.11-.25.07-.07.2-.1.38-.1h1.78v-6.15h-1.36c-.18,0-.3-.04-.38-.11s-.11-.16-.11-.27c0-.11.04-.19.11-.26.07-.07.2-.11.38-.11h2.1Z" fill="#fff"></path>
<path d="m442.59,268.81h-7.52c.13.96.53,1.72,1.2,2.31.67.58,1.5.88,2.49.88.55,0,1.13-.09,1.73-.27s1.1-.42,1.48-.72c.11-.09.21-.13.29-.13.09,0,.18.04.25.11s.11.16.11.26-.05.2-.14.29c-.28.29-.78.57-1.5.82s-1.45.38-2.21.38c-1.27,0-2.32-.42-3.17-1.24s-1.27-1.83-1.27-3.01c0-1.07.4-1.99,1.19-2.76.79-.77,1.78-1.15,2.95-1.15s2.2.39,2.98,1.18,1.16,1.81,1.15,3.06Zm-.75-.75c-.15-.81-.53-1.48-1.16-1.99-.62-.51-1.37-.76-2.23-.76s-1.6.25-2.22.76-1.01,1.17-1.16,1.99h6.77Z" fill="#fff"></path>
<path d="m459.32,264.83v1.86c.96-.87,1.68-1.42,2.16-1.67.48-.25.92-.37,1.32-.37.44,0,.85.15,1.23.44.38.3.57.52.57.67,0,.11-.04.2-.11.28-.07.07-.17.11-.28.11-.06,0-.11,0-.15-.03s-.12-.09-.23-.2c-.21-.21-.38-.35-.54-.42s-.3-.11-.45-.11c-.32,0-.71.13-1.17.39s-1.24.89-2.36,1.89v4.04h3.27c.18,0,.31.03.39.1s.11.16.11.27c0,.11-.04.19-.11.26s-.21.11-.39.11h-5.79c-.18,0-.3-.03-.38-.1s-.11-.15-.11-.26c0-.1.04-.18.11-.25.07-.07.2-.1.38-.1h1.78v-6.15h-1.36c-.18,0-.3-.04-.38-.11s-.11-.16-.11-.27c0-.11.04-.19.11-.26.07-.07.2-.11.38-.11h2.1Z" fill="#fff"></path>
<path d="m475,268.81h-7.52c.13.96.53,1.72,1.2,2.31.67.58,1.5.88,2.49.88.55,0,1.13-.09,1.73-.27s1.1-.42,1.48-.72c.11-.09.21-.13.29-.13.09,0,.18.04.25.11s.11.16.11.26-.05.2-.14.29c-.28.29-.78.57-1.5.82s-1.45.38-2.21.38c-1.27,0-2.32-.42-3.17-1.24s-1.27-1.83-1.27-3.01c0-1.07.4-1.99,1.19-2.76.79-.77,1.78-1.15,2.95-1.15s2.2.39,2.98,1.18,1.16,1.81,1.15,3.06Zm-.75-.75c-.15-.81-.53-1.48-1.16-1.99-.62-.51-1.37-.76-2.23-.76s-1.6.25-2.22.76-1.01,1.17-1.16,1.99h6.77Z" fill="#fff"></path>
<path d="m484.29,266.18v-1.35h1.73c.18,0,.3.04.38.11s.11.16.11.27c0,.11-.04.19-.11.26s-.2.11-.38.11h-.99v7.37c0,.49-.11.93-.32,1.32-.14.26-.38.53-.7.8s-.63.47-.9.59-.63.18-1.08.18h-2.09c-.18,0-.3-.03-.38-.1s-.11-.16-.11-.27.04-.2.11-.27.2-.11.38-.11h2.12c.43,0,.82-.1,1.17-.33s.64-.55.87-.97c.13-.25.19-.56.19-.94v-2.21c-.79,1.08-1.81,1.63-3.06,1.63-1.01,0-1.89-.38-2.62-1.13s-1.1-1.66-1.1-2.72.37-1.97,1.1-2.72,1.61-1.12,2.62-1.12c1.25,0,2.27.54,3.06,1.62Zm0,2.22c0-.87-.3-1.6-.89-2.2-.6-.6-1.31-.9-2.13-.9s-1.54.3-2.13.9-.89,1.33-.89,2.19.3,1.6.89,2.2,1.3.9,2.13.9,1.54-.3,2.13-.9c.59-.6.89-1.33.89-2.2Z" fill="#fff"></path>
<path d="m493,264.83v6.87h2.9c.18,0,.31.03.39.1s.11.16.11.27c0,.11-.04.19-.11.26s-.21.11-.39.11h-6.54c-.18,0-.3-.04-.38-.11s-.11-.16-.11-.26c0-.11.04-.2.11-.27s.2-.1.38-.1h2.9v-6.12h-2.15c-.18,0-.3-.04-.38-.11-.08-.07-.12-.16-.12-.26,0-.11.04-.2.11-.27s.21-.11.39-.11h2.89Zm-.03-3.79v1.91h-1.09v-1.91h1.09Z" fill="#fff"></path>
<path d="m505.85,265.31c0-.17.04-.29.11-.37s.16-.12.26-.12c.11,0,.2.04.27.12s.11.21.11.39v1.27c0,.18-.04.3-.11.38s-.16.12-.27.12c-.1,0-.18-.03-.25-.1-.07-.06-.11-.17-.12-.32-.04-.35-.22-.64-.54-.87-.48-.33-1.12-.49-1.91-.49s-1.47.17-1.92.5c-.35.25-.52.53-.52.84,0,.35.21.64.62.88.28.16.81.29,1.6.38,1.03.11,1.74.24,2.14.38.57.21.99.49,1.27.85s.42.76.42,1.18c0,.63-.3,1.18-.91,1.67s-1.49.73-2.65.73-2.12-.3-2.87-.89c0,.2-.01.33-.04.39s-.07.11-.13.15c-.06.04-.13.06-.21.06-.11,0-.19-.04-.26-.11s-.11-.2-.11-.38v-1.52c0-.18.03-.3.1-.38s.16-.11.27-.11c.11,0,.19.04.27.11.07.07.11.17.11.29,0,.27.07.49.2.68.21.28.53.51.98.7.45.18,1,.28,1.65.28.96,0,1.68-.18,2.14-.54s.7-.73.7-1.13c0-.46-.24-.82-.71-1.1-.48-.28-1.18-.46-2.1-.55s-1.57-.22-1.97-.37-.71-.38-.93-.69-.33-.63-.33-.98c0-.63.31-1.14.93-1.51s1.36-.56,2.22-.56c1.02,0,1.85.25,2.49.75Z" fill="#fff"></path>
<path d="m512.7,264.83h4.01c.18,0,.3.04.38.11s.11.16.11.27c0,.11-.04.19-.11.26s-.2.11-.38.11h-4.01v4.91c0,.43.17.79.51,1.07.34.29.85.43,1.51.43.5,0,1.04-.08,1.62-.22s1.03-.32,1.35-.51c.12-.08.21-.11.29-.11.09,0,.18.04.25.11s.11.16.11.26c0,.09-.04.17-.11.25-.19.19-.64.4-1.37.63s-1.42.34-2.08.34c-.86,0-1.55-.2-2.06-.61s-.76-.95-.76-1.63v-4.91h-1.36c-.18,0-.3-.04-.38-.11s-.11-.16-.11-.27c0-.11.04-.19.11-.26s.2-.11.38-.11h1.36v-2.18c0-.18.04-.3.11-.38s.16-.12.26-.12c.11,0,.2.04.27.12s.11.2.11.38v2.18Z" fill="#fff"></path>
<path d="m529.01,268.81h-7.52c.13.96.53,1.72,1.2,2.31.67.58,1.5.88,2.49.88.55,0,1.13-.09,1.73-.27s1.1-.42,1.48-.72c.11-.09.21-.13.29-.13.09,0,.18.04.25.11s.11.16.11.26-.05.2-.14.29c-.28.29-.78.57-1.5.82s-1.45.38-2.21.38c-1.27,0-2.32-.42-3.17-1.24s-1.27-1.83-1.27-3.01c0-1.07.4-1.99,1.19-2.76.79-.77,1.78-1.15,2.95-1.15s2.2.39,2.98,1.18,1.16,1.81,1.15,3.06Zm-.75-.75c-.15-.81-.53-1.48-1.16-1.99-.62-.51-1.37-.76-2.23-.76s-1.6.25-2.22.76-1.01,1.17-1.16,1.99h6.77Z" fill="#fff"></path>
<path d="m534.93,264.83v1.86c.96-.87,1.68-1.42,2.16-1.67.48-.25.92-.37,1.32-.37.44,0,.85.15,1.23.44.38.3.57.52.57.67,0,.11-.04.2-.11.28-.07.07-.17.11-.28.11-.06,0-.11,0-.15-.03s-.12-.09-.23-.2c-.21-.21-.38-.35-.54-.42s-.3-.11-.45-.11c-.32,0-.71.13-1.17.39s-1.24.89-2.36,1.89v4.04h3.27c.18,0,.31.03.39.1s.11.16.11.27c0,.11-.04.19-.11.26s-.21.11-.39.11h-5.79c-.18,0-.3-.03-.38-.1s-.11-.15-.11-.26c0-.1.04-.18.11-.25.07-.07.2-.1.38-.1h1.78v-6.15h-1.36c-.18,0-.3-.04-.38-.11s-.11-.16-.11-.27c0-.11.04-.19.11-.26.07-.07.2-.11.38-.11h2.1Z" fill="#fff"></path>
<path d="m559.86,265.31c0-.17.04-.29.11-.37s.16-.12.26-.12c.11,0,.2.04.27.12s.11.21.11.39v1.27c0,.18-.04.3-.11.38s-.16.12-.27.12c-.1,0-.18-.03-.25-.1-.07-.06-.11-.17-.12-.32-.04-.35-.22-.64-.54-.87-.48-.33-1.12-.49-1.91-.49s-1.47.17-1.92.5c-.35.25-.52.53-.52.84,0,.35.21.64.62.88.28.16.81.29,1.6.38,1.03.11,1.74.24,2.14.38.57.21.99.49,1.27.85s.42.76.42,1.18c0,.63-.3,1.18-.91,1.67s-1.49.73-2.65.73-2.12-.3-2.87-.89c0,.2-.01.33-.04.39s-.07.11-.13.15c-.06.04-.13.06-.21.06-.11,0-.19-.04-.26-.11s-.11-.2-.11-.38v-1.52c0-.18.03-.3.1-.38s.16-.11.27-.11c.11,0,.19.04.27.11.07.07.11.17.11.29,0,.27.07.49.2.68.21.28.53.51.98.7.45.18,1,.28,1.65.28.96,0,1.68-.18,2.14-.54s.7-.73.7-1.13c0-.46-.24-.82-.71-1.1-.48-.28-1.18-.46-2.1-.55s-1.57-.22-1.97-.37-.71-.38-.93-.69-.33-.63-.33-.98c0-.63.31-1.14.93-1.51s1.36-.56,2.22-.56c1.02,0,1.85.25,2.49.75Z" fill="#fff"></path>
<path d="m566.7,264.83h4.01c.18,0,.3.04.38.11s.11.16.11.27c0,.11-.04.19-.11.26s-.2.11-.38.11h-4.01v4.91c0,.43.17.79.51,1.07.34.29.85.43,1.51.43.5,0,1.04-.08,1.62-.22s1.03-.32,1.35-.51c.12-.08.21-.11.29-.11.09,0,.18.04.25.11s.11.16.11.26c0,.09-.04.17-.11.25-.19.19-.64.4-1.37.63s-1.42.34-2.08.34c-.86,0-1.55-.2-2.06-.61s-.76-.95-.76-1.63v-4.91h-1.36c-.18,0-.3-.04-.38-.11s-.11-.16-.11-.27c0-.11.04-.19.11-.26s.2-.11.38-.11h1.36v-2.18c0-.18.04-.3.11-.38s.16-.12.26-.12c.11,0,.2.04.27.12s.11.2.11.38v2.18Z" fill="#fff"></path>
<path d="m581.14,272.44v-1.06c-1.07.9-2.22,1.35-3.44,1.35-.88,0-1.58-.22-2.07-.67s-.75-1-.75-1.65c0-.71.33-1.34.98-1.87s1.61-.8,2.87-.8c.34,0,.71.02,1.11.07s.83.11,1.29.21v-1.2c0-.4-.19-.76-.56-1.05s-.94-.45-1.69-.45c-.57,0-1.38.17-2.42.5-.19.06-.31.09-.36.09-.09,0-.17-.04-.24-.11s-.1-.16-.1-.26c0-.1.03-.18.09-.24.08-.09.41-.21.99-.36.91-.25,1.61-.37,2.07-.37.93,0,1.66.23,2.18.69s.78.98.78,1.56v4.89h.98c.18,0,.31.03.39.1s.11.16.11.27c0,.11-.04.19-.11.26s-.21.11-.39.11h-1.73Zm0-3.67c-.35-.1-.71-.17-1.1-.22s-.79-.07-1.22-.07c-1.07,0-1.91.23-2.51.69-.46.35-.69.76-.69,1.24,0,.45.17.82.52,1.12.35.3.86.46,1.52.46s1.23-.13,1.78-.38c.55-.25,1.11-.66,1.69-1.22v-1.63Z" fill="#fff"></path>
<path d="m588.31,264.83h4.01c.18,0,.3.04.38.11s.11.16.11.27c0,.11-.04.19-.11.26s-.2.11-.38.11h-4.01v4.91c0,.43.17.79.51,1.07.34.29.85.43,1.51.43.5,0,1.04-.08,1.62-.22s1.03-.32,1.35-.51c.12-.08.21-.11.29-.11.09,0,.18.04.25.11s.11.16.11.26c0,.09-.04.17-.11.25-.19.19-.64.4-1.37.63s-1.42.34-2.08.34c-.86,0-1.55-.2-2.06-.61s-.76-.95-.76-1.63v-4.91h-1.36c-.18,0-.3-.04-.38-.11s-.11-.16-.11-.27c0-.11.04-.19.11-.26s.2-.11.38-.11h1.36v-2.18c0-.18.04-.3.11-.38s.16-.12.26-.12c.11,0,.2.04.27.12s.11.2.11.38v2.18Z" fill="#fff"></path>
<path d="m604.62,268.81h-7.52c.13.96.53,1.72,1.2,2.31.67.58,1.5.88,2.49.88.55,0,1.13-.09,1.73-.27s1.1-.42,1.48-.72c.11-.09.21-.13.29-.13.09,0,.18.04.25.11s.11.16.11.26-.05.2-.14.29c-.28.29-.78.57-1.5.82s-1.45.38-2.21.38c-1.27,0-2.32-.42-3.17-1.24s-1.27-1.83-1.27-3.01c0-1.07.4-1.99,1.19-2.76.79-.77,1.78-1.15,2.95-1.15s2.2.39,2.98,1.18,1.16,1.81,1.15,3.06Zm-.75-.75c-.15-.81-.53-1.48-1.16-1.99-.62-.51-1.37-.76-2.23-.76s-1.6.25-2.22.76-1.01,1.17-1.16,1.99h6.77Z" fill="#fff"></path>
<path d="m276.95,288.44c0,.6-.21,1.12-.64,1.54-.43.42-.94.64-1.54.64s-1.11-.21-1.53-.64-.64-.94-.64-1.54.21-1.11.64-1.53c.42-.43.94-.64,1.53-.64s1.12.21,1.54.64.64.94.64,1.53Z" fill="#fff"></path>
<path d="m290.37,289.45v3.85h1.36c.18,0,.31.03.39.1.08.07.11.16.11.27,0,.11-.04.19-.11.26s-.21.11-.39.11h-3.09c-.18,0-.3-.04-.38-.11s-.11-.16-.11-.26c0-.11.04-.2.11-.27.08-.07.2-.1.38-.1h.99v-8.81h-.99c-.18,0-.3-.03-.38-.1-.08-.07-.11-.16-.11-.27s.04-.2.11-.27c.08-.07.2-.1.38-.1h4.46c.92,0,1.69.29,2.32.87.63.58.95,1.24.95,1.97,0,.53-.2,1.02-.58,1.49-.39.47-1.04.85-1.96,1.17.53.36.98.77,1.35,1.23s.98,1.39,1.8,2.81h.56c.18,0,.3.03.38.1.08.07.11.16.11.27,0,.11-.04.19-.11.26s-.2.11-.38.11h-.98c-.91-1.63-1.62-2.73-2.12-3.29-.5-.56-1.08-.99-1.73-1.3h-2.35Zm0-.74h2.01c.64,0,1.23-.12,1.75-.35.52-.23.9-.51,1.14-.83.24-.32.36-.64.36-.97,0-.49-.25-.96-.74-1.41-.5-.45-1.1-.67-1.81-.67h-2.72v4.22Z" fill="#fff"></path>
<path d="m307.57,290.41h-7.52c.13.96.53,1.72,1.2,2.31.67.58,1.5.88,2.49.88.55,0,1.13-.09,1.73-.27s1.1-.42,1.48-.72c.11-.09.21-.13.29-.13.09,0,.18.04.25.11.07.07.11.16.11.26s-.05.2-.14.29c-.28.29-.78.57-1.5.82-.72.26-1.45.38-2.21.38-1.27,0-2.32-.41-3.17-1.24-.85-.83-1.27-1.83-1.27-3.01,0-1.07.4-1.99,1.19-2.76.79-.77,1.78-1.15,2.95-1.15s2.2.39,2.98,1.18c.78.79,1.16,1.81,1.15,3.06Zm-.75-.75c-.15-.81-.53-1.48-1.16-1.99-.62-.51-1.37-.76-2.23-.76s-1.6.25-2.22.76-1.01,1.17-1.16,2h6.77Z" fill="#fff"></path>
<path d="m316.82,286.91c0-.17.04-.29.11-.37s.16-.11.26-.11c.11,0,.2.04.27.11s.11.21.11.39v1.27c0,.18-.04.3-.11.38s-.16.11-.27.11c-.1,0-.18-.03-.25-.1-.07-.06-.11-.17-.12-.32-.04-.35-.22-.64-.54-.87-.48-.33-1.12-.49-1.91-.49s-1.47.17-1.92.5c-.35.25-.52.53-.52.84,0,.35.21.64.62.88.28.16.81.29,1.6.38,1.03.11,1.74.24,2.14.38.57.21.99.49,1.27.85s.42.76.42,1.18c0,.63-.3,1.19-.91,1.67-.6.49-1.49.73-2.65.73s-2.12-.3-2.87-.89c0,.2-.01.33-.04.39s-.07.11-.13.15c-.06.04-.13.06-.21.06-.11,0-.19-.04-.26-.11s-.11-.2-.11-.38v-1.52c0-.18.03-.3.1-.38s.16-.11.27-.11c.11,0,.19.04.27.11.07.07.11.17.11.29,0,.27.07.5.2.68.21.28.53.51.98.7.45.19,1,.28,1.65.28.96,0,1.68-.18,2.14-.54s.7-.74.7-1.13c0-.46-.24-.82-.71-1.1-.48-.28-1.18-.46-2.1-.55s-1.57-.22-1.97-.37-.71-.38-.93-.69-.33-.63-.33-.98c0-.63.31-1.13.93-1.51.62-.37,1.36-.56,2.22-.56,1.02,0,1.85.25,2.49.75Z" fill="#fff"></path>
<path d="m323.67,286.43h4.01c.18,0,.3.04.38.11s.11.16.11.27c0,.11-.04.19-.11.26s-.2.11-.38.11h-4.01v4.91c0,.43.17.79.51,1.07.34.29.85.43,1.51.43.5,0,1.04-.07,1.62-.22.58-.15,1.03-.32,1.35-.5.12-.08.21-.11.29-.11.09,0,.18.04.25.11.07.07.11.16.11.26,0,.09-.04.17-.11.25-.19.19-.64.4-1.37.63-.72.22-1.42.34-2.08.34-.86,0-1.55-.2-2.06-.61s-.76-.95-.76-1.63v-4.91h-1.36c-.18,0-.3-.04-.38-.11s-.11-.16-.11-.27c0-.11.04-.19.11-.26s.2-.11.38-.11h1.36v-2.18c0-.18.04-.3.11-.38s.16-.11.26-.11c.11,0,.2.04.27.11s.11.2.11.38v2.18Z" fill="#fff"></path>
<path d="m340.11,290.25c0,1.12-.4,2.09-1.21,2.88s-1.78,1.2-2.91,1.2-2.12-.4-2.93-1.2c-.8-.8-1.2-1.76-1.2-2.88s.4-2.09,1.2-2.89c.8-.8,1.78-1.2,2.93-1.2s2.11.4,2.91,1.2,1.21,1.76,1.21,2.89Zm-.75,0c0-.93-.33-1.71-.99-2.36-.66-.65-1.46-.98-2.39-.98s-1.74.33-2.39.98c-.66.65-.99,1.44-.99,2.36s.33,1.7.99,2.36c.66.66,1.46.98,2.39.98s1.74-.33,2.39-.98c.66-.65.99-1.44.99-2.36Z" fill="#fff"></path>
<path d="m345.9,286.43v1.86c.96-.87,1.68-1.42,2.16-1.67.48-.25.92-.37,1.32-.37.44,0,.85.15,1.23.44.38.3.57.52.57.67,0,.11-.04.2-.11.28s-.17.11-.28.11c-.06,0-.11-.01-.15-.03-.04-.02-.12-.09-.23-.2-.21-.21-.38-.35-.54-.42s-.3-.11-.45-.11c-.32,0-.71.13-1.17.39s-1.24.89-2.36,1.89v4.04h3.27c.18,0,.31.03.39.1.08.07.11.16.11.27,0,.11-.04.19-.11.26s-.21.11-.39.11h-5.79c-.18,0-.3-.03-.38-.1-.08-.07-.11-.15-.11-.26,0-.1.04-.18.11-.25.07-.07.2-.1.38-.1h1.78v-6.15h-1.36c-.18,0-.3-.04-.38-.11s-.11-.16-.11-.27c0-.11.04-.19.11-.26.07-.07.2-.11.38-.11h2.1Z" fill="#fff"></path>
<path d="m361.58,290.41h-7.52c.13.96.53,1.72,1.2,2.31.67.58,1.5.88,2.49.88.55,0,1.13-.09,1.73-.27s1.1-.42,1.48-.72c.11-.09.21-.13.29-.13.09,0,.18.04.25.11.07.07.11.16.11.26s-.05.2-.14.29c-.28.29-.78.57-1.5.82-.72.26-1.45.38-2.21.38-1.27,0-2.32-.41-3.17-1.24-.85-.83-1.27-1.83-1.27-3.01,0-1.07.4-1.99,1.19-2.76.79-.77,1.78-1.15,2.95-1.15s2.2.39,2.98,1.18c.78.79,1.16,1.81,1.15,3.06Zm-.75-.75c-.15-.81-.53-1.48-1.16-1.99-.62-.51-1.37-.76-2.23-.76s-1.6.25-2.22.76-1.01,1.17-1.16,2h6.77Z" fill="#fff"></path>
<path d="m381.83,284.5v-.25c0-.18.03-.3.1-.38s.16-.11.27-.11.2.04.27.11c.07.08.1.2.1.38v1.88c0,.18-.03.3-.1.38-.07.08-.16.11-.27.11-.11,0-.19-.04-.26-.11-.07-.07-.1-.18-.11-.34-.03-.49-.28-.93-.76-1.33s-1.1-.59-1.88-.59c-.81,0-1.46.21-1.94.63-.48.42-.72.91-.72,1.48,0,.29.07.56.2.8s.31.43.54.58c.22.15.47.27.76.36.28.09.72.19,1.32.29,1,.16,1.69.33,2.07.5.51.23.89.54,1.16.95.26.4.39.88.39,1.43,0,.84-.34,1.56-1.01,2.16-.67.6-1.58.89-2.72.89-1.28,0-2.31-.4-3.08-1.2v.42c0,.18-.03.3-.1.38-.07.08-.16.11-.27.11-.11,0-.19-.04-.26-.11s-.11-.2-.11-.38v-2.04c0-.18.03-.31.1-.39s.16-.11.27-.11c.11,0,.19.04.26.11s.1.18.11.34c.03.54.32,1.03.87,1.47.55.44,1.28.66,2.21.66s1.66-.23,2.19-.69c.54-.46.8-1.01.8-1.64,0-.39-.1-.73-.31-1.03-.21-.3-.51-.54-.91-.72-.28-.12-.87-.26-1.76-.41-1.22-.21-2.11-.52-2.65-.94s-.81-1.02-.81-1.8.31-1.44.93-2c.62-.56,1.43-.83,2.45-.83s1.92.33,2.66.98Z" fill="#fff"></path>
<path d="m393.99,290.41h-7.52c.13.96.53,1.72,1.2,2.31.67.58,1.5.88,2.49.88.55,0,1.13-.09,1.73-.27s1.1-.42,1.48-.72c.11-.09.21-.13.29-.13.09,0,.18.04.25.11.07.07.11.16.11.26s-.05.2-.14.29c-.28.29-.78.57-1.5.82-.72.26-1.45.38-2.21.38-1.27,0-2.32-.41-3.17-1.24-.85-.83-1.27-1.83-1.27-3.01,0-1.07.4-1.99,1.19-2.76.79-.77,1.78-1.15,2.95-1.15s2.2.39,2.98,1.18c.78.79,1.16,1.81,1.15,3.06Zm-.75-.75c-.15-.81-.53-1.48-1.16-1.99-.62-.51-1.37-.76-2.23-.76s-1.6.25-2.22.76-1.01,1.17-1.16,2h6.77Z" fill="#fff"></path>
<path d="m403.87,287.18v-.25c0-.18.04-.31.11-.39s.16-.11.26-.11c.11,0,.2.04.27.11s.11.21.11.39v1.67c0,.18-.04.31-.11.39-.07.08-.16.11-.27.11-.1,0-.18-.03-.25-.1-.07-.07-.11-.18-.12-.34-.04-.42-.31-.81-.82-1.19-.51-.38-1.2-.56-2.07-.56-1.1,0-1.93.34-2.5,1.03s-.85,1.47-.85,2.36c0,.96.31,1.74.94,2.36s1.44.93,2.43.93c.57,0,1.16-.11,1.75-.32s1.13-.55,1.61-1.02c.12-.12.23-.18.33-.18.1,0,.18.03.25.1s.1.15.1.25c0,.25-.3.57-.89.96-.96.63-2.02.94-3.19.94s-2.17-.38-2.93-1.14c-.77-.76-1.15-1.72-1.15-2.89s.39-2.18,1.17-2.96c.78-.79,1.77-1.18,2.96-1.18s2.08.34,2.85,1.01Z" fill="#fff"></path>
<path d="m414.12,294.04v-1.08c-1.01.91-2.1,1.37-3.27,1.37-.72,0-1.27-.2-1.64-.59-.49-.52-.73-1.12-.73-1.8v-4.76h-.99c-.18,0-.3-.04-.38-.11s-.11-.16-.11-.27c0-.11.04-.19.11-.26s.2-.11.38-.11h1.73v5.51c0,.48.15.88.46,1.19s.69.47,1.14.47c1.2,0,2.3-.55,3.3-1.65v-4.76h-1.36c-.18,0-.3-.04-.38-.11s-.11-.16-.11-.27c0-.11.04-.19.11-.26s.2-.11.38-.11h2.1v6.87h.62c.18,0,.3.03.38.1.08.07.11.16.11.27,0,.11-.04.19-.11.26s-.2.11-.38.11h-1.36Z" fill="#fff"></path>
<path d="m421.51,286.43v1.86c.96-.87,1.68-1.42,2.16-1.67.48-.25.92-.37,1.32-.37.44,0,.85.15,1.23.44.38.3.57.52.57.67,0,.11-.04.2-.11.28s-.17.11-.28.11c-.06,0-.11-.01-.15-.03-.04-.02-.12-.09-.23-.2-.21-.21-.38-.35-.54-.42s-.3-.11-.45-.11c-.32,0-.71.13-1.17.39s-1.24.89-2.36,1.89v4.04h3.27c.18,0,.31.03.39.1.08.07.11.16.11.27,0,.11-.04.19-.11.26s-.21.11-.39.11h-5.79c-.18,0-.3-.03-.38-.1-.08-.07-.11-.15-.11-.26,0-.1.04-.18.11-.25.07-.07.2-.1.38-.1h1.78v-6.15h-1.36c-.18,0-.3-.04-.38-.11s-.11-.16-.11-.27c0-.11.04-.19.11-.26.07-.07.2-.11.38-.11h2.1Z" fill="#fff"></path>
<path d="m437.19,290.41h-7.52c.13.96.53,1.72,1.2,2.31.67.58,1.5.88,2.49.88.55,0,1.13-.09,1.73-.27s1.1-.42,1.48-.72c.11-.09.21-.13.29-.13.09,0,.18.04.25.11.07.07.11.16.11.26s-.05.2-.14.29c-.28.29-.78.57-1.5.82-.72.26-1.45.38-2.21.38-1.27,0-2.32-.41-3.17-1.24-.85-.83-1.27-1.83-1.27-3.01,0-1.07.4-1.99,1.19-2.76.79-.77,1.78-1.15,2.95-1.15s2.2.39,2.98,1.18c.78.79,1.16,1.81,1.15,3.06Zm-.75-.75c-.15-.81-.53-1.48-1.16-1.99-.62-.51-1.37-.76-2.23-.76s-1.6.25-2.22.76-1.01,1.17-1.16,2h6.77Z" fill="#fff"></path>
<path d="m453.92,286.43v1.86c.96-.87,1.68-1.42,2.16-1.67.48-.25.92-.37,1.32-.37.44,0,.85.15,1.23.44.38.3.57.52.57.67,0,.11-.04.2-.11.28s-.17.11-.28.11c-.06,0-.11-.01-.15-.03-.04-.02-.12-.09-.23-.2-.21-.21-.38-.35-.54-.42s-.3-.11-.45-.11c-.32,0-.71.13-1.17.39s-1.24.89-2.36,1.89v4.04h3.27c.18,0,.31.03.39.1.08.07.11.16.11.27,0,.11-.04.19-.11.26s-.21.11-.39.11h-5.79c-.18,0-.3-.03-.38-.1-.08-.07-.11-.15-.11-.26,0-.1.04-.18.11-.25.07-.07.2-.1.38-.1h1.78v-6.15h-1.36c-.18,0-.3-.04-.38-.11s-.11-.16-.11-.27c0-.11.04-.19.11-.26.07-.07.2-.11.38-.11h2.1Z" fill="#fff"></path>
<path d="m469.6,290.41h-7.52c.13.96.53,1.72,1.2,2.31.67.58,1.5.88,2.49.88.55,0,1.13-.09,1.73-.27s1.1-.42,1.48-.72c.11-.09.21-.13.29-.13.09,0,.18.04.25.11.07.07.11.16.11.26s-.05.2-.14.29c-.28.29-.78.57-1.5.82-.72.26-1.45.38-2.21.38-1.27,0-2.32-.41-3.17-1.24-.85-.83-1.27-1.83-1.27-3.01,0-1.07.4-1.99,1.19-2.76.79-.77,1.78-1.15,2.95-1.15s2.2.39,2.98,1.18c.78.79,1.16,1.81,1.15,3.06Zm-.75-.75c-.15-.81-.53-1.48-1.16-1.99-.62-.51-1.37-.76-2.23-.76s-1.6.25-2.22.76-1.01,1.17-1.16,2h6.77Z" fill="#fff"></path>
<path d="m478.89,287.78v-1.35h1.73c.18,0,.3.04.38.11s.11.16.11.27c0,.11-.04.19-.11.26s-.2.11-.38.11h-.99v7.37c0,.49-.11.93-.32,1.32-.14.26-.38.52-.7.8s-.63.47-.9.59-.63.18-1.08.18h-2.09c-.18,0-.3-.03-.38-.1-.08-.07-.11-.16-.11-.27s.04-.2.11-.27.2-.11.38-.11h2.12c.43,0,.82-.1,1.17-.33s.64-.55.87-.98c.13-.25.19-.56.19-.94v-2.21c-.79,1.08-1.81,1.63-3.06,1.63-1.01,0-1.89-.38-2.62-1.13-.74-.75-1.1-1.66-1.1-2.72s.37-1.97,1.1-2.72,1.61-1.12,2.62-1.12c1.25,0,2.27.54,3.06,1.62Zm0,2.22c0-.87-.3-1.6-.89-2.2-.6-.6-1.31-.9-2.13-.9s-1.54.3-2.13.9c-.59.6-.89,1.33-.89,2.19s.3,1.6.89,2.2c.59.6,1.3.9,2.13.9s1.54-.3,2.13-.9c.59-.6.89-1.33.89-2.2Z" fill="#fff"></path>
<path d="m487.6,286.43v6.87h2.9c.18,0,.31.03.39.1.08.07.11.16.11.27,0,.11-.04.19-.11.26s-.21.11-.39.11h-6.54c-.18,0-.3-.04-.38-.11s-.11-.16-.11-.26c0-.11.04-.2.11-.27.08-.07.2-.1.38-.1h2.9v-6.13h-2.15c-.18,0-.3-.04-.38-.11-.08-.07-.12-.16-.12-.26,0-.11.04-.2.11-.27s.21-.11.39-.11h2.89Zm-.03-3.79v1.91h-1.09v-1.91h1.09Z" fill="#fff"></path>
<path d="m500.45,286.91c0-.17.04-.29.11-.37s.16-.11.26-.11c.11,0,.2.04.27.11s.11.21.11.39v1.27c0,.18-.04.3-.11.38s-.16.11-.27.11c-.1,0-.18-.03-.25-.1-.07-.06-.11-.17-.12-.32-.04-.35-.22-.64-.54-.87-.48-.33-1.12-.49-1.91-.49s-1.47.17-1.92.5c-.35.25-.52.53-.52.84,0,.35.21.64.62.88.28.16.81.29,1.6.38,1.03.11,1.74.24,2.14.38.57.21.99.49,1.27.85s.42.76.42,1.18c0,.63-.3,1.19-.91,1.67-.6.49-1.49.73-2.65.73s-2.12-.3-2.87-.89c0,.2-.01.33-.04.39s-.07.11-.13.15c-.06.04-.13.06-.21.06-.11,0-.19-.04-.26-.11s-.11-.2-.11-.38v-1.52c0-.18.03-.3.1-.38s.16-.11.27-.11c.11,0,.19.04.27.11.07.07.11.17.11.29,0,.27.07.5.2.68.21.28.53.51.98.7.45.19,1,.28,1.65.28.96,0,1.68-.18,2.14-.54s.7-.74.7-1.13c0-.46-.24-.82-.71-1.1-.48-.28-1.18-.46-2.1-.55s-1.57-.22-1.97-.37-.71-.38-.93-.69-.33-.63-.33-.98c0-.63.31-1.13.93-1.51.62-.37,1.36-.56,2.22-.56,1.02,0,1.85.25,2.49.75Z" fill="#fff"></path>
<path d="m507.29,286.43h4.01c.18,0,.3.04.38.11s.11.16.11.27c0,.11-.04.19-.11.26s-.2.11-.38.11h-4.01v4.91c0,.43.17.79.51,1.07.34.29.85.43,1.51.43.5,0,1.04-.07,1.62-.22.58-.15,1.03-.32,1.35-.5.12-.08.21-.11.29-.11.09,0,.18.04.25.11.07.07.11.16.11.26,0,.09-.04.17-.11.25-.19.19-.64.4-1.37.63-.72.22-1.42.34-2.08.34-.86,0-1.55-.2-2.06-.61s-.76-.95-.76-1.63v-4.91h-1.36c-.18,0-.3-.04-.38-.11s-.11-.16-.11-.27c0-.11.04-.19.11-.26s.2-.11.38-.11h1.36v-2.18c0-.18.04-.3.11-.38s.16-.11.26-.11c.11,0,.2.04.27.11s.11.2.11.38v2.18Z" fill="#fff"></path>
<path d="m523.61,290.41h-7.52c.13.96.53,1.72,1.2,2.31.67.58,1.5.88,2.49.88.55,0,1.13-.09,1.73-.27s1.1-.42,1.48-.72c.11-.09.21-.13.29-.13.09,0,.18.04.25.11.07.07.11.16.11.26s-.05.2-.14.29c-.28.29-.78.57-1.5.82-.72.26-1.45.38-2.21.38-1.27,0-2.32-.41-3.17-1.24-.85-.83-1.27-1.83-1.27-3.01,0-1.07.4-1.99,1.19-2.76.79-.77,1.78-1.15,2.95-1.15s2.2.39,2.98,1.18c.78.79,1.16,1.81,1.15,3.06Zm-.75-.75c-.15-.81-.53-1.48-1.16-1.99-.62-.51-1.37-.76-2.23-.76s-1.6.25-2.22.76-1.01,1.17-1.16,2h6.77Z" fill="#fff"></path>
<path d="m529.53,286.43v1.86c.96-.87,1.68-1.42,2.16-1.67.48-.25.92-.37,1.32-.37.44,0,.85.15,1.23.44.38.3.57.52.57.67,0,.11-.04.2-.11.28s-.17.11-.28.11c-.06,0-.11-.01-.15-.03-.04-.02-.12-.09-.23-.2-.21-.21-.38-.35-.54-.42s-.3-.11-.45-.11c-.32,0-.71.13-1.17.39s-1.24.89-2.36,1.89v4.04h3.27c.18,0,.31.03.39.1.08.07.11.16.11.27,0,.11-.04.19-.11.26s-.21.11-.39.11h-5.79c-.18,0-.3-.03-.38-.1-.08-.07-.11-.15-.11-.26,0-.1.04-.18.11-.25.07-.07.2-.1.38-.1h1.78v-6.15h-1.36c-.18,0-.3-.04-.38-.11s-.11-.16-.11-.27c0-.11.04-.19.11-.26.07-.07.2-.11.38-.11h2.1Z" fill="#fff"></path>
<path d="m554.46,286.91c0-.17.04-.29.11-.37s.16-.11.26-.11c.11,0,.2.04.27.11s.11.21.11.39v1.27c0,.18-.04.3-.11.38s-.16.11-.27.11c-.1,0-.18-.03-.25-.1-.07-.06-.11-.17-.12-.32-.04-.35-.22-.64-.54-.87-.48-.33-1.12-.49-1.91-.49s-1.47.17-1.92.5c-.35.25-.52.53-.52.84,0,.35.21.64.62.88.28.16.81.29,1.6.38,1.03.11,1.74.24,2.14.38.57.21.99.49,1.27.85s.42.76.42,1.18c0,.63-.3,1.19-.91,1.67-.6.49-1.49.73-2.65.73s-2.12-.3-2.87-.89c0,.2-.01.33-.04.39s-.07.11-.13.15c-.06.04-.13.06-.21.06-.11,0-.19-.04-.26-.11s-.11-.2-.11-.38v-1.52c0-.18.03-.3.1-.38s.16-.11.27-.11c.11,0,.19.04.27.11.07.07.11.17.11.29,0,.27.07.5.2.68.21.28.53.51.98.7.45.19,1,.28,1.65.28.96,0,1.68-.18,2.14-.54s.7-.74.7-1.13c0-.46-.24-.82-.71-1.1-.48-.28-1.18-.46-2.1-.55s-1.57-.22-1.97-.37-.71-.38-.93-.69-.33-.63-.33-.98c0-.63.31-1.13.93-1.51.62-.37,1.36-.56,2.22-.56,1.02,0,1.85.25,2.49.75Z" fill="#fff"></path>
<path d="m561.3,286.43h4.01c.18,0,.3.04.38.11s.11.16.11.27c0,.11-.04.19-.11.26s-.2.11-.38.11h-4.01v4.91c0,.43.17.79.51,1.07.34.29.85.43,1.51.43.5,0,1.04-.07,1.62-.22.58-.15,1.03-.32,1.35-.5.12-.08.21-.11.29-.11.09,0,.18.04.25.11.07.07.11.16.11.26,0,.09-.04.17-.11.25-.19.19-.64.4-1.37.63-.72.22-1.42.34-2.08.34-.86,0-1.55-.2-2.06-.61s-.76-.95-.76-1.63v-4.91h-1.36c-.18,0-.3-.04-.38-.11s-.11-.16-.11-.27c0-.11.04-.19.11-.26s.2-.11.38-.11h1.36v-2.18c0-.18.04-.3.11-.38s.16-.11.26-.11c.11,0,.2.04.27.11s.11.2.11.38v2.18Z" fill="#fff"></path>
<path d="m575.74,294.04v-1.06c-1.07.9-2.22,1.35-3.44,1.35-.88,0-1.58-.22-2.07-.67-.5-.45-.75-1-.75-1.65,0-.71.33-1.34.98-1.87s1.61-.8,2.87-.8c.34,0,.71.02,1.11.07.4.04.83.11,1.29.21v-1.2c0-.4-.19-.76-.56-1.05s-.94-.45-1.69-.45c-.57,0-1.38.17-2.42.5-.19.06-.31.09-.36.09-.09,0-.17-.04-.24-.11s-.1-.16-.1-.26c0-.1.03-.18.09-.24.08-.09.41-.21.99-.36.91-.25,1.61-.37,2.07-.37.93,0,1.66.23,2.18.69.52.46.78.98.78,1.56v4.89h.98c.18,0,.31.03.39.1.08.07.11.16.11.27,0,.11-.04.19-.11.26s-.21.11-.39.11h-1.73Zm0-3.67c-.35-.1-.71-.17-1.1-.22s-.79-.07-1.22-.07c-1.07,0-1.91.23-2.51.69-.46.35-.69.76-.69,1.24,0,.45.17.82.52,1.12.35.3.86.46,1.52.46s1.23-.13,1.78-.38c.55-.25,1.11-.66,1.69-1.22v-1.63Z" fill="#fff"></path>
<path d="m582.91,286.43h4.01c.18,0,.3.04.38.11s.11.16.11.27c0,.11-.04.19-.11.26s-.2.11-.38.11h-4.01v4.91c0,.43.17.79.51,1.07.34.29.85.43,1.51.43.5,0,1.04-.07,1.62-.22.58-.15,1.03-.32,1.35-.5.12-.08.21-.11.29-.11.09,0,.18.04.25.11.07.07.11.16.11.26,0,.09-.04.17-.11.25-.19.19-.64.4-1.37.63-.72.22-1.42.34-2.08.34-.86,0-1.55-.2-2.06-.61s-.76-.95-.76-1.63v-4.91h-1.36c-.18,0-.3-.04-.38-.11s-.11-.16-.11-.27c0-.11.04-.19.11-.26s.2-.11.38-.11h1.36v-2.18c0-.18.04-.3.11-.38s.16-.11.26-.11c.11,0,.2.04.27.11s.11.2.11.38v2.18Z" fill="#fff"></path>
<path d="m599.22,290.41h-7.52c.13.96.53,1.72,1.2,2.31.67.58,1.5.88,2.49.88.55,0,1.13-.09,1.73-.27s1.1-.42,1.48-.72c.11-.09.21-.13.29-.13.09,0,.18.04.25.11.07.07.11.16.11.26s-.05.2-.14.29c-.28.29-.78.57-1.5.82-.72.26-1.45.38-2.21.38-1.27,0-2.32-.41-3.17-1.24-.85-.83-1.27-1.83-1.27-3.01,0-1.07.4-1.99,1.19-2.76.79-.77,1.78-1.15,2.95-1.15s2.2.39,2.98,1.18c.78.79,1.16,1.81,1.15,3.06Zm-.75-.75c-.15-.81-.53-1.48-1.16-1.99-.62-.51-1.37-.76-2.23-.76s-1.6.25-2.22.76-1.01,1.17-1.16,2h6.77Z" fill="#fff"></path>
</g>
<text fill="#333e48" font-family="Lato" font-size="18" font-weight="500" transform="translate(253.84 44.95)"><tspan letter-spacing="-.02em" x="0" y="0">N</tspan><tspan x="13.5" y="0">on-secu</tspan><tspan letter-spacing="-.02em" x="76.54" y="0">r</tspan><tspan x="82.79" y="0">e</tspan></text>
<text fill="#333e48" font-family="Lato" font-size="18" font-weight="500" transform="translate(543.13 44.95)"><tspan letter-spacing="0em" x="0" y="0">S</tspan><tspan x="9.75" y="0">ecu</tspan><tspan letter-spacing="-.02em" x="37.95" y="0">r</tspan><tspan x="44.21" y="0">e</tspan></text>
<rect fill="#0091bd" height="45" width="105" x="180" y="60"></rect>
<text fill="#fff" font-family="Lato" font-size="18" font-weight="500" transform="translate(216.26 89.14)"><tspan letter-spacing="0em" x="0" y="0">A</tspan><tspan x="12.23" y="0">pp</tspan></text>
<rect fill="#0091bd" height="45" width="240" x="180" y="120"></rect>
<rect fill="#0091bd" height="45" width="105" x="315" y="60"></rect>
<text fill="#fff" font-family="Lato" font-size="18" font-weight="500" transform="translate(351.26 89.14)"><tspan letter-spacing="0em" x="0" y="0">A</tspan><tspan x="12.23" y="0">pp</tspan></text>
<text fill="#fff" font-family="Lato" font-size="18" font-weight="500" transform="translate(268.46 149.14)"><tspan letter-spacing="0em" x="0" y="0">R</tspan><tspan x="11.22" y="0">ich OS</tspan></text>
<line fill="none" stroke="#333e48" stroke-dasharray="0 0 5 3" stroke-miterlimit="10" x1="300" x2="300" y1="60" y2="105"></line>
<rect fill="#002b49" height="45" width="240" x="450" y="60"></rect>
<g>
<line fill="none" stroke="#333e48" stroke-miterlimit="10" x1="180" x2="182.5" y1="180" y2="180"></line>
<line fill="none" stroke="#333e48" stroke-dasharray="0 0 4.98 2.99" stroke-miterlimit="10" x1="185.49" x2="431.01" y1="180" y2="180"></line>
<polyline fill="none" points="432.5 180 435 180 435 177.5" stroke="#333e48" stroke-miterlimit="10"></polyline>
<line fill="none" stroke="#333e48" stroke-dasharray="0 0 5 3" stroke-miterlimit="10" x1="435" x2="435" y1="174.5" y2="64"></line>
<line fill="none" stroke="#333e48" stroke-miterlimit="10" x1="435" x2="435" y1="62.5" y2="60"></line>
</g>
<text fill="#fff" font-family="Lato" font-size="18" font-weight="500" transform="translate(505.36 89.14)"><tspan letter-spacing="-.11em" x="0" y="0">T</tspan><tspan x="8.74" y="0">rus</tspan><tspan letter-spacing="0em" x="33.22" y="0">t</tspan><tspan x="39.68" y="0">ed </tspan><tspan letter-spacing="0em" x="63.87" y="0">S</tspan><tspan x="73.62" y="0">ervi</tspan><tspan letter-spacing="0em" x="103.47" y="0">c</tspan><tspan x="111.92" y="0">es</tspan></text>
<rect fill="#002b49" height="45" width="240" x="450" y="120"></rect>
<text fill="#fff" font-family="Lato" font-size="18" font-weight="500" transform="translate(525.95 149.14)"><tspan letter-spacing="-.11em" x="0" y="0">T</tspan><tspan x="8.74" y="0">rus</tspan><tspan letter-spacing="0em" x="33.22" y="0">t</tspan><tspan x="39.68" y="0">ed OS</tspan></text>
<text fill="#333e48" font-family="Lato" font-size="18" font-weight="500" transform="translate(31.04 165.04)"><tspan x="0" y="0">(1) E</tspan><tspan letter-spacing="-.02em" x="35.05" y="0">x</tspan><tspan letter-spacing="0em" x="43.72" y="0">c</tspan><tspan x="52.17" y="0">e</tspan><tspan letter-spacing="0em" x="61.7" y="0">p</tspan><tspan x="71.71" y="0">tion </tspan><tspan x="2.03" y="21.6">causes e</tspan><tspan letter-spacing="0em" x="68.95" y="21.6">n</tspan><tspan x="78.89" y="21.6">tr</tspan><tspan letter-spacing="-.02em" x="92" y="21.6">y</tspan><tspan x="100.9" y="21.6"> </tspan><tspan letter-spacing="0em" x="25.79" y="43.2">t</tspan><tspan x="32.25" y="43.2">o EL3</tspan></text>
<g>
<line fill="none" stroke="#fff" stroke-miterlimit="10" x1="494.08" x2="518.34" y1="244.42" y2="244.42"></line>
<polygon fill="#fff" points="517.17 248.41 524.08 244.42 517.17 240.43 517.17 248.41"></polygon>
</g>
<g>
<polyline fill="none" points="690 217.5 720 217.5 720 142.5 695.74 142.5" stroke="#333e48" stroke-miterlimit="10"></polyline>
<polygon fill="#333e48" points="696.91 138.51 690 142.5 696.91 146.49 696.91 138.51"></polygon>
</g>
<g>
<polyline fill="none" points="180 142.5 150 142.5 150 217.5 174.26 217.5" stroke="#333e48" stroke-miterlimit="10"></polyline>
<polygon fill="#333e48" points="173.09 221.49 180 217.5 173.09 213.51 173.09 221.49"></polygon>
</g>
<text fill="#333e48" font-family="Lato" font-size="18" font-weight="500" transform="translate(736.04 175.84)"><tspan x="0" y="0">(3) E</tspan><tspan letter-spacing="-.02em" x="35.05" y="0">x</tspan><tspan letter-spacing="0em" x="43.72" y="0">c</tspan><tspan x="52.17" y="0">e</tspan><tspan letter-spacing="0em" x="61.7" y="0">p</tspan><tspan x="71.71" y="0">tion </tspan><tspan letter-spacing="-.02em" x="-.96" y="21.6">r</tspan><tspan letter-spacing="0em" x="5.29" y="21.6">e</tspan><tspan x="14.75" y="21.6">turn </tspan><tspan letter-spacing="0em" x="52.54" y="21.6">t</tspan><tspan x="59" y="21.6">o EL1</tspan></text>
</svg>