<svg height="225" id="Layer_1" viewbox="0 0 570 225" width="570" xmlns="http://www.w3.org/2000/svg">
<text fill="#333e48" font-family="Lato" font-size="18" font-weight="500" transform="translate(120.75 59.95)"><tspan letter-spacing="-.02em" x="0" y="0">N</tspan><tspan x="13.5" y="0">ormal</tspan></text>
<rect fill="#0091bd" height="45" width="105" x="30" y="75"></rect>
<text fill="#fff" font-family="Lato" font-size="18" font-weight="500" transform="translate(66.26 104.14)"><tspan letter-spacing="0em" x="0" y="0">A</tspan><tspan x="12.23" y="0">pp</tspan></text>
<rect fill="#0091bd" height="45" width="240" x="30" y="135"></rect>
<rect fill="#0091bd" height="45" width="105" x="165" y="75"></rect>
<text fill="#fff" font-family="Lato" font-size="18" font-weight="500" transform="translate(201.26 104.14)"><tspan letter-spacing="0em" x="0" y="0">A</tspan><tspan x="12.23" y="0">pp</tspan></text>
<text fill="#fff" font-family="Lato" font-size="18" font-weight="500" transform="translate(118.46 164.14)"><tspan letter-spacing="0em" x="0" y="0">R</tspan><tspan x="11.22" y="0">ich OS</tspan></text>
<text fill="#333e48" font-family="Lato" font-size="18" font-weight="500" transform="translate(390.34 59.95)"><tspan letter-spacing="-.11em" x="0" y="0">T</tspan><tspan x="8.74" y="0">rus</tspan><tspan letter-spacing="0em" x="33.22" y="0">t</tspan><tspan x="39.68" y="0">ed</tspan></text>
<rect fill="#002b49" height="45" width="240" x="300" y="75"></rect>
<rect fill="#002b49" height="45" width="240" x="300" y="135"></rect>
<text fill="#fff" font-family="Lato" font-size="18" font-weight="500" transform="translate(375.95 164.14)"><tspan letter-spacing="-.11em" x="0" y="0">T</tspan><tspan x="8.74" y="0">rus</tspan><tspan letter-spacing="0em" x="33.22" y="0">t</tspan><tspan x="39.68" y="0">ed OS</tspan></text>
<text fill="#fff" font-family="Lato" font-size="18" font-weight="500" transform="translate(355.36 104.14)"><tspan letter-spacing="-.11em" x="0" y="0">T</tspan><tspan x="8.74" y="0">rus</tspan><tspan letter-spacing="0em" x="33.22" y="0">t</tspan><tspan x="39.68" y="0">ed </tspan><tspan letter-spacing="0em" x="63.87" y="0">S</tspan><tspan x="73.62" y="0">ervi</tspan><tspan letter-spacing="0em" x="103.47" y="0">c</tspan><tspan x="111.92" y="0">es</tspan></text>
<line fill="none" stroke="#333e48" stroke-dasharray="0 0 5 3" stroke-miterlimit="10" x1="285" x2="285" y1="30" y2="195"></line>
</svg>