<svg height="600" id="Layer_1" viewbox="0 0 570 600" width="570" xmlns="http://www.w3.org/2000/svg">
<defs>
<style>
      .cls-1 {
        fill: #002b49;
      }

      .cls-2 {
        fill: #0091bd;
      }

      .cls-3 {
        fill: #fff;
      }

      .cls-4 {
        fill: #333e48;
      }
    </style>
</defs>
<rect class="cls-1" height="150" width="240" x="300.33" y="135"></rect>
<g>
<path class="cls-3" d="m386.68,152.82h-4.1v11.32h-1.91v-11.32h-4.12v-1.6h10.13v1.6Z"></path>
<path class="cls-3" d="m387.9,156.75c.29-.6.65-1.07,1.06-1.41s.91-.51,1.49-.51c.2,0,.38.02.56.07.18.04.33.11.46.2l-.12,1.32c-.04.16-.14.24-.3.24-.08,0-.21-.02-.38-.05s-.35-.05-.54-.05c-.28,0-.53.04-.75.12-.22.08-.41.2-.58.36-.17.16-.32.36-.45.59-.13.23-.26.49-.37.79v5.72h-1.75v-9.14h1.01c.19,0,.32.04.39.1.07.07.12.19.15.37l.11,1.29Z"></path>
<path class="cls-3" d="m400.45,155v9.14h-1.05c-.24,0-.4-.12-.47-.35l-.13-.92c-.2.21-.41.4-.62.58-.22.17-.45.32-.69.45s-.51.22-.78.29c-.28.07-.57.1-.89.1-.5,0-.95-.08-1.33-.25-.38-.17-.7-.4-.96-.71s-.45-.67-.58-1.09-.2-.9-.2-1.41v-5.82h1.76v5.82c0,.65.15,1.16.45,1.53.3.36.76.54,1.38.54.45,0,.87-.11,1.26-.32.39-.21.76-.51,1.1-.88v-6.7h1.75Z"></path>
<path class="cls-3" d="m408.3,156.57c-.05.08-.1.13-.15.17-.05.03-.12.05-.21.05-.1,0-.2-.03-.32-.1-.12-.07-.26-.14-.42-.21s-.36-.15-.58-.22c-.22-.07-.49-.1-.79-.1-.25,0-.48.03-.69.09-.21.06-.38.15-.53.26-.14.11-.25.24-.33.4-.08.15-.12.32-.12.49,0,.23.07.42.2.57.13.15.31.28.53.39.22.11.47.21.75.29.28.09.56.18.85.27s.58.21.86.33c.28.12.53.28.75.46.22.18.4.4.53.66.14.26.2.57.2.95,0,.43-.08.82-.23,1.18-.15.36-.38.68-.67.94-.3.26-.67.47-1.1.62-.44.15-.94.23-1.5.23-.63,0-1.21-.1-1.75-.32-.53-.21-.98-.48-1.34-.8l.41-.67c.05-.08.11-.15.18-.19.07-.05.17-.07.29-.07.11,0,.23.04.35.12.12.08.26.18.43.28.17.1.37.19.61.27.24.08.54.12.9.12.3,0,.56-.04.78-.11.22-.08.41-.18.55-.31.15-.13.26-.28.33-.45.07-.17.11-.35.11-.53,0-.24-.07-.44-.2-.6-.13-.16-.31-.3-.53-.41-.22-.11-.47-.21-.75-.3-.28-.08-.57-.17-.86-.27-.29-.1-.58-.21-.86-.33-.28-.12-.53-.29-.75-.48-.22-.19-.4-.43-.53-.7s-.2-.61-.2-1.01c0-.35.07-.69.22-1.02.15-.32.36-.61.64-.86.28-.25.62-.44,1.03-.59.41-.15.88-.22,1.41-.22.61,0,1.15.1,1.64.29.49.19.91.46,1.25.79l-.39.64Z"></path>
<path class="cls-3" d="m413.59,164.29c-.74,0-1.31-.21-1.71-.62-.4-.41-.6-1-.6-1.77v-5.47h-1.06c-.1,0-.19-.03-.26-.09-.07-.06-.1-.16-.1-.28v-.71l1.48-.21.4-2.73c.02-.1.07-.18.14-.24.07-.06.16-.08.27-.08h.89v3.07h2.59v1.28h-2.59v5.36c0,.36.09.63.27.8.18.18.4.27.68.27.16,0,.3-.02.42-.06.12-.04.22-.09.3-.14.08-.05.16-.1.22-.14.06-.04.11-.06.16-.06.06,0,.11.01.14.04.03.03.07.07.1.13l.52.85c-.29.26-.63.47-1.03.61-.4.14-.81.22-1.23.22Z"></path>
<path class="cls-3" d="m424.69,162.84c-.22.25-.46.47-.75.65-.28.18-.58.33-.9.45-.32.11-.65.2-.99.25-.34.05-.67.08-1,.08-.63,0-1.21-.11-1.75-.32s-1-.53-1.4-.94c-.39-.41-.7-.92-.92-1.53-.22-.61-.33-1.31-.33-2.1,0-.64.1-1.23.3-1.78s.48-1.03.85-1.44.82-.73,1.35-.96,1.13-.35,1.8-.35c.56,0,1.07.09,1.54.28.47.18.88.45,1.22.8.34.35.61.78.8,1.29.2.51.29,1.09.29,1.75,0,.27-.03.45-.09.54-.06.09-.17.14-.33.14h-5.99c.02.54.1,1.02.23,1.43.14.41.33.74.57,1.01s.53.47.87.6c.34.13.71.2,1.12.2.39,0,.73-.05,1.01-.14s.53-.19.74-.29c.21-.11.38-.2.52-.29s.27-.13.37-.13c.14,0,.25.05.33.16l.5.65Zm-1.45-4.28c0-.35-.05-.67-.15-.96-.1-.29-.25-.55-.44-.76-.19-.22-.43-.38-.7-.5s-.59-.18-.95-.18c-.74,0-1.32.21-1.74.64-.42.43-.69,1.02-.81,1.77h4.79Z"></path>
<path class="cls-3" d="m434.38,150.86v13.29h-1.06c-.25,0-.4-.12-.46-.35l-.15-1.05c-.39.46-.83.83-1.33,1.11s-1.07.42-1.71.42c-.52,0-.99-.1-1.42-.31s-.79-.5-1.08-.9-.53-.88-.69-1.46c-.16-.58-.24-1.25-.24-2.01,0-.68.09-1.31.27-1.89.18-.58.44-1.09.78-1.51s.76-.76,1.24-1c.49-.24,1.04-.36,1.65-.36.55,0,1.02.09,1.41.27.39.18.73.43,1.04.76v-5h1.76Zm-1.76,6.35c-.29-.38-.6-.64-.93-.79s-.71-.22-1.12-.22c-.8,0-1.43.29-1.87.87-.44.58-.66,1.42-.66,2.53,0,.58.05,1.08.15,1.49.1.41.24.75.43,1.01.19.26.42.45.7.58.28.12.59.19.94.19.51,0,.95-.11,1.32-.34.37-.23.72-.55,1.04-.96v-4.34Z"></path>
<path class="cls-3" d="m453.78,157.68c0,.97-.15,1.85-.46,2.66-.31.81-.75,1.5-1.31,2.09-.56.58-1.24,1.04-2.03,1.36s-1.66.49-2.62.49-1.83-.16-2.61-.49-1.46-.78-2.03-1.36c-.56-.58-1-1.28-1.31-2.09-.31-.81-.47-1.69-.47-2.66s.16-1.84.47-2.65c.31-.81.75-1.51,1.31-2.09.56-.58,1.24-1.04,2.03-1.37.79-.33,1.66-.49,2.61-.49s1.83.16,2.62.49c.79.33,1.46.78,2.03,1.37.56.58,1,1.28,1.31,2.09.31.81.46,1.7.46,2.65Zm-1.96,0c0-.77-.1-1.46-.31-2.07-.21-.61-.51-1.13-.9-1.56-.39-.43-.86-.75-1.4-.98s-1.16-.34-1.84-.34-1.29.11-1.84.34c-.55.23-1.02.55-1.41.98-.39.43-.69.95-.9,1.56-.21.61-.32,1.3-.32,2.07s.11,1.47.32,2.07c.21.61.51,1.13.9,1.55.39.43.86.75,1.41.98.55.23,1.16.34,1.84.34s1.29-.11,1.84-.34c.55-.22,1.02-.55,1.4-.98.39-.43.68-.94.9-1.55.21-.61.31-1.3.31-2.07Z"></path>
<path class="cls-3" d="m462.87,153.32c-.06.1-.12.18-.19.22-.07.05-.15.07-.25.07s-.23-.05-.37-.15c-.14-.1-.31-.21-.52-.33s-.45-.23-.74-.33-.63-.15-1.04-.15c-.38,0-.71.05-.99.15s-.52.23-.72.4c-.19.17-.34.37-.44.6-.1.23-.15.48-.15.75,0,.35.09.64.27.86.18.23.41.42.7.59s.62.3.98.42c.37.12.74.25,1.12.37.38.13.76.28,1.12.45.37.17.69.38.98.63s.52.57.7.94c.18.37.26.82.26,1.35,0,.57-.1,1.1-.29,1.6-.2.5-.48.93-.85,1.3s-.83.67-1.37.88c-.54.21-1.16.32-1.85.32-.41,0-.82-.04-1.21-.12-.39-.08-.76-.19-1.11-.34-.35-.15-.67-.32-.98-.53s-.57-.44-.81-.7l.55-.92c.05-.07.12-.13.19-.18.08-.05.16-.07.26-.07.13,0,.27.07.44.2s.37.28.61.44c.24.16.53.3.87.44s.75.2,1.24.2c.4,0,.75-.05,1.06-.16.31-.1.58-.25.79-.45s.38-.43.49-.71c.11-.28.17-.58.17-.92,0-.38-.09-.69-.26-.93-.17-.24-.41-.44-.69-.6s-.62-.3-.98-.41c-.37-.11-.74-.23-1.12-.36s-.76-.27-1.12-.43c-.37-.16-.69-.37-.98-.63-.29-.26-.52-.59-.69-.98-.17-.39-.26-.88-.26-1.45,0-.46.09-.91.27-1.34s.44-.81.79-1.15.77-.6,1.27-.8c.5-.2,1.08-.3,1.73-.3.73,0,1.39.12,2,.35.61.23,1.14.56,1.59,1l-.47.91Z"></path>
</g>
<rect class="cls-3" height="75" width="180" x="330" y="180"></rect>
<g>
<path class="cls-4" d="m401.07,202.02h-4.1v11.32h-1.91v-11.32h-4.12v-1.6h10.13v1.6Z"></path>
<path class="cls-4" d="m402.29,205.95c.29-.6.65-1.07,1.06-1.41.41-.34.91-.51,1.49-.51.2,0,.38.02.56.07.18.04.33.11.46.2l-.12,1.32c-.04.16-.14.24-.3.24-.08,0-.21-.02-.38-.05-.17-.03-.35-.05-.54-.05-.28,0-.53.04-.75.12-.22.08-.41.2-.58.36s-.32.35-.45.58c-.13.23-.26.49-.37.79v5.72h-1.75v-9.14h1.01c.19,0,.32.04.39.1.07.07.12.19.15.37l.11,1.29Z"></path>
<path class="cls-4" d="m414.84,204.2v9.14h-1.05c-.24,0-.4-.12-.47-.35l-.13-.92c-.2.21-.41.4-.62.58-.22.17-.45.32-.69.45s-.51.22-.78.29c-.28.07-.57.1-.89.1-.5,0-.95-.08-1.33-.25-.38-.17-.7-.4-.96-.71s-.45-.67-.58-1.09-.2-.9-.2-1.41v-5.82h1.76v5.82c0,.65.15,1.16.45,1.53.3.36.76.54,1.38.54.45,0,.87-.11,1.26-.32.39-.21.76-.51,1.1-.88v-6.7h1.75Z"></path>
<path class="cls-4" d="m422.69,205.77c-.05.08-.1.13-.15.17-.05.03-.12.05-.21.05-.1,0-.2-.03-.32-.1-.12-.07-.26-.14-.42-.22s-.36-.15-.58-.22c-.22-.07-.49-.1-.79-.1-.25,0-.48.03-.69.09s-.38.15-.53.26c-.14.11-.25.24-.33.4-.08.15-.12.32-.12.49,0,.23.07.42.2.57s.31.28.53.39c.22.11.47.21.75.29.28.09.56.18.85.27.29.1.58.21.86.33.28.12.53.28.75.46.22.18.4.4.53.66.14.26.2.57.2.95,0,.43-.08.82-.23,1.18-.15.36-.38.68-.67.94-.3.26-.67.47-1.1.62-.44.15-.94.23-1.5.23-.63,0-1.21-.11-1.75-.32-.53-.21-.98-.48-1.34-.8l.41-.67c.05-.08.11-.15.18-.19.07-.05.17-.07.29-.07.11,0,.23.04.35.13.12.08.26.18.43.27.17.1.37.19.61.27s.54.12.9.12c.3,0,.56-.04.78-.11.22-.07.41-.18.55-.31.15-.13.26-.28.33-.45.07-.17.11-.34.11-.53,0-.24-.07-.44-.2-.6-.13-.16-.31-.29-.53-.41-.22-.11-.47-.21-.75-.3-.28-.08-.57-.17-.86-.27s-.58-.21-.86-.33-.53-.29-.75-.48c-.22-.19-.4-.43-.53-.7-.13-.28-.2-.61-.2-1.01,0-.35.07-.69.22-1.02.15-.32.36-.61.64-.86.28-.25.62-.44,1.03-.59s.88-.22,1.41-.22c.61,0,1.15.1,1.64.29.49.19.91.46,1.25.79l-.39.64Z"></path>
<path class="cls-4" d="m427.98,213.49c-.74,0-1.31-.21-1.71-.62-.4-.41-.6-1.01-.6-1.77v-5.47h-1.06c-.1,0-.19-.03-.26-.09-.07-.06-.1-.16-.1-.28v-.71l1.48-.21.4-2.73c.02-.1.07-.18.14-.24.07-.06.16-.08.27-.08h.89v3.07h2.59v1.28h-2.59v5.36c0,.36.09.63.27.81s.4.27.68.27c.16,0,.3-.02.42-.06.12-.04.22-.09.3-.14s.16-.1.22-.14c.06-.04.11-.06.16-.06.06,0,.11.01.14.04s.07.07.1.13l.52.85c-.29.26-.63.47-1.03.61-.4.14-.81.22-1.23.22Z"></path>
<path class="cls-4" d="m439.08,212.04c-.22.25-.46.47-.75.65s-.58.33-.9.45c-.32.11-.65.2-.99.25-.34.05-.67.08-1,.08-.63,0-1.21-.11-1.75-.32s-1-.53-1.4-.94c-.39-.41-.7-.92-.92-1.53-.22-.61-.33-1.31-.33-2.1,0-.63.1-1.23.3-1.78.2-.55.48-1.03.85-1.44.37-.41.82-.73,1.35-.96.53-.23,1.13-.35,1.8-.35.56,0,1.07.09,1.54.27.47.18.88.45,1.22.8.34.35.61.78.8,1.29.2.51.29,1.09.29,1.75,0,.27-.03.45-.09.54-.06.09-.17.14-.33.14h-5.99c.02.55.1,1.02.23,1.43.14.41.33.74.57,1.01.24.27.53.47.87.6s.71.2,1.12.2c.39,0,.73-.04,1.01-.13s.53-.19.74-.29.38-.2.52-.29.27-.13.37-.13c.14,0,.25.05.33.16l.5.65Zm-1.45-4.28c0-.35-.05-.67-.15-.96s-.25-.55-.44-.76c-.19-.22-.43-.38-.7-.5-.28-.12-.59-.18-.95-.18-.74,0-1.32.21-1.74.64-.42.43-.69,1.02-.81,1.77h4.79Z"></path>
<path class="cls-4" d="m448.77,200.06v13.28h-1.06c-.25,0-.4-.12-.46-.35l-.15-1.05c-.39.46-.83.83-1.33,1.11-.5.28-1.07.42-1.71.42-.52,0-.99-.1-1.42-.31-.42-.2-.79-.5-1.08-.9-.3-.39-.53-.88-.69-1.46-.16-.58-.24-1.25-.24-2.01,0-.68.09-1.31.27-1.89.18-.58.44-1.09.78-1.51s.76-.76,1.24-1c.49-.24,1.04-.36,1.65-.36.55,0,1.02.09,1.41.27.39.18.73.44,1.04.77v-5h1.76Zm-1.76,6.35c-.29-.38-.6-.64-.93-.79-.33-.15-.71-.22-1.12-.22-.8,0-1.43.29-1.87.87-.44.58-.66,1.42-.66,2.53,0,.58.05,1.08.15,1.49.1.41.24.75.43,1.01.19.26.42.45.7.58.28.12.59.18.94.18.51,0,.95-.11,1.32-.34s.72-.55,1.04-.96v-4.34Z"></path>
<path class="cls-4" d="m366.17,224.12c-.06.1-.12.18-.19.23-.07.05-.15.07-.25.07s-.23-.05-.37-.15c-.14-.1-.31-.21-.52-.33s-.45-.23-.74-.33-.63-.15-1.04-.15c-.38,0-.71.05-.99.15s-.52.23-.72.41c-.19.17-.34.37-.44.6-.1.23-.15.48-.15.75,0,.35.09.64.27.87.18.23.41.42.7.58s.62.3.98.42c.37.12.74.24,1.12.37s.76.28,1.12.45c.37.17.69.38.98.63s.52.57.7.94c.18.37.26.82.26,1.36,0,.57-.1,1.1-.29,1.6-.2.5-.48.93-.85,1.3-.37.37-.83.67-1.37.88-.54.21-1.16.32-1.85.32-.41,0-.82-.04-1.21-.12-.39-.08-.76-.2-1.11-.34-.35-.15-.67-.32-.98-.53s-.57-.44-.81-.7l.55-.92c.05-.07.12-.13.19-.18.08-.05.16-.07.26-.07.13,0,.27.07.44.2s.37.28.61.44.53.3.87.44.75.2,1.24.2c.4,0,.75-.05,1.06-.16.31-.11.58-.26.79-.45.21-.19.38-.43.49-.71s.17-.58.17-.92c0-.38-.09-.69-.26-.93s-.41-.44-.69-.6-.62-.3-.98-.41c-.37-.11-.74-.23-1.12-.36s-.76-.27-1.12-.43c-.37-.16-.69-.37-.98-.63s-.52-.59-.69-.98c-.17-.39-.26-.88-.26-1.45,0-.46.09-.91.27-1.34.18-.43.44-.81.79-1.15s.77-.6,1.27-.8,1.08-.3,1.73-.3c.73,0,1.39.12,2,.35.61.23,1.14.56,1.59.99l-.47.91Z"></path>
<path class="cls-4" d="m376.38,233.64c-.22.25-.46.47-.75.65-.28.18-.58.33-.9.45-.32.12-.65.2-.99.25-.34.05-.67.08-1,.08-.63,0-1.21-.11-1.75-.32s-1-.52-1.4-.94c-.39-.41-.7-.92-.92-1.53-.22-.61-.33-1.31-.33-2.1,0-.64.1-1.23.3-1.78.2-.55.48-1.03.85-1.44.37-.41.82-.73,1.35-.96s1.13-.35,1.8-.35c.56,0,1.07.09,1.54.27.47.18.88.45,1.22.8.34.35.61.78.8,1.29.2.51.29,1.09.29,1.75,0,.27-.03.45-.09.54-.06.09-.17.14-.33.14h-5.99c.02.55.1,1.02.23,1.43.14.41.33.74.57,1.01s.53.47.87.6c.34.13.71.2,1.12.2.39,0,.73-.04,1.01-.13s.53-.19.74-.29c.21-.1.38-.2.52-.29s.27-.14.37-.14c.14,0,.25.05.33.16l.5.65Zm-1.45-4.28c0-.35-.05-.67-.15-.96-.1-.29-.25-.55-.44-.77-.19-.22-.43-.38-.7-.5s-.59-.18-.95-.18c-.74,0-1.32.21-1.74.64s-.69,1.02-.81,1.77h4.79Z"></path>
<path class="cls-4" d="m380.06,227.55c.29-.6.65-1.07,1.06-1.41.41-.34.91-.51,1.49-.51.2,0,.38.02.56.07.18.04.33.11.46.2l-.12,1.32c-.04.16-.14.24-.3.24-.08,0-.21-.02-.38-.05-.17-.03-.35-.05-.54-.05-.28,0-.53.04-.75.12-.22.08-.41.2-.58.36-.17.16-.32.35-.45.58-.13.23-.26.49-.37.79v5.72h-1.75v-9.14h1.01c.19,0,.32.03.39.1.07.07.12.19.15.36l.11,1.29Z"></path>
<path class="cls-4" d="m392.94,225.8l-3.71,9.14h-1.58l-3.71-9.14h1.45c.14,0,.25.03.34.1.09.07.15.15.18.25l2.19,5.62c.08.23.15.47.2.7.06.23.11.46.16.69.05-.23.1-.46.16-.68.06-.23.13-.46.22-.7l2.21-5.62c.04-.1.1-.19.19-.25.09-.07.2-.1.32-.1h1.38Z"></path>
<path class="cls-4" d="m396.51,222.97c0,.16-.03.32-.1.46-.07.15-.15.28-.27.39-.11.11-.24.2-.39.26-.15.06-.31.09-.47.09s-.31-.03-.46-.09c-.14-.06-.27-.15-.38-.26-.11-.11-.2-.24-.26-.39-.06-.15-.09-.3-.09-.46s.03-.33.09-.47c.06-.15.15-.28.26-.39s.24-.2.38-.26c.14-.06.3-.09.46-.09s.32.03.47.09c.15.06.28.15.39.26s.2.24.27.39c.07.15.1.3.1.47Zm-.33,2.83v9.14h-1.75v-9.14h1.75Z"></path>
<path class="cls-4" d="m405.13,227.51c-.05.07-.11.12-.16.16s-.12.06-.22.06-.2-.04-.3-.11c-.11-.07-.24-.16-.4-.24s-.35-.17-.58-.24c-.22-.07-.5-.11-.83-.11-.43,0-.81.08-1.14.23-.33.16-.6.38-.82.67s-.39.64-.5,1.05c-.11.41-.17.88-.17,1.4s.06,1.01.18,1.43c.12.42.29.77.51,1.05.22.29.49.5.81.65.32.15.67.22,1.06.22s.69-.05.94-.14c.25-.09.45-.19.61-.3.16-.11.3-.21.41-.3.11-.09.22-.14.33-.14.14,0,.25.05.33.16l.5.65c-.21.26-.45.48-.71.66-.26.18-.54.33-.83.44-.29.12-.6.2-.92.25-.32.05-.65.08-.98.08-.57,0-1.1-.11-1.6-.32s-.92-.52-1.29-.92c-.36-.4-.65-.9-.86-1.48-.21-.58-.32-1.25-.32-1.99,0-.68.09-1.31.28-1.88.19-.58.47-1.07.84-1.49.37-.42.82-.74,1.36-.98.54-.24,1.16-.36,1.85-.36.65,0,1.23.1,1.73.31.5.21.94.51,1.33.89l-.47.65Z"></path>
<path class="cls-4" d="m414.68,233.64c-.22.25-.46.47-.75.65-.28.18-.58.33-.9.45-.32.12-.65.2-.99.25-.34.05-.67.08-1,.08-.63,0-1.21-.11-1.75-.32s-1-.52-1.4-.94c-.39-.41-.7-.92-.92-1.53-.22-.61-.33-1.31-.33-2.1,0-.64.1-1.23.3-1.78.2-.55.48-1.03.85-1.44.37-.41.82-.73,1.35-.96s1.13-.35,1.8-.35c.56,0,1.07.09,1.54.27.47.18.88.45,1.22.8.34.35.61.78.8,1.29.2.51.29,1.09.29,1.75,0,.27-.03.45-.09.54-.06.09-.17.14-.33.14h-5.99c.02.55.1,1.02.23,1.43.14.41.33.74.57,1.01s.53.47.87.6c.34.13.71.2,1.12.2.39,0,.73-.04,1.01-.13s.53-.19.74-.29c.21-.1.38-.2.52-.29s.27-.14.37-.14c.14,0,.25.05.33.16l.5.65Zm-1.45-4.28c0-.35-.05-.67-.15-.96-.1-.29-.25-.55-.44-.77-.19-.22-.43-.38-.7-.5s-.59-.18-.95-.18c-.74,0-1.32.21-1.74.64s-.69,1.02-.81,1.77h4.79Z"></path>
<path class="cls-4" d="m432.2,222.02v12.92h-1.92v-5.82h-6.74v5.82h-1.93v-12.92h1.93v5.71h6.74v-5.71h1.92Z"></path>
<path class="cls-4" d="m434.54,227.08c.51-.49,1.06-.85,1.66-1.09.6-.24,1.25-.36,1.97-.36.52,0,.98.09,1.39.26.4.17.74.41,1.02.72.28.3.48.67.62,1.1s.21.9.21,1.41v5.83h-.78c-.17,0-.31-.03-.4-.08-.09-.06-.16-.16-.22-.32l-.19-.8c-.23.21-.46.41-.69.57-.23.17-.47.31-.72.42s-.51.21-.8.27c-.28.06-.59.09-.94.09s-.7-.05-1.01-.15c-.32-.1-.59-.25-.82-.46-.23-.2-.42-.46-.55-.76-.14-.31-.2-.66-.2-1.07,0-.36.1-.71.29-1.04.19-.33.51-.63.95-.9.44-.26,1.02-.48,1.73-.65s1.59-.26,2.62-.29v-.67c0-.69-.15-1.21-.44-1.55-.29-.34-.73-.51-1.3-.51-.38,0-.71.05-.97.14s-.49.2-.67.32c-.19.12-.35.22-.5.32s-.29.14-.44.14c-.12,0-.22-.03-.31-.1s-.16-.14-.21-.23l-.32-.57Zm5.15,3.81c-.71.02-1.32.08-1.82.17-.5.09-.9.2-1.21.35-.31.14-.54.31-.67.51-.14.2-.21.41-.21.65s.04.42.11.59.18.3.31.4c.13.11.28.18.46.23.17.05.36.07.57.07.27,0,.52-.03.74-.08.23-.05.44-.13.63-.23.2-.1.39-.22.57-.37.18-.14.36-.31.53-.49v-1.8Z"></path>
<path class="cls-4" d="m445.41,227.07c.2-.21.41-.4.62-.58.22-.17.45-.32.69-.45s.5-.22.78-.29c.28-.07.58-.1.9-.1.5,0,.95.08,1.33.25s.7.4.96.71c.26.3.45.67.58,1.09.13.43.2.9.2,1.41v5.82h-1.76v-5.82c0-.65-.15-1.16-.45-1.53-.3-.36-.76-.54-1.38-.54-.45,0-.87.11-1.26.32-.39.21-.76.5-1.09.87v6.71h-1.75v-9.14h1.05c.25,0,.4.12.46.35l.13.92Z"></path>
<path class="cls-4" d="m461.49,221.66v13.28h-1.06c-.25,0-.4-.12-.46-.35l-.15-1.05c-.39.46-.83.83-1.33,1.11s-1.07.42-1.71.42c-.52,0-.99-.1-1.42-.31-.42-.2-.79-.5-1.08-.9-.3-.39-.53-.88-.69-1.46-.16-.58-.24-1.25-.24-2.01,0-.68.09-1.31.27-1.89.18-.58.44-1.09.78-1.51.34-.43.76-.76,1.24-1,.49-.24,1.04-.36,1.65-.36.55,0,1.02.09,1.41.27.39.18.73.44,1.04.77v-5h1.76Zm-1.76,6.35c-.29-.38-.6-.64-.93-.79-.33-.15-.71-.22-1.12-.22-.8,0-1.43.29-1.87.87-.44.58-.66,1.42-.66,2.53,0,.58.05,1.08.15,1.49.1.41.24.75.43,1.01.19.26.42.45.7.58.28.12.59.18.94.18.51,0,.95-.11,1.32-.34.37-.23.72-.55,1.04-.96v-4.34Z"></path>
<path class="cls-4" d="m465.75,221.66v13.28h-1.76v-13.28h1.76Z"></path>
<path class="cls-4" d="m475.76,233.64c-.22.25-.46.47-.75.65-.28.18-.58.33-.9.45-.32.12-.65.2-.99.25-.34.05-.67.08-1,.08-.63,0-1.21-.11-1.75-.32s-1-.52-1.4-.94c-.39-.41-.7-.92-.92-1.53-.22-.61-.33-1.31-.33-2.1,0-.64.1-1.23.3-1.78.2-.55.48-1.03.85-1.44.37-.41.82-.73,1.35-.96s1.13-.35,1.8-.35c.56,0,1.07.09,1.54.27.47.18.88.45,1.22.8.34.35.61.78.8,1.29.2.51.29,1.09.29,1.75,0,.27-.03.45-.09.54-.06.09-.17.14-.33.14h-5.99c.02.55.1,1.02.23,1.43.14.41.33.74.57,1.01s.53.47.87.6c.34.13.71.2,1.12.2.39,0,.73-.04,1.01-.13s.53-.19.74-.29c.21-.1.38-.2.52-.29s.27-.14.37-.14c.14,0,.25.05.33.16l.5.65Zm-1.45-4.28c0-.35-.05-.67-.15-.96-.1-.29-.25-.55-.44-.77-.19-.22-.43-.38-.7-.5s-.59-.18-.95-.18c-.74,0-1.32.21-1.74.64s-.69,1.02-.81,1.77h4.79Z"></path>
<path class="cls-4" d="m479.44,227.55c.29-.6.65-1.07,1.06-1.41.41-.34.91-.51,1.49-.51.2,0,.38.02.56.07.18.04.33.11.46.2l-.12,1.32c-.04.16-.14.24-.3.24-.08,0-.21-.02-.38-.05-.17-.03-.35-.05-.54-.05-.28,0-.53.04-.75.12-.22.08-.41.2-.58.36-.17.16-.32.35-.45.58-.13.23-.26.49-.37.79v5.72h-1.75v-9.14h1.01c.19,0,.32.03.39.1.07.07.12.19.15.36l.11,1.29Z"></path>
</g>
<rect class="cls-1" height="225" width="510" x="30" y="345"></rect>
<g>
<path class="cls-4" d="m116.35,32.03v12.92h-.97c-.15,0-.27-.03-.37-.08-.1-.05-.2-.14-.3-.26l-7.3-9.44c.01.16.02.32.03.48s.01.3.01.44v8.87h-1.68v-12.92h.99c.17,0,.29.02.38.06.08.04.18.13.28.27l7.32,9.45c-.02-.17-.03-.34-.04-.51,0-.16-.01-.32-.01-.46v-8.8h1.67Z"></path>
<path class="cls-4" d="m122.8,35.66c.67,0,1.28.11,1.82.33.54.22,1,.54,1.39.95.38.41.67.91.88,1.49s.31,1.23.31,1.95-.1,1.37-.31,1.95-.5,1.08-.88,1.48c-.38.41-.84.72-1.39.94s-1.15.33-1.82.33-1.29-.11-1.83-.33-1.01-.53-1.39-.94c-.38-.41-.68-.9-.89-1.48s-.31-1.23-.31-1.95.1-1.37.31-1.95.5-1.07.89-1.49c.38-.41.85-.73,1.39-.95.54-.22,1.15-.33,1.83-.33Zm0,8.05c.86,0,1.51-.29,1.94-.87.43-.58.64-1.4.64-2.46s-.21-1.88-.64-2.46c-.43-.58-1.07-.88-1.94-.88s-1.53.29-1.96.88c-.43.59-.64,1.41-.64,2.46s.21,1.88.64,2.46c.43.58,1.08.87,1.96.87Z"></path>
<path class="cls-4" d="m130.79,37.08c.2-.21.41-.4.62-.58.22-.17.45-.32.69-.45s.5-.22.78-.29c.28-.07.58-.1.9-.1.5,0,.95.08,1.33.25s.7.4.96.71c.26.3.45.67.58,1.09.13.43.2.9.2,1.41v5.82h-1.76v-5.82c0-.65-.15-1.16-.45-1.53-.3-.36-.76-.54-1.38-.54-.45,0-.87.11-1.26.32-.39.21-.76.5-1.09.87v6.71h-1.75v-9.14h1.05c.25,0,.4.12.46.35l.13.92Z"></path>
<path class="cls-4" d="m139.08,38.79h4.5v1.49h-4.5v-1.49Z"></path>
<path class="cls-4" d="m151.3,37.38c-.05.08-.1.13-.15.17-.05.03-.12.05-.21.05-.1,0-.2-.03-.32-.1s-.26-.14-.42-.22-.36-.15-.58-.22c-.22-.07-.49-.1-.79-.1-.25,0-.48.03-.69.09s-.38.15-.53.26c-.14.11-.25.24-.33.4-.08.15-.12.32-.12.49,0,.23.07.42.2.57s.31.28.53.39c.22.11.47.21.75.29.28.09.56.18.85.28s.58.21.86.33c.28.12.53.28.75.46.22.18.4.4.53.66.14.26.2.57.2.94,0,.43-.08.82-.23,1.18-.15.36-.38.68-.67.94-.3.26-.67.47-1.1.62-.44.15-.94.22-1.5.22-.63,0-1.21-.1-1.75-.31-.53-.21-.98-.48-1.34-.8l.41-.68c.05-.08.11-.15.18-.19.07-.04.17-.07.29-.07.11,0,.23.04.35.13s.26.18.43.28c.17.1.37.19.61.27.24.08.54.12.9.12.3,0,.56-.04.78-.11.22-.08.41-.18.55-.31.15-.13.26-.28.33-.45.07-.17.11-.35.11-.53,0-.24-.07-.44-.2-.6s-.31-.3-.53-.41c-.22-.11-.47-.21-.75-.3-.28-.08-.57-.17-.86-.27s-.58-.21-.86-.33-.53-.29-.75-.48c-.22-.19-.4-.43-.53-.7-.13-.28-.2-.61-.2-1.01,0-.35.07-.69.22-1.02.15-.32.36-.61.64-.85.28-.25.62-.44,1.03-.59s.88-.22,1.41-.22c.61,0,1.15.1,1.64.29.49.19.91.46,1.25.79l-.39.64Z"></path>
<path class="cls-4" d="m161.24,43.64c-.22.25-.46.47-.75.65s-.58.33-.9.45-.65.2-.99.25-.67.08-1,.08c-.63,0-1.21-.11-1.75-.32s-1-.52-1.4-.94c-.39-.41-.7-.92-.92-1.53-.22-.61-.33-1.31-.33-2.1,0-.64.1-1.23.3-1.78s.48-1.03.85-1.44.82-.73,1.35-.96c.53-.23,1.13-.35,1.8-.35.56,0,1.07.09,1.54.27.47.18.88.45,1.22.8.34.35.61.78.8,1.29.2.51.29,1.09.29,1.75,0,.27-.03.45-.09.54-.06.09-.17.14-.33.14h-5.99c.02.55.1,1.02.23,1.43.14.4.33.74.57,1.01.24.27.53.47.87.6s.71.2,1.12.2c.39,0,.73-.05,1.01-.14s.53-.19.74-.29.38-.2.52-.29.27-.14.37-.14c.14,0,.25.05.33.16l.5.65Zm-1.45-4.28c0-.35-.05-.67-.15-.96s-.25-.55-.44-.77c-.19-.22-.43-.38-.7-.5-.28-.12-.59-.18-.95-.18-.74,0-1.32.21-1.74.64s-.69,1.02-.81,1.77h4.79Z"></path>
<path class="cls-4" d="m169.67,37.52c-.05.07-.11.12-.16.16s-.12.06-.22.06-.2-.04-.3-.11c-.11-.07-.24-.16-.4-.24-.16-.09-.35-.17-.58-.24-.22-.08-.5-.11-.83-.11-.43,0-.81.08-1.14.23-.33.16-.6.38-.82.67-.22.29-.39.64-.5,1.05-.11.41-.17.88-.17,1.39s.06,1.01.18,1.43.29.77.51,1.05c.22.29.49.5.81.65.32.15.67.22,1.06.22s.69-.05.94-.14c.25-.09.45-.19.61-.3s.3-.21.41-.3c.11-.09.22-.14.33-.14.14,0,.25.05.33.16l.5.65c-.21.26-.45.48-.71.66-.26.18-.54.33-.83.44s-.6.2-.92.25c-.32.05-.65.08-.98.08-.57,0-1.1-.11-1.6-.31-.5-.21-.92-.52-1.29-.92-.36-.4-.65-.9-.86-1.48-.21-.59-.32-1.25-.32-1.99,0-.68.09-1.3.28-1.88.19-.58.47-1.07.84-1.49.37-.42.82-.74,1.36-.98.54-.24,1.16-.36,1.85-.36.65,0,1.23.11,1.73.31.5.21.94.51,1.33.89l-.47.65Z"></path>
<path class="cls-4" d="m179.48,35.81v9.14h-1.05c-.24,0-.4-.12-.47-.35l-.13-.92c-.2.21-.41.4-.62.58-.22.17-.45.32-.69.45s-.51.22-.78.29c-.28.07-.57.1-.89.1-.5,0-.95-.08-1.33-.25-.38-.17-.7-.4-.96-.71-.26-.3-.45-.67-.58-1.09-.13-.43-.2-.9-.2-1.41v-5.82h1.76v5.82c0,.65.15,1.16.45,1.53.3.36.76.54,1.38.54.45,0,.87-.11,1.26-.32.39-.21.76-.5,1.1-.88v-6.7h1.75Z"></path>
<path class="cls-4" d="m183.59,37.56c.29-.6.65-1.07,1.06-1.41s.91-.51,1.49-.51c.2,0,.38.02.56.07.18.04.33.11.46.2l-.12,1.32c-.04.16-.14.24-.3.24-.08,0-.21-.02-.38-.05s-.35-.05-.54-.05c-.28,0-.53.04-.75.12-.22.08-.41.2-.58.36-.17.16-.32.35-.45.58-.13.23-.26.49-.37.79v5.72h-1.75v-9.14h1.01c.19,0,.32.03.39.1s.12.19.15.36l.11,1.29Z"></path>
<path class="cls-4" d="m195.7,43.64c-.22.25-.46.47-.75.65s-.58.33-.9.45-.65.2-.99.25-.67.08-1,.08c-.63,0-1.21-.11-1.75-.32s-1-.52-1.4-.94c-.39-.41-.7-.92-.92-1.53-.22-.61-.33-1.31-.33-2.1,0-.64.1-1.23.3-1.78s.48-1.03.85-1.44.82-.73,1.35-.96c.53-.23,1.13-.35,1.8-.35.56,0,1.07.09,1.54.27.47.18.88.45,1.22.8.34.35.61.78.8,1.29.2.51.29,1.09.29,1.75,0,.27-.03.45-.09.54-.06.09-.17.14-.33.14h-5.99c.02.55.1,1.02.23,1.43.14.4.33.74.57,1.01.24.27.53.47.87.6s.71.2,1.12.2c.39,0,.73-.05,1.01-.14s.53-.19.74-.29.38-.2.52-.29.27-.14.37-.14c.14,0,.25.05.33.16l.5.65Zm-1.45-4.28c0-.35-.05-.67-.15-.96s-.25-.55-.44-.77c-.19-.22-.43-.38-.7-.5-.28-.12-.59-.18-.95-.18-.74,0-1.32.21-1.74.64s-.69,1.02-.81,1.77h4.79Z"></path>
</g>
<g>
<path class="cls-4" d="m401.74,34.13c-.06.1-.12.18-.19.22-.07.05-.15.07-.25.07s-.23-.05-.37-.15c-.14-.1-.31-.21-.52-.33s-.45-.23-.74-.33c-.29-.1-.63-.15-1.04-.15-.38,0-.71.05-.99.15-.29.1-.52.23-.72.4-.19.17-.34.37-.44.6-.1.23-.15.48-.15.75,0,.35.09.64.27.86s.41.42.7.58.62.3.98.42c.37.12.74.24,1.12.37.38.13.76.28,1.12.45.37.17.69.38.98.63.29.26.52.57.7.94.18.37.26.82.26,1.35,0,.57-.1,1.1-.29,1.6-.2.5-.48.93-.85,1.3-.37.37-.83.67-1.37.88-.54.21-1.16.32-1.85.32-.41,0-.82-.04-1.21-.12-.39-.08-.76-.2-1.11-.34s-.67-.32-.98-.53-.57-.44-.81-.7l.55-.92c.05-.07.12-.13.19-.18.08-.05.16-.07.26-.07.13,0,.27.07.44.2.17.13.37.28.61.44.24.16.53.3.87.44.34.13.75.2,1.24.2.4,0,.75-.05,1.06-.16.31-.11.58-.25.79-.45.21-.19.38-.43.49-.71.11-.28.17-.58.17-.92,0-.38-.09-.69-.26-.93s-.41-.44-.69-.6-.62-.3-.98-.41c-.37-.11-.74-.23-1.12-.36s-.76-.27-1.12-.43c-.37-.16-.69-.37-.98-.63-.29-.26-.52-.59-.69-.98-.17-.39-.26-.88-.26-1.45,0-.46.09-.91.27-1.34.18-.43.44-.81.79-1.15.34-.33.77-.6,1.27-.8s1.08-.3,1.73-.3c.73,0,1.39.12,2,.35.61.23,1.14.56,1.59.99l-.47.91Z"></path>
<path class="cls-4" d="m411.95,43.64c-.22.25-.46.47-.75.65s-.58.33-.9.45-.65.2-.99.25-.67.08-1,.08c-.63,0-1.21-.11-1.75-.32s-1-.52-1.4-.94c-.39-.41-.7-.92-.92-1.53-.22-.61-.33-1.31-.33-2.1,0-.64.1-1.23.3-1.78s.48-1.03.85-1.44.82-.73,1.35-.96c.53-.23,1.13-.35,1.8-.35.56,0,1.07.09,1.54.27.47.18.88.45,1.22.8.34.35.61.78.8,1.29.2.51.29,1.09.29,1.75,0,.27-.03.45-.09.54-.06.09-.17.14-.33.14h-5.99c.02.55.1,1.02.23,1.43.14.4.33.74.57,1.01.24.27.53.47.87.6s.71.2,1.12.2c.39,0,.73-.05,1.01-.14s.53-.19.74-.29.38-.2.52-.29.27-.14.37-.14c.14,0,.25.05.33.16l.5.65Zm-1.45-4.28c0-.35-.05-.67-.15-.96s-.25-.55-.44-.77c-.19-.22-.43-.38-.7-.5-.28-.12-.59-.18-.95-.18-.74,0-1.32.21-1.74.64s-.69,1.02-.81,1.77h4.79Z"></path>
<path class="cls-4" d="m420.38,37.52c-.05.07-.11.12-.16.16s-.12.06-.22.06-.2-.04-.3-.11c-.11-.07-.24-.16-.4-.24-.16-.09-.35-.17-.58-.24-.22-.08-.5-.11-.83-.11-.43,0-.81.08-1.14.23-.33.16-.6.38-.82.67-.22.29-.39.64-.5,1.05-.11.41-.17.88-.17,1.39s.06,1.01.18,1.43.29.77.51,1.05c.22.29.49.5.81.65.32.15.67.22,1.06.22s.69-.05.94-.14c.25-.09.45-.19.61-.3s.3-.21.41-.3c.11-.09.22-.14.33-.14.14,0,.25.05.33.16l.5.65c-.21.26-.45.48-.71.66-.26.18-.54.33-.83.44s-.6.2-.92.25c-.32.05-.65.08-.98.08-.57,0-1.1-.11-1.6-.31-.5-.21-.92-.52-1.29-.92-.36-.4-.65-.9-.86-1.48-.21-.59-.32-1.25-.32-1.99,0-.68.09-1.3.28-1.88.19-.58.47-1.07.84-1.49.37-.42.82-.74,1.36-.98.54-.24,1.16-.36,1.85-.36.65,0,1.23.11,1.73.31.5.21.94.51,1.33.89l-.47.65Z"></path>
<path class="cls-4" d="m430.19,35.81v9.14h-1.05c-.24,0-.4-.12-.47-.35l-.13-.92c-.2.21-.41.4-.62.58-.22.17-.45.32-.69.45s-.51.22-.78.29c-.28.07-.57.1-.89.1-.5,0-.95-.08-1.33-.25-.38-.17-.7-.4-.96-.71-.26-.3-.45-.67-.58-1.09-.13-.43-.2-.9-.2-1.41v-5.82h1.76v5.82c0,.65.15,1.16.45,1.53.3.36.76.54,1.38.54.45,0,.87-.11,1.26-.32.39-.21.76-.5,1.1-.88v-6.7h1.75Z"></path>
<path class="cls-4" d="m434.3,37.56c.29-.6.65-1.07,1.06-1.41s.91-.51,1.49-.51c.2,0,.38.02.56.07.18.04.33.11.46.2l-.12,1.32c-.04.16-.14.24-.3.24-.08,0-.21-.02-.38-.05s-.35-.05-.54-.05c-.28,0-.53.04-.75.12-.22.08-.41.2-.58.36-.17.16-.32.35-.45.58-.13.23-.26.49-.37.79v5.72h-1.75v-9.14h1.01c.19,0,.32.03.39.1s.12.19.15.36l.11,1.29Z"></path>
<path class="cls-4" d="m446.41,43.64c-.22.25-.46.47-.75.65s-.58.33-.9.45-.65.2-.99.25-.67.08-1,.08c-.63,0-1.21-.11-1.75-.32s-1-.52-1.4-.94c-.39-.41-.7-.92-.92-1.53-.22-.61-.33-1.31-.33-2.1,0-.64.1-1.23.3-1.78s.48-1.03.85-1.44.82-.73,1.35-.96c.53-.23,1.13-.35,1.8-.35.56,0,1.07.09,1.54.27.47.18.88.45,1.22.8.34.35.61.78.8,1.29.2.51.29,1.09.29,1.75,0,.27-.03.45-.09.54-.06.09-.17.14-.33.14h-5.99c.02.55.1,1.02.23,1.43.14.4.33.74.57,1.01.24.27.53.47.87.6s.71.2,1.12.2c.39,0,.73-.05,1.01-.14s.53-.19.74-.29.38-.2.52-.29.27-.14.37-.14c.14,0,.25.05.33.16l.5.65Zm-1.45-4.28c0-.35-.05-.67-.15-.96s-.25-.55-.44-.77c-.19-.22-.43-.38-.7-.5-.28-.12-.59-.18-.95-.18-.74,0-1.32.21-1.74.64s-.69,1.02-.81,1.77h4.79Z"></path>
</g>
<rect class="cls-2" height="45" width="105" x="30.33" y="60"></rect>
<g>
<path class="cls-3" d="m78.84,89.14h-1.48c-.17,0-.31-.04-.41-.13-.11-.08-.19-.19-.23-.32l-1.14-3h-5.7l-1.14,3c-.04.12-.12.22-.23.31-.11.09-.25.14-.41.14h-1.48l5.15-12.92h1.93l5.15,12.92Zm-3.79-4.82l-1.92-5.01c-.14-.34-.28-.77-.41-1.3-.07.26-.13.5-.2.72-.07.22-.14.42-.2.59l-1.91,5h4.64Z"></path>
<path class="cls-3" d="m81.72,81.37c.19-.23.4-.44.62-.63.22-.19.45-.35.71-.49.25-.13.52-.24.81-.31.29-.07.59-.11.91-.11.52,0,.99.1,1.42.31.42.2.78.5,1.08.9.3.4.53.88.7,1.47s.25,1.25.25,2.01c0,.68-.09,1.31-.27,1.88-.18.58-.44,1.08-.78,1.51s-.75.76-1.24,1c-.49.24-1.04.36-1.65.36-.55,0-1.01-.09-1.4-.27-.39-.18-.74-.43-1.04-.76v3.97h-1.75v-12.21h1.05c.25,0,.4.12.46.35l.15,1.02Zm.09,5.53c.29.38.6.64.93.79.33.15.71.23,1.12.23.8,0,1.43-.29,1.87-.87.44-.58.66-1.42.66-2.53,0-.58-.05-1.08-.15-1.49-.1-.41-.24-.75-.43-1.01-.19-.26-.42-.45-.7-.58s-.59-.18-.94-.18c-.51,0-.95.11-1.33.34-.38.23-.72.55-1.04.97v4.33Z"></path>
<path class="cls-3" d="m91.84,81.37c.19-.23.4-.44.62-.63.22-.19.45-.35.71-.49.25-.13.52-.24.81-.31.29-.07.59-.11.91-.11.52,0,.99.1,1.42.31.42.2.78.5,1.08.9.3.4.53.88.7,1.47s.25,1.25.25,2.01c0,.68-.09,1.31-.27,1.88-.18.58-.44,1.08-.78,1.51s-.75.76-1.24,1c-.49.24-1.04.36-1.65.36-.55,0-1.01-.09-1.4-.27-.39-.18-.74-.43-1.04-.76v3.97h-1.75v-12.21h1.05c.25,0,.4.12.46.35l.15,1.02Zm.09,5.53c.29.38.6.64.93.79.33.15.71.23,1.12.23.8,0,1.43-.29,1.87-.87.44-.58.66-1.42.66-2.53,0-.58-.05-1.08-.15-1.49-.1-.41-.24-.75-.43-1.01-.19-.26-.42-.45-.7-.58s-.59-.18-.94-.18c-.51,0-.95.11-1.33.34-.38.23-.72.55-1.04.97v4.33Z"></path>
</g>
<rect class="cls-3" height="45" width="450" x="60" y="375"></rect>
<g>
<path class="cls-4" d="m228.91,393.32c-.06.1-.12.18-.19.22-.07.05-.15.07-.25.07s-.23-.05-.37-.15c-.14-.1-.31-.21-.52-.33s-.45-.23-.74-.33-.63-.15-1.04-.15c-.38,0-.71.05-.99.15s-.52.23-.72.4c-.19.17-.34.37-.44.6-.1.23-.15.48-.15.75,0,.35.09.64.27.86.18.23.41.42.7.59s.62.3.98.42c.37.12.74.25,1.12.37.38.13.76.28,1.12.45.37.17.69.38.98.63s.52.57.7.94c.18.37.26.82.26,1.35,0,.57-.1,1.1-.29,1.6-.2.5-.48.93-.85,1.3s-.83.67-1.37.88c-.54.21-1.16.32-1.85.32-.41,0-.82-.04-1.21-.12-.39-.08-.76-.19-1.11-.34-.35-.15-.67-.32-.98-.53s-.57-.44-.81-.7l.55-.92c.05-.07.12-.13.19-.18.08-.05.16-.07.26-.07.13,0,.27.07.44.2s.37.28.61.44c.24.16.53.3.87.44s.75.2,1.24.2c.4,0,.75-.05,1.06-.16.31-.1.58-.25.79-.45s.38-.43.49-.71c.11-.28.17-.58.17-.92,0-.38-.09-.69-.26-.93-.17-.24-.41-.44-.69-.6s-.62-.3-.98-.41c-.37-.11-.74-.23-1.12-.36s-.76-.27-1.12-.43c-.37-.16-.69-.37-.98-.63-.29-.26-.52-.59-.69-.98-.17-.39-.26-.88-.26-1.45,0-.46.09-.91.27-1.34s.44-.81.79-1.15.77-.6,1.27-.8c.5-.2,1.08-.3,1.73-.3.73,0,1.39.12,2,.35.61.23,1.14.56,1.59,1l-.47.91Z"></path>
<path class="cls-4" d="m245.61,391.22v12.92h-1.67v-9.2c0-.14,0-.28.01-.44,0-.16.02-.32.03-.48l-4.3,7.89c-.15.29-.38.44-.69.44h-.27c-.31,0-.54-.15-.68-.44l-4.38-7.92c.04.34.05.65.05.94v9.2h-1.68v-12.92h1.42c.17,0,.3.02.39.05s.18.12.27.27l4.32,7.74c.08.16.16.32.23.5.07.17.14.35.21.52.13-.35.27-.7.44-1.03l4.24-7.73c.08-.15.16-.24.26-.27.09-.03.22-.05.39-.05h1.42Z"></path>
<path class="cls-4" d="m257.83,401.37c.11,0,.2.04.28.13l.76.83c-.53.62-1.17,1.11-1.93,1.45s-1.67.51-2.74.51c-.94,0-1.78-.16-2.54-.49-.76-.32-1.41-.78-1.94-1.36-.54-.58-.95-1.28-1.25-2.09-.29-.81-.44-1.7-.44-2.67s.16-1.86.46-2.67c.31-.81.74-1.51,1.3-2.09.56-.58,1.23-1.03,2-1.36.78-.32,1.64-.49,2.58-.49s1.73.15,2.45.45c.71.3,1.33.7,1.86,1.2l-.63.89c-.04.07-.09.12-.16.16-.06.04-.15.06-.25.06-.11,0-.25-.06-.4-.17-.15-.11-.35-.24-.6-.38-.25-.14-.56-.27-.92-.38-.37-.11-.82-.17-1.37-.17-.64,0-1.23.11-1.76.34-.53.23-.99.55-1.38.97-.39.42-.69.94-.9,1.56s-.32,1.31-.32,2.08.11,1.49.33,2.1c.22.61.53,1.13.92,1.56.39.43.85.75,1.38.97.53.22,1.1.33,1.71.33.37,0,.71-.02,1-.07.3-.05.57-.11.82-.2s.48-.21.71-.35c.22-.14.44-.31.66-.51.05-.04.1-.08.15-.1.05-.03.11-.04.17-.04Z"></path>
<path class="cls-4" d="m276.62,397.68c0,.97-.15,1.85-.46,2.64-.31.79-.75,1.47-1.31,2.04-.56.57-1.24,1.01-2.02,1.32-.79.31-1.66.47-2.62.47h-4.86v-12.92h4.86c.96,0,1.83.16,2.62.47.79.31,1.46.75,2.02,1.32.56.57,1,1.25,1.31,2.04.31.8.46,1.67.46,2.63Zm-1.96,0c0-.77-.11-1.46-.32-2.06-.21-.61-.51-1.12-.9-1.55-.39-.42-.85-.75-1.4-.97-.55-.22-1.16-.33-1.84-.33h-2.93v9.83h2.93c.68,0,1.29-.11,1.84-.33.55-.22,1.02-.54,1.4-.97.39-.42.69-.94.9-1.54s.32-1.3.32-2.07Z"></path>
<path class="cls-4" d="m280.67,392.17c0,.16-.03.32-.1.46-.07.15-.15.28-.27.39-.11.11-.24.2-.39.26-.15.06-.31.09-.47.09s-.31-.03-.46-.09c-.14-.06-.27-.15-.38-.26-.11-.11-.2-.24-.26-.39-.06-.15-.09-.3-.09-.46s.03-.33.09-.47c.06-.15.15-.28.26-.39.11-.11.24-.2.38-.26.14-.06.3-.09.46-.09s.32.03.47.09c.15.06.28.15.39.26.11.11.2.24.27.39.07.15.1.3.1.47Zm-.33,2.83v9.14h-1.75v-9.14h1.75Z"></path>
<path class="cls-4" d="m288.28,396.57c-.05.08-.1.13-.15.17-.05.03-.12.05-.21.05-.1,0-.2-.03-.32-.1-.12-.07-.26-.14-.42-.21s-.36-.15-.58-.22c-.22-.07-.49-.1-.79-.1-.25,0-.48.03-.69.09-.21.06-.38.15-.53.26-.14.11-.25.24-.33.4-.08.15-.12.32-.12.49,0,.23.07.42.2.57.13.15.31.28.53.39.22.11.47.21.75.29.28.09.56.18.85.27s.58.21.86.33c.28.12.53.28.75.46.22.18.4.4.53.66.14.26.2.57.2.95,0,.43-.08.82-.23,1.18-.15.36-.38.68-.67.94-.3.26-.67.47-1.1.62-.44.15-.94.23-1.5.23-.63,0-1.21-.1-1.75-.32-.53-.21-.98-.48-1.34-.8l.41-.67c.05-.08.11-.15.18-.19.07-.05.17-.07.29-.07.11,0,.23.04.35.12.12.08.26.18.43.28.17.1.37.19.61.27.24.08.54.12.9.12.3,0,.56-.04.78-.11.22-.08.41-.18.55-.31.15-.13.26-.28.33-.45.07-.17.11-.35.11-.53,0-.24-.07-.44-.2-.6-.13-.16-.31-.3-.53-.41-.22-.11-.47-.21-.75-.3-.28-.08-.57-.17-.86-.27-.29-.1-.58-.21-.86-.33-.28-.12-.53-.29-.75-.48-.22-.19-.4-.43-.53-.7s-.2-.61-.2-1.01c0-.35.07-.69.22-1.02.15-.32.36-.61.64-.86.28-.25.62-.44,1.03-.59.41-.15.88-.22,1.41-.22.61,0,1.15.1,1.64.29.49.19.91.46,1.25.79l-.39.64Z"></path>
<path class="cls-4" d="m292.37,396.37c.19-.23.4-.44.62-.63.22-.19.45-.35.71-.49.25-.13.52-.24.81-.31.29-.07.59-.11.91-.11.52,0,.99.1,1.42.31.42.2.78.5,1.08.9.3.4.53.88.7,1.47s.25,1.25.25,2.01c0,.68-.09,1.31-.27,1.88-.18.58-.44,1.08-.78,1.51s-.75.76-1.24,1c-.49.24-1.04.36-1.65.36-.55,0-1.01-.09-1.4-.27-.39-.18-.74-.43-1.04-.76v3.97h-1.75v-12.21h1.05c.25,0,.4.12.46.35l.15,1.02Zm.09,5.53c.29.38.6.64.93.79.33.15.71.23,1.12.23.8,0,1.43-.29,1.87-.87.44-.58.66-1.42.66-2.53,0-.58-.05-1.08-.15-1.49-.1-.41-.24-.75-.43-1.01-.19-.26-.42-.45-.7-.58s-.59-.18-.94-.18c-.51,0-.95.11-1.33.34-.38.23-.72.55-1.04.97v4.33Z"></path>
<path class="cls-4" d="m300.6,396.28c.51-.49,1.06-.85,1.66-1.09.6-.24,1.25-.36,1.97-.36.52,0,.98.08,1.39.26.4.17.74.41,1.02.71.28.31.48.67.62,1.1.14.43.21.9.21,1.41v5.83h-.78c-.17,0-.31-.03-.4-.09-.09-.06-.16-.16-.22-.32l-.19-.8c-.23.22-.46.41-.69.57-.23.17-.47.31-.72.42-.25.12-.51.21-.8.27s-.59.09-.94.09-.7-.05-1.01-.15c-.32-.1-.59-.25-.82-.45-.23-.21-.42-.46-.55-.77-.14-.31-.2-.66-.2-1.07,0-.36.1-.71.29-1.04.19-.33.51-.63.95-.9.44-.26,1.02-.48,1.73-.65s1.59-.26,2.62-.29v-.67c0-.69-.15-1.21-.44-1.55s-.73-.51-1.3-.51c-.38,0-.71.05-.97.14-.26.1-.49.2-.67.32-.19.12-.35.22-.5.32-.14.1-.29.14-.44.14-.12,0-.22-.03-.31-.1s-.16-.14-.21-.23l-.32-.57Zm5.15,3.81c-.71.02-1.32.08-1.82.17-.5.09-.9.2-1.21.35-.31.14-.54.31-.67.51-.14.2-.21.41-.21.65,0,.23.04.42.11.59s.18.3.31.41c.13.1.28.18.46.23.17.05.36.07.57.07.27,0,.52-.03.74-.08.23-.05.44-.13.63-.23.2-.1.39-.22.57-.36.18-.14.36-.31.53-.5v-1.8Z"></path>
<path class="cls-4" d="m312.57,404.29c-.74,0-1.31-.21-1.71-.62-.4-.41-.6-1-.6-1.77v-5.47h-1.06c-.1,0-.19-.03-.26-.09-.07-.06-.1-.16-.1-.28v-.71l1.48-.21.4-2.73c.02-.1.07-.18.14-.24.07-.06.16-.08.27-.08h.89v3.07h2.59v1.28h-2.59v5.36c0,.36.09.63.27.8.18.18.4.27.68.27.16,0,.3-.02.42-.06.12-.04.22-.09.3-.14.08-.05.16-.1.22-.14.06-.04.11-.06.16-.06.06,0,.11.01.14.04.03.03.07.07.1.13l.52.85c-.29.26-.63.47-1.03.61-.4.14-.81.22-1.23.22Z"></path>
<path class="cls-4" d="m322.58,396.71c-.05.07-.11.12-.16.16s-.12.06-.22.06-.2-.04-.3-.11c-.11-.08-.24-.16-.4-.24-.16-.09-.35-.17-.58-.24-.22-.08-.5-.11-.83-.11-.43,0-.81.08-1.14.23s-.6.38-.82.67c-.22.29-.39.64-.5,1.05-.11.41-.17.88-.17,1.39s.06,1.01.18,1.43c.12.42.29.77.51,1.05s.49.5.81.65c.32.15.67.22,1.06.22s.69-.05.94-.14c.25-.09.45-.19.61-.3.16-.11.3-.21.41-.3.11-.09.22-.14.33-.14.14,0,.25.05.33.16l.5.65c-.21.26-.45.48-.71.66-.26.18-.54.33-.83.44-.29.11-.6.2-.92.25-.32.05-.65.08-.98.08-.57,0-1.1-.1-1.6-.31s-.92-.52-1.29-.92c-.36-.4-.65-.9-.86-1.48-.21-.58-.32-1.25-.32-1.99,0-.68.09-1.3.28-1.88.19-.58.47-1.07.84-1.49.37-.42.82-.74,1.36-.98.54-.24,1.16-.36,1.85-.36.65,0,1.23.11,1.73.32s.94.51,1.33.89l-.47.65Z"></path>
<path class="cls-4" d="m326.54,396.16c.38-.39.81-.71,1.27-.95.46-.24,1-.36,1.61-.36.5,0,.95.08,1.33.25s.7.4.96.71c.26.3.45.67.58,1.09s.2.9.2,1.41v5.82h-1.76v-5.82c0-.65-.15-1.16-.45-1.53-.3-.36-.76-.54-1.38-.54-.45,0-.87.11-1.26.32-.39.21-.76.5-1.09.87v6.71h-1.75v-13.29h1.75v5.3Z"></path>
<path class="cls-4" d="m342.36,402.84c-.22.25-.46.47-.75.65-.28.18-.58.33-.9.45-.32.11-.65.2-.99.25-.34.05-.67.08-1,.08-.63,0-1.21-.11-1.75-.32s-1-.53-1.4-.94c-.39-.41-.7-.92-.92-1.53-.22-.61-.33-1.31-.33-2.1,0-.64.1-1.23.3-1.78s.48-1.03.85-1.44.82-.73,1.35-.96,1.13-.35,1.8-.35c.56,0,1.07.09,1.54.28.47.18.88.45,1.22.8.34.35.61.78.8,1.29.2.51.29,1.09.29,1.75,0,.27-.03.45-.09.54-.06.09-.17.14-.33.14h-5.99c.02.54.1,1.02.23,1.43.14.41.33.74.57,1.01s.53.47.87.6c.34.13.71.2,1.12.2.39,0,.73-.05,1.01-.14s.53-.19.74-.29c.21-.11.38-.2.52-.29s.27-.13.37-.13c.14,0,.25.05.33.16l.5.65Zm-1.45-4.28c0-.35-.05-.67-.15-.96-.1-.29-.25-.55-.44-.76-.19-.22-.43-.38-.7-.5s-.59-.18-.95-.18c-.74,0-1.32.21-1.74.64-.42.43-.69,1.02-.81,1.77h4.79Z"></path>
<path class="cls-4" d="m346.04,396.75c.29-.6.65-1.07,1.06-1.41s.91-.51,1.49-.51c.2,0,.38.02.56.07.18.04.33.11.46.2l-.12,1.32c-.04.16-.14.24-.3.24-.08,0-.21-.02-.38-.05s-.35-.05-.54-.05c-.28,0-.53.04-.75.12-.22.08-.41.2-.58.36-.17.16-.32.36-.45.59-.13.23-.26.49-.37.79v5.72h-1.75v-9.14h1.01c.19,0,.32.04.39.1.07.07.12.19.15.37l.11,1.29Z"></path>
</g>
<g>
<path class="cls-3" d="m185.8,527.78v4.33h5.18v1.56h-5.18v5.48h-1.93v-12.92h8.01v1.56h-6.08Z"></path>
<path class="cls-3" d="m195.83,527.17c0,.16-.03.32-.1.46-.07.15-.15.28-.27.39-.11.11-.24.2-.39.26-.15.06-.31.09-.47.09s-.31-.03-.46-.09c-.14-.06-.27-.15-.38-.26-.11-.11-.2-.24-.26-.39-.06-.15-.09-.3-.09-.46s.03-.33.09-.47c.06-.15.15-.28.26-.39.11-.11.24-.2.38-.26.14-.06.3-.09.46-.09s.32.03.47.09c.15.06.28.15.39.26.11.11.2.24.27.39.07.15.1.3.1.47Zm-.33,2.83v9.14h-1.75v-9.14h1.75Z"></path>
<path class="cls-3" d="m199.7,531.75c.29-.6.65-1.07,1.06-1.41s.91-.51,1.49-.51c.2,0,.38.02.56.07.18.04.33.11.46.2l-.12,1.32c-.04.16-.14.24-.3.24-.08,0-.21-.02-.38-.05s-.35-.05-.54-.05c-.28,0-.53.04-.75.12-.22.08-.41.2-.58.36-.17.16-.32.36-.45.59-.13.23-.26.49-.37.79v5.72h-1.75v-9.14h1.01c.19,0,.32.04.39.1.07.07.12.19.15.37l.11,1.29Z"></path>
<path class="cls-3" d="m204.64,539.14v-9.14h1.05c.25,0,.4.12.46.35l.13.87c.34-.4.71-.73,1.12-.99.41-.25.89-.38,1.44-.38.61,0,1.1.17,1.48.5s.65.79.83,1.35c.13-.32.3-.6.51-.84s.44-.43.7-.58.53-.26.82-.33c.29-.07.59-.11.89-.11.49,0,.92.08,1.3.23.38.15.7.38.97.67.26.29.46.66.6,1.09.14.43.21.92.21,1.47v5.82h-1.76v-5.82c0-.68-.15-1.2-.45-1.55s-.73-.52-1.3-.52c-.25,0-.49.04-.72.13-.23.09-.43.22-.6.39-.17.17-.31.39-.4.65-.1.26-.15.56-.15.9v5.82h-1.76v-5.82c0-.71-.14-1.23-.42-1.57-.28-.34-.7-.5-1.24-.5-.38,0-.73.1-1.05.3s-.62.47-.89.81v6.79h-1.75Z"></path>
<path class="cls-3" d="m232.18,530l-2.94,9.14h-1.4c-.17,0-.28-.11-.34-.33l-1.93-5.96c-.05-.15-.09-.3-.13-.45-.04-.15-.07-.3-.1-.45-.05.31-.13.62-.23.91l-1.95,5.94c-.06.22-.19.33-.39.33h-1.33l-2.95-9.14h1.39c.14,0,.25.03.35.1.09.07.15.15.18.25l1.65,5.62c.05.23.1.45.14.67.04.22.08.43.12.65.05-.22.11-.43.18-.65.06-.22.13-.44.19-.67l1.83-5.65c.03-.1.09-.18.17-.25s.19-.09.31-.09h.77c.13,0,.24.03.33.09s.15.15.18.25l1.78,5.65c.07.23.13.45.19.67.06.22.11.44.16.66.04-.22.08-.43.13-.65s.1-.45.16-.68l1.67-5.62c.03-.1.09-.19.18-.25.09-.07.2-.1.32-.1h1.32Z"></path>
<path class="cls-3" d="m233.33,531.28c.51-.49,1.06-.85,1.66-1.09.6-.24,1.25-.36,1.97-.36.52,0,.98.08,1.39.26.4.17.74.41,1.02.71.28.31.48.67.62,1.1.14.43.21.9.21,1.41v5.83h-.78c-.17,0-.31-.03-.4-.09-.09-.06-.16-.16-.22-.32l-.19-.8c-.23.22-.46.41-.69.57-.23.17-.47.31-.72.42-.25.12-.51.21-.8.27s-.59.09-.94.09-.7-.05-1.01-.15c-.32-.1-.59-.25-.82-.45-.23-.21-.42-.46-.55-.77-.14-.31-.2-.66-.2-1.07,0-.36.1-.71.29-1.04.19-.33.51-.63.95-.9.44-.26,1.02-.48,1.73-.65s1.59-.26,2.62-.29v-.67c0-.69-.15-1.21-.44-1.55s-.73-.51-1.3-.51c-.38,0-.71.05-.97.14-.26.1-.49.2-.67.32-.19.12-.35.22-.5.32-.14.1-.29.14-.44.14-.12,0-.22-.03-.31-.1s-.16-.14-.21-.23l-.32-.57Zm5.15,3.81c-.71.02-1.32.08-1.82.17-.5.09-.9.2-1.21.35-.31.14-.54.31-.67.51-.14.2-.21.41-.21.65,0,.23.04.42.11.59s.18.3.31.41c.13.1.28.18.46.23.17.05.36.07.57.07.27,0,.52-.03.74-.08.23-.05.44-.13.63-.23.2-.1.39-.22.57-.36.18-.14.36-.31.53-.5v-1.8Z"></path>
<path class="cls-3" d="m244.21,531.75c.29-.6.65-1.07,1.06-1.41s.91-.51,1.49-.51c.2,0,.38.02.56.07.18.04.33.11.46.2l-.12,1.32c-.04.16-.14.24-.3.24-.08,0-.21-.02-.38-.05s-.35-.05-.54-.05c-.28,0-.53.04-.75.12-.22.08-.41.2-.58.36-.17.16-.32.36-.45.59-.13.23-.26.49-.37.79v5.72h-1.75v-9.14h1.01c.19,0,.32.04.39.1.07.07.12.19.15.37l.11,1.29Z"></path>
<path class="cls-3" d="m256.32,537.84c-.22.25-.46.47-.75.65-.28.18-.58.33-.9.45-.32.11-.65.2-.99.25-.34.05-.67.08-1,.08-.63,0-1.21-.11-1.75-.32s-1-.53-1.4-.94c-.39-.41-.7-.92-.92-1.53-.22-.61-.33-1.31-.33-2.1,0-.64.1-1.23.3-1.78s.48-1.03.85-1.44.82-.73,1.35-.96,1.13-.35,1.8-.35c.56,0,1.07.09,1.54.28.47.18.88.45,1.22.8.34.35.61.78.8,1.29.2.51.29,1.09.29,1.75,0,.27-.03.45-.09.54-.06.09-.17.14-.33.14h-5.99c.02.54.1,1.02.23,1.43.14.41.33.74.57,1.01s.53.47.87.6c.34.13.71.2,1.12.2.39,0,.73-.05,1.01-.14s.53-.19.74-.29c.21-.11.38-.2.52-.29s.27-.13.37-.13c.14,0,.25.05.33.16l.5.65Zm-1.45-4.28c0-.35-.05-.67-.15-.96-.1-.29-.25-.55-.44-.76-.19-.22-.43-.38-.7-.5s-.59-.18-.95-.18c-.74,0-1.32.21-1.74.64-.42.43-.69,1.02-.81,1.77h4.79Z"></path>
<path class="cls-3" d="m259.39,539.29c-.08.23-.22.4-.4.51s-.37.17-.56.17h-.74l5.36-13.46c.08-.2.21-.36.36-.47.16-.11.34-.17.55-.17h.75l-5.34,13.43Z"></path>
<path class="cls-3" d="m273.59,528.32c-.06.1-.12.18-.19.22-.07.05-.15.07-.25.07s-.23-.05-.37-.15c-.14-.1-.31-.21-.52-.33s-.45-.23-.74-.33-.63-.15-1.04-.15c-.38,0-.71.05-.99.15s-.52.23-.72.4c-.19.17-.34.37-.44.6-.1.23-.15.48-.15.75,0,.35.09.64.27.86.18.23.41.42.7.59s.62.3.98.42c.37.12.74.25,1.12.37.38.13.76.28,1.12.45.37.17.69.38.98.63s.52.57.7.94c.18.37.26.82.26,1.35,0,.57-.1,1.1-.29,1.6-.2.5-.48.93-.85,1.3s-.83.67-1.37.88c-.54.21-1.16.32-1.85.32-.41,0-.82-.04-1.21-.12-.39-.08-.76-.19-1.11-.34-.35-.15-.67-.32-.98-.53s-.57-.44-.81-.7l.55-.92c.05-.07.12-.13.19-.18.08-.05.16-.07.26-.07.13,0,.27.07.44.2s.37.28.61.44c.24.16.53.3.87.44s.75.2,1.24.2c.4,0,.75-.05,1.06-.16.31-.1.58-.25.79-.45s.38-.43.49-.71c.11-.28.17-.58.17-.92,0-.38-.09-.69-.26-.93-.17-.24-.41-.44-.69-.6s-.62-.3-.98-.41c-.37-.11-.74-.23-1.12-.36s-.76-.27-1.12-.43c-.37-.16-.69-.37-.98-.63-.29-.26-.52-.59-.69-.98-.17-.39-.26-.88-.26-1.45,0-.46.09-.91.27-1.34s.44-.81.79-1.15.77-.6,1.27-.8c.5-.2,1.08-.3,1.73-.3.73,0,1.39.12,2,.35.61.23,1.14.56,1.59,1l-.47.91Z"></path>
<path class="cls-3" d="m283.8,537.84c-.22.25-.46.47-.75.65-.28.18-.58.33-.9.45-.32.11-.65.2-.99.25-.34.05-.67.08-1,.08-.63,0-1.21-.11-1.75-.32s-1-.53-1.4-.94c-.39-.41-.7-.92-.92-1.53-.22-.61-.33-1.31-.33-2.1,0-.64.1-1.23.3-1.78s.48-1.03.85-1.44.82-.73,1.35-.96,1.13-.35,1.8-.35c.56,0,1.07.09,1.54.28.47.18.88.45,1.22.8.34.35.61.78.8,1.29.2.51.29,1.09.29,1.75,0,.27-.03.45-.09.54-.06.09-.17.14-.33.14h-5.99c.02.54.1,1.02.23,1.43.14.41.33.74.57,1.01s.53.47.87.6c.34.13.71.2,1.12.2.39,0,.73-.05,1.01-.14s.53-.19.74-.29c.21-.11.38-.2.52-.29s.27-.13.37-.13c.14,0,.25.05.33.16l.5.65Zm-1.45-4.28c0-.35-.05-.67-.15-.96-.1-.29-.25-.55-.44-.76-.19-.22-.43-.38-.7-.5s-.59-.18-.95-.18c-.74,0-1.32.21-1.74.64-.42.43-.69,1.02-.81,1.77h4.79Z"></path>
<path class="cls-3" d="m292.23,531.71c-.05.07-.11.12-.16.16s-.12.06-.22.06-.2-.04-.3-.11c-.11-.08-.24-.16-.4-.24-.16-.09-.35-.17-.58-.24-.22-.08-.5-.11-.83-.11-.43,0-.81.08-1.14.23s-.6.38-.82.67c-.22.29-.39.64-.5,1.05-.11.41-.17.88-.17,1.39s.06,1.01.18,1.43c.12.42.29.77.51,1.05s.49.5.81.65c.32.15.67.22,1.06.22s.69-.05.94-.14c.25-.09.45-.19.61-.3.16-.11.3-.21.41-.3.11-.09.22-.14.33-.14.14,0,.25.05.33.16l.5.65c-.21.26-.45.48-.71.66-.26.18-.54.33-.83.44-.29.11-.6.2-.92.25-.32.05-.65.08-.98.08-.57,0-1.1-.1-1.6-.31s-.92-.52-1.29-.92c-.36-.4-.65-.9-.86-1.48-.21-.58-.32-1.25-.32-1.99,0-.68.09-1.3.28-1.88.19-.58.47-1.07.84-1.49.37-.42.82-.74,1.36-.98.54-.24,1.16-.36,1.85-.36.65,0,1.23.11,1.73.32s.94.51,1.33.89l-.47.65Z"></path>
<path class="cls-3" d="m302.04,530v9.14h-1.05c-.24,0-.4-.12-.47-.35l-.13-.92c-.2.21-.41.4-.62.58-.22.17-.45.32-.69.45s-.51.22-.78.29c-.28.07-.57.1-.89.1-.5,0-.95-.08-1.33-.25-.38-.17-.7-.4-.96-.71s-.45-.67-.58-1.09-.2-.9-.2-1.41v-5.82h1.76v5.82c0,.65.15,1.16.45,1.53.3.36.76.54,1.38.54.45,0,.87-.11,1.26-.32.39-.21.76-.51,1.1-.88v-6.7h1.75Z"></path>
<path class="cls-3" d="m306.15,531.75c.29-.6.65-1.07,1.06-1.41s.91-.51,1.49-.51c.2,0,.38.02.56.07.18.04.33.11.46.2l-.12,1.32c-.04.16-.14.24-.3.24-.08,0-.21-.02-.38-.05s-.35-.05-.54-.05c-.28,0-.53.04-.75.12-.22.08-.41.2-.58.36-.17.16-.32.36-.45.59-.13.23-.26.49-.37.79v5.72h-1.75v-9.14h1.01c.19,0,.32.04.39.1.07.07.12.19.15.37l.11,1.29Z"></path>
<path class="cls-3" d="m318.25,537.84c-.22.25-.46.47-.75.65-.28.18-.58.33-.9.45-.32.11-.65.2-.99.25-.34.05-.67.08-1,.08-.63,0-1.21-.11-1.75-.32s-1-.53-1.4-.94c-.39-.41-.7-.92-.92-1.53-.22-.61-.33-1.31-.33-2.1,0-.64.1-1.23.3-1.78s.48-1.03.85-1.44.82-.73,1.35-.96,1.13-.35,1.8-.35c.56,0,1.07.09,1.54.28.47.18.88.45,1.22.8.34.35.61.78.8,1.29.2.51.29,1.09.29,1.75,0,.27-.03.45-.09.54-.06.09-.17.14-.33.14h-5.99c.02.54.1,1.02.23,1.43.14.41.33.74.57,1.01s.53.47.87.6c.34.13.71.2,1.12.2.39,0,.73-.05,1.01-.14s.53-.19.74-.29c.21-.11.38-.2.52-.29s.27-.13.37-.13c.14,0,.25.05.33.16l.5.65Zm-1.45-4.28c0-.35-.05-.67-.15-.96-.1-.29-.25-.55-.44-.76-.19-.22-.43-.38-.7-.5s-.59-.18-.95-.18c-.74,0-1.32.21-1.74.64-.42.43-.69,1.02-.81,1.77h4.79Z"></path>
<path class="cls-3" d="m338.77,526.22v12.92h-1.67v-9.2c0-.14,0-.28.01-.44,0-.16.02-.32.03-.48l-4.3,7.89c-.15.29-.38.44-.69.44h-.27c-.31,0-.54-.15-.68-.44l-4.38-7.92c.04.34.05.65.05.94v9.2h-1.68v-12.92h1.42c.17,0,.3.02.39.05s.18.12.27.27l4.32,7.74c.08.16.16.32.23.5.07.17.14.35.21.52.13-.35.27-.7.44-1.03l4.24-7.73c.08-.15.16-.24.26-.27.09-.03.22-.05.39-.05h1.42Z"></path>
<path class="cls-3" d="m345.23,529.85c.67,0,1.28.11,1.82.33.54.22,1,.53,1.39.94.38.41.67.91.88,1.49.2.58.31,1.23.31,1.95s-.1,1.37-.31,1.95-.5,1.08-.88,1.49c-.38.41-.84.72-1.39.94s-1.15.33-1.82.33-1.29-.11-1.83-.33-1.01-.53-1.39-.94c-.38-.41-.68-.9-.89-1.49s-.31-1.23-.31-1.95.1-1.37.31-1.95c.21-.58.5-1.07.89-1.49.38-.41.85-.72,1.39-.94.54-.22,1.15-.33,1.83-.33Zm0,8.05c.86,0,1.51-.29,1.94-.87.43-.58.64-1.4.64-2.46s-.21-1.88-.64-2.46c-.43-.58-1.07-.88-1.94-.88s-1.53.29-1.96.88c-.43.58-.64,1.41-.64,2.46s.21,1.88.64,2.46c.43.58,1.08.87,1.96.87Z"></path>
<path class="cls-3" d="m353.22,531.27c.2-.21.41-.4.62-.58s.45-.32.69-.45.5-.22.78-.29c.28-.07.58-.1.9-.1.5,0,.95.08,1.33.25s.7.4.96.71c.26.3.45.67.58,1.09s.2.9.2,1.41v5.82h-1.76v-5.82c0-.65-.15-1.16-.45-1.53-.3-.36-.76-.54-1.38-.54-.45,0-.87.11-1.26.32-.39.21-.76.5-1.09.87v6.71h-1.75v-9.14h1.05c.25,0,.4.12.46.35l.13.92Z"></path>
<path class="cls-3" d="m363.81,527.17c0,.16-.03.32-.1.46-.07.15-.15.28-.27.39-.11.11-.24.2-.39.26-.15.06-.31.09-.47.09s-.31-.03-.46-.09c-.14-.06-.27-.15-.38-.26-.11-.11-.2-.24-.26-.39-.06-.15-.09-.3-.09-.46s.03-.33.09-.47c.06-.15.15-.28.26-.39.11-.11.24-.2.38-.26.14-.06.3-.09.46-.09s.32.03.47.09c.15.06.28.15.39.26.11.11.2.24.27.39.07.15.1.3.1.47Zm-.33,2.83v9.14h-1.75v-9.14h1.75Z"></path>
<path class="cls-3" d="m368.89,539.29c-.74,0-1.31-.21-1.71-.62-.4-.41-.6-1-.6-1.77v-5.47h-1.06c-.1,0-.19-.03-.26-.09-.07-.06-.1-.16-.1-.28v-.71l1.48-.21.4-2.73c.02-.1.07-.18.14-.24.07-.06.16-.08.27-.08h.89v3.07h2.59v1.28h-2.59v5.36c0,.36.09.63.27.8.18.18.4.27.68.27.16,0,.3-.02.42-.06.12-.04.22-.09.3-.14.08-.05.16-.1.22-.14.06-.04.11-.06.16-.06.06,0,.11.01.14.04.03.03.07.07.1.13l.52.85c-.29.26-.63.47-1.03.61-.4.14-.81.22-1.23.22Z"></path>
<path class="cls-3" d="m376.39,529.85c.67,0,1.28.11,1.82.33.54.22,1,.53,1.39.94.38.41.67.91.88,1.49.2.58.31,1.23.31,1.95s-.1,1.37-.31,1.95-.5,1.08-.88,1.49c-.38.41-.84.72-1.39.94s-1.15.33-1.82.33-1.29-.11-1.83-.33-1.01-.53-1.39-.94c-.38-.41-.68-.9-.89-1.49s-.31-1.23-.31-1.95.1-1.37.31-1.95c.21-.58.5-1.07.89-1.49.38-.41.85-.72,1.39-.94.54-.22,1.15-.33,1.83-.33Zm0,8.05c.86,0,1.51-.29,1.94-.87.43-.58.64-1.4.64-2.46s-.21-1.88-.64-2.46c-.43-.58-1.07-.88-1.94-.88s-1.53.29-1.96.88c-.43.58-.64,1.41-.64,2.46s.21,1.88.64,2.46c.43.58,1.08.87,1.96.87Z"></path>
<path class="cls-3" d="m384.39,531.75c.29-.6.65-1.07,1.06-1.41s.91-.51,1.49-.51c.2,0,.38.02.56.07.18.04.33.11.46.2l-.12,1.32c-.04.16-.14.24-.3.24-.08,0-.21-.02-.38-.05s-.35-.05-.54-.05c-.28,0-.53.04-.75.12-.22.08-.41.2-.58.36-.17.16-.32.36-.45.59-.13.23-.26.49-.37.79v5.72h-1.75v-9.14h1.01c.19,0,.32.04.39.1.07.07.12.19.15.37l.11,1.29Z"></path>
</g>
<rect class="cls-3" height="45" width="210" x="60" y="450"></rect>
<g>
<path class="cls-4" d="m96.13,467.78v4.33h5.18v1.56h-5.18v5.48h-1.93v-12.92h8.01v1.56h-6.08Z"></path>
<path class="cls-4" d="m106.16,467.17c0,.16-.03.32-.1.46-.07.15-.15.28-.27.39-.11.11-.24.2-.39.26-.15.06-.31.09-.47.09s-.31-.03-.46-.09c-.14-.06-.27-.15-.38-.26-.11-.11-.2-.24-.26-.39-.06-.15-.09-.3-.09-.46s.03-.33.09-.47c.06-.15.15-.28.26-.39.11-.11.24-.2.38-.26.14-.06.3-.09.46-.09s.32.03.47.09c.15.06.28.15.39.26.11.11.2.24.27.39.07.15.1.3.1.47Zm-.33,2.83v9.14h-1.75v-9.14h1.75Z"></path>
<path class="cls-4" d="m110.03,471.75c.29-.6.65-1.07,1.06-1.41s.91-.51,1.49-.51c.2,0,.38.02.56.07.18.04.33.11.46.2l-.12,1.32c-.04.16-.14.24-.3.24-.08,0-.21-.02-.38-.05s-.35-.05-.54-.05c-.28,0-.53.04-.75.12-.22.08-.41.2-.58.36-.17.16-.32.36-.45.59-.13.23-.26.49-.37.79v5.72h-1.75v-9.14h1.01c.19,0,.32.04.39.1.07.07.12.19.15.37l.11,1.29Z"></path>
<path class="cls-4" d="m114.97,479.14v-9.14h1.05c.25,0,.4.12.46.35l.13.87c.34-.4.71-.73,1.12-.99.41-.25.89-.38,1.44-.38.61,0,1.1.17,1.48.5s.65.79.83,1.35c.13-.32.3-.6.51-.84s.44-.43.7-.58.53-.26.82-.33c.29-.07.59-.11.89-.11.49,0,.92.08,1.3.23.38.15.7.38.97.67.26.29.46.66.6,1.09.14.43.21.92.21,1.47v5.82h-1.76v-5.82c0-.68-.15-1.2-.45-1.55s-.73-.52-1.3-.52c-.25,0-.49.04-.72.13-.23.09-.43.22-.6.39-.17.17-.31.39-.4.65-.1.26-.15.56-.15.9v5.82h-1.76v-5.82c0-.71-.14-1.23-.42-1.57-.28-.34-.7-.5-1.24-.5-.38,0-.73.1-1.05.3s-.62.47-.89.81v6.79h-1.75Z"></path>
<path class="cls-4" d="m142.51,470l-2.94,9.14h-1.4c-.17,0-.28-.11-.34-.33l-1.93-5.96c-.05-.15-.09-.3-.13-.45-.04-.15-.07-.3-.1-.45-.05.31-.13.62-.23.91l-1.95,5.94c-.06.22-.19.33-.39.33h-1.33l-2.95-9.14h1.39c.14,0,.25.03.35.1.09.07.15.15.18.25l1.65,5.62c.05.23.1.45.14.67.04.22.08.43.12.65.05-.22.11-.43.18-.65.06-.22.13-.44.19-.67l1.83-5.65c.03-.1.09-.18.17-.25s.19-.09.31-.09h.77c.13,0,.24.03.33.09s.15.15.18.25l1.78,5.65c.07.23.13.45.19.67.06.22.11.44.16.66.04-.22.08-.43.13-.65s.1-.45.16-.68l1.67-5.62c.03-.1.09-.19.18-.25.09-.07.2-.1.32-.1h1.32Z"></path>
<path class="cls-4" d="m143.66,471.28c.51-.49,1.06-.85,1.66-1.09.6-.24,1.25-.36,1.97-.36.52,0,.98.08,1.39.26.4.17.74.41,1.02.71.28.31.48.67.62,1.1.14.43.21.9.21,1.41v5.83h-.78c-.17,0-.31-.03-.4-.09-.09-.06-.16-.16-.22-.32l-.19-.8c-.23.22-.46.41-.69.57-.23.17-.47.31-.72.42-.25.12-.51.21-.8.27s-.59.09-.94.09-.7-.05-1.01-.15c-.32-.1-.59-.25-.82-.45-.23-.21-.42-.46-.55-.77-.14-.31-.2-.66-.2-1.07,0-.36.1-.71.29-1.04.19-.33.51-.63.95-.9.44-.26,1.02-.48,1.73-.65s1.59-.26,2.62-.29v-.67c0-.69-.15-1.21-.44-1.55s-.73-.51-1.3-.51c-.38,0-.71.05-.97.14-.26.1-.49.2-.67.32-.19.12-.35.22-.5.32-.14.1-.29.14-.44.14-.12,0-.22-.03-.31-.1s-.16-.14-.21-.23l-.32-.57Zm5.15,3.81c-.71.02-1.32.08-1.82.17-.5.09-.9.2-1.21.35-.31.14-.54.31-.67.51-.14.2-.21.41-.21.65,0,.23.04.42.11.59s.18.3.31.41c.13.1.28.18.46.23.17.05.36.07.57.07.27,0,.52-.03.74-.08.23-.05.44-.13.63-.23.2-.1.39-.22.57-.36.18-.14.36-.31.53-.5v-1.8Z"></path>
<path class="cls-4" d="m154.54,471.75c.29-.6.65-1.07,1.06-1.41s.91-.51,1.49-.51c.2,0,.38.02.56.07.18.04.33.11.46.2l-.12,1.32c-.04.16-.14.24-.3.24-.08,0-.21-.02-.38-.05s-.35-.05-.54-.05c-.28,0-.53.04-.75.12-.22.08-.41.2-.58.36-.17.16-.32.36-.45.59-.13.23-.26.49-.37.79v5.72h-1.75v-9.14h1.01c.19,0,.32.04.39.1.07.07.12.19.15.37l.11,1.29Z"></path>
<path class="cls-4" d="m166.65,477.84c-.22.25-.46.47-.75.65-.28.18-.58.33-.9.45-.32.11-.65.2-.99.25-.34.05-.67.08-1,.08-.63,0-1.21-.11-1.75-.32s-1-.53-1.4-.94c-.39-.41-.7-.92-.92-1.53-.22-.61-.33-1.31-.33-2.1,0-.64.1-1.23.3-1.78s.48-1.03.85-1.44.82-.73,1.35-.96,1.13-.35,1.8-.35c.56,0,1.07.09,1.54.28.47.18.88.45,1.22.8.34.35.61.78.8,1.29.2.51.29,1.09.29,1.75,0,.27-.03.45-.09.54-.06.09-.17.14-.33.14h-5.99c.02.54.1,1.02.23,1.43.14.41.33.74.57,1.01s.53.47.87.6c.34.13.71.2,1.12.2.39,0,.73-.05,1.01-.14s.53-.19.74-.29c.21-.11.38-.2.52-.29s.27-.13.37-.13c.14,0,.25.05.33.16l.5.65Zm-1.45-4.28c0-.35-.05-.67-.15-.96-.1-.29-.25-.55-.44-.76-.19-.22-.43-.38-.7-.5s-.59-.18-.95-.18c-.74,0-1.32.21-1.74.64-.42.43-.69,1.02-.81,1.77h4.79Z"></path>
<path class="cls-4" d="m180.26,468.32c-.06.1-.12.18-.19.22-.07.05-.15.07-.25.07s-.23-.05-.37-.15c-.14-.1-.31-.21-.52-.33s-.45-.23-.74-.33-.63-.15-1.04-.15c-.38,0-.71.05-.99.15s-.52.23-.72.4c-.19.17-.34.37-.44.6-.1.23-.15.48-.15.75,0,.35.09.64.27.86.18.23.41.42.7.59s.62.3.98.42c.37.12.74.25,1.12.37.38.13.76.28,1.12.45.37.17.69.38.98.63s.52.57.7.94c.18.37.26.82.26,1.35,0,.57-.1,1.1-.29,1.6-.2.5-.48.93-.85,1.3s-.83.67-1.37.88c-.54.21-1.16.32-1.85.32-.41,0-.82-.04-1.21-.12-.39-.08-.76-.19-1.11-.34-.35-.15-.67-.32-.98-.53s-.57-.44-.81-.7l.55-.92c.05-.07.12-.13.19-.18.08-.05.16-.07.26-.07.13,0,.27.07.44.2s.37.28.61.44c.24.16.53.3.87.44s.75.2,1.24.2c.4,0,.75-.05,1.06-.16.31-.1.58-.25.79-.45s.38-.43.49-.71c.11-.28.17-.58.17-.92,0-.38-.09-.69-.26-.93-.17-.24-.41-.44-.69-.6s-.62-.3-.98-.41c-.37-.11-.74-.23-1.12-.36s-.76-.27-1.12-.43c-.37-.16-.69-.37-.98-.63-.29-.26-.52-.59-.69-.98-.17-.39-.26-.88-.26-1.45,0-.46.09-.91.27-1.34s.44-.81.79-1.15.77-.6,1.27-.8c.5-.2,1.08-.3,1.73-.3.73,0,1.39.12,2,.35.61.23,1.14.56,1.59,1l-.47.91Z"></path>
<path class="cls-4" d="m190.47,477.84c-.22.25-.46.47-.75.65-.28.18-.58.33-.9.45-.32.11-.65.2-.99.25-.34.05-.67.08-1,.08-.63,0-1.21-.11-1.75-.32s-1-.53-1.4-.94c-.39-.41-.7-.92-.92-1.53-.22-.61-.33-1.31-.33-2.1,0-.64.1-1.23.3-1.78s.48-1.03.85-1.44.82-.73,1.35-.96,1.13-.35,1.8-.35c.56,0,1.07.09,1.54.28.47.18.88.45,1.22.8.34.35.61.78.8,1.29.2.51.29,1.09.29,1.75,0,.27-.03.45-.09.54-.06.09-.17.14-.33.14h-5.99c.02.54.1,1.02.23,1.43.14.41.33.74.57,1.01s.53.47.87.6c.34.13.71.2,1.12.2.39,0,.73-.05,1.01-.14s.53-.19.74-.29c.21-.11.38-.2.52-.29s.27-.13.37-.13c.14,0,.25.05.33.16l.5.65Zm-1.45-4.28c0-.35-.05-.67-.15-.96-.1-.29-.25-.55-.44-.76-.19-.22-.43-.38-.7-.5s-.59-.18-.95-.18c-.74,0-1.32.21-1.74.64-.42.43-.69,1.02-.81,1.77h4.79Z"></path>
<path class="cls-4" d="m194.15,471.75c.29-.6.65-1.07,1.06-1.41s.91-.51,1.49-.51c.2,0,.38.02.56.07.18.04.33.11.46.2l-.12,1.32c-.04.16-.14.24-.3.24-.08,0-.21-.02-.38-.05s-.35-.05-.54-.05c-.28,0-.53.04-.75.12-.22.08-.41.2-.58.36-.17.16-.32.36-.45.59-.13.23-.26.49-.37.79v5.72h-1.75v-9.14h1.01c.19,0,.32.04.39.1.07.07.12.19.15.37l.11,1.29Z"></path>
<path class="cls-4" d="m207.03,470l-3.71,9.14h-1.58l-3.71-9.14h1.45c.14,0,.25.03.34.1.09.07.15.15.18.25l2.19,5.62c.08.23.15.47.2.7.06.23.11.46.16.69.05-.23.1-.46.16-.68.06-.23.13-.46.22-.7l2.21-5.62c.04-.1.1-.19.19-.25.09-.07.2-.1.32-.1h1.38Z"></path>
<path class="cls-4" d="m210.6,467.17c0,.16-.03.32-.1.46-.07.15-.15.28-.27.39-.11.11-.24.2-.39.26-.15.06-.31.09-.47.09s-.31-.03-.46-.09c-.14-.06-.27-.15-.38-.26-.11-.11-.2-.24-.26-.39-.06-.15-.09-.3-.09-.46s.03-.33.09-.47c.06-.15.15-.28.26-.39.11-.11.24-.2.38-.26.14-.06.3-.09.46-.09s.32.03.47.09c.15.06.28.15.39.26.11.11.2.24.27.39.07.15.1.3.1.47Zm-.33,2.83v9.14h-1.75v-9.14h1.75Z"></path>
<path class="cls-4" d="m219.22,471.71c-.05.07-.11.12-.16.16s-.12.06-.22.06-.2-.04-.3-.11c-.11-.08-.24-.16-.4-.24-.16-.09-.35-.17-.58-.24-.22-.08-.5-.11-.83-.11-.43,0-.81.08-1.14.23s-.6.38-.82.67c-.22.29-.39.64-.5,1.05-.11.41-.17.88-.17,1.39s.06,1.01.18,1.43c.12.42.29.77.51,1.05s.49.5.81.65c.32.15.67.22,1.06.22s.69-.05.94-.14c.25-.09.45-.19.61-.3.16-.11.3-.21.41-.3.11-.09.22-.14.33-.14.14,0,.25.05.33.16l.5.65c-.21.26-.45.48-.71.66-.26.18-.54.33-.83.44-.29.11-.6.2-.92.25-.32.05-.65.08-.98.08-.57,0-1.1-.1-1.6-.31s-.92-.52-1.29-.92c-.36-.4-.65-.9-.86-1.48-.21-.58-.32-1.25-.32-1.99,0-.68.09-1.3.28-1.88.19-.58.47-1.07.84-1.49.37-.42.82-.74,1.36-.98.54-.24,1.16-.36,1.85-.36.65,0,1.23.11,1.73.32s.94.51,1.33.89l-.47.65Z"></path>
<path class="cls-4" d="m228.77,477.84c-.22.25-.46.47-.75.65-.28.18-.58.33-.9.45-.32.11-.65.2-.99.25-.34.05-.67.08-1,.08-.63,0-1.21-.11-1.75-.32s-1-.53-1.4-.94c-.39-.41-.7-.92-.92-1.53-.22-.61-.33-1.31-.33-2.1,0-.64.1-1.23.3-1.78s.48-1.03.85-1.44.82-.73,1.35-.96,1.13-.35,1.8-.35c.56,0,1.07.09,1.54.28.47.18.88.45,1.22.8.34.35.61.78.8,1.29.2.51.29,1.09.29,1.75,0,.27-.03.45-.09.54-.06.09-.17.14-.33.14h-5.99c.02.54.1,1.02.23,1.43.14.41.33.74.57,1.01s.53.47.87.6c.34.13.71.2,1.12.2.39,0,.73-.05,1.01-.14s.53-.19.74-.29c.21-.11.38-.2.52-.29s.27-.13.37-.13c.14,0,.25.05.33.16l.5.65Zm-1.45-4.28c0-.35-.05-.67-.15-.96-.1-.29-.25-.55-.44-.76-.19-.22-.43-.38-.7-.5s-.59-.18-.95-.18c-.74,0-1.32.21-1.74.64-.42.43-.69,1.02-.81,1.77h4.79Z"></path>
<path class="cls-4" d="m236.19,471.57c-.05.08-.1.13-.15.17-.05.03-.12.05-.21.05-.1,0-.2-.03-.32-.1-.12-.07-.26-.14-.42-.21s-.36-.15-.58-.22c-.22-.07-.49-.1-.79-.1-.25,0-.48.03-.69.09-.21.06-.38.15-.53.26-.14.11-.25.24-.33.4-.08.15-.12.32-.12.49,0,.23.07.42.2.57.13.15.31.28.53.39.22.11.47.21.75.29.28.09.56.18.85.27s.58.21.86.33c.28.12.53.28.75.46.22.18.4.4.53.66.14.26.2.57.2.95,0,.43-.08.82-.23,1.18-.15.36-.38.68-.67.94-.3.26-.67.47-1.1.62-.44.15-.94.23-1.5.23-.63,0-1.21-.1-1.75-.32-.53-.21-.98-.48-1.34-.8l.41-.67c.05-.08.11-.15.18-.19.07-.05.17-.07.29-.07.11,0,.23.04.35.12.12.08.26.18.43.28.17.1.37.19.61.27.24.08.54.12.9.12.3,0,.56-.04.78-.11.22-.08.41-.18.55-.31.15-.13.26-.28.33-.45.07-.17.11-.35.11-.53,0-.24-.07-.44-.2-.6-.13-.16-.31-.3-.53-.41-.22-.11-.47-.21-.75-.3-.28-.08-.57-.17-.86-.27-.29-.1-.58-.21-.86-.33-.28-.12-.53-.29-.75-.48-.22-.19-.4-.43-.53-.7s-.2-.61-.2-1.01c0-.35.07-.69.22-1.02.15-.32.36-.61.64-.86.28-.25.62-.44,1.03-.59.41-.15.88-.22,1.41-.22.61,0,1.15.1,1.64.29.49.19.91.46,1.25.79l-.39.64Z"></path>
</g>
<rect class="cls-2" height="150" width="240" x="30.33" y="135"></rect>
<rect class="cls-2" height="45" width="105" x="165.33" y="60"></rect>
<g>
<path class="cls-3" d="m213.84,89.14h-1.48c-.17,0-.31-.04-.41-.13-.11-.08-.19-.19-.23-.32l-1.14-3h-5.7l-1.14,3c-.04.12-.12.22-.23.31-.11.09-.25.14-.41.14h-1.48l5.15-12.92h1.93l5.15,12.92Zm-3.79-4.82l-1.92-5.01c-.14-.34-.28-.77-.41-1.3-.07.26-.13.5-.2.72-.07.22-.14.42-.2.59l-1.91,5h4.64Z"></path>
<path class="cls-3" d="m216.72,81.37c.19-.23.4-.44.62-.63.22-.19.45-.35.71-.49.25-.13.52-.24.81-.31.29-.07.59-.11.91-.11.52,0,.99.1,1.42.31.42.2.78.5,1.08.9.3.4.53.88.7,1.47s.25,1.25.25,2.01c0,.68-.09,1.31-.27,1.88-.18.58-.44,1.08-.78,1.51s-.75.76-1.24,1c-.49.24-1.04.36-1.65.36-.55,0-1.01-.09-1.4-.27-.39-.18-.74-.43-1.04-.76v3.97h-1.75v-12.21h1.05c.25,0,.4.12.46.35l.15,1.02Zm.09,5.53c.29.38.6.64.93.79.33.15.71.23,1.12.23.8,0,1.43-.29,1.87-.87.44-.58.66-1.42.66-2.53,0-.58-.05-1.08-.15-1.49-.1-.41-.24-.75-.43-1.01-.19-.26-.42-.45-.7-.58s-.59-.18-.94-.18c-.51,0-.95.11-1.33.34-.38.23-.72.55-1.04.97v4.33Z"></path>
<path class="cls-3" d="m226.84,81.37c.19-.23.4-.44.62-.63.22-.19.45-.35.71-.49.25-.13.52-.24.81-.31.29-.07.59-.11.91-.11.52,0,.99.1,1.42.31.42.2.78.5,1.08.9.3.4.53.88.7,1.47s.25,1.25.25,2.01c0,.68-.09,1.31-.27,1.88-.18.58-.44,1.08-.78,1.51s-.75.76-1.24,1c-.49.24-1.04.36-1.65.36-.55,0-1.01-.09-1.4-.27-.39-.18-.74-.43-1.04-.76v3.97h-1.75v-12.21h1.05c.25,0,.4.12.46.35l.15,1.02Zm.09,5.53c.29.38.6.64.93.79.33.15.71.23,1.12.23.8,0,1.43-.29,1.87-.87.44-.58.66-1.42.66-2.53,0-.58-.05-1.08-.15-1.49-.1-.41-.24-.75-.43-1.01-.19-.26-.42-.45-.7-.58s-.59-.18-.94-.18c-.51,0-.95.11-1.33.34-.38.23-.72.55-1.04.97v4.33Z"></path>
</g>
<g>
<path class="cls-3" d="m130.08,164.14h-1.71c-.34,0-.59-.13-.75-.41l-3.2-4.48c-.1-.15-.21-.26-.33-.32s-.3-.09-.54-.09h-1.25v5.3h-1.92v-12.92h3.73c.83,0,1.55.08,2.16.26.6.17,1.1.41,1.49.73.39.32.68.7.87,1.14.19.44.28.94.28,1.49,0,.45-.07.87-.21,1.27-.14.4-.34.75-.61,1.07-.27.31-.59.59-.98.81s-.82.4-1.3.52c.24.14.45.35.62.6l3.64,5.03Zm-6.03-6.7c.49,0,.93-.06,1.3-.18.38-.12.69-.29.94-.51s.44-.48.57-.78.19-.64.19-1c0-.74-.24-1.3-.73-1.68s-1.22-.57-2.2-.57h-1.81v4.73h1.75Z"></path>
<path class="cls-3" d="m133.42,152.17c0,.16-.03.32-.1.46-.07.15-.15.28-.27.39-.11.11-.24.2-.39.26-.15.06-.31.09-.47.09s-.31-.03-.46-.09c-.14-.06-.27-.15-.38-.26-.11-.11-.2-.24-.26-.39-.06-.15-.09-.3-.09-.46s.03-.33.09-.47c.06-.15.15-.28.26-.39.11-.11.24-.2.38-.26.14-.06.3-.09.46-.09s.32.03.47.09c.15.06.28.15.39.26.11.11.2.24.27.39.07.15.1.3.1.47Zm-.33,2.83v9.14h-1.75v-9.14h1.75Z"></path>
<path class="cls-3" d="m142.04,156.71c-.05.07-.11.12-.16.16s-.12.06-.22.06-.2-.04-.3-.11c-.11-.08-.24-.16-.4-.24-.16-.09-.35-.17-.58-.24-.22-.08-.5-.11-.83-.11-.43,0-.81.08-1.14.23s-.6.38-.82.67c-.22.29-.39.64-.5,1.05-.11.41-.17.88-.17,1.39s.06,1.01.18,1.43c.12.42.29.77.51,1.05s.49.5.81.65c.32.15.67.22,1.06.22s.69-.05.94-.14c.25-.09.45-.19.61-.3.16-.11.3-.21.41-.3.11-.09.22-.14.33-.14.14,0,.25.05.33.16l.5.65c-.21.26-.45.48-.71.66-.26.18-.54.33-.83.44-.29.11-.6.2-.92.25-.32.05-.65.08-.98.08-.57,0-1.1-.1-1.6-.31s-.92-.52-1.29-.92c-.36-.4-.65-.9-.86-1.48-.21-.58-.32-1.25-.32-1.99,0-.68.09-1.3.28-1.88.19-.58.47-1.07.84-1.49.37-.42.82-.74,1.36-.98.54-.24,1.16-.36,1.85-.36.65,0,1.23.11,1.73.32s.94.51,1.33.89l-.47.65Z"></path>
<path class="cls-3" d="m146,156.16c.38-.39.81-.71,1.27-.95.46-.24,1-.36,1.61-.36.5,0,.95.08,1.33.25s.7.4.96.71c.26.3.45.67.58,1.09s.2.9.2,1.41v5.82h-1.76v-5.82c0-.65-.15-1.16-.45-1.53-.3-.36-.76-.54-1.38-.54-.45,0-.87.11-1.26.32-.39.21-.76.5-1.09.87v6.71h-1.75v-13.29h1.75v5.3Z"></path>
<path class="cls-3" d="m171.26,157.68c0,.97-.15,1.85-.46,2.66-.31.81-.75,1.5-1.31,2.09-.56.58-1.24,1.04-2.03,1.36s-1.66.49-2.62.49-1.83-.16-2.61-.49-1.46-.78-2.03-1.36c-.56-.58-1-1.28-1.31-2.09-.31-.81-.47-1.69-.47-2.66s.16-1.84.47-2.65c.31-.81.75-1.51,1.31-2.09.56-.58,1.24-1.04,2.03-1.37.79-.33,1.66-.49,2.61-.49s1.83.16,2.62.49c.79.33,1.46.78,2.03,1.37.56.58,1,1.28,1.31,2.09.31.81.46,1.7.46,2.65Zm-1.96,0c0-.77-.1-1.46-.31-2.07-.21-.61-.51-1.13-.9-1.56-.39-.43-.86-.75-1.4-.98s-1.16-.34-1.84-.34-1.29.11-1.84.34c-.55.23-1.02.55-1.41.98-.39.43-.69.95-.9,1.56-.21.61-.32,1.3-.32,2.07s.11,1.47.32,2.07c.21.61.51,1.13.9,1.55.39.43.86.75,1.41.98.55.23,1.16.34,1.84.34s1.29-.11,1.84-.34c.55-.22,1.02-.55,1.4-.98.39-.43.68-.94.9-1.55.21-.61.31-1.3.31-2.07Z"></path>
<path class="cls-3" d="m180.35,153.32c-.06.1-.12.18-.19.22-.07.05-.15.07-.25.07s-.23-.05-.37-.15c-.14-.1-.31-.21-.52-.33s-.45-.23-.74-.33-.63-.15-1.04-.15c-.38,0-.71.05-.99.15s-.52.23-.72.4c-.19.17-.34.37-.44.6-.1.23-.15.48-.15.75,0,.35.09.64.27.86.18.23.41.42.7.59s.62.3.98.42c.37.12.74.25,1.12.37.38.13.76.28,1.12.45.37.17.69.38.98.63s.52.57.7.94c.18.37.26.82.26,1.35,0,.57-.1,1.1-.29,1.6-.2.5-.48.93-.85,1.3s-.83.67-1.37.88c-.54.21-1.16.32-1.85.32-.41,0-.82-.04-1.21-.12-.39-.08-.76-.19-1.11-.34-.35-.15-.67-.32-.98-.53s-.57-.44-.81-.7l.55-.92c.05-.07.12-.13.19-.18.08-.05.16-.07.26-.07.13,0,.27.07.44.2s.37.28.61.44c.24.16.53.3.87.44s.75.2,1.24.2c.4,0,.75-.05,1.06-.16.31-.1.58-.25.79-.45s.38-.43.49-.71c.11-.28.17-.58.17-.92,0-.38-.09-.69-.26-.93-.17-.24-.41-.44-.69-.6s-.62-.3-.98-.41c-.37-.11-.74-.23-1.12-.36s-.76-.27-1.12-.43c-.37-.16-.69-.37-.98-.63-.29-.26-.52-.59-.69-.98-.17-.39-.26-.88-.26-1.45,0-.46.09-.91.27-1.34s.44-.81.79-1.15.77-.6,1.27-.8c.5-.2,1.08-.3,1.73-.3.73,0,1.39.12,2,.35.61.23,1.14.56,1.59,1l-.47.91Z"></path>
</g>
<path class="cls-4" d="m150.83,105h-1v-5h1v5Zm0-8h-1v-5h1v5Zm0-8h-1v-5h1v5Zm0-8h-1v-5h1v5Zm0-8h-1v-5h1v5Zm0-8h-1v-5h1v5Z"></path>
<rect class="cls-1" height="45" width="240" x="300.33" y="60"></rect>
<g>
<rect class="cls-4" height="1" width="2.5" x="30.33" y="315"></rect>
<path class="cls-4" d="m279.84,316h-4.98v-1h4.98v1Zm-7.97,0h-4.98v-1h4.98v1Zm-7.97,0h-4.98v-1h4.98v1Zm-7.97,0h-4.98v-1h4.98v1Zm-7.97,0h-4.98v-1h4.98v1Zm-7.97,0h-4.98v-1h4.98v1Zm-7.97,0h-4.98v-1h4.98v1Zm-7.97,0h-4.98v-1h4.98v1Zm-7.97,0h-4.98v-1h4.98v1Zm-7.97,0h-4.98v-1h4.98v1Zm-7.97,0h-4.98v-1h4.98v1Zm-7.97,0h-4.98v-1h4.98v1Zm-7.97,0h-4.98v-1h4.98v1Zm-7.97,0h-4.98v-1h4.98v1Zm-7.97,0h-4.98v-1h4.98v1Zm-7.97,0h-4.98v-1h4.98v1Zm-7.97,0h-4.98v-1h4.98v1Zm-7.97,0h-4.98v-1h4.98v1Zm-7.97,0h-4.98v-1h4.98v1Zm-7.97,0h-4.98v-1h4.98v1Zm-7.97,0h-4.98v-1h4.98v1Zm-7.97,0h-4.98v-1h4.98v1Zm-7.97,0h-4.98v-1h4.98v1Zm-7.97,0h-4.98v-1h4.98v1Zm-7.97,0h-4.98v-1h4.98v1Zm-7.97,0h-4.98v-1h4.98v1Zm-7.97,0h-4.98v-1h4.98v1Zm-7.97,0h-4.98v-1h4.98v1Zm-7.97,0h-4.98v-1h4.98v1Zm-7.97,0h-4.98v-1h4.98v1Zm-7.97,0h-4.98v-1h4.98v1Z"></path>
<polygon class="cls-4" points="285.83 316 282.83 316 282.83 315 284.83 315 284.83 313 285.83 313 285.83 316"></polygon>
<path class="cls-4" d="m285.83,310.02h-1v-4.97h1v4.97Zm0-7.95h-1v-4.97h1v4.97Zm0-7.95h-1v-4.97h1v4.97Zm0-7.95h-1v-4.97h1v4.97Zm0-7.95h-1v-4.97h1v4.97Zm0-7.95h-1v-4.97h1v4.97Zm0-7.95h-1v-4.97h1v4.97Zm0-7.95h-1v-4.97h1v4.97Zm0-7.95h-1v-4.97h1v4.97Zm0-7.95h-1v-4.97h1v4.97Zm0-7.95h-1v-4.97h1v4.97Zm0-7.95h-1v-4.97h1v4.97Zm0-7.95h-1v-4.97h1v4.97Zm0-7.95h-1v-4.97h1v4.97Zm0-7.95h-1v-4.97h1v4.97Zm0-7.95h-1v-4.97h1v4.97Zm0-7.95h-1v-4.97h1v4.97Zm0-7.95h-1v-4.97h1v4.97Zm0-7.95h-1v-4.97h1v4.97Zm0-7.95h-1v-4.97h1v4.97Zm0-7.95h-1v-4.97h1v4.97Zm0-7.95h-1v-4.97h1v4.97Zm0-7.95h-1v-4.97h1v4.97Zm0-7.95h-1v-4.97h1v4.97Zm0-7.95h-1v-4.97h1v4.97Zm0-7.95h-1v-4.97h1v4.97Zm0-7.95h-1v-4.97h1v4.97Zm0-7.95h-1v-4.97h1v4.97Zm0-7.95h-1v-4.97h1v4.97Zm0-7.95h-1v-4.97h1v4.97Zm0-7.95h-1v-4.97h1v4.97Z"></path>
<rect class="cls-4" height="2.5" width="1" x="284.83" y="61"></rect>
</g>
<g>
<path class="cls-3" d="m366.1,77.82h-4.1v11.32h-1.91v-11.32h-4.12v-1.6h10.13v1.6Z"></path>
<path class="cls-3" d="m367.32,81.75c.29-.6.65-1.07,1.06-1.41s.91-.51,1.49-.51c.2,0,.38.02.56.07.18.04.33.11.46.2l-.12,1.32c-.04.16-.14.24-.3.24-.08,0-.21-.02-.38-.05s-.35-.05-.54-.05c-.28,0-.53.04-.75.12-.22.08-.41.2-.58.36-.17.16-.32.36-.45.59-.13.23-.26.49-.37.79v5.72h-1.75v-9.14h1.01c.19,0,.32.04.39.1.07.07.12.19.15.37l.11,1.29Z"></path>
<path class="cls-3" d="m379.87,80v9.14h-1.05c-.24,0-.4-.12-.47-.35l-.13-.92c-.2.21-.41.4-.62.58-.22.17-.45.32-.69.45s-.51.22-.78.29c-.28.07-.57.1-.89.1-.5,0-.95-.08-1.33-.25-.38-.17-.7-.4-.96-.71s-.45-.67-.58-1.09-.2-.9-.2-1.41v-5.82h1.76v5.82c0,.65.15,1.16.45,1.53.3.36.76.54,1.38.54.45,0,.87-.11,1.26-.32.39-.21.76-.51,1.1-.88v-6.7h1.75Z"></path>
<path class="cls-3" d="m387.71,81.57c-.05.08-.1.13-.15.17-.05.03-.12.05-.21.05-.1,0-.2-.03-.32-.1-.12-.07-.26-.14-.42-.21s-.36-.15-.58-.22c-.22-.07-.49-.1-.79-.1-.25,0-.48.03-.69.09-.21.06-.38.15-.53.26-.14.11-.25.24-.33.4-.08.15-.12.32-.12.49,0,.23.07.42.2.57.13.15.31.28.53.39.22.11.47.21.75.29.28.09.56.18.85.27s.58.21.86.33c.28.12.53.28.75.46.22.18.4.4.53.66.14.26.2.57.2.95,0,.43-.08.82-.23,1.18-.15.36-.38.68-.67.94-.3.26-.67.47-1.1.62-.44.15-.94.23-1.5.23-.63,0-1.21-.1-1.75-.32-.53-.21-.98-.48-1.34-.8l.41-.67c.05-.08.11-.15.18-.19.07-.05.17-.07.29-.07.11,0,.23.04.35.12.12.08.26.18.43.28.17.1.37.19.61.27.24.08.54.12.9.12.3,0,.56-.04.78-.11.22-.08.41-.18.55-.31.15-.13.26-.28.33-.45.07-.17.11-.35.11-.53,0-.24-.07-.44-.2-.6-.13-.16-.31-.3-.53-.41-.22-.11-.47-.21-.75-.3-.28-.08-.57-.17-.86-.27-.29-.1-.58-.21-.86-.33-.28-.12-.53-.29-.75-.48-.22-.19-.4-.43-.53-.7s-.2-.61-.2-1.01c0-.35.07-.69.22-1.02.15-.32.36-.61.64-.86.28-.25.62-.44,1.03-.59.41-.15.88-.22,1.41-.22.61,0,1.15.1,1.64.29.49.19.91.46,1.25.79l-.39.64Z"></path>
<path class="cls-3" d="m393,89.29c-.74,0-1.31-.21-1.71-.62-.4-.41-.6-1-.6-1.77v-5.47h-1.06c-.1,0-.19-.03-.26-.09-.07-.06-.1-.16-.1-.28v-.71l1.48-.21.4-2.73c.02-.1.07-.18.14-.24.07-.06.16-.08.27-.08h.89v3.07h2.59v1.28h-2.59v5.36c0,.36.09.63.27.8.18.18.4.27.68.27.16,0,.3-.02.42-.06.12-.04.22-.09.3-.14.08-.05.16-.1.22-.14.06-.04.11-.06.16-.06.06,0,.11.01.14.04.03.03.07.07.1.13l.52.85c-.29.26-.63.47-1.03.61-.4.14-.81.22-1.23.22Z"></path>
<path class="cls-3" d="m404.11,87.84c-.22.25-.46.47-.75.65-.28.18-.58.33-.9.45-.32.11-.65.2-.99.25-.34.05-.67.08-1,.08-.63,0-1.21-.11-1.75-.32s-1-.53-1.4-.94c-.39-.41-.7-.92-.92-1.53-.22-.61-.33-1.31-.33-2.1,0-.64.1-1.23.3-1.78s.48-1.03.85-1.44.82-.73,1.35-.96,1.13-.35,1.8-.35c.56,0,1.07.09,1.54.28.47.18.88.45,1.22.8.34.35.61.78.8,1.29.2.51.29,1.09.29,1.75,0,.27-.03.45-.09.54-.06.09-.17.14-.33.14h-5.99c.02.54.1,1.02.23,1.43.14.41.33.74.57,1.01s.53.47.87.6c.34.13.71.2,1.12.2.39,0,.73-.05,1.01-.14s.53-.19.74-.29c.21-.11.38-.2.52-.29s.27-.13.37-.13c.14,0,.25.05.33.16l.5.65Zm-1.45-4.28c0-.35-.05-.67-.15-.96-.1-.29-.25-.55-.44-.76-.19-.22-.43-.38-.7-.5s-.59-.18-.95-.18c-.74,0-1.32.21-1.74.64-.42.43-.69,1.02-.81,1.77h4.79Z"></path>
<path class="cls-3" d="m413.79,75.86v13.29h-1.06c-.25,0-.4-.12-.46-.35l-.15-1.05c-.39.46-.83.83-1.33,1.11s-1.07.42-1.71.42c-.52,0-.99-.1-1.42-.31s-.79-.5-1.08-.9-.53-.88-.69-1.46c-.16-.58-.24-1.25-.24-2.01,0-.68.09-1.31.27-1.89.18-.58.44-1.09.78-1.51s.76-.76,1.24-1c.49-.24,1.04-.36,1.65-.36.55,0,1.02.09,1.41.27.39.18.73.43,1.04.76v-5h1.76Zm-1.76,6.35c-.29-.38-.6-.64-.93-.79s-.71-.22-1.12-.22c-.8,0-1.43.29-1.87.87-.44.58-.66,1.42-.66,2.53,0,.58.05,1.08.15,1.49.1.41.24.75.43,1.01.19.26.42.45.7.58.28.12.59.19.94.19.51,0,.95-.11,1.32-.34.37-.23.72-.55,1.04-.96v-4.34Z"></path>
<path class="cls-3" d="m427.84,78.32c-.06.1-.12.18-.19.22-.07.05-.15.07-.25.07s-.23-.05-.37-.15c-.14-.1-.31-.21-.52-.33s-.45-.23-.74-.33-.63-.15-1.04-.15c-.38,0-.71.05-.99.15s-.52.23-.72.4c-.19.17-.34.37-.44.6-.1.23-.15.48-.15.75,0,.35.09.64.27.86.18.23.41.42.7.59s.62.3.98.42c.37.12.74.25,1.12.37.38.13.76.28,1.12.45.37.17.69.38.98.63s.52.57.7.94c.18.37.26.82.26,1.35,0,.57-.1,1.1-.29,1.6-.2.5-.48.93-.85,1.3s-.83.67-1.37.88c-.54.21-1.16.32-1.85.32-.41,0-.82-.04-1.21-.12-.39-.08-.76-.19-1.11-.34-.35-.15-.67-.32-.98-.53s-.57-.44-.81-.7l.55-.92c.05-.07.12-.13.19-.18.08-.05.16-.07.26-.07.13,0,.27.07.44.2s.37.28.61.44c.24.16.53.3.87.44s.75.2,1.24.2c.4,0,.75-.05,1.06-.16.31-.1.58-.25.79-.45s.38-.43.49-.71c.11-.28.17-.58.17-.92,0-.38-.09-.69-.26-.93-.17-.24-.41-.44-.69-.6s-.62-.3-.98-.41c-.37-.11-.74-.23-1.12-.36s-.76-.27-1.12-.43c-.37-.16-.69-.37-.98-.63-.29-.26-.52-.59-.69-.98-.17-.39-.26-.88-.26-1.45,0-.46.09-.91.27-1.34s.44-.81.79-1.15.77-.6,1.27-.8c.5-.2,1.08-.3,1.73-.3.73,0,1.39.12,2,.35.61.23,1.14.56,1.59,1l-.47.91Z"></path>
<path class="cls-3" d="m438.05,87.84c-.22.25-.46.47-.75.65-.28.18-.58.33-.9.45-.32.11-.65.2-.99.25-.34.05-.67.08-1,.08-.63,0-1.21-.11-1.75-.32s-1-.53-1.4-.94c-.39-.41-.7-.92-.92-1.53-.22-.61-.33-1.31-.33-2.1,0-.64.1-1.23.3-1.78s.48-1.03.85-1.44.82-.73,1.35-.96,1.13-.35,1.8-.35c.56,0,1.07.09,1.54.28.47.18.88.45,1.22.8.34.35.61.78.8,1.29.2.51.29,1.09.29,1.75,0,.27-.03.45-.09.54-.06.09-.17.14-.33.14h-5.99c.02.54.1,1.02.23,1.43.14.41.33.74.57,1.01s.53.47.87.6c.34.13.71.2,1.12.2.39,0,.73-.05,1.01-.14s.53-.19.74-.29c.21-.11.38-.2.52-.29s.27-.13.37-.13c.14,0,.25.05.33.16l.5.65Zm-1.45-4.28c0-.35-.05-.67-.15-.96-.1-.29-.25-.55-.44-.76-.19-.22-.43-.38-.7-.5s-.59-.18-.95-.18c-.74,0-1.32.21-1.74.64-.42.43-.69,1.02-.81,1.77h4.79Z"></path>
<path class="cls-3" d="m441.73,81.75c.29-.6.65-1.07,1.06-1.41s.91-.51,1.49-.51c.2,0,.38.02.56.07.18.04.33.11.46.2l-.12,1.32c-.04.16-.14.24-.3.24-.08,0-.21-.02-.38-.05s-.35-.05-.54-.05c-.28,0-.53.04-.75.12-.22.08-.41.2-.58.36-.17.16-.32.36-.45.59-.13.23-.26.49-.37.79v5.72h-1.75v-9.14h1.01c.19,0,.32.04.39.1.07.07.12.19.15.37l.11,1.29Z"></path>
<path class="cls-3" d="m454.61,80l-3.71,9.14h-1.58l-3.71-9.14h1.45c.14,0,.25.03.34.1.09.07.15.15.18.25l2.19,5.62c.08.23.15.47.2.7.06.23.11.46.16.69.05-.23.1-.46.16-.68.06-.23.13-.46.22-.7l2.21-5.62c.04-.1.1-.19.19-.25.09-.07.2-.1.32-.1h1.38Z"></path>
<path class="cls-3" d="m458.18,77.17c0,.16-.03.32-.1.46-.07.15-.15.28-.27.39-.11.11-.24.2-.39.26-.15.06-.31.09-.47.09s-.31-.03-.46-.09c-.14-.06-.27-.15-.38-.26-.11-.11-.2-.24-.26-.39-.06-.15-.09-.3-.09-.46s.03-.33.09-.47c.06-.15.15-.28.26-.39.11-.11.24-.2.38-.26.14-.06.3-.09.46-.09s.32.03.47.09c.15.06.28.15.39.26.11.11.2.24.27.39.07.15.1.3.1.47Zm-.33,2.83v9.14h-1.75v-9.14h1.75Z"></path>
<path class="cls-3" d="m466.8,81.71c-.05.07-.11.12-.16.16s-.12.06-.22.06-.2-.04-.3-.11c-.11-.08-.24-.16-.4-.24-.16-.09-.35-.17-.58-.24-.22-.08-.5-.11-.83-.11-.43,0-.81.08-1.14.23s-.6.38-.82.67c-.22.29-.39.64-.5,1.05-.11.41-.17.88-.17,1.39s.06,1.01.18,1.43c.12.42.29.77.51,1.05s.49.5.81.65c.32.15.67.22,1.06.22s.69-.05.94-.14c.25-.09.45-.19.61-.3.16-.11.3-.21.41-.3.11-.09.22-.14.33-.14.14,0,.25.05.33.16l.5.65c-.21.26-.45.48-.71.66-.26.18-.54.33-.83.44-.29.11-.6.2-.92.25-.32.05-.65.08-.98.08-.57,0-1.1-.1-1.6-.31s-.92-.52-1.29-.92c-.36-.4-.65-.9-.86-1.48-.21-.58-.32-1.25-.32-1.99,0-.68.09-1.3.28-1.88.19-.58.47-1.07.84-1.49.37-.42.82-.74,1.36-.98.54-.24,1.16-.36,1.85-.36.65,0,1.23.11,1.73.32s.94.51,1.33.89l-.47.65Z"></path>
<path class="cls-3" d="m476.35,87.84c-.22.25-.46.47-.75.65-.28.18-.58.33-.9.45-.32.11-.65.2-.99.25-.34.05-.67.08-1,.08-.63,0-1.21-.11-1.75-.32s-1-.53-1.4-.94c-.39-.41-.7-.92-.92-1.53-.22-.61-.33-1.31-.33-2.1,0-.64.1-1.23.3-1.78s.48-1.03.85-1.44.82-.73,1.35-.96,1.13-.35,1.8-.35c.56,0,1.07.09,1.54.28.47.18.88.45,1.22.8.34.35.61.78.8,1.29.2.51.29,1.09.29,1.75,0,.27-.03.45-.09.54-.06.09-.17.14-.33.14h-5.99c.02.54.1,1.02.23,1.43.14.41.33.74.57,1.01s.53.47.87.6c.34.13.71.2,1.12.2.39,0,.73-.05,1.01-.14s.53-.19.74-.29c.21-.11.38-.2.52-.29s.27-.13.37-.13c.14,0,.25.05.33.16l.5.65Zm-1.45-4.28c0-.35-.05-.67-.15-.96-.1-.29-.25-.55-.44-.76-.19-.22-.43-.38-.7-.5s-.59-.18-.95-.18c-.74,0-1.32.21-1.74.64-.42.43-.69,1.02-.81,1.77h4.79Z"></path>
<path class="cls-3" d="m483.77,81.57c-.05.08-.1.13-.15.17-.05.03-.12.05-.21.05-.1,0-.2-.03-.32-.1-.12-.07-.26-.14-.42-.21s-.36-.15-.58-.22c-.22-.07-.49-.1-.79-.1-.25,0-.48.03-.69.09-.21.06-.38.15-.53.26-.14.11-.25.24-.33.4-.08.15-.12.32-.12.49,0,.23.07.42.2.57.13.15.31.28.53.39.22.11.47.21.75.29.28.09.56.18.85.27s.58.21.86.33c.28.12.53.28.75.46.22.18.4.4.53.66.14.26.2.57.2.95,0,.43-.08.82-.23,1.18-.15.36-.38.68-.67.94-.3.26-.67.47-1.1.62-.44.15-.94.23-1.5.23-.63,0-1.21-.1-1.75-.32-.53-.21-.98-.48-1.34-.8l.41-.67c.05-.08.11-.15.18-.19.07-.05.17-.07.29-.07.11,0,.23.04.35.12.12.08.26.18.43.28.17.1.37.19.61.27.24.08.54.12.9.12.3,0,.56-.04.78-.11.22-.08.41-.18.55-.31.15-.13.26-.28.33-.45.07-.17.11-.35.11-.53,0-.24-.07-.44-.2-.6-.13-.16-.31-.3-.53-.41-.22-.11-.47-.21-.75-.3-.28-.08-.57-.17-.86-.27-.29-.1-.58-.21-.86-.33-.28-.12-.53-.29-.75-.48-.22-.19-.4-.43-.53-.7s-.2-.61-.2-1.01c0-.35.07-.69.22-1.02.15-.32.36-.61.64-.86.28-.25.62-.44,1.03-.59.41-.15.88-.22,1.41-.22.61,0,1.15.1,1.64.29.49.19.91.46,1.25.79l-.39.64Z"></path>
</g>
<g>
<rect class="cls-4" height="24.26" width="1" x="360" y="110.74"></rect>
<polygon class="cls-4" points="364.49 111.91 360.5 105 356.51 111.91 364.49 111.91"></polygon>
</g>
<rect class="cls-3" height="75" width="180" x="60" y="180"></rect>
<g>
<path class="cls-4" d="m115.52,213.32c-.06.1-.12.18-.19.22-.07.05-.15.07-.25.07s-.23-.05-.37-.15c-.14-.1-.31-.21-.52-.33s-.45-.23-.74-.33-.63-.15-1.04-.15c-.38,0-.71.05-.99.15s-.52.23-.72.4c-.19.17-.34.37-.44.6-.1.23-.15.48-.15.75,0,.35.09.64.27.86.18.23.41.42.7.59s.62.3.98.42c.37.12.74.25,1.12.37.38.13.76.28,1.12.45.37.17.69.38.98.63s.52.57.7.94c.18.37.26.82.26,1.35,0,.57-.1,1.1-.29,1.6-.2.5-.48.93-.85,1.3s-.83.67-1.37.88c-.54.21-1.16.32-1.85.32-.41,0-.82-.04-1.21-.12-.39-.08-.76-.19-1.11-.34-.35-.15-.67-.32-.98-.53s-.57-.44-.81-.7l.55-.92c.05-.07.12-.13.19-.18.08-.05.16-.07.26-.07.13,0,.27.07.44.2s.37.28.61.44c.24.16.53.3.87.44s.75.2,1.24.2c.4,0,.75-.05,1.06-.16.31-.1.58-.25.79-.45s.38-.43.49-.71c.11-.28.17-.58.17-.92,0-.38-.09-.69-.26-.93-.17-.24-.41-.44-.69-.6s-.62-.3-.98-.41c-.37-.11-.74-.23-1.12-.36s-.76-.27-1.12-.43c-.37-.16-.69-.37-.98-.63-.29-.26-.52-.59-.69-.98-.17-.39-.26-.88-.26-1.45,0-.46.09-.91.27-1.34s.44-.81.79-1.15.77-.6,1.27-.8c.5-.2,1.08-.3,1.73-.3.73,0,1.39.12,2,.35.61.23,1.14.56,1.59,1l-.47.91Z"></path>
<path class="cls-4" d="m132.21,211.22v12.92h-1.67v-9.2c0-.14,0-.28.01-.44,0-.16.02-.32.03-.48l-4.3,7.89c-.15.29-.38.44-.69.44h-.27c-.31,0-.54-.15-.68-.44l-4.38-7.92c.04.34.05.65.05.94v9.2h-1.68v-12.92h1.42c.17,0,.3.02.39.05s.18.12.27.27l4.32,7.74c.08.16.16.32.23.5.07.17.14.35.21.52.13-.35.27-.7.44-1.03l4.24-7.73c.08-.15.16-.24.26-.27.09-.03.22-.05.39-.05h1.42Z"></path>
<path class="cls-4" d="m144.44,221.37c.11,0,.2.04.28.13l.76.83c-.53.62-1.17,1.11-1.93,1.45s-1.67.51-2.74.51c-.94,0-1.78-.16-2.54-.49-.76-.32-1.41-.78-1.94-1.36-.54-.58-.95-1.28-1.25-2.09-.29-.81-.44-1.7-.44-2.67s.16-1.86.46-2.67c.31-.81.74-1.51,1.3-2.09.56-.58,1.23-1.03,2-1.36.78-.32,1.64-.49,2.58-.49s1.73.15,2.45.45c.71.3,1.33.7,1.86,1.2l-.63.89c-.04.07-.09.12-.16.16-.06.04-.15.06-.25.06-.11,0-.25-.06-.4-.17-.15-.11-.35-.24-.6-.38-.25-.14-.56-.27-.92-.38-.37-.11-.82-.17-1.37-.17-.64,0-1.23.11-1.76.34-.53.23-.99.55-1.38.97-.39.42-.69.94-.9,1.56s-.32,1.31-.32,2.08.11,1.49.33,2.1c.22.61.53,1.13.92,1.56.39.43.85.75,1.38.97.53.22,1.1.33,1.71.33.37,0,.71-.02,1-.07.3-.05.57-.11.82-.2s.48-.21.71-.35c.22-.14.44-.31.66-.51.05-.04.1-.08.15-.1.05-.03.11-.04.17-.04Z"></path>
<path class="cls-4" d="m160.38,214.97l-.14.75c-.03.19-.1.32-.22.41-.12.09-.31.13-.56.13h-1.15l-.56,2.81h1.53c.19,0,.32.06.4.17.08.11.1.3.06.56l-.08.57h-2.1l-.74,3.77h-.79c-.08,0-.16-.02-.24-.06s-.14-.09-.18-.16c-.05-.07-.08-.15-.1-.24-.02-.09-.02-.19,0-.3l.6-3.02h-2.12l-.6,3.11c-.05.24-.15.41-.3.51-.15.1-.32.15-.51.15h-.77l.74-3.77h-1.24c-.18,0-.31-.05-.4-.16s-.1-.3-.06-.57l.08-.57h1.81l.55-2.81h-2.04l.13-.74c.03-.19.11-.33.23-.42.12-.09.31-.13.56-.13h1.32l.62-3.13c.04-.19.13-.34.27-.45.14-.11.31-.17.5-.17h.79l-.74,3.75h2.13l.73-3.75h.78c.19,0,.34.06.45.18.11.12.14.28.11.47l-.62,3.1h1.88Zm-3.52,1.3h-2.13l-.55,2.81h2.12l.56-2.81Z"></path>
<path class="cls-4" d="m161.8,216.28c.51-.49,1.06-.85,1.66-1.09.6-.24,1.25-.36,1.97-.36.52,0,.98.08,1.39.26.4.17.74.41,1.02.71.28.31.48.67.62,1.1.14.43.21.9.21,1.41v5.83h-.78c-.17,0-.31-.03-.4-.09-.09-.06-.16-.16-.22-.32l-.19-.8c-.23.22-.46.41-.69.57-.23.17-.47.31-.72.42-.25.12-.51.21-.8.27s-.59.09-.94.09-.7-.05-1.01-.15c-.32-.1-.59-.25-.82-.45-.23-.21-.42-.46-.55-.77-.14-.31-.2-.66-.2-1.07,0-.36.1-.71.29-1.04.19-.33.51-.63.95-.9.44-.26,1.02-.48,1.73-.65s1.59-.26,2.62-.29v-.67c0-.69-.15-1.21-.44-1.55s-.73-.51-1.3-.51c-.38,0-.71.05-.97.14-.26.1-.49.2-.67.32-.19.12-.35.22-.5.32-.14.1-.29.14-.44.14-.12,0-.22-.03-.31-.1s-.16-.14-.21-.23l-.32-.57Zm5.15,3.81c-.71.02-1.32.08-1.82.17-.5.09-.9.2-1.21.35-.31.14-.54.31-.67.51-.14.2-.21.41-.21.65,0,.23.04.42.11.59s.18.3.31.41c.13.1.28.18.46.23.17.05.36.07.57.07.27,0,.52-.03.74-.08.23-.05.44-.13.63-.23.2-.1.39-.22.57-.36.18-.14.36-.31.53-.5v-1.8Z"></path>
<path class="cls-4" d="m172.68,216.75c.29-.6.65-1.07,1.06-1.41s.91-.51,1.49-.51c.2,0,.38.02.56.07.18.04.33.11.46.2l-.12,1.32c-.04.16-.14.24-.3.24-.08,0-.21-.02-.38-.05s-.35-.05-.54-.05c-.28,0-.53.04-.75.12-.22.08-.41.2-.58.36-.17.16-.32.36-.45.59-.13.23-.26.49-.37.79v5.72h-1.75v-9.14h1.01c.19,0,.32.04.39.1.07.07.12.19.15.37l.11,1.29Z"></path>
<path class="cls-4" d="m185.23,215.34v.66c0,.22-.14.35-.41.41l-.98.14c.08.19.15.38.2.59s.07.42.07.65c0,.45-.09.86-.26,1.22-.17.36-.41.67-.72.93-.31.26-.67.46-1.09.59-.42.14-.89.21-1.39.21-.41,0-.8-.04-1.16-.13-.18.11-.32.23-.41.36-.09.13-.14.26-.14.38,0,.21.09.37.27.47.18.1.41.18.69.22s.61.07.98.09.74.03,1.12.06c.38.03.76.07,1.12.14.37.07.7.18.98.33.29.15.52.36.69.63.18.27.27.61.27,1.04,0,.4-.1.78-.29,1.15-.19.37-.48.7-.85.99s-.83.52-1.36.69c-.53.17-1.14.26-1.82.26s-1.27-.07-1.77-.2c-.5-.13-.92-.31-1.25-.53-.33-.22-.58-.48-.75-.77s-.25-.6-.25-.92c0-.44.14-.82.41-1.13.28-.31.66-.55,1.14-.72-.26-.12-.47-.28-.63-.49s-.23-.48-.23-.82c0-.13.02-.27.07-.41s.12-.28.22-.42c.1-.14.22-.27.37-.4.15-.12.32-.24.51-.34-.45-.25-.8-.59-1.06-1-.26-.42-.39-.9-.39-1.46,0-.45.09-.85.26-1.21s.42-.67.72-.93c.31-.26.68-.46,1.11-.59.43-.14.9-.21,1.41-.21.79,0,1.47.16,2.04.49h2.54Zm-1.78,9.28c0-.22-.06-.39-.18-.52-.12-.13-.28-.23-.49-.31-.21-.07-.45-.13-.72-.16-.28-.03-.57-.06-.87-.08-.3-.02-.61-.03-.93-.05-.32-.02-.62-.04-.92-.09-.31.16-.57.35-.77.57s-.3.48-.3.78c0,.19.05.37.15.54.1.17.25.31.46.44s.47.22.78.29c.32.07.69.1,1.13.1s.81-.04,1.14-.11c.33-.07.61-.18.83-.31.22-.13.4-.3.51-.48.12-.19.18-.39.18-.61Zm-2.8-5.04c.31,0,.59-.04.82-.13s.43-.2.59-.36.28-.34.36-.55.12-.45.12-.71c0-.53-.16-.95-.48-1.26-.32-.31-.79-.47-1.42-.47s-1.09.16-1.41.47c-.32.32-.48.74-.48,1.26,0,.26.04.49.12.71s.2.4.36.55c.16.15.36.27.59.36.24.09.51.13.81.13Z"></path>
<path class="cls-4" d="m192.22,216.57c-.05.08-.1.13-.15.17-.05.03-.12.05-.21.05-.1,0-.2-.03-.32-.1-.12-.07-.26-.14-.42-.21s-.36-.15-.58-.22c-.22-.07-.49-.1-.79-.1-.25,0-.48.03-.69.09-.21.06-.38.15-.53.26-.14.11-.25.24-.33.4-.08.15-.12.32-.12.49,0,.23.07.42.2.57.13.15.31.28.53.39.22.11.47.21.75.29.28.09.56.18.85.27s.58.21.86.33c.28.12.53.28.75.46.22.18.4.4.53.66.14.26.2.57.2.95,0,.43-.08.82-.23,1.18-.15.36-.38.68-.67.94-.3.26-.67.47-1.1.62-.44.15-.94.23-1.5.23-.63,0-1.21-.1-1.75-.32-.53-.21-.98-.48-1.34-.8l.41-.67c.05-.08.11-.15.18-.19.07-.05.17-.07.29-.07.11,0,.23.04.35.12.12.08.26.18.43.28.17.1.37.19.61.27.24.08.54.12.9.12.3,0,.56-.04.78-.11.22-.08.41-.18.55-.31.15-.13.26-.28.33-.45.07-.17.11-.35.11-.53,0-.24-.07-.44-.2-.6-.13-.16-.31-.3-.53-.41-.22-.11-.47-.21-.75-.3-.28-.08-.57-.17-.86-.27-.29-.1-.58-.21-.86-.33-.28-.12-.53-.29-.75-.48-.22-.19-.4-.43-.53-.7s-.2-.61-.2-1.01c0-.35.07-.69.22-1.02.15-.32.36-.61.64-.86.28-.25.62-.44,1.03-.59.41-.15.88-.22,1.41-.22.61,0,1.15.1,1.64.29.49.19.91.46,1.25.79l-.39.64Z"></path>
</g>
<g>
<rect class="cls-3" height="24.26" width="1" x="149.5" y="345"></rect>
<polygon class="cls-3" points="146.01 368.09 150 375 153.99 368.09 146.01 368.09"></polygon>
</g>
<g>
<rect class="cls-3" height="24.26" width="1" x="150" y="420"></rect>
<polygon class="cls-3" points="146.51 443.09 150.5 450 154.49 443.09 146.51 443.09"></polygon>
</g>
<rect class="cls-3" height="30" width="1" x="180" y="345"></rect>
<rect class="cls-4" height="90" width="1" x="150" y="255"></rect>
<g>
<polygon class="cls-4" points="180.5 345.5 179.5 345.5 179.5 329.5 359.5 329.5 359.5 290.74 360.5 290.74 360.5 330.5 180.5 330.5 180.5 345.5"></polygon>
<polygon class="cls-4" points="363.99 291.91 360 285 356.01 291.91 363.99 291.91"></polygon>
</g>
</svg>