<svg height="375" id="Layer_1" viewbox="0 0 1080 375" width="1080" xmlns="http://www.w3.org/2000/svg">
<g>
<path d="m317.85,30.36v12.92h-.97c-.15,0-.27-.03-.37-.08-.1-.05-.2-.14-.3-.26l-7.3-9.44c.01.16.02.32.03.48,0,.16.01.3.01.44v8.87h-1.68v-12.92h.99c.17,0,.29.02.38.06s.18.13.28.27l7.32,9.45c-.02-.17-.03-.34-.04-.51,0-.16-.01-.32-.01-.46v-8.8h1.67Z" fill="#333e48"></path>
<path d="m324.3,34c.67,0,1.28.11,1.82.33s1,.53,1.39.95c.38.41.67.91.88,1.48.2.58.31,1.23.31,1.95s-.1,1.37-.31,1.95-.5,1.08-.88,1.48c-.38.41-.84.72-1.39.94-.54.22-1.15.33-1.82.33s-1.29-.11-1.83-.33c-.54-.22-1.01-.53-1.39-.94s-.68-.9-.89-1.48-.31-1.23-.31-1.95.1-1.37.31-1.95c.21-.58.5-1.07.89-1.48.38-.41.85-.73,1.39-.95s1.15-.33,1.83-.33Zm0,8.04c.86,0,1.51-.29,1.94-.87.43-.58.64-1.4.64-2.46s-.21-1.88-.64-2.46c-.43-.58-1.07-.88-1.94-.88s-1.53.29-1.96.88c-.43.58-.64,1.41-.64,2.46s.21,1.88.64,2.46c.43.58,1.08.87,1.96.87Z" fill="#333e48"></path>
<path d="m332.29,35.41c.2-.21.41-.4.62-.58.22-.17.45-.32.69-.45s.5-.22.78-.29c.28-.07.58-.1.9-.1.5,0,.95.08,1.33.25s.7.4.96.71c.26.3.45.67.58,1.09.13.43.2.9.2,1.41v5.82h-1.76v-5.82c0-.65-.15-1.16-.45-1.53-.3-.36-.76-.54-1.38-.54-.45,0-.87.11-1.26.32-.39.21-.76.5-1.09.87v6.71h-1.75v-9.14h1.05c.25,0,.4.12.46.35l.13.92Z" fill="#333e48"></path>
<path d="m340.58,37.13h4.5v1.49h-4.5v-1.49Z" fill="#333e48"></path>
<path d="m352.8,35.71c-.05.08-.1.13-.15.17-.05.03-.12.05-.21.05-.1,0-.2-.03-.32-.1s-.26-.14-.42-.22-.36-.15-.58-.21c-.22-.07-.49-.1-.79-.1-.25,0-.48.03-.69.09-.21.06-.38.15-.53.26-.14.11-.25.24-.33.4-.08.15-.12.32-.12.49,0,.23.07.42.2.57.13.15.31.28.53.39.22.11.47.21.75.29.28.09.56.18.85.27.29.1.58.21.86.33.28.12.53.28.75.46.22.18.4.4.53.66.14.26.2.57.2.94,0,.43-.08.82-.23,1.18-.15.36-.38.68-.67.94-.3.26-.67.47-1.1.62-.44.15-.94.22-1.5.22-.63,0-1.21-.11-1.75-.31-.53-.21-.98-.48-1.34-.8l.41-.67c.05-.08.11-.15.18-.19.07-.04.17-.07.29-.07.11,0,.23.04.35.13s.26.18.43.27.37.19.61.27c.24.08.54.12.9.12.3,0,.56-.04.78-.11.22-.07.41-.18.55-.31.15-.13.26-.28.33-.45.07-.17.11-.34.11-.53,0-.24-.07-.44-.2-.6-.13-.16-.31-.29-.53-.41s-.47-.21-.75-.3c-.28-.08-.57-.17-.86-.27-.29-.1-.58-.21-.86-.33-.28-.13-.53-.29-.75-.48-.22-.19-.4-.43-.53-.7-.13-.28-.2-.61-.2-1.01,0-.35.07-.69.22-1.02.15-.32.36-.61.64-.85.28-.25.62-.44,1.03-.59.41-.15.88-.22,1.41-.22.61,0,1.15.1,1.64.29.49.19.91.46,1.25.79l-.39.64Z" fill="#333e48"></path>
<path d="m362.74,41.98c-.22.25-.46.47-.75.65-.28.18-.58.33-.9.45-.32.12-.65.2-.99.25-.34.05-.67.08-1,.08-.63,0-1.21-.11-1.75-.32s-1-.52-1.4-.94c-.39-.41-.7-.92-.92-1.53-.22-.61-.33-1.31-.33-2.1,0-.64.1-1.23.3-1.78.2-.55.48-1.03.85-1.44.37-.41.82-.73,1.35-.96s1.13-.35,1.8-.35c.56,0,1.07.09,1.54.27.47.18.88.45,1.22.8.34.35.61.78.8,1.29.2.51.29,1.09.29,1.75,0,.27-.03.45-.09.54-.06.09-.17.14-.33.14h-5.99c.02.55.1,1.02.23,1.43.14.41.33.74.57,1.01s.53.47.87.6c.34.13.71.2,1.12.2.39,0,.73-.04,1.01-.13s.53-.19.74-.29c.21-.1.38-.2.52-.29s.27-.14.37-.14c.14,0,.25.05.33.16l.5.65Zm-1.45-4.28c0-.35-.05-.67-.15-.96-.1-.29-.25-.55-.44-.77-.19-.22-.43-.38-.7-.5s-.59-.18-.95-.18c-.74,0-1.32.21-1.74.64s-.69,1.02-.81,1.77h4.79Z" fill="#333e48"></path>
<path d="m371.17,35.85c-.05.07-.11.12-.16.16s-.12.06-.22.06-.2-.04-.3-.11c-.11-.07-.24-.16-.4-.24s-.35-.17-.58-.24c-.22-.07-.5-.11-.83-.11-.43,0-.81.08-1.14.23-.33.16-.6.38-.82.67s-.39.64-.5,1.05c-.11.41-.17.88-.17,1.4s.06,1.01.18,1.43c.12.42.29.77.51,1.05.22.29.49.5.81.65.32.15.67.22,1.06.22s.69-.05.94-.14c.25-.09.45-.19.61-.3.16-.11.3-.21.41-.3.11-.09.22-.14.33-.14.14,0,.25.05.33.16l.5.65c-.21.26-.45.48-.71.66-.26.18-.54.33-.83.44-.29.12-.6.2-.92.25-.32.05-.65.08-.98.08-.57,0-1.1-.11-1.6-.32s-.92-.52-1.29-.92c-.36-.4-.65-.9-.86-1.48-.21-.58-.32-1.25-.32-1.99,0-.68.09-1.31.28-1.88.19-.58.47-1.07.84-1.49.37-.42.82-.74,1.36-.98.54-.24,1.16-.36,1.85-.36.65,0,1.23.1,1.73.31.5.21.94.51,1.33.89l-.47.65Z" fill="#333e48"></path>
<path d="m380.98,34.14v9.14h-1.05c-.24,0-.4-.12-.47-.35l-.13-.92c-.2.21-.41.4-.62.58-.22.17-.45.32-.69.45s-.51.22-.78.29c-.28.07-.57.1-.89.1-.5,0-.95-.08-1.33-.25-.38-.17-.7-.4-.96-.71-.26-.3-.45-.67-.58-1.09-.13-.43-.2-.9-.2-1.41v-5.82h1.76v5.82c0,.65.15,1.16.45,1.53.3.36.76.54,1.38.54.45,0,.87-.11,1.26-.32.39-.21.76-.5,1.1-.88v-6.7h1.75Z" fill="#333e48"></path>
<path d="m385.09,35.89c.29-.6.65-1.07,1.06-1.41.41-.34.91-.51,1.49-.51.2,0,.38.02.56.07.18.04.33.11.46.2l-.12,1.32c-.04.16-.14.24-.3.24-.08,0-.21-.02-.38-.05-.17-.03-.35-.05-.54-.05-.28,0-.53.04-.75.12-.22.08-.41.2-.58.36-.17.16-.32.35-.45.58-.13.23-.26.49-.37.79v5.72h-1.75v-9.14h1.01c.19,0,.32.03.39.1.07.07.12.19.15.36l.11,1.29Z" fill="#333e48"></path>
<path d="m397.2,41.98c-.22.25-.46.47-.75.65-.28.18-.58.33-.9.45-.32.12-.65.2-.99.25-.34.05-.67.08-1,.08-.63,0-1.21-.11-1.75-.32s-1-.52-1.4-.94c-.39-.41-.7-.92-.92-1.53-.22-.61-.33-1.31-.33-2.1,0-.64.1-1.23.3-1.78.2-.55.48-1.03.85-1.44.37-.41.82-.73,1.35-.96s1.13-.35,1.8-.35c.56,0,1.07.09,1.54.27.47.18.88.45,1.22.8.34.35.61.78.8,1.29.2.51.29,1.09.29,1.75,0,.27-.03.45-.09.54-.06.09-.17.14-.33.14h-5.99c.02.55.1,1.02.23,1.43.14.41.33.74.57,1.01s.53.47.87.6c.34.13.71.2,1.12.2.39,0,.73-.04,1.01-.13s.53-.19.74-.29c.21-.1.38-.2.52-.29s.27-.14.37-.14c.14,0,.25.05.33.16l.5.65Zm-1.45-4.28c0-.35-.05-.67-.15-.96-.1-.29-.25-.55-.44-.77-.19-.22-.43-.38-.7-.5s-.59-.18-.95-.18c-.74,0-1.32.21-1.74.64s-.69,1.02-.81,1.77h4.79Z" fill="#333e48"></path>
<path d="m289.66,55.34v-.25c0-.18.03-.3.1-.38s.16-.11.27-.11.2.04.27.11c.07.08.1.2.1.38v1.88c0,.18-.03.3-.1.38-.07.08-.16.11-.27.11-.11,0-.19-.04-.26-.11-.07-.07-.1-.18-.11-.34-.03-.49-.28-.93-.76-1.33s-1.1-.59-1.88-.59c-.81,0-1.46.21-1.94.63-.48.42-.72.91-.72,1.48,0,.29.07.56.2.8s.31.43.54.58c.22.15.47.27.76.36.28.09.72.19,1.32.29,1,.16,1.69.33,2.07.5.51.23.89.54,1.16.95.26.4.39.88.39,1.43,0,.84-.34,1.56-1.01,2.16-.67.6-1.58.89-2.72.89-1.28,0-2.31-.4-3.08-1.2v.42c0,.18-.03.3-.1.38-.07.08-.16.11-.27.11-.11,0-.19-.04-.26-.11s-.11-.2-.11-.38v-2.04c0-.18.03-.31.1-.39s.16-.11.27-.11c.11,0,.19.04.26.11s.1.18.11.34c.03.54.32,1.03.87,1.47.55.44,1.28.66,2.21.66s1.66-.23,2.19-.69c.54-.46.8-1.01.8-1.64,0-.39-.1-.73-.31-1.03-.21-.3-.51-.54-.91-.72-.28-.12-.87-.26-1.76-.41-1.22-.21-2.11-.52-2.65-.94s-.81-1.02-.81-1.8.31-1.44.93-2c.62-.56,1.43-.83,2.45-.83s1.92.33,2.66.98Z" fill="#333e48"></path>
<path d="m301.07,55.61v-.52c0-.18.03-.3.1-.38.07-.08.16-.11.27-.11s.2.04.27.11.1.2.1.38v2.05c0,.18-.03.31-.1.39s-.16.11-.27.11c-.1,0-.18-.04-.25-.11-.07-.07-.11-.18-.12-.34-.03-.49-.3-.93-.8-1.31-.68-.52-1.45-.78-2.32-.78-.57,0-1.1.13-1.61.38-.38.18-.67.4-.9.67-.39.46-.69.96-.92,1.52-.16.41-.25.87-.25,1.39v1.29c0,1.1.4,2.06,1.2,2.87.8.81,1.72,1.22,2.78,1.22.63,0,1.2-.14,1.7-.41.5-.28.99-.69,1.46-1.25.1-.12.21-.18.33-.18.11,0,.19.03.25.1s.1.15.1.25c0,.13-.13.34-.38.62-.48.54-1.02.94-1.62,1.22-.6.27-1.21.41-1.82.41-.53,0-1.08-.1-1.63-.31-.42-.16-.77-.34-1.05-.55s-.61-.57-1.01-1.07c-.4-.5-.68-.96-.82-1.39-.15-.42-.22-.89-.22-1.4v-1.5c0-.73.19-1.47.58-2.23.39-.76.92-1.34,1.6-1.75.68-.41,1.41-.61,2.2-.61,1.22,0,2.27.42,3.15,1.25Z" fill="#333e48"></path>
<path d="m306.22,60.3v3.85h1.36c.18,0,.31.03.39.1.08.07.11.16.11.27,0,.11-.04.19-.11.26s-.21.11-.39.11h-3.09c-.18,0-.3-.04-.38-.11s-.11-.16-.11-.26c0-.11.04-.2.11-.27.08-.07.2-.1.38-.1h.99v-8.81h-.99c-.18,0-.3-.03-.38-.1-.08-.07-.11-.16-.11-.27s.04-.2.11-.27c.08-.07.2-.1.38-.1h4.46c.92,0,1.69.29,2.32.87.63.58.95,1.24.95,1.97,0,.53-.2,1.02-.58,1.49-.39.47-1.04.85-1.96,1.17.53.36.98.77,1.35,1.23s.98,1.39,1.8,2.81h.56c.18,0,.3.03.38.1.08.07.11.16.11.27,0,.11-.04.19-.11.26s-.2.11-.38.11h-.98c-.91-1.63-1.62-2.73-2.12-3.29-.5-.56-1.08-.99-1.73-1.3h-2.35Zm0-.74h2.01c.64,0,1.23-.12,1.75-.35.52-.23.9-.51,1.14-.83.24-.32.36-.64.36-.97,0-.49-.25-.96-.74-1.41-.5-.45-1.1-.67-1.81-.67h-2.72v4.22Z" fill="#333e48"></path>
<path d="m324.33,69.81h-9.82c-.18,0-.3-.03-.38-.1-.08-.07-.11-.16-.11-.27s.04-.2.11-.27c.08-.07.2-.1.38-.1h9.82c.18,0,.31.03.38.1.07.07.11.16.11.27s-.04.2-.11.27c-.07.07-.2.1-.38.1Z" fill="#333e48"></path>
<path d="m327.82,59.92v4.23h5.68v-2.18c0-.18.03-.3.1-.38s.16-.11.27-.11.2.04.27.11c.07.08.1.2.1.38v2.92h-8.15c-.18,0-.3-.04-.38-.11s-.11-.16-.11-.26c0-.11.04-.2.11-.27.08-.07.2-.1.38-.1h.99v-8.81h-.99c-.18,0-.3-.03-.38-.1-.08-.07-.11-.16-.11-.27s.04-.2.11-.27c.08-.07.2-.1.38-.1h7.76v2.54c0,.18-.03.3-.1.38-.07.08-.16.11-.27.11s-.2-.04-.27-.11-.1-.2-.1-.38v-1.8h-5.29v3.84h2.65v-.83c0-.18.04-.3.11-.38s.16-.11.27-.11c.11,0,.19.04.26.11s.11.2.11.38v2.41c0,.18-.04.3-.11.38s-.16.11-.26.11c-.11,0-.2-.04-.27-.11s-.11-.2-.11-.38v-.83h-2.65Z" fill="#333e48"></path>
<path d="m339.75,55.34v8.81h4.9v-2.94c0-.18.04-.3.11-.38s.16-.11.27-.11c.11,0,.19.04.26.11.07.07.11.2.11.38v3.67h-8.16c-.18,0-.3-.04-.38-.11s-.11-.16-.11-.26c0-.11.04-.2.11-.27.08-.07.2-.1.38-.1h1.76v-8.81h-1.76c-.18,0-.3-.03-.38-.1-.08-.07-.11-.16-.11-.27s.04-.2.11-.27c.08-.07.2-.1.38-.1h4.26c.18,0,.3.03.38.1.08.07.11.16.11.27s-.04.2-.11.27c-.08.07-.2.1-.38.1h-1.76Z" fill="#333e48"></path>
<path d="m353.35,58.88c.68.3,1.2.72,1.56,1.25.36.53.54,1.08.54,1.66,0,.88-.36,1.67-1.08,2.34-.72.68-1.62,1.01-2.69,1.01-.63,0-1.29-.13-1.97-.4s-1.15-.54-1.42-.83c-.09-.09-.13-.19-.13-.3,0-.09.03-.18.1-.25s.15-.11.24-.11.2.04.32.13c.91.67,1.87,1.01,2.88,1.01.86,0,1.57-.27,2.15-.8.58-.54.87-1.13.87-1.79,0-.44-.14-.87-.43-1.29s-.69-.75-1.23-1c-.53-.24-1.07-.37-1.62-.37-.18,0-.3-.03-.38-.1-.08-.07-.11-.16-.11-.27,0-.11.04-.19.11-.26.07-.07.18-.11.33-.11h.63c.66,0,1.21-.19,1.64-.6.43-.4.65-.87.65-1.41s-.23-1.04-.68-1.46-1.04-.63-1.77-.63c-.51,0-.98.09-1.41.26s-.77.42-1.03.72c-.09.12-.17.19-.21.21-.05.03-.11.04-.17.04-.1,0-.18-.03-.25-.1-.07-.07-.11-.15-.11-.24,0-.23.25-.53.76-.89.71-.5,1.51-.75,2.42-.75s1.7.28,2.29.84c.6.56.9,1.23.9,2,0,.49-.14.96-.43,1.4s-.71.79-1.27,1.05Z" fill="#333e48"></path>
<path d="m362.48,62.77h.32c.33,0,.61.12.84.35.23.23.35.51.35.84s-.12.62-.36.85c-.24.23-.52.34-.84.34h-.32c-.33,0-.61-.12-.84-.35-.23-.23-.35-.51-.35-.84s.12-.62.36-.85c.24-.23.52-.34.84-.34Z" fill="#333e48"></path>
<path d="m377.05,64.88h-.95l-5.44-9.2v8.46h1.36c.18,0,.31.03.39.1.08.07.11.16.11.27,0,.11-.04.19-.11.26s-.21.11-.39.11h-2.72c-.18,0-.31-.04-.39-.11s-.11-.16-.11-.26c0-.11.04-.2.11-.27.08-.07.21-.1.39-.1h.62v-8.81h-.99c-.18,0-.3-.03-.38-.1-.08-.07-.11-.16-.11-.27s.04-.2.11-.27c.08-.07.2-.1.38-.1h1.93l5.45,9.22v-8.48h-1.36c-.18,0-.3-.03-.38-.1-.08-.07-.11-.16-.11-.27s.04-.2.11-.27c.07-.07.2-.1.38-.1h2.72c.18,0,.3.03.38.1.08.07.11.16.11.27s-.04.2-.11.27c-.08.07-.2.1-.38.1h-.62v9.54Z" fill="#333e48"></path>
<path d="m386.88,55.34v-.25c0-.18.03-.3.1-.38s.16-.11.27-.11.2.04.27.11c.07.08.1.2.1.38v1.88c0,.18-.03.3-.1.38-.07.08-.16.11-.27.11-.11,0-.19-.04-.26-.11-.07-.07-.1-.18-.11-.34-.03-.49-.28-.93-.76-1.33s-1.1-.59-1.88-.59c-.81,0-1.46.21-1.94.63-.48.42-.72.91-.72,1.48,0,.29.07.56.2.8s.31.43.54.58c.22.15.47.27.76.36.28.09.72.19,1.32.29,1,.16,1.69.33,2.07.5.51.23.89.54,1.16.95.26.4.39.88.39,1.43,0,.84-.34,1.56-1.01,2.16-.67.6-1.58.89-2.72.89-1.28,0-2.31-.4-3.08-1.2v.42c0,.18-.03.3-.1.38-.07.08-.16.11-.27.11-.11,0-.19-.04-.26-.11s-.11-.2-.11-.38v-2.04c0-.18.03-.31.1-.39s.16-.11.27-.11c.11,0,.19.04.26.11s.1.18.11.34c.03.54.32,1.03.87,1.47.55.44,1.28.66,2.21.66s1.66-.23,2.19-.69c.54-.46.8-1.01.8-1.64,0-.39-.1-.73-.31-1.03-.21-.3-.51-.54-.91-.72-.28-.12-.87-.26-1.76-.41-1.22-.21-2.11-.52-2.65-.94s-.81-1.02-.81-1.8.31-1.44.93-2c.62-.56,1.43-.83,2.45-.83s1.92.33,2.66.98Z" fill="#333e48"></path>
<path d="m399.07,58.78h-8.05c-.18,0-.3-.04-.38-.11s-.11-.16-.11-.27c0-.11.04-.19.11-.26s.2-.11.38-.11h8.05c.18,0,.3.04.38.11s.11.16.11.27c0,.11-.04.19-.11.26s-.2.11-.38.11Zm0,2.65h-8.05c-.18,0-.3-.03-.38-.1-.08-.07-.11-.16-.11-.27s.04-.2.11-.27c.08-.07.2-.1.38-.1h8.05c.18,0,.3.03.38.1.08.07.11.16.11.27s-.04.2-.11.27c-.08.07-.2.1-.38.1Z" fill="#333e48"></path>
<path d="m409.87,58.78h-8.05c-.18,0-.3-.04-.38-.11s-.11-.16-.11-.27c0-.11.04-.19.11-.26s.2-.11.38-.11h8.05c.18,0,.3.04.38.11s.11.16.11.27c0,.11-.04.19-.11.26s-.2.11-.38.11Zm0,2.65h-8.05c-.18,0-.3-.03-.38-.1-.08-.07-.11-.16-.11-.27s.04-.2.11-.27c.08-.07.2-.1.38-.1h8.05c.18,0,.3.03.38.1.08.07.11.16.11.27s-.04.2-.11.27c-.08.07-.2.1-.38.1Z" fill="#333e48"></path>
<path d="m417,53.7v10.44h2.53c.18,0,.3.03.38.1.08.07.11.16.11.27,0,.11-.04.19-.11.26s-.2.11-.38.11h-5.8c-.18,0-.3-.04-.38-.11s-.11-.16-.11-.26c0-.11.04-.2.11-.27.08-.07.2-.1.38-.1h2.53v-9.42l-2.41.76c-.12.04-.2.05-.25.05-.09,0-.17-.04-.24-.11-.07-.07-.11-.16-.11-.26,0-.09.03-.17.09-.25.05-.05.14-.1.29-.15l3.38-1.06Z" fill="#333e48"></path>
</g>
<g>
<path d="m820.91,32.47c-.06.1-.12.18-.19.23-.07.05-.15.07-.25.07s-.23-.05-.37-.15c-.14-.1-.31-.21-.52-.33s-.45-.23-.74-.33-.63-.15-1.04-.15c-.38,0-.71.05-.99.15s-.52.23-.72.41c-.19.17-.34.37-.44.6-.1.23-.15.48-.15.75,0,.35.09.64.27.87.18.23.41.42.7.58s.62.3.98.42c.37.12.74.24,1.12.37s.76.28,1.12.45c.37.17.69.38.98.63s.52.57.7.94c.18.37.26.82.26,1.36,0,.57-.1,1.1-.29,1.6-.2.5-.48.93-.85,1.3-.37.37-.83.67-1.37.88-.54.21-1.16.32-1.85.32-.41,0-.82-.04-1.21-.12-.39-.08-.76-.2-1.11-.34-.35-.15-.67-.32-.98-.53s-.57-.44-.81-.7l.55-.92c.05-.07.12-.13.19-.18.08-.05.16-.07.26-.07.13,0,.27.07.44.2s.37.28.61.44.53.3.87.44.75.2,1.24.2c.4,0,.75-.05,1.06-.16.31-.11.58-.26.79-.45.21-.19.38-.43.49-.71s.17-.58.17-.92c0-.38-.09-.69-.26-.93s-.41-.44-.69-.6-.62-.3-.98-.41c-.37-.11-.74-.23-1.12-.36s-.76-.27-1.12-.43c-.37-.16-.69-.37-.98-.63s-.52-.59-.69-.98c-.17-.39-.26-.88-.26-1.45,0-.46.09-.91.27-1.34.18-.43.44-.81.79-1.15s.77-.6,1.27-.8,1.08-.3,1.73-.3c.73,0,1.39.12,2,.35.61.23,1.14.56,1.59.99l-.47.91Z" fill="#333e48"></path>
<path d="m831.12,41.98c-.22.25-.46.47-.75.65-.28.18-.58.33-.9.45-.32.12-.65.2-.99.25-.34.05-.67.08-1,.08-.63,0-1.21-.11-1.75-.32s-1-.52-1.4-.94c-.39-.41-.7-.92-.92-1.53-.22-.61-.33-1.31-.33-2.1,0-.64.1-1.23.3-1.78.2-.55.48-1.03.85-1.44.37-.41.82-.73,1.35-.96s1.13-.35,1.8-.35c.56,0,1.07.09,1.54.27.47.18.88.45,1.22.8.34.35.61.78.8,1.29.2.51.29,1.09.29,1.75,0,.27-.03.45-.09.54-.06.09-.17.14-.33.14h-5.99c.02.55.1,1.02.23,1.43.14.41.33.74.57,1.01s.53.47.87.6c.34.13.71.2,1.12.2.39,0,.73-.04,1.01-.13s.53-.19.74-.29c.21-.1.38-.2.52-.29s.27-.14.37-.14c.14,0,.25.05.33.16l.5.65Zm-1.45-4.28c0-.35-.05-.67-.15-.96-.1-.29-.25-.55-.44-.77-.19-.22-.43-.38-.7-.5s-.59-.18-.95-.18c-.74,0-1.32.21-1.74.64s-.69,1.02-.81,1.77h4.79Z" fill="#333e48"></path>
<path d="m839.55,35.85c-.05.07-.11.12-.16.16s-.12.06-.22.06-.2-.04-.3-.11c-.11-.07-.24-.16-.4-.24s-.35-.17-.58-.24c-.22-.07-.5-.11-.83-.11-.43,0-.81.08-1.14.23-.33.16-.6.38-.82.67s-.39.64-.5,1.05c-.11.41-.17.88-.17,1.4s.06,1.01.18,1.43c.12.42.29.77.51,1.05.22.29.49.5.81.65.32.15.67.22,1.06.22s.69-.05.94-.14c.25-.09.45-.19.61-.3.16-.11.3-.21.41-.3.11-.09.22-.14.33-.14.14,0,.25.05.33.16l.5.65c-.21.26-.45.48-.71.66-.26.18-.54.33-.83.44-.29.12-.6.2-.92.25-.32.05-.65.08-.98.08-.57,0-1.1-.11-1.6-.32s-.92-.52-1.29-.92c-.36-.4-.65-.9-.86-1.48-.21-.58-.32-1.25-.32-1.99,0-.68.09-1.31.28-1.88.19-.58.47-1.07.84-1.49.37-.42.82-.74,1.36-.98.54-.24,1.16-.36,1.85-.36.65,0,1.23.1,1.73.31.5.21.94.51,1.33.89l-.47.65Z" fill="#333e48"></path>
<path d="m849.36,34.14v9.14h-1.05c-.24,0-.4-.12-.47-.35l-.13-.92c-.2.21-.41.4-.62.58-.22.17-.45.32-.69.45s-.51.22-.78.29c-.28.07-.57.1-.89.1-.5,0-.95-.08-1.33-.25-.38-.17-.7-.4-.96-.71-.26-.3-.45-.67-.58-1.09-.13-.43-.2-.9-.2-1.41v-5.82h1.76v5.82c0,.65.15,1.16.45,1.53.3.36.76.54,1.38.54.45,0,.87-.11,1.26-.32.39-.21.76-.5,1.1-.88v-6.7h1.75Z" fill="#333e48"></path>
<path d="m853.47,35.89c.29-.6.65-1.07,1.06-1.41.41-.34.91-.51,1.49-.51.2,0,.38.02.56.07.18.04.33.11.46.2l-.12,1.32c-.04.16-.14.24-.3.24-.08,0-.21-.02-.38-.05-.17-.03-.35-.05-.54-.05-.28,0-.53.04-.75.12-.22.08-.41.2-.58.36-.17.16-.32.35-.45.58-.13.23-.26.49-.37.79v5.72h-1.75v-9.14h1.01c.19,0,.32.03.39.1.07.07.12.19.15.36l.11,1.29Z" fill="#333e48"></path>
<path d="m865.58,41.98c-.22.25-.46.47-.75.65-.28.18-.58.33-.9.45-.32.12-.65.2-.99.25-.34.05-.67.08-1,.08-.63,0-1.21-.11-1.75-.32s-1-.52-1.4-.94c-.39-.41-.7-.92-.92-1.53-.22-.61-.33-1.31-.33-2.1,0-.64.1-1.23.3-1.78.2-.55.48-1.03.85-1.44.37-.41.82-.73,1.35-.96s1.13-.35,1.8-.35c.56,0,1.07.09,1.54.27.47.18.88.45,1.22.8.34.35.61.78.8,1.29.2.51.29,1.09.29,1.75,0,.27-.03.45-.09.54-.06.09-.17.14-.33.14h-5.99c.02.55.1,1.02.23,1.43.14.41.33.74.57,1.01s.53.47.87.6c.34.13.71.2,1.12.2.39,0,.73-.04,1.01-.13s.53-.19.74-.29c.21-.1.38-.2.52-.29s.27-.14.37-.14c.14,0,.25.05.33.16l.5.65Zm-1.45-4.28c0-.35-.05-.67-.15-.96-.1-.29-.25-.55-.44-.77-.19-.22-.43-.38-.7-.5s-.59-.18-.95-.18c-.74,0-1.32.21-1.74.64s-.69,1.02-.81,1.77h4.79Z" fill="#333e48"></path>
<path d="m777.33,55.34v-.25c0-.18.03-.3.1-.38s.16-.11.27-.11.2.04.27.11c.07.08.1.2.1.38v1.88c0,.18-.03.3-.1.38-.07.08-.16.11-.27.11-.11,0-.19-.04-.26-.11-.07-.07-.1-.18-.11-.34-.03-.49-.28-.93-.76-1.33s-1.1-.59-1.88-.59c-.81,0-1.46.21-1.94.63-.48.42-.72.91-.72,1.48,0,.29.07.56.2.8s.31.43.54.58c.22.15.47.27.76.36.28.09.72.19,1.32.29,1,.16,1.69.33,2.07.5.51.23.89.54,1.16.95.26.4.39.88.39,1.43,0,.84-.34,1.56-1.01,2.16-.67.6-1.58.89-2.72.89-1.28,0-2.31-.4-3.08-1.2v.42c0,.18-.03.3-.1.38-.07.08-.16.11-.27.11-.11,0-.19-.04-.26-.11s-.11-.2-.11-.38v-2.04c0-.18.03-.31.1-.39s.16-.11.27-.11c.11,0,.19.04.26.11s.1.18.11.34c.03.54.32,1.03.87,1.47.55.44,1.28.66,2.21.66s1.66-.23,2.19-.69c.54-.46.8-1.01.8-1.64,0-.39-.1-.73-.31-1.03-.21-.3-.51-.54-.91-.72-.28-.12-.87-.26-1.76-.41-1.22-.21-2.11-.52-2.65-.94s-.81-1.02-.81-1.8.31-1.44.93-2c.62-.56,1.43-.83,2.45-.83s1.92.33,2.66.98Z" fill="#333e48"></path>
<path d="m788.74,55.61v-.52c0-.18.03-.3.1-.38.07-.08.16-.11.27-.11s.2.04.27.11.1.2.1.38v2.05c0,.18-.03.31-.1.39s-.16.11-.27.11c-.1,0-.18-.04-.25-.11-.07-.07-.11-.18-.12-.34-.03-.49-.3-.93-.8-1.31-.68-.52-1.45-.78-2.32-.78-.57,0-1.1.13-1.61.38-.38.18-.67.4-.9.67-.39.46-.69.96-.92,1.52-.16.41-.25.87-.25,1.39v1.29c0,1.1.4,2.06,1.2,2.87.8.81,1.72,1.22,2.78,1.22.63,0,1.2-.14,1.7-.41.5-.28.99-.69,1.46-1.25.1-.12.21-.18.33-.18.11,0,.19.03.25.1s.1.15.1.25c0,.13-.13.34-.38.62-.48.54-1.02.94-1.62,1.22-.6.27-1.21.41-1.82.41-.53,0-1.08-.1-1.63-.31-.42-.16-.77-.34-1.05-.55s-.61-.57-1.01-1.07c-.4-.5-.68-.96-.82-1.39-.15-.42-.22-.89-.22-1.4v-1.5c0-.73.19-1.47.58-2.23.39-.76.92-1.34,1.6-1.75.68-.41,1.41-.61,2.2-.61,1.22,0,2.27.42,3.15,1.25Z" fill="#333e48"></path>
<path d="m793.89,60.3v3.85h1.36c.18,0,.31.03.39.1.08.07.11.16.11.27,0,.11-.04.19-.11.26s-.21.11-.39.11h-3.09c-.18,0-.3-.04-.38-.11s-.11-.16-.11-.26c0-.11.04-.2.11-.27.08-.07.2-.1.38-.1h.99v-8.81h-.99c-.18,0-.3-.03-.38-.1-.08-.07-.11-.16-.11-.27s.04-.2.11-.27c.08-.07.2-.1.38-.1h4.46c.92,0,1.69.29,2.32.87.63.58.95,1.24.95,1.97,0,.53-.2,1.02-.58,1.49-.39.47-1.04.85-1.96,1.17.53.36.98.77,1.35,1.23s.98,1.39,1.8,2.81h.56c.18,0,.3.03.38.1.08.07.11.16.11.27,0,.11-.04.19-.11.26s-.2.11-.38.11h-.98c-.91-1.63-1.62-2.73-2.12-3.29-.5-.56-1.08-.99-1.73-1.3h-2.35Zm0-.74h2.01c.64,0,1.23-.12,1.75-.35.52-.23.9-.51,1.14-.83.24-.32.36-.64.36-.97,0-.49-.25-.96-.74-1.41-.5-.45-1.1-.67-1.81-.67h-2.72v4.22Z" fill="#333e48"></path>
<path d="m812,69.81h-9.82c-.18,0-.3-.03-.38-.1-.08-.07-.11-.16-.11-.27s.04-.2.11-.27c.08-.07.2-.1.38-.1h9.82c.18,0,.31.03.38.1.07.07.11.16.11.27s-.04.2-.11.27c-.07.07-.2.1-.38.1Z" fill="#333e48"></path>
<path d="m815.49,59.92v4.23h5.68v-2.18c0-.18.03-.3.1-.38s.16-.11.27-.11.2.04.27.11c.07.08.1.2.1.38v2.92h-8.15c-.18,0-.3-.04-.38-.11s-.11-.16-.11-.26c0-.11.04-.2.11-.27.08-.07.2-.1.38-.1h.99v-8.81h-.99c-.18,0-.3-.03-.38-.1-.08-.07-.11-.16-.11-.27s.04-.2.11-.27c.08-.07.2-.1.38-.1h7.76v2.54c0,.18-.03.3-.1.38-.07.08-.16.11-.27.11s-.2-.04-.27-.11-.1-.2-.1-.38v-1.8h-5.29v3.84h2.65v-.83c0-.18.04-.3.11-.38s.16-.11.27-.11c.11,0,.19.04.26.11s.11.2.11.38v2.41c0,.18-.04.3-.11.38s-.16.11-.26.11c-.11,0-.2-.04-.27-.11s-.11-.2-.11-.38v-.83h-2.65Z" fill="#333e48"></path>
<path d="m827.42,55.34v8.81h4.9v-2.94c0-.18.04-.3.11-.38s.16-.11.27-.11c.11,0,.19.04.26.11.07.07.11.2.11.38v3.67h-8.16c-.18,0-.3-.04-.38-.11s-.11-.16-.11-.26c0-.11.04-.2.11-.27.08-.07.2-.1.38-.1h1.76v-8.81h-1.76c-.18,0-.3-.03-.38-.1-.08-.07-.11-.16-.11-.27s.04-.2.11-.27c.08-.07.2-.1.38-.1h4.26c.18,0,.3.03.38.1.08.07.11.16.11.27s-.04.2-.11.27c-.08.07-.2.1-.38.1h-1.76Z" fill="#333e48"></path>
<path d="m841.02,58.88c.68.3,1.2.72,1.56,1.25.36.53.54,1.08.54,1.66,0,.88-.36,1.67-1.08,2.34-.72.68-1.62,1.01-2.69,1.01-.63,0-1.29-.13-1.97-.4s-1.15-.54-1.42-.83c-.09-.09-.13-.19-.13-.3,0-.09.03-.18.1-.25s.15-.11.24-.11.2.04.32.13c.91.67,1.87,1.01,2.88,1.01.86,0,1.57-.27,2.15-.8.58-.54.87-1.13.87-1.79,0-.44-.14-.87-.43-1.29s-.69-.75-1.23-1c-.53-.24-1.07-.37-1.62-.37-.18,0-.3-.03-.38-.1-.08-.07-.11-.16-.11-.27,0-.11.04-.19.11-.26.07-.07.18-.11.33-.11h.63c.66,0,1.21-.19,1.64-.6.43-.4.65-.87.65-1.41s-.23-1.04-.68-1.46-1.04-.63-1.77-.63c-.51,0-.98.09-1.41.26s-.77.42-1.03.72c-.09.12-.17.19-.21.21-.05.03-.11.04-.17.04-.1,0-.18-.03-.25-.1-.07-.07-.11-.15-.11-.24,0-.23.25-.53.76-.89.71-.5,1.51-.75,2.42-.75s1.7.28,2.29.84c.6.56.9,1.23.9,2,0,.49-.14.96-.43,1.4s-.71.79-1.27,1.05Z" fill="#333e48"></path>
<path d="m850.15,62.77h.32c.33,0,.61.12.84.35.23.23.35.51.35.84s-.12.62-.36.85c-.24.23-.52.34-.84.34h-.32c-.33,0-.61-.12-.84-.35-.23-.23-.35-.51-.35-.84s.12-.62.36-.85c.24-.23.52-.34.84-.34Z" fill="#333e48"></path>
<path d="m864.72,64.88h-.95l-5.44-9.2v8.46h1.36c.18,0,.31.03.39.1.08.07.11.16.11.27,0,.11-.04.19-.11.26s-.21.11-.39.11h-2.72c-.18,0-.31-.04-.39-.11s-.11-.16-.11-.26c0-.11.04-.2.11-.27.08-.07.21-.1.39-.1h.62v-8.81h-.99c-.18,0-.3-.03-.38-.1-.08-.07-.11-.16-.11-.27s.04-.2.11-.27c.08-.07.2-.1.38-.1h1.93l5.45,9.22v-8.48h-1.36c-.18,0-.3-.03-.38-.1-.08-.07-.11-.16-.11-.27s.04-.2.11-.27c.07-.07.2-.1.38-.1h2.72c.18,0,.3.03.38.1.08.07.11.16.11.27s-.04.2-.11.27c-.08.07-.2.1-.38.1h-.62v9.54Z" fill="#333e48"></path>
<path d="m874.55,55.34v-.25c0-.18.03-.3.1-.38s.16-.11.27-.11.2.04.27.11c.07.08.1.2.1.38v1.88c0,.18-.03.3-.1.38-.07.08-.16.11-.27.11-.11,0-.19-.04-.26-.11-.07-.07-.1-.18-.11-.34-.03-.49-.28-.93-.76-1.33s-1.1-.59-1.88-.59c-.81,0-1.46.21-1.94.63-.48.42-.72.91-.72,1.48,0,.29.07.56.2.8s.31.43.54.58c.22.15.47.27.76.36.28.09.72.19,1.32.29,1,.16,1.69.33,2.07.5.51.23.89.54,1.16.95.26.4.39.88.39,1.43,0,.84-.34,1.56-1.01,2.16-.67.6-1.58.89-2.72.89-1.28,0-2.31-.4-3.08-1.2v.42c0,.18-.03.3-.1.38-.07.08-.16.11-.27.11-.11,0-.19-.04-.26-.11s-.11-.2-.11-.38v-2.04c0-.18.03-.31.1-.39s.16-.11.27-.11c.11,0,.19.04.26.11s.1.18.11.34c.03.54.32,1.03.87,1.47.55.44,1.28.66,2.21.66s1.66-.23,2.19-.69c.54-.46.8-1.01.8-1.64,0-.39-.1-.73-.31-1.03-.21-.3-.51-.54-.91-.72-.28-.12-.87-.26-1.76-.41-1.22-.21-2.11-.52-2.65-.94s-.81-1.02-.81-1.8.31-1.44.93-2c.62-.56,1.43-.83,2.45-.83s1.92.33,2.66.98Z" fill="#333e48"></path>
<path d="m886.74,58.78h-8.05c-.18,0-.3-.04-.38-.11s-.11-.16-.11-.27c0-.11.04-.19.11-.26s.2-.11.38-.11h8.05c.18,0,.3.04.38.11s.11.16.11.27c0,.11-.04.19-.11.26s-.2.11-.38.11Zm0,2.65h-8.05c-.18,0-.3-.03-.38-.1-.08-.07-.11-.16-.11-.27s.04-.2.11-.27c.08-.07.2-.1.38-.1h8.05c.18,0,.3.03.38.1.08.07.11.16.11.27s-.04.2-.11.27c-.08.07-.2.1-.38.1Z" fill="#333e48"></path>
<path d="m897.54,58.78h-8.05c-.18,0-.3-.04-.38-.11s-.11-.16-.11-.27c0-.11.04-.19.11-.26s.2-.11.38-.11h8.05c.18,0,.3.04.38.11s.11.16.11.27c0,.11-.04.19-.11.26s-.2.11-.38.11Zm0,2.65h-8.05c-.18,0-.3-.03-.38-.1-.08-.07-.11-.16-.11-.27s.04-.2.11-.27c.08-.07.2-.1.38-.1h8.05c.18,0,.3.03.38.1.08.07.11.16.11.27s-.04.2-.11.27c-.08.07-.2.1-.38.1Z" fill="#333e48"></path>
<path d="m907.7,58.46v1.83c0,1.59-.38,2.84-1.13,3.77-.59.73-1.34,1.09-2.24,1.09-.43,0-.84-.09-1.23-.26-.38-.17-.71-.42-.98-.73-.17-.19-.36-.5-.56-.93-.2-.43-.35-.82-.44-1.18-.13-.5-.2-1.09-.2-1.77v-1.83c0-1.59.38-2.85,1.13-3.78.59-.73,1.34-1.09,2.24-1.09.44,0,.85.09,1.23.26.38.17.71.41.98.72.18.2.36.51.56.94s.35.82.44,1.17c.13.5.19,1.1.19,1.78Zm-.74.1c0-.7-.1-1.35-.29-1.95-.2-.6-.42-1.08-.66-1.44-.15-.21-.34-.38-.57-.53-.33-.21-.71-.31-1.12-.31-.83,0-1.47.42-1.94,1.27s-.7,1.83-.7,2.95v1.63c0,.7.1,1.35.29,1.95s.42,1.08.67,1.44c.14.2.33.37.56.52.33.21.71.32,1.13.32.82,0,1.46-.42,1.93-1.27.47-.85.7-1.83.7-2.96v-1.63Z" fill="#333e48"></path>
</g>
<rect fill="#0091bd" height="45" width="105" x="89.33" y="105"></rect>
<text fill="#fff" font-family="Lato" font-size="18" font-weight="500" transform="translate(125.59 134.14)"><tspan letter-spacing="0em" x="0" y="0">A</tspan><tspan x="12.23" y="0">pp</tspan></text>
<text fill="#333e48" font-family="Lato" font-size="18" font-weight="500" transform="translate(29.95 134.14)"><tspan x="0" y="0">EL0</tspan></text>
<text fill="#333e48" font-family="Lato" font-size="18" font-weight="500" transform="translate(29.95 194.14)"><tspan x="0" y="0">EL1</tspan></text>
<text fill="#333e48" font-family="Lato" font-size="18" font-weight="500" transform="translate(29.95 254.14)"><tspan x="0" y="0">EL2</tspan></text>
<text fill="#333e48" font-family="Lato" font-size="18" font-weight="500" transform="translate(29.95 329.14)"><tspan x="0" y="0">EL3</tspan></text>
<rect fill="#0091bd" height="45" width="105" x="224.33" y="105"></rect>
<text fill="#fff" font-family="Lato" font-size="18" font-weight="500" transform="translate(260.59 134.14)"><tspan letter-spacing="0em" x="0" y="0">A</tspan><tspan x="12.23" y="0">pp</tspan></text>
<rect fill="#0091bd" height="45" width="240" x="89" y="165"></rect>
<text fill="#fff" font-family="Lato" font-size="18" font-weight="500" transform="translate(177.46 194.14)"><tspan letter-spacing="0em" x="0" y="0">R</tspan><tspan x="11.22" y="0">ich OS</tspan></text>
<rect fill="#0091bd" height="45" width="510" x="89" y="225"></rect>
<text fill="#fff" font-family="Lato" font-size="18" font-weight="500" transform="translate(300.41 254.14)"><tspan letter-spacing="-.01em" x="0" y="0">H</tspan><tspan letter-spacing="0em" x="13.58" y="0">yperviso</tspan><tspan letter-spacing="-.02em" x="80.95" y="0">r</tspan></text>
<rect fill="#002b49" height="45" width="961" x="89" y="300"></rect>
<text fill="#fff" font-family="Lato" font-size="18" font-weight="500" transform="translate(466.78 329.14)"><tspan letter-spacing="0em" x="0" y="0">F</tspan><tspan x="10.14" y="0">ir</tspan><tspan letter-spacing="0em" x="21.12" y="0">m</tspan><tspan letter-spacing="0em" x="35.95" y="0">w</tspan><tspan letter-spacing="0em" x="50.05" y="0">a</tspan><tspan letter-spacing="-.02em" x="59.04" y="0">r</tspan><tspan x="65.29" y="0">e/</tspan><tspan letter-spacing="0em" x="83.02" y="0">S</tspan><tspan x="92.77" y="0">ecu</tspan><tspan letter-spacing="-.02em" x="120.98" y="0">r</tspan><tspan x="127.23" y="0">e </tspan><tspan letter-spacing="-.02em" x="141.31" y="0">M</tspan><tspan x="157.81" y="0">oni</tspan><tspan letter-spacing="0em" x="182.51" y="0">t</tspan><tspan x="188.97" y="0">o</tspan><tspan letter-spacing="-.02em" x="199.21" y="0">r</tspan></text>
<line fill="none" stroke="#333e48" stroke-dasharray="0 0 5 3" stroke-miterlimit="10" x1="209.33" x2="209.33" y1="105" y2="150"></line>
<line fill="none" stroke="#333e48" stroke-dasharray="0 0 5 3" stroke-miterlimit="10" x1="344.5" x2="344.5" y1="105" y2="210.5"></line>
<rect fill="#0091bd" height="45" width="105" x="359.33" y="105"></rect>
<text fill="#fff" font-family="Lato" font-size="18" font-weight="500" transform="translate(395.59 134.14)"><tspan letter-spacing="0em" x="0" y="0">A</tspan><tspan x="12.23" y="0">pp</tspan></text>
<rect fill="#0091bd" height="45" width="105" x="494.33" y="105"></rect>
<text fill="#fff" font-family="Lato" font-size="18" font-weight="500" transform="translate(530.59 134.14)"><tspan letter-spacing="0em" x="0" y="0">A</tspan><tspan x="12.23" y="0">pp</tspan></text>
<rect fill="#0091bd" height="45" width="240" x="359" y="165"></rect>
<text fill="#fff" font-family="Lato" font-size="18" font-weight="500" transform="translate(447.46 194.14)"><tspan letter-spacing="0em" x="0" y="0">R</tspan><tspan x="11.22" y="0">ich OS</tspan></text>
<rect fill="#002b49" height="45" width="195" x="630" y="105"></rect>
<text fill="#fff" font-family="Lato" font-size="18" font-weight="500" transform="translate(662.86 134.14)"><tspan letter-spacing="-.11em" x="0" y="0">T</tspan><tspan x="8.74" y="0">rus</tspan><tspan letter-spacing="0em" x="33.22" y="0">t</tspan><tspan x="39.68" y="0">ed </tspan><tspan letter-spacing="0em" x="63.87" y="0">S</tspan><tspan x="73.62" y="0">ervi</tspan><tspan letter-spacing="0em" x="103.47" y="0">c</tspan><tspan x="111.92" y="0">es</tspan></text>
<rect fill="#002b49" height="45" width="195" x="630" y="165"></rect>
<text fill="#fff" font-family="Lato" font-size="18" font-weight="500" transform="translate(683.44 194.14)"><tspan letter-spacing="-.11em" x="0" y="0">T</tspan><tspan x="8.74" y="0">rus</tspan><tspan letter-spacing="0em" x="33.22" y="0">t</tspan><tspan x="39.68" y="0">ed OS</tspan></text>
<rect fill="#002b49" height="45" width="195" x="855" y="165"></rect>
<text fill="#fff" font-family="Lato" font-size="18" font-weight="500" transform="translate(878.66 194.14)"><tspan letter-spacing="0em" x="0" y="0">P</tspan><tspan x="10.84" y="0">l</tspan><tspan letter-spacing="0em" x="15.14" y="0">a</tspan><tspan x="24.01" y="0">t</tspan><tspan letter-spacing="-.02em" x="30.53" y="0">f</tspan><tspan x="36.59" y="0">orm </tspan><tspan letter-spacing="0em" x="72.85" y="0">F</tspan><tspan x="83" y="0">ir</tspan><tspan letter-spacing="0em" x="93.98" y="0">m</tspan><tspan letter-spacing="0em" x="108.8" y="0">w</tspan><tspan x="122.9" y="0">a</tspan><tspan letter-spacing="-.02em" x="131.89" y="0">r</tspan><tspan x="138.15" y="0">e</tspan></text>
<rect fill="#002b49" height="45" width="420" x="630" y="225"></rect>
<text fill="#fff" font-family="Lato" font-size="18" font-weight="500" transform="translate(739.65 254.14)"><tspan letter-spacing="0em" x="0" y="0">S</tspan><tspan x="9.75" y="0">ecu</tspan><tspan letter-spacing="-.02em" x="37.95" y="0">r</tspan><tspan x="44.21" y="0">e </tspan><tspan letter-spacing="-.02em" x="58.28" y="0">P</tspan><tspan x="68.88" y="0">artition </tspan><tspan letter-spacing="-.01em" x="131.13" y="0">M</tspan><tspan x="147.65" y="0">ana</tspan><tspan letter-spacing="0em" x="175.71" y="0">g</tspan><tspan x="184.96" y="0">e</tspan><tspan letter-spacing="-.02em" x="194.49" y="0">r</tspan></text>
<line fill="none" stroke="#333e48" stroke-dasharray="0 0 5 3" stroke-miterlimit="10" x1="479.33" x2="479.33" y1="105" y2="150"></line>
<line fill="none" stroke="#333e48" stroke-dasharray="0 0 5 3" stroke-miterlimit="10" x1="840.5" x2="840.5" y1="105" y2="211"></line>
<polyline fill="none" points="614.5 105 614.5 210.5 614.5 284.5 89 284.5" stroke="#333e48" stroke-dasharray="0 0 5 3" stroke-miterlimit="10"></polyline>
</svg>