<svg height="390" id="Layer_1" viewbox="0 0 900 390" width="900" xmlns="http://www.w3.org/2000/svg">
<defs>
<style>
      .cls-1 {
        fill: #002b49;
      }

      .cls-2 {
        fill: #0091bd;
      }

      .cls-3 {
        fill: #fff;
      }

      .cls-4 {
        fill: #333e48;
      }
    </style>
</defs>
<g>
<path class="cls-4" d="m317.85,30.36v12.92h-.97c-.15,0-.27-.03-.37-.08-.1-.05-.2-.14-.3-.26l-7.3-9.44c.01.16.02.32.03.48,0,.16.01.3.01.44v8.87h-1.68v-12.92h.99c.17,0,.29.02.38.06s.18.13.28.27l7.32,9.45c-.02-.17-.03-.34-.04-.51,0-.16-.01-.32-.01-.46v-8.8h1.67Z"></path>
<path class="cls-4" d="m324.3,34c.67,0,1.28.11,1.82.33s1,.53,1.39.95c.38.41.67.91.88,1.48.2.58.31,1.23.31,1.95s-.1,1.37-.31,1.95-.5,1.08-.88,1.48c-.38.41-.84.72-1.39.94-.54.22-1.15.33-1.82.33s-1.29-.11-1.83-.33c-.54-.22-1.01-.53-1.39-.94s-.68-.9-.89-1.48-.31-1.23-.31-1.95.1-1.37.31-1.95c.21-.58.5-1.07.89-1.48.38-.41.85-.73,1.39-.95s1.15-.33,1.83-.33Zm0,8.04c.86,0,1.51-.29,1.94-.87.43-.58.64-1.4.64-2.46s-.21-1.88-.64-2.46c-.43-.58-1.07-.88-1.94-.88s-1.53.29-1.96.88c-.43.58-.64,1.41-.64,2.46s.21,1.88.64,2.46c.43.58,1.08.87,1.96.87Z"></path>
<path class="cls-4" d="m332.29,35.41c.2-.21.41-.4.62-.58.22-.17.45-.32.69-.45s.5-.22.78-.29c.28-.07.58-.1.9-.1.5,0,.95.08,1.33.25s.7.4.96.71c.26.3.45.67.58,1.09.13.43.2.9.2,1.41v5.82h-1.76v-5.82c0-.65-.15-1.16-.45-1.53-.3-.36-.76-.54-1.38-.54-.45,0-.87.11-1.26.32-.39.21-.76.5-1.09.87v6.71h-1.75v-9.14h1.05c.25,0,.4.12.46.35l.13.92Z"></path>
<path class="cls-4" d="m340.58,37.13h4.5v1.49h-4.5v-1.49Z"></path>
<path class="cls-4" d="m352.8,35.71c-.05.08-.1.13-.15.17-.05.03-.12.05-.21.05-.1,0-.2-.03-.32-.1s-.26-.14-.42-.22-.36-.15-.58-.21c-.22-.07-.49-.1-.79-.1-.25,0-.48.03-.69.09-.21.06-.38.15-.53.26-.14.11-.25.24-.33.4-.08.15-.12.32-.12.49,0,.23.07.42.2.57.13.15.31.28.53.39.22.11.47.21.75.29.28.09.56.18.85.27.29.1.58.21.86.33.28.12.53.28.75.46.22.18.4.4.53.66.14.26.2.57.2.94,0,.43-.08.82-.23,1.18-.15.36-.38.68-.67.94-.3.26-.67.47-1.1.62-.44.15-.94.22-1.5.22-.63,0-1.21-.11-1.75-.31-.53-.21-.98-.48-1.34-.8l.41-.67c.05-.08.11-.15.18-.19.07-.04.17-.07.29-.07.11,0,.23.04.35.13s.26.18.43.27.37.19.61.27c.24.08.54.12.9.12.3,0,.56-.04.78-.11.22-.07.41-.18.55-.31.15-.13.26-.28.33-.45.07-.17.11-.34.11-.53,0-.24-.07-.44-.2-.6-.13-.16-.31-.29-.53-.41s-.47-.21-.75-.3c-.28-.08-.57-.17-.86-.27-.29-.1-.58-.21-.86-.33-.28-.13-.53-.29-.75-.48-.22-.19-.4-.43-.53-.7-.13-.28-.2-.61-.2-1.01,0-.35.07-.69.22-1.02.15-.32.36-.61.64-.85.28-.25.62-.44,1.03-.59.41-.15.88-.22,1.41-.22.61,0,1.15.1,1.64.29.49.19.91.46,1.25.79l-.39.64Z"></path>
<path class="cls-4" d="m362.74,41.98c-.22.25-.46.47-.75.65-.28.18-.58.33-.9.45-.32.12-.65.2-.99.25-.34.05-.67.08-1,.08-.63,0-1.21-.11-1.75-.32s-1-.52-1.4-.94c-.39-.41-.7-.92-.92-1.53-.22-.61-.33-1.31-.33-2.1,0-.64.1-1.23.3-1.78.2-.55.48-1.03.85-1.44.37-.41.82-.73,1.35-.96s1.13-.35,1.8-.35c.56,0,1.07.09,1.54.27.47.18.88.45,1.22.8.34.35.61.78.8,1.29.2.51.29,1.09.29,1.75,0,.27-.03.45-.09.54-.06.09-.17.14-.33.14h-5.99c.02.55.1,1.02.23,1.43.14.41.33.74.57,1.01s.53.47.87.6c.34.13.71.2,1.12.2.39,0,.73-.04,1.01-.13s.53-.19.74-.29c.21-.1.38-.2.52-.29s.27-.14.37-.14c.14,0,.25.05.33.16l.5.65Zm-1.45-4.28c0-.35-.05-.67-.15-.96-.1-.29-.25-.55-.44-.77-.19-.22-.43-.38-.7-.5s-.59-.18-.95-.18c-.74,0-1.32.21-1.74.64s-.69,1.02-.81,1.77h4.79Z"></path>
<path class="cls-4" d="m371.17,35.85c-.05.07-.11.12-.16.16s-.12.06-.22.06-.2-.04-.3-.11c-.11-.07-.24-.16-.4-.24s-.35-.17-.58-.24c-.22-.07-.5-.11-.83-.11-.43,0-.81.08-1.14.23-.33.16-.6.38-.82.67s-.39.64-.5,1.05c-.11.41-.17.88-.17,1.4s.06,1.01.18,1.43c.12.42.29.77.51,1.05.22.29.49.5.81.65.32.15.67.22,1.06.22s.69-.05.94-.14c.25-.09.45-.19.61-.3.16-.11.3-.21.41-.3.11-.09.22-.14.33-.14.14,0,.25.05.33.16l.5.65c-.21.26-.45.48-.71.66-.26.18-.54.33-.83.44-.29.12-.6.2-.92.25-.32.05-.65.08-.98.08-.57,0-1.1-.11-1.6-.32s-.92-.52-1.29-.92c-.36-.4-.65-.9-.86-1.48-.21-.58-.32-1.25-.32-1.99,0-.68.09-1.31.28-1.88.19-.58.47-1.07.84-1.49.37-.42.82-.74,1.36-.98.54-.24,1.16-.36,1.85-.36.65,0,1.23.1,1.73.31.5.21.94.51,1.33.89l-.47.65Z"></path>
<path class="cls-4" d="m380.98,34.14v9.14h-1.05c-.24,0-.4-.12-.47-.35l-.13-.92c-.2.21-.41.4-.62.58-.22.17-.45.32-.69.45s-.51.22-.78.29c-.28.07-.57.1-.89.1-.5,0-.95-.08-1.33-.25-.38-.17-.7-.4-.96-.71-.26-.3-.45-.67-.58-1.09-.13-.43-.2-.9-.2-1.41v-5.82h1.76v5.82c0,.65.15,1.16.45,1.53.3.36.76.54,1.38.54.45,0,.87-.11,1.26-.32.39-.21.76-.5,1.1-.88v-6.7h1.75Z"></path>
<path class="cls-4" d="m385.09,35.89c.29-.6.65-1.07,1.06-1.41.41-.34.91-.51,1.49-.51.2,0,.38.02.56.07.18.04.33.11.46.2l-.12,1.32c-.04.16-.14.24-.3.24-.08,0-.21-.02-.38-.05-.17-.03-.35-.05-.54-.05-.28,0-.53.04-.75.12-.22.08-.41.2-.58.36-.17.16-.32.35-.45.58-.13.23-.26.49-.37.79v5.72h-1.75v-9.14h1.01c.19,0,.32.03.39.1.07.07.12.19.15.36l.11,1.29Z"></path>
<path class="cls-4" d="m397.2,41.98c-.22.25-.46.47-.75.65-.28.18-.58.33-.9.45-.32.12-.65.2-.99.25-.34.05-.67.08-1,.08-.63,0-1.21-.11-1.75-.32s-1-.52-1.4-.94c-.39-.41-.7-.92-.92-1.53-.22-.61-.33-1.31-.33-2.1,0-.64.1-1.23.3-1.78.2-.55.48-1.03.85-1.44.37-.41.82-.73,1.35-.96s1.13-.35,1.8-.35c.56,0,1.07.09,1.54.27.47.18.88.45,1.22.8.34.35.61.78.8,1.29.2.51.29,1.09.29,1.75,0,.27-.03.45-.09.54-.06.09-.17.14-.33.14h-5.99c.02.55.1,1.02.23,1.43.14.41.33.74.57,1.01s.53.47.87.6c.34.13.71.2,1.12.2.39,0,.73-.04,1.01-.13s.53-.19.74-.29c.21-.1.38-.2.52-.29s.27-.14.37-.14c.14,0,.25.05.33.16l.5.65Zm-1.45-4.28c0-.35-.05-.67-.15-.96-.1-.29-.25-.55-.44-.77-.19-.22-.43-.38-.7-.5s-.59-.18-.95-.18c-.74,0-1.32.21-1.74.64s-.69,1.02-.81,1.77h4.79Z"></path>
<path class="cls-4" d="m289.66,55.34v-.25c0-.18.03-.3.1-.38s.16-.11.27-.11.2.04.27.11c.07.08.1.2.1.38v1.88c0,.18-.03.3-.1.38-.07.08-.16.11-.27.11-.11,0-.19-.04-.26-.11-.07-.07-.1-.18-.11-.34-.03-.49-.28-.93-.76-1.33s-1.1-.59-1.88-.59c-.81,0-1.46.21-1.94.63-.48.42-.72.91-.72,1.48,0,.29.07.56.2.8s.31.43.54.58c.22.15.47.27.76.36.28.09.72.19,1.32.29,1,.16,1.69.33,2.07.5.51.23.89.54,1.16.95.26.4.39.88.39,1.43,0,.84-.34,1.56-1.01,2.16-.67.6-1.58.89-2.72.89-1.28,0-2.31-.4-3.08-1.2v.42c0,.18-.03.3-.1.38-.07.08-.16.11-.27.11-.11,0-.19-.04-.26-.11s-.11-.2-.11-.38v-2.04c0-.18.03-.31.1-.39s.16-.11.27-.11c.11,0,.19.04.26.11s.1.18.11.34c.03.54.32,1.03.87,1.47.55.44,1.28.66,2.21.66s1.66-.23,2.19-.69c.54-.46.8-1.01.8-1.64,0-.39-.1-.73-.31-1.03-.21-.3-.51-.54-.91-.72-.28-.12-.87-.26-1.76-.41-1.22-.21-2.11-.52-2.65-.94s-.81-1.02-.81-1.8.31-1.44.93-2c.62-.56,1.43-.83,2.45-.83s1.92.33,2.66.98Z"></path>
<path class="cls-4" d="m301.07,55.61v-.52c0-.18.03-.3.1-.38.07-.08.16-.11.27-.11s.2.04.27.11.1.2.1.38v2.05c0,.18-.03.31-.1.39s-.16.11-.27.11c-.1,0-.18-.04-.25-.11-.07-.07-.11-.18-.12-.34-.03-.49-.3-.93-.8-1.31-.68-.52-1.45-.78-2.32-.78-.57,0-1.1.13-1.61.38-.38.18-.67.4-.9.67-.39.46-.69.96-.92,1.52-.16.41-.25.87-.25,1.39v1.29c0,1.1.4,2.06,1.2,2.87.8.81,1.72,1.22,2.78,1.22.63,0,1.2-.14,1.7-.41.5-.28.99-.69,1.46-1.25.1-.12.21-.18.33-.18.11,0,.19.03.25.1s.1.15.1.25c0,.13-.13.34-.38.62-.48.54-1.02.94-1.62,1.22-.6.27-1.21.41-1.82.41-.53,0-1.08-.1-1.63-.31-.42-.16-.77-.34-1.05-.55s-.61-.57-1.01-1.07c-.4-.5-.68-.96-.82-1.39-.15-.42-.22-.89-.22-1.4v-1.5c0-.73.19-1.47.58-2.23.39-.76.92-1.34,1.6-1.75.68-.41,1.41-.61,2.2-.61,1.22,0,2.27.42,3.15,1.25Z"></path>
<path class="cls-4" d="m306.22,60.3v3.85h1.36c.18,0,.31.03.39.1.08.07.11.16.11.27,0,.11-.04.19-.11.26s-.21.11-.39.11h-3.09c-.18,0-.3-.04-.38-.11s-.11-.16-.11-.26c0-.11.04-.2.11-.27.08-.07.2-.1.38-.1h.99v-8.81h-.99c-.18,0-.3-.03-.38-.1-.08-.07-.11-.16-.11-.27s.04-.2.11-.27c.08-.07.2-.1.38-.1h4.46c.92,0,1.69.29,2.32.87.63.58.95,1.24.95,1.97,0,.53-.2,1.02-.58,1.49-.39.47-1.04.85-1.96,1.17.53.36.98.77,1.35,1.23s.98,1.39,1.8,2.81h.56c.18,0,.3.03.38.1.08.07.11.16.11.27,0,.11-.04.19-.11.26s-.2.11-.38.11h-.98c-.91-1.63-1.62-2.73-2.12-3.29-.5-.56-1.08-.99-1.73-1.3h-2.35Zm0-.74h2.01c.64,0,1.23-.12,1.75-.35.52-.23.9-.51,1.14-.83.24-.32.36-.64.36-.97,0-.49-.25-.96-.74-1.41-.5-.45-1.1-.67-1.81-.67h-2.72v4.22Z"></path>
<path class="cls-4" d="m324.33,69.81h-9.82c-.18,0-.3-.03-.38-.1-.08-.07-.11-.16-.11-.27s.04-.2.11-.27c.08-.07.2-.1.38-.1h9.82c.18,0,.31.03.38.1.07.07.11.16.11.27s-.04.2-.11.27c-.07.07-.2.1-.38.1Z"></path>
<path class="cls-4" d="m327.82,59.92v4.23h5.68v-2.18c0-.18.03-.3.1-.38s.16-.11.27-.11.2.04.27.11c.07.08.1.2.1.38v2.92h-8.15c-.18,0-.3-.04-.38-.11s-.11-.16-.11-.26c0-.11.04-.2.11-.27.08-.07.2-.1.38-.1h.99v-8.81h-.99c-.18,0-.3-.03-.38-.1-.08-.07-.11-.16-.11-.27s.04-.2.11-.27c.08-.07.2-.1.38-.1h7.76v2.54c0,.18-.03.3-.1.38-.07.08-.16.11-.27.11s-.2-.04-.27-.11-.1-.2-.1-.38v-1.8h-5.29v3.84h2.65v-.83c0-.18.04-.3.11-.38s.16-.11.27-.11c.11,0,.19.04.26.11s.11.2.11.38v2.41c0,.18-.04.3-.11.38s-.16.11-.26.11c-.11,0-.2-.04-.27-.11s-.11-.2-.11-.38v-.83h-2.65Z"></path>
<path class="cls-4" d="m339.75,55.34v8.81h4.9v-2.94c0-.18.04-.3.11-.38s.16-.11.27-.11c.11,0,.19.04.26.11.07.07.11.2.11.38v3.67h-8.16c-.18,0-.3-.04-.38-.11s-.11-.16-.11-.26c0-.11.04-.2.11-.27.08-.07.2-.1.38-.1h1.76v-8.81h-1.76c-.18,0-.3-.03-.38-.1-.08-.07-.11-.16-.11-.27s.04-.2.11-.27c.08-.07.2-.1.38-.1h4.26c.18,0,.3.03.38.1.08.07.11.16.11.27s-.04.2-.11.27c-.08.07-.2.1-.38.1h-1.76Z"></path>
<path class="cls-4" d="m353.35,58.88c.68.3,1.2.72,1.56,1.25.36.53.54,1.08.54,1.66,0,.88-.36,1.67-1.08,2.34-.72.68-1.62,1.01-2.69,1.01-.63,0-1.29-.13-1.97-.4s-1.15-.54-1.42-.83c-.09-.09-.13-.19-.13-.3,0-.09.03-.18.1-.25s.15-.11.24-.11.2.04.32.13c.91.67,1.87,1.01,2.88,1.01.86,0,1.57-.27,2.15-.8.58-.54.87-1.13.87-1.79,0-.44-.14-.87-.43-1.29s-.69-.75-1.23-1c-.53-.24-1.07-.37-1.62-.37-.18,0-.3-.03-.38-.1-.08-.07-.11-.16-.11-.27,0-.11.04-.19.11-.26.07-.07.18-.11.33-.11h.63c.66,0,1.21-.19,1.64-.6.43-.4.65-.87.65-1.41s-.23-1.04-.68-1.46-1.04-.63-1.77-.63c-.51,0-.98.09-1.41.26s-.77.42-1.03.72c-.09.12-.17.19-.21.21-.05.03-.11.04-.17.04-.1,0-.18-.03-.25-.1-.07-.07-.11-.15-.11-.24,0-.23.25-.53.76-.89.71-.5,1.51-.75,2.42-.75s1.7.28,2.29.84c.6.56.9,1.23.9,2,0,.49-.14.96-.43,1.4s-.71.79-1.27,1.05Z"></path>
<path class="cls-4" d="m362.48,62.77h.32c.33,0,.61.12.84.35.23.23.35.51.35.84s-.12.62-.36.85c-.24.23-.52.34-.84.34h-.32c-.33,0-.61-.12-.84-.35-.23-.23-.35-.51-.35-.84s.12-.62.36-.85c.24-.23.52-.34.84-.34Z"></path>
<path class="cls-4" d="m377.05,64.88h-.95l-5.44-9.2v8.46h1.36c.18,0,.31.03.39.1.08.07.11.16.11.27,0,.11-.04.19-.11.26s-.21.11-.39.11h-2.72c-.18,0-.31-.04-.39-.11s-.11-.16-.11-.26c0-.11.04-.2.11-.27.08-.07.21-.1.39-.1h.62v-8.81h-.99c-.18,0-.3-.03-.38-.1-.08-.07-.11-.16-.11-.27s.04-.2.11-.27c.08-.07.2-.1.38-.1h1.93l5.45,9.22v-8.48h-1.36c-.18,0-.3-.03-.38-.1-.08-.07-.11-.16-.11-.27s.04-.2.11-.27c.07-.07.2-.1.38-.1h2.72c.18,0,.3.03.38.1.08.07.11.16.11.27s-.04.2-.11.27c-.08.07-.2.1-.38.1h-.62v9.54Z"></path>
<path class="cls-4" d="m386.88,55.34v-.25c0-.18.03-.3.1-.38s.16-.11.27-.11.2.04.27.11c.07.08.1.2.1.38v1.88c0,.18-.03.3-.1.38-.07.08-.16.11-.27.11-.11,0-.19-.04-.26-.11-.07-.07-.1-.18-.11-.34-.03-.49-.28-.93-.76-1.33s-1.1-.59-1.88-.59c-.81,0-1.46.21-1.94.63-.48.42-.72.91-.72,1.48,0,.29.07.56.2.8s.31.43.54.58c.22.15.47.27.76.36.28.09.72.19,1.32.29,1,.16,1.69.33,2.07.5.51.23.89.54,1.16.95.26.4.39.88.39,1.43,0,.84-.34,1.56-1.01,2.16-.67.6-1.58.89-2.72.89-1.28,0-2.31-.4-3.08-1.2v.42c0,.18-.03.3-.1.38-.07.08-.16.11-.27.11-.11,0-.19-.04-.26-.11s-.11-.2-.11-.38v-2.04c0-.18.03-.31.1-.39s.16-.11.27-.11c.11,0,.19.04.26.11s.1.18.11.34c.03.54.32,1.03.87,1.47.55.44,1.28.66,2.21.66s1.66-.23,2.19-.69c.54-.46.8-1.01.8-1.64,0-.39-.1-.73-.31-1.03-.21-.3-.51-.54-.91-.72-.28-.12-.87-.26-1.76-.41-1.22-.21-2.11-.52-2.65-.94s-.81-1.02-.81-1.8.31-1.44.93-2c.62-.56,1.43-.83,2.45-.83s1.92.33,2.66.98Z"></path>
<path class="cls-4" d="m399.07,58.78h-8.05c-.18,0-.3-.04-.38-.11s-.11-.16-.11-.27c0-.11.04-.19.11-.26s.2-.11.38-.11h8.05c.18,0,.3.04.38.11s.11.16.11.27c0,.11-.04.19-.11.26s-.2.11-.38.11Zm0,2.65h-8.05c-.18,0-.3-.03-.38-.1-.08-.07-.11-.16-.11-.27s.04-.2.11-.27c.08-.07.2-.1.38-.1h8.05c.18,0,.3.03.38.1.08.07.11.16.11.27s-.04.2-.11.27c-.08.07-.2.1-.38.1Z"></path>
<path class="cls-4" d="m409.87,58.78h-8.05c-.18,0-.3-.04-.38-.11s-.11-.16-.11-.27c0-.11.04-.19.11-.26s.2-.11.38-.11h8.05c.18,0,.3.04.38.11s.11.16.11.27c0,.11-.04.19-.11.26s-.2.11-.38.11Zm0,2.65h-8.05c-.18,0-.3-.03-.38-.1-.08-.07-.11-.16-.11-.27s.04-.2.11-.27c.08-.07.2-.1.38-.1h8.05c.18,0,.3.03.38.1.08.07.11.16.11.27s-.04.2-.11.27c-.08.07-.2.1-.38.1Z"></path>
<path class="cls-4" d="m417,53.7v10.44h2.53c.18,0,.3.03.38.1.08.07.11.16.11.27,0,.11-.04.19-.11.26s-.2.11-.38.11h-5.8c-.18,0-.3-.04-.38-.11s-.11-.16-.11-.26c0-.11.04-.2.11-.27.08-.07.2-.1.38-.1h2.53v-9.42l-2.41.76c-.12.04-.2.05-.25.05-.09,0-.17-.04-.24-.11-.07-.07-.11-.16-.11-.26,0-.09.03-.17.09-.25.05-.05.14-.1.29-.15l3.38-1.06Z"></path>
</g>
<g>
<path class="cls-4" d="m730.74,32.47c-.06.1-.12.18-.19.23-.07.05-.15.07-.25.07s-.23-.05-.37-.15c-.14-.1-.31-.21-.52-.33s-.45-.23-.74-.33-.63-.15-1.04-.15c-.38,0-.71.05-.99.15s-.52.23-.72.41c-.19.17-.34.37-.44.6-.1.23-.15.48-.15.75,0,.35.09.64.27.87.18.23.41.42.7.58s.62.3.98.42c.37.12.74.24,1.12.37s.76.28,1.12.45c.37.17.69.38.98.63s.52.57.7.94c.18.37.26.82.26,1.36,0,.57-.1,1.1-.29,1.6-.2.5-.48.93-.85,1.3-.37.37-.83.67-1.37.88-.54.21-1.16.32-1.85.32-.41,0-.82-.04-1.21-.12-.39-.08-.76-.2-1.11-.34-.35-.15-.67-.32-.98-.53s-.57-.44-.81-.7l.55-.92c.05-.07.12-.13.19-.18.08-.05.16-.07.26-.07.13,0,.27.07.44.2s.37.28.61.44.53.3.87.44.75.2,1.24.2c.4,0,.75-.05,1.06-.16.31-.11.58-.26.79-.45.21-.19.38-.43.49-.71s.17-.58.17-.92c0-.38-.09-.69-.26-.93s-.41-.44-.69-.6-.62-.3-.98-.41c-.37-.11-.74-.23-1.12-.36s-.76-.27-1.12-.43c-.37-.16-.69-.37-.98-.63s-.52-.59-.69-.98c-.17-.39-.26-.88-.26-1.45,0-.46.09-.91.27-1.34.18-.43.44-.81.79-1.15s.77-.6,1.27-.8,1.08-.3,1.73-.3c.73,0,1.39.12,2,.35.61.23,1.14.56,1.59.99l-.47.91Z"></path>
<path class="cls-4" d="m740.95,41.98c-.22.25-.46.47-.75.65-.28.18-.58.33-.9.45-.32.12-.65.2-.99.25-.34.05-.67.08-1,.08-.63,0-1.21-.11-1.75-.32s-1-.52-1.4-.94c-.39-.41-.7-.92-.92-1.53-.22-.61-.33-1.31-.33-2.1,0-.64.1-1.23.3-1.78.2-.55.48-1.03.85-1.44.37-.41.82-.73,1.35-.96s1.13-.35,1.8-.35c.56,0,1.07.09,1.54.27.47.18.88.45,1.22.8.34.35.61.78.8,1.29.2.51.29,1.09.29,1.75,0,.27-.03.45-.09.54-.06.09-.17.14-.33.14h-5.99c.02.55.1,1.02.23,1.43.14.41.33.74.57,1.01s.53.47.87.6c.34.13.71.2,1.12.2.39,0,.73-.04,1.01-.13s.53-.19.74-.29c.21-.1.38-.2.52-.29s.27-.14.37-.14c.14,0,.25.05.33.16l.5.65Zm-1.45-4.28c0-.35-.05-.67-.15-.96-.1-.29-.25-.55-.44-.77-.19-.22-.43-.38-.7-.5s-.59-.18-.95-.18c-.74,0-1.32.21-1.74.64s-.69,1.02-.81,1.77h4.79Z"></path>
<path class="cls-4" d="m749.38,35.85c-.05.07-.11.12-.16.16s-.12.06-.22.06-.2-.04-.3-.11c-.11-.07-.24-.16-.4-.24s-.35-.17-.58-.24c-.22-.07-.5-.11-.83-.11-.43,0-.81.08-1.14.23-.33.16-.6.38-.82.67s-.39.64-.5,1.05c-.11.41-.17.88-.17,1.4s.06,1.01.18,1.43c.12.42.29.77.51,1.05.22.29.49.5.81.65.32.15.67.22,1.06.22s.69-.05.94-.14c.25-.09.45-.19.61-.3.16-.11.3-.21.41-.3.11-.09.22-.14.33-.14.14,0,.25.05.33.16l.5.65c-.21.26-.45.48-.71.66-.26.18-.54.33-.83.44-.29.12-.6.2-.92.25-.32.05-.65.08-.98.08-.57,0-1.1-.11-1.6-.32s-.92-.52-1.29-.92c-.36-.4-.65-.9-.86-1.48-.21-.58-.32-1.25-.32-1.99,0-.68.09-1.31.28-1.88.19-.58.47-1.07.84-1.49.37-.42.82-.74,1.36-.98.54-.24,1.16-.36,1.85-.36.65,0,1.23.1,1.73.31.5.21.94.51,1.33.89l-.47.65Z"></path>
<path class="cls-4" d="m759.19,34.14v9.14h-1.05c-.24,0-.4-.12-.47-.35l-.13-.92c-.2.21-.41.4-.62.58-.22.17-.45.32-.69.45s-.51.22-.78.29c-.28.07-.57.1-.89.1-.5,0-.95-.08-1.33-.25-.38-.17-.7-.4-.96-.71-.26-.3-.45-.67-.58-1.09-.13-.43-.2-.9-.2-1.41v-5.82h1.76v5.82c0,.65.15,1.16.45,1.53.3.36.76.54,1.38.54.45,0,.87-.11,1.26-.32.39-.21.76-.5,1.1-.88v-6.7h1.75Z"></path>
<path class="cls-4" d="m763.3,35.89c.29-.6.65-1.07,1.06-1.41.41-.34.91-.51,1.49-.51.2,0,.38.02.56.07.18.04.33.11.46.2l-.12,1.32c-.04.16-.14.24-.3.24-.08,0-.21-.02-.38-.05-.17-.03-.35-.05-.54-.05-.28,0-.53.04-.75.12-.22.08-.41.2-.58.36-.17.16-.32.35-.45.58-.13.23-.26.49-.37.79v5.72h-1.75v-9.14h1.01c.19,0,.32.03.39.1.07.07.12.19.15.36l.11,1.29Z"></path>
<path class="cls-4" d="m775.41,41.98c-.22.25-.46.47-.75.65-.28.18-.58.33-.9.45-.32.12-.65.2-.99.25-.34.05-.67.08-1,.08-.63,0-1.21-.11-1.75-.32s-1-.52-1.4-.94c-.39-.41-.7-.92-.92-1.53-.22-.61-.33-1.31-.33-2.1,0-.64.1-1.23.3-1.78.2-.55.48-1.03.85-1.44.37-.41.82-.73,1.35-.96s1.13-.35,1.8-.35c.56,0,1.07.09,1.54.27.47.18.88.45,1.22.8.34.35.61.78.8,1.29.2.51.29,1.09.29,1.75,0,.27-.03.45-.09.54-.06.09-.17.14-.33.14h-5.99c.02.55.1,1.02.23,1.43.14.41.33.74.57,1.01s.53.47.87.6c.34.13.71.2,1.12.2.39,0,.73-.04,1.01-.13s.53-.19.74-.29c.21-.1.38-.2.52-.29s.27-.14.37-.14c.14,0,.25.05.33.16l.5.65Zm-1.45-4.28c0-.35-.05-.67-.15-.96-.1-.29-.25-.55-.44-.77-.19-.22-.43-.38-.7-.5s-.59-.18-.95-.18c-.74,0-1.32.21-1.74.64s-.69,1.02-.81,1.77h4.79Z"></path>
<path class="cls-4" d="m687.16,55.34v-.25c0-.18.03-.3.1-.38s.16-.11.27-.11.2.04.27.11c.07.08.1.2.1.38v1.88c0,.18-.03.3-.1.38-.07.08-.16.11-.27.11-.11,0-.19-.04-.26-.11-.07-.07-.1-.18-.11-.34-.03-.49-.28-.93-.76-1.33s-1.1-.59-1.88-.59c-.81,0-1.46.21-1.94.63-.48.42-.72.91-.72,1.48,0,.29.07.56.2.8s.31.43.54.58c.22.15.47.27.76.36.28.09.72.19,1.32.29,1,.16,1.69.33,2.07.5.51.23.89.54,1.16.95.26.4.39.88.39,1.43,0,.84-.34,1.56-1.01,2.16-.67.6-1.58.89-2.72.89-1.28,0-2.31-.4-3.08-1.2v.42c0,.18-.03.3-.1.38-.07.08-.16.11-.27.11-.11,0-.19-.04-.26-.11s-.11-.2-.11-.38v-2.04c0-.18.03-.31.1-.39s.16-.11.27-.11c.11,0,.19.04.26.11s.1.18.11.34c.03.54.32,1.03.87,1.47.55.44,1.28.66,2.21.66s1.66-.23,2.19-.69c.54-.46.8-1.01.8-1.64,0-.39-.1-.73-.31-1.03-.21-.3-.51-.54-.91-.72-.28-.12-.87-.26-1.76-.41-1.22-.21-2.11-.52-2.65-.94s-.81-1.02-.81-1.8.31-1.44.93-2c.62-.56,1.43-.83,2.45-.83s1.92.33,2.66.98Z"></path>
<path class="cls-4" d="m698.57,55.61v-.52c0-.18.03-.3.1-.38.07-.08.16-.11.27-.11s.2.04.27.11.1.2.1.38v2.05c0,.18-.03.31-.1.39s-.16.11-.27.11c-.1,0-.18-.04-.25-.11-.07-.07-.11-.18-.12-.34-.03-.49-.3-.93-.8-1.31-.68-.52-1.45-.78-2.32-.78-.57,0-1.1.13-1.61.38-.38.18-.67.4-.9.67-.39.46-.69.96-.92,1.52-.16.41-.25.87-.25,1.39v1.29c0,1.1.4,2.06,1.2,2.87.8.81,1.72,1.22,2.78,1.22.63,0,1.2-.14,1.7-.41.5-.28.99-.69,1.46-1.25.1-.12.21-.18.33-.18.11,0,.19.03.25.1s.1.15.1.25c0,.13-.13.34-.38.62-.48.54-1.02.94-1.62,1.22-.6.27-1.21.41-1.82.41-.53,0-1.08-.1-1.63-.31-.42-.16-.77-.34-1.05-.55s-.61-.57-1.01-1.07c-.4-.5-.68-.96-.82-1.39-.15-.42-.22-.89-.22-1.4v-1.5c0-.73.19-1.47.58-2.23.39-.76.92-1.34,1.6-1.75.68-.41,1.41-.61,2.2-.61,1.22,0,2.27.42,3.15,1.25Z"></path>
<path class="cls-4" d="m703.72,60.3v3.85h1.36c.18,0,.31.03.39.1.08.07.11.16.11.27,0,.11-.04.19-.11.26s-.21.11-.39.11h-3.09c-.18,0-.3-.04-.38-.11s-.11-.16-.11-.26c0-.11.04-.2.11-.27.08-.07.2-.1.38-.1h.99v-8.81h-.99c-.18,0-.3-.03-.38-.1-.08-.07-.11-.16-.11-.27s.04-.2.11-.27c.08-.07.2-.1.38-.1h4.46c.92,0,1.69.29,2.32.87.63.58.95,1.24.95,1.97,0,.53-.2,1.02-.58,1.49-.39.47-1.04.85-1.96,1.17.53.36.98.77,1.35,1.23s.98,1.39,1.8,2.81h.56c.18,0,.3.03.38.1.08.07.11.16.11.27,0,.11-.04.19-.11.26s-.2.11-.38.11h-.98c-.91-1.63-1.62-2.73-2.12-3.29-.5-.56-1.08-.99-1.73-1.3h-2.35Zm0-.74h2.01c.64,0,1.23-.12,1.75-.35.52-.23.9-.51,1.14-.83.24-.32.36-.64.36-.97,0-.49-.25-.96-.74-1.41-.5-.45-1.1-.67-1.81-.67h-2.72v4.22Z"></path>
<path class="cls-4" d="m721.83,69.81h-9.82c-.18,0-.3-.03-.38-.1-.08-.07-.11-.16-.11-.27s.04-.2.11-.27c.08-.07.2-.1.38-.1h9.82c.18,0,.31.03.38.1.07.07.11.16.11.27s-.04.2-.11.27c-.07.07-.2.1-.38.1Z"></path>
<path class="cls-4" d="m725.32,59.92v4.23h5.68v-2.18c0-.18.03-.3.1-.38s.16-.11.27-.11.2.04.27.11c.07.08.1.2.1.38v2.92h-8.15c-.18,0-.3-.04-.38-.11s-.11-.16-.11-.26c0-.11.04-.2.11-.27.08-.07.2-.1.38-.1h.99v-8.81h-.99c-.18,0-.3-.03-.38-.1-.08-.07-.11-.16-.11-.27s.04-.2.11-.27c.08-.07.2-.1.38-.1h7.76v2.54c0,.18-.03.3-.1.38-.07.08-.16.11-.27.11s-.2-.04-.27-.11-.1-.2-.1-.38v-1.8h-5.29v3.84h2.65v-.83c0-.18.04-.3.11-.38s.16-.11.27-.11c.11,0,.19.04.26.11s.11.2.11.38v2.41c0,.18-.04.3-.11.38s-.16.11-.26.11c-.11,0-.2-.04-.27-.11s-.11-.2-.11-.38v-.83h-2.65Z"></path>
<path class="cls-4" d="m737.25,55.34v8.81h4.9v-2.94c0-.18.04-.3.11-.38s.16-.11.27-.11c.11,0,.19.04.26.11.07.07.11.2.11.38v3.67h-8.16c-.18,0-.3-.04-.38-.11s-.11-.16-.11-.26c0-.11.04-.2.11-.27.08-.07.2-.1.38-.1h1.76v-8.81h-1.76c-.18,0-.3-.03-.38-.1-.08-.07-.11-.16-.11-.27s.04-.2.11-.27c.08-.07.2-.1.38-.1h4.26c.18,0,.3.03.38.1.08.07.11.16.11.27s-.04.2-.11.27c-.08.07-.2.1-.38.1h-1.76Z"></path>
<path class="cls-4" d="m750.85,58.88c.68.3,1.2.72,1.56,1.25.36.53.54,1.08.54,1.66,0,.88-.36,1.67-1.08,2.34-.72.68-1.62,1.01-2.69,1.01-.63,0-1.29-.13-1.97-.4s-1.15-.54-1.42-.83c-.09-.09-.13-.19-.13-.3,0-.09.03-.18.1-.25s.15-.11.24-.11.2.04.32.13c.91.67,1.87,1.01,2.88,1.01.86,0,1.57-.27,2.15-.8.58-.54.87-1.13.87-1.79,0-.44-.14-.87-.43-1.29s-.69-.75-1.23-1c-.53-.24-1.07-.37-1.62-.37-.18,0-.3-.03-.38-.1-.08-.07-.11-.16-.11-.27,0-.11.04-.19.11-.26.07-.07.18-.11.33-.11h.63c.66,0,1.21-.19,1.64-.6.43-.4.65-.87.65-1.41s-.23-1.04-.68-1.46-1.04-.63-1.77-.63c-.51,0-.98.09-1.41.26s-.77.42-1.03.72c-.09.12-.17.19-.21.21-.05.03-.11.04-.17.04-.1,0-.18-.03-.25-.1-.07-.07-.11-.15-.11-.24,0-.23.25-.53.76-.89.71-.5,1.51-.75,2.42-.75s1.7.28,2.29.84c.6.56.9,1.23.9,2,0,.49-.14.96-.43,1.4s-.71.79-1.27,1.05Z"></path>
<path class="cls-4" d="m759.98,62.77h.32c.33,0,.61.12.84.35.23.23.35.51.35.84s-.12.62-.36.85c-.24.23-.52.34-.84.34h-.32c-.33,0-.61-.12-.84-.35-.23-.23-.35-.51-.35-.84s.12-.62.36-.85c.24-.23.52-.34.84-.34Z"></path>
<path class="cls-4" d="m774.55,64.88h-.95l-5.44-9.2v8.46h1.36c.18,0,.31.03.39.1.08.07.11.16.11.27,0,.11-.04.19-.11.26s-.21.11-.39.11h-2.72c-.18,0-.31-.04-.39-.11s-.11-.16-.11-.26c0-.11.04-.2.11-.27.08-.07.21-.1.39-.1h.62v-8.81h-.99c-.18,0-.3-.03-.38-.1-.08-.07-.11-.16-.11-.27s.04-.2.11-.27c.08-.07.2-.1.38-.1h1.93l5.45,9.22v-8.48h-1.36c-.18,0-.3-.03-.38-.1-.08-.07-.11-.16-.11-.27s.04-.2.11-.27c.07-.07.2-.1.38-.1h2.72c.18,0,.3.03.38.1.08.07.11.16.11.27s-.04.2-.11.27c-.08.07-.2.1-.38.1h-.62v9.54Z"></path>
<path class="cls-4" d="m784.38,55.34v-.25c0-.18.03-.3.1-.38s.16-.11.27-.11.2.04.27.11c.07.08.1.2.1.38v1.88c0,.18-.03.3-.1.38-.07.08-.16.11-.27.11-.11,0-.19-.04-.26-.11-.07-.07-.1-.18-.11-.34-.03-.49-.28-.93-.76-1.33s-1.1-.59-1.88-.59c-.81,0-1.46.21-1.94.63-.48.42-.72.91-.72,1.48,0,.29.07.56.2.8s.31.43.54.58c.22.15.47.27.76.36.28.09.72.19,1.32.29,1,.16,1.69.33,2.07.5.51.23.89.54,1.16.95.26.4.39.88.39,1.43,0,.84-.34,1.56-1.01,2.16-.67.6-1.58.89-2.72.89-1.28,0-2.31-.4-3.08-1.2v.42c0,.18-.03.3-.1.38-.07.08-.16.11-.27.11-.11,0-.19-.04-.26-.11s-.11-.2-.11-.38v-2.04c0-.18.03-.31.1-.39s.16-.11.27-.11c.11,0,.19.04.26.11s.1.18.11.34c.03.54.32,1.03.87,1.47.55.44,1.28.66,2.21.66s1.66-.23,2.19-.69c.54-.46.8-1.01.8-1.64,0-.39-.1-.73-.31-1.03-.21-.3-.51-.54-.91-.72-.28-.12-.87-.26-1.76-.41-1.22-.21-2.11-.52-2.65-.94s-.81-1.02-.81-1.8.31-1.44.93-2c.62-.56,1.43-.83,2.45-.83s1.92.33,2.66.98Z"></path>
<path class="cls-4" d="m796.57,58.78h-8.05c-.18,0-.3-.04-.38-.11s-.11-.16-.11-.27c0-.11.04-.19.11-.26s.2-.11.38-.11h8.05c.18,0,.3.04.38.11s.11.16.11.27c0,.11-.04.19-.11.26s-.2.11-.38.11Zm0,2.65h-8.05c-.18,0-.3-.03-.38-.1-.08-.07-.11-.16-.11-.27s.04-.2.11-.27c.08-.07.2-.1.38-.1h8.05c.18,0,.3.03.38.1.08.07.11.16.11.27s-.04.2-.11.27c-.08.07-.2.1-.38.1Z"></path>
<path class="cls-4" d="m807.37,58.78h-8.05c-.18,0-.3-.04-.38-.11s-.11-.16-.11-.27c0-.11.04-.19.11-.26s.2-.11.38-.11h8.05c.18,0,.3.04.38.11s.11.16.11.27c0,.11-.04.19-.11.26s-.2.11-.38.11Zm0,2.65h-8.05c-.18,0-.3-.03-.38-.1-.08-.07-.11-.16-.11-.27s.04-.2.11-.27c.08-.07.2-.1.38-.1h8.05c.18,0,.3.03.38.1.08.07.11.16.11.27s-.04.2-.11.27c-.08.07-.2.1-.38.1Z"></path>
<path class="cls-4" d="m817.53,58.46v1.83c0,1.59-.38,2.84-1.13,3.77-.59.73-1.34,1.09-2.24,1.09-.43,0-.84-.09-1.23-.26-.38-.17-.71-.42-.98-.73-.17-.19-.36-.5-.56-.93-.2-.43-.35-.82-.44-1.18-.13-.5-.2-1.09-.2-1.77v-1.83c0-1.59.38-2.85,1.13-3.78.59-.73,1.34-1.09,2.24-1.09.44,0,.85.09,1.23.26.38.17.71.41.98.72.18.2.36.51.56.94s.35.82.44,1.17c.13.5.19,1.1.19,1.78Zm-.74.1c0-.7-.1-1.35-.29-1.95-.2-.6-.42-1.08-.66-1.44-.15-.21-.34-.38-.57-.53-.33-.21-.71-.31-1.12-.31-.83,0-1.47.42-1.94,1.27s-.7,1.83-.7,2.95v1.63c0,.7.1,1.35.29,1.95s.42,1.08.67,1.44c.14.2.33.37.56.52.33.21.71.32,1.13.32.82,0,1.46-.42,1.93-1.27.47-.85.7-1.83.7-2.96v-1.63Z"></path>
</g>
<rect class="cls-2" height="45" width="105" x="89.33" y="105"></rect>
<g>
<path class="cls-3" d="m137.84,134.14h-1.48c-.17,0-.31-.04-.41-.13-.11-.08-.19-.19-.23-.32l-1.14-3h-5.7l-1.14,3c-.04.12-.12.22-.23.31-.11.09-.25.14-.41.14h-1.48l5.15-12.92h1.93l5.15,12.92Zm-3.79-4.82l-1.92-5.01c-.14-.34-.28-.77-.41-1.3-.07.26-.13.5-.2.72-.07.22-.14.42-.2.59l-1.91,5h4.64Z"></path>
<path class="cls-3" d="m140.72,126.37c.19-.23.4-.44.62-.63.22-.19.45-.35.71-.49.25-.13.52-.24.81-.31.29-.07.59-.11.91-.11.52,0,.99.1,1.42.31.42.2.78.5,1.08.9.3.4.53.88.7,1.47s.25,1.25.25,2.01c0,.68-.09,1.31-.27,1.88-.18.58-.44,1.08-.78,1.51s-.75.76-1.24,1c-.49.24-1.04.36-1.65.36-.55,0-1.01-.09-1.4-.27-.39-.18-.74-.43-1.04-.76v3.97h-1.75v-12.21h1.05c.25,0,.4.12.46.35l.15,1.02Zm.09,5.53c.29.38.6.64.93.79.33.15.71.23,1.12.23.8,0,1.43-.29,1.87-.87.44-.58.66-1.42.66-2.53,0-.58-.05-1.08-.15-1.49-.1-.41-.24-.75-.43-1.01-.19-.26-.42-.45-.7-.58s-.59-.18-.94-.18c-.51,0-.95.11-1.33.34-.38.23-.72.55-1.04.97v4.33Z"></path>
<path class="cls-3" d="m150.84,126.37c.19-.23.4-.44.62-.63.22-.19.45-.35.71-.49.25-.13.52-.24.81-.31.29-.07.59-.11.91-.11.52,0,.99.1,1.42.31.42.2.78.5,1.08.9.3.4.53.88.7,1.47s.25,1.25.25,2.01c0,.68-.09,1.31-.27,1.88-.18.58-.44,1.08-.78,1.51s-.75.76-1.24,1c-.49.24-1.04.36-1.65.36-.55,0-1.01-.09-1.4-.27-.39-.18-.74-.43-1.04-.76v3.97h-1.75v-12.21h1.05c.25,0,.4.12.46.35l.15,1.02Zm.09,5.53c.29.38.6.64.93.79.33.15.71.23,1.12.23.8,0,1.43-.29,1.87-.87.44-.58.66-1.42.66-2.53,0-.58-.05-1.08-.15-1.49-.1-.41-.24-.75-.43-1.01-.19-.26-.42-.45-.7-.58s-.59-.18-.94-.18c-.51,0-.95.11-1.33.34-.38.23-.72.55-1.04.97v4.33Z"></path>
</g>
<g>
<path class="cls-4" d="m39.56,132.58v1.56h-8.02v-12.92h8.01v1.56h-6.08v4.09h4.9v1.5h-4.9v4.21h6.09Z"></path>
<path class="cls-4" d="m49.33,132.53v1.61h-7.4v-12.92h1.92v11.31h5.48Z"></path>
<path class="cls-4" d="m59.53,127.68c0,1.13-.12,2.11-.36,2.93-.24.83-.58,1.51-1,2.06-.42.54-.92.95-1.49,1.21s-1.19.4-1.85.4-1.28-.13-1.85-.4-1.07-.67-1.49-1.21c-.42-.54-.75-1.23-.99-2.06-.24-.83-.36-1.81-.36-2.93s.12-2.11.36-2.94c.24-.83.57-1.52.99-2.06s.92-.95,1.49-1.21c.57-.26,1.19-.4,1.85-.4s1.28.13,1.85.4c.57.26,1.07.67,1.49,1.21s.76,1.23,1,2.06c.24.83.36,1.81.36,2.94Zm-1.82,0c0-.97-.08-1.79-.24-2.44s-.37-1.18-.64-1.58c-.27-.4-.58-.68-.92-.85s-.71-.25-1.09-.25-.74.08-1.09.25-.66.45-.92.85c-.27.4-.48.93-.63,1.58-.16.65-.23,1.47-.23,2.44s.08,1.79.23,2.44c.16.65.37,1.18.63,1.57.27.4.58.68.92.85s.71.25,1.09.25.74-.08,1.09-.25.66-.45.92-.85c.27-.4.48-.92.64-1.57s.24-1.47.24-2.44Z"></path>
</g>
<g>
<path class="cls-4" d="m39.56,192.58v1.56h-8.02v-12.92h8.01v1.56h-6.08v4.09h4.9v1.5h-4.9v4.21h6.09Z"></path>
<path class="cls-4" d="m49.33,192.53v1.61h-7.4v-12.92h1.92v11.31h5.48Z"></path>
<path class="cls-4" d="m58.81,192.8v1.34h-6.98v-1.34h2.74v-8.47c0-.27,0-.55.03-.84l-2.2,1.86c-.08.07-.17.11-.25.13s-.16.02-.24,0c-.07-.01-.14-.04-.2-.08-.06-.04-.1-.08-.14-.12l-.55-.76,3.87-3.34h1.43v11.61h2.49Z"></path>
</g>
<g>
<path class="cls-4" d="m39.56,267.58v1.56h-8.02v-12.92h8.01v1.56h-6.08v4.09h4.9v1.5h-4.9v4.21h6.09Z"></path>
<path class="cls-4" d="m49.33,267.53v1.61h-7.4v-12.92h1.92v11.31h5.48Z"></path>
<path class="cls-4" d="m58.48,267.48c.19,0,.34.06.45.17.11.11.16.26.16.44v1.06h-8.68v-.6c0-.12.02-.25.07-.38s.13-.26.24-.36l4.09-4.09c.34-.34.65-.67.93-.99.28-.32.51-.63.7-.95.19-.32.34-.64.45-.97.11-.33.16-.68.16-1.04s-.06-.68-.17-.95c-.11-.27-.27-.5-.47-.68-.2-.18-.43-.31-.7-.41-.27-.09-.56-.13-.87-.13s-.6.04-.86.13c-.26.09-.49.22-.7.38s-.38.35-.51.58c-.14.22-.24.46-.3.72-.08.23-.19.38-.32.46-.13.08-.32.1-.56.05l-.92-.16c.08-.6.25-1.13.5-1.58s.56-.84.93-1.15c.37-.31.8-.54,1.28-.7.48-.16,1-.23,1.56-.23s1.08.08,1.56.25c.48.16.89.4,1.24.71s.62.69.82,1.14c.2.45.3.95.3,1.52,0,.48-.07.93-.21,1.34-.14.41-.33.8-.58,1.17-.24.37-.52.73-.85,1.08-.32.35-.66.71-1.02,1.07l-3.28,3.35c.25-.07.51-.12.76-.16s.5-.06.72-.06h4.08Z"></path>
</g>
<g>
<path class="cls-4" d="m39.56,342.58v1.56h-8.02v-12.92h8.01v1.56h-6.08v4.09h4.9v1.5h-4.9v4.21h6.09Z"></path>
<path class="cls-4" d="m49.33,342.53v1.61h-7.4v-12.92h1.92v11.31h5.48Z"></path>
<path class="cls-4" d="m50.72,334.74c.09-.6.26-1.13.5-1.58s.55-.84.93-1.15.8-.54,1.28-.7c.48-.16,1-.23,1.56-.23s1.07.08,1.54.24c.47.16.87.38,1.2.68s.59.64.78,1.05c.19.41.28.86.28,1.35,0,.41-.05.78-.15,1.1-.1.32-.25.6-.44.84-.19.24-.42.44-.69.61-.27.17-.57.3-.91.41.82.23,1.44.6,1.85,1.11.41.51.62,1.16.62,1.95,0,.61-.11,1.15-.34,1.63-.23.48-.54.89-.94,1.22-.4.33-.86.59-1.38.76s-1.08.27-1.68.27c-.68,0-1.26-.08-1.75-.25-.49-.17-.9-.4-1.24-.69-.34-.3-.63-.65-.85-1.07-.23-.42-.42-.87-.57-1.37l.77-.32c.2-.08.39-.11.58-.07.19.04.32.14.4.32.09.18.19.38.31.61.12.23.27.44.47.64.2.2.45.37.74.51.3.14.67.21,1.12.21s.81-.07,1.13-.21c.32-.14.59-.32.81-.55.22-.23.38-.48.49-.75.11-.28.16-.55.16-.82,0-.34-.04-.65-.13-.93-.08-.28-.24-.52-.48-.72s-.57-.36-.99-.47-.97-.17-1.64-.17v-1.28c.55,0,1.02-.06,1.4-.17.38-.11.69-.26.92-.45.23-.19.4-.42.51-.68.1-.26.16-.56.16-.88,0-.35-.05-.66-.16-.93-.11-.26-.26-.48-.45-.66-.2-.18-.43-.31-.69-.4-.27-.09-.56-.13-.87-.13s-.6.04-.86.13c-.26.09-.5.22-.7.38s-.38.35-.51.58c-.14.22-.24.46-.3.72-.08.23-.19.38-.32.46s-.31.1-.55.05l-.93-.16Z"></path>
</g>
<rect class="cls-2" height="45" width="105" x="224.33" y="105"></rect>
<g>
<path class="cls-3" d="m272.84,134.14h-1.48c-.17,0-.31-.04-.41-.13-.11-.08-.19-.19-.23-.32l-1.14-3h-5.7l-1.14,3c-.04.12-.12.22-.23.31-.11.09-.25.14-.41.14h-1.48l5.15-12.92h1.93l5.15,12.92Zm-3.79-4.82l-1.92-5.01c-.14-.34-.28-.77-.41-1.3-.07.26-.13.5-.2.72-.07.22-.14.42-.2.59l-1.91,5h4.64Z"></path>
<path class="cls-3" d="m275.72,126.37c.19-.23.4-.44.62-.63.22-.19.45-.35.71-.49.25-.13.52-.24.81-.31.29-.07.59-.11.91-.11.52,0,.99.1,1.42.31.42.2.78.5,1.08.9.3.4.53.88.7,1.47s.25,1.25.25,2.01c0,.68-.09,1.31-.27,1.88-.18.58-.44,1.08-.78,1.51s-.75.76-1.24,1c-.49.24-1.04.36-1.65.36-.55,0-1.01-.09-1.4-.27-.39-.18-.74-.43-1.04-.76v3.97h-1.75v-12.21h1.05c.25,0,.4.12.46.35l.15,1.02Zm.09,5.53c.29.38.6.64.93.79.33.15.71.23,1.12.23.8,0,1.43-.29,1.87-.87.44-.58.66-1.42.66-2.53,0-.58-.05-1.08-.15-1.49-.1-.41-.24-.75-.43-1.01-.19-.26-.42-.45-.7-.58s-.59-.18-.94-.18c-.51,0-.95.11-1.33.34-.38.23-.72.55-1.04.97v4.33Z"></path>
<path class="cls-3" d="m285.84,126.37c.19-.23.4-.44.62-.63.22-.19.45-.35.71-.49.25-.13.52-.24.81-.31.29-.07.59-.11.91-.11.52,0,.99.1,1.42.31.42.2.78.5,1.08.9.3.4.53.88.7,1.47s.25,1.25.25,2.01c0,.68-.09,1.31-.27,1.88-.18.58-.44,1.08-.78,1.51s-.75.76-1.24,1c-.49.24-1.04.36-1.65.36-.55,0-1.01-.09-1.4-.27-.39-.18-.74-.43-1.04-.76v3.97h-1.75v-12.21h1.05c.25,0,.4.12.46.35l.15,1.02Zm.09,5.53c.29.38.6.64.93.79.33.15.71.23,1.12.23.8,0,1.43-.29,1.87-.87.44-.58.66-1.42.66-2.53,0-.58-.05-1.08-.15-1.49-.1-.41-.24-.75-.43-1.01-.19-.26-.42-.45-.7-.58s-.59-.18-.94-.18c-.51,0-.95.11-1.33.34-.38.23-.72.55-1.04.97v4.33Z"></path>
</g>
<rect class="cls-2" height="45" width="240" x="89" y="165"></rect>
<g>
<path class="cls-3" d="m188.75,194.14h-1.71c-.34,0-.59-.13-.75-.41l-3.2-4.48c-.1-.15-.21-.26-.33-.32s-.3-.09-.54-.09h-1.25v5.3h-1.92v-12.92h3.73c.83,0,1.55.08,2.16.26.6.17,1.1.41,1.49.73.39.32.68.7.87,1.14.19.44.28.94.28,1.49,0,.45-.07.87-.21,1.27-.14.4-.34.75-.61,1.07-.27.31-.59.59-.98.81s-.82.4-1.3.52c.24.14.45.35.62.6l3.64,5.03Zm-6.03-6.7c.49,0,.93-.06,1.3-.18.38-.12.69-.29.94-.51s.44-.48.57-.78.19-.64.19-1c0-.74-.24-1.3-.73-1.68s-1.22-.57-2.2-.57h-1.81v4.73h1.75Z"></path>
<path class="cls-3" d="m192.09,182.17c0,.16-.03.32-.1.46-.07.15-.15.28-.27.39-.11.11-.24.2-.39.26-.15.06-.31.09-.47.09s-.31-.03-.46-.09c-.14-.06-.27-.15-.38-.26-.11-.11-.2-.24-.26-.39-.06-.15-.09-.3-.09-.46s.03-.33.09-.47c.06-.15.15-.28.26-.39.11-.11.24-.2.38-.26.14-.06.3-.09.46-.09s.32.03.47.09c.15.06.28.15.39.26.11.11.2.24.27.39.07.15.1.3.1.47Zm-.33,2.83v9.14h-1.75v-9.14h1.75Z"></path>
<path class="cls-3" d="m200.71,186.71c-.05.07-.11.12-.16.16s-.12.06-.22.06-.2-.04-.3-.11c-.11-.08-.24-.16-.4-.24-.16-.09-.35-.17-.58-.24-.22-.08-.5-.11-.83-.11-.43,0-.81.08-1.14.23s-.6.38-.82.67c-.22.29-.39.64-.5,1.05-.11.41-.17.88-.17,1.39s.06,1.01.18,1.43c.12.42.29.77.51,1.05s.49.5.81.65c.32.15.67.22,1.06.22s.69-.05.94-.14c.25-.09.45-.19.61-.3.16-.11.3-.21.41-.3.11-.09.22-.14.33-.14.14,0,.25.05.33.16l.5.65c-.21.26-.45.48-.71.66-.26.18-.54.33-.83.44-.29.11-.6.2-.92.25-.32.05-.65.08-.98.08-.57,0-1.1-.1-1.6-.31s-.92-.52-1.29-.92c-.36-.4-.65-.9-.86-1.48-.21-.58-.32-1.25-.32-1.99,0-.68.09-1.3.28-1.88.19-.58.47-1.07.84-1.49.37-.42.82-.74,1.36-.98.54-.24,1.16-.36,1.85-.36.65,0,1.23.11,1.73.32s.94.51,1.33.89l-.47.65Z"></path>
<path class="cls-3" d="m204.67,186.16c.38-.39.81-.71,1.27-.95.46-.24,1-.36,1.61-.36.5,0,.95.08,1.33.25s.7.4.96.71c.26.3.45.67.58,1.09s.2.9.2,1.41v5.82h-1.76v-5.82c0-.65-.15-1.16-.45-1.53-.3-.36-.76-.54-1.38-.54-.45,0-.87.11-1.26.32-.39.21-.76.5-1.09.87v6.71h-1.75v-13.29h1.75v5.3Z"></path>
<path class="cls-3" d="m229.93,187.68c0,.97-.15,1.85-.46,2.66-.31.81-.75,1.5-1.31,2.09-.56.58-1.24,1.04-2.03,1.36s-1.66.49-2.62.49-1.83-.16-2.61-.49-1.46-.78-2.03-1.36c-.56-.58-1-1.28-1.31-2.09-.31-.81-.47-1.69-.47-2.66s.16-1.84.47-2.65c.31-.81.75-1.51,1.31-2.09.56-.58,1.24-1.04,2.03-1.37.79-.33,1.66-.49,2.61-.49s1.83.16,2.62.49c.79.33,1.46.78,2.03,1.37.56.58,1,1.28,1.31,2.09.31.81.46,1.7.46,2.65Zm-1.96,0c0-.77-.1-1.46-.31-2.07-.21-.61-.51-1.13-.9-1.56-.39-.43-.86-.75-1.4-.98s-1.16-.34-1.84-.34-1.29.11-1.84.34c-.55.23-1.02.55-1.41.98-.39.43-.69.95-.9,1.56-.21.61-.32,1.3-.32,2.07s.11,1.47.32,2.07c.21.61.51,1.13.9,1.55.39.43.86.75,1.41.98.55.23,1.16.34,1.84.34s1.29-.11,1.84-.34c.55-.22,1.02-.55,1.4-.98.39-.43.68-.94.9-1.55.21-.61.31-1.3.31-2.07Z"></path>
<path class="cls-3" d="m239.02,183.32c-.06.1-.12.18-.19.22-.07.05-.15.07-.25.07s-.23-.05-.37-.15c-.14-.1-.31-.21-.52-.33s-.45-.23-.74-.33-.63-.15-1.04-.15c-.38,0-.71.05-.99.15s-.52.23-.72.4c-.19.17-.34.37-.44.6-.1.23-.15.48-.15.75,0,.35.09.64.27.86.18.23.41.42.7.59s.62.3.98.42c.37.12.74.25,1.12.37.38.13.76.28,1.12.45.37.17.69.38.98.63s.52.57.7.94c.18.37.26.82.26,1.35,0,.57-.1,1.1-.29,1.6-.2.5-.48.93-.85,1.3s-.83.67-1.37.88c-.54.21-1.16.32-1.85.32-.41,0-.82-.04-1.21-.12-.39-.08-.76-.19-1.11-.34-.35-.15-.67-.32-.98-.53s-.57-.44-.81-.7l.55-.92c.05-.07.12-.13.19-.18.08-.05.16-.07.26-.07.13,0,.27.07.44.2s.37.28.61.44c.24.16.53.3.87.44s.75.2,1.24.2c.4,0,.75-.05,1.06-.16.31-.1.58-.25.79-.45s.38-.43.49-.71c.11-.28.17-.58.17-.92,0-.38-.09-.69-.26-.93-.17-.24-.41-.44-.69-.6s-.62-.3-.98-.41c-.37-.11-.74-.23-1.12-.36s-.76-.27-1.12-.43c-.37-.16-.69-.37-.98-.63-.29-.26-.52-.59-.69-.98-.17-.39-.26-.88-.26-1.45,0-.46.09-.91.27-1.34s.44-.81.79-1.15.77-.6,1.27-.8c.5-.2,1.08-.3,1.73-.3.73,0,1.39.12,2,.35.61.23,1.14.56,1.59,1l-.47.91Z"></path>
</g>
<rect class="cls-2" height="45" width="510" x="89" y="240"></rect>
<g>
<path class="cls-3" d="m312.59,256.22v12.92h-1.92v-5.82h-6.74v5.82h-1.93v-12.92h1.93v5.71h6.74v-5.71h1.92Z"></path>
<path class="cls-3" d="m323.22,260l-5.08,11.8c-.05.13-.13.23-.22.31-.09.07-.22.11-.4.11h-1.3l1.67-3.64-3.75-8.57h1.53c.15,0,.27.04.35.11.08.07.14.15.18.24l2.32,5.49c.05.14.09.28.14.42s.08.28.11.42c.04-.14.09-.29.13-.43.05-.14.1-.28.15-.42l2.24-5.48c.04-.1.11-.19.2-.25.09-.07.19-.1.31-.1h1.4Z"></path>
<path class="cls-3" d="m326.22,261.37c.19-.23.4-.44.62-.63.22-.19.45-.35.71-.49.25-.13.52-.24.81-.31.29-.07.59-.11.91-.11.52,0,.99.1,1.42.31.42.2.78.5,1.08.9.3.4.53.88.7,1.47s.25,1.25.25,2.01c0,.68-.09,1.31-.27,1.88-.18.58-.44,1.08-.78,1.51s-.75.76-1.24,1c-.49.24-1.04.36-1.65.36-.55,0-1.01-.09-1.4-.27-.39-.18-.74-.43-1.04-.76v3.97h-1.75v-12.21h1.05c.25,0,.4.12.46.35l.15,1.02Zm.09,5.53c.29.38.6.64.93.79.33.15.71.23,1.12.23.8,0,1.43-.29,1.87-.87.44-.58.66-1.42.66-2.53,0-.58-.05-1.08-.15-1.49-.1-.41-.24-.75-.43-1.01-.19-.26-.42-.45-.7-.58s-.59-.18-.94-.18c-.51,0-.95.11-1.33.34-.38.23-.72.55-1.04.97v4.33Z"></path>
<path class="cls-3" d="m342.19,267.84c-.22.25-.46.47-.75.65-.28.18-.58.33-.9.45-.32.11-.65.2-.99.25-.34.05-.67.08-1,.08-.63,0-1.21-.11-1.75-.32s-1-.53-1.4-.94c-.39-.41-.7-.92-.92-1.53-.22-.61-.33-1.31-.33-2.1,0-.64.1-1.23.3-1.78s.48-1.03.85-1.44.82-.73,1.35-.96,1.13-.35,1.8-.35c.56,0,1.07.09,1.54.28.47.18.88.45,1.22.8.34.35.61.78.8,1.29.2.51.29,1.09.29,1.75,0,.27-.03.45-.09.54-.06.09-.17.14-.33.14h-5.99c.02.54.1,1.02.23,1.43.14.41.33.74.57,1.01s.53.47.87.6c.34.13.71.2,1.12.2.39,0,.73-.05,1.01-.14s.53-.19.74-.29c.21-.11.38-.2.52-.29s.27-.13.37-.13c.14,0,.25.05.33.16l.5.65Zm-1.45-4.28c0-.35-.05-.67-.15-.96-.1-.29-.25-.55-.44-.76-.19-.22-.43-.38-.7-.5s-.59-.18-.95-.18c-.74,0-1.32.21-1.74.64-.42.43-.69,1.02-.81,1.77h4.79Z"></path>
<path class="cls-3" d="m345.87,261.75c.29-.6.65-1.07,1.06-1.41s.91-.51,1.49-.51c.2,0,.38.02.56.07.18.04.33.11.46.2l-.12,1.32c-.04.16-.14.24-.3.24-.08,0-.21-.02-.38-.05s-.35-.05-.54-.05c-.28,0-.53.04-.75.12-.22.08-.41.2-.58.36-.17.16-.32.36-.45.59-.13.23-.26.49-.37.79v5.72h-1.75v-9.14h1.01c.19,0,.32.04.39.1.07.07.12.19.15.37l.11,1.29Z"></path>
<path class="cls-3" d="m358.75,260l-3.71,9.14h-1.58l-3.71-9.14h1.45c.14,0,.25.03.34.1.09.07.15.15.18.25l2.19,5.62c.08.23.15.47.2.7.06.23.11.46.16.69.05-.23.1-.46.16-.68.06-.23.13-.46.22-.7l2.21-5.62c.04-.1.1-.19.19-.25.09-.07.2-.1.32-.1h1.38Z"></path>
<path class="cls-3" d="m362.32,257.17c0,.16-.03.32-.1.46-.07.15-.15.28-.27.39-.11.11-.24.2-.39.26-.15.06-.31.09-.47.09s-.31-.03-.46-.09c-.14-.06-.27-.15-.38-.26-.11-.11-.2-.24-.26-.39-.06-.15-.09-.3-.09-.46s.03-.33.09-.47c.06-.15.15-.28.26-.39.11-.11.24-.2.38-.26.14-.06.3-.09.46-.09s.32.03.47.09c.15.06.28.15.39.26.11.11.2.24.27.39.07.15.1.3.1.47Zm-.33,2.83v9.14h-1.75v-9.14h1.75Z"></path>
<path class="cls-3" d="m369.93,261.57c-.05.08-.1.13-.15.17-.05.03-.12.05-.21.05-.1,0-.2-.03-.32-.1-.12-.07-.26-.14-.42-.21s-.36-.15-.58-.22c-.22-.07-.49-.1-.79-.1-.25,0-.48.03-.69.09-.21.06-.38.15-.53.26-.14.11-.25.24-.33.4-.08.15-.12.32-.12.49,0,.23.07.42.2.57.13.15.31.28.53.39.22.11.47.21.75.29.28.09.56.18.85.27s.58.21.86.33c.28.12.53.28.75.46.22.18.4.4.53.66.14.26.2.57.2.95,0,.43-.08.82-.23,1.18-.15.36-.38.68-.67.94-.3.26-.67.47-1.1.62-.44.15-.94.23-1.5.23-.63,0-1.21-.1-1.75-.32-.53-.21-.98-.48-1.34-.8l.41-.67c.05-.08.11-.15.18-.19.07-.05.17-.07.29-.07.11,0,.23.04.35.12.12.08.26.18.43.28.17.1.37.19.61.27.24.08.54.12.9.12.3,0,.56-.04.78-.11.22-.08.41-.18.55-.31.15-.13.26-.28.33-.45.07-.17.11-.35.11-.53,0-.24-.07-.44-.2-.6-.13-.16-.31-.3-.53-.41-.22-.11-.47-.21-.75-.3-.28-.08-.57-.17-.86-.27-.29-.1-.58-.21-.86-.33-.28-.12-.53-.29-.75-.48-.22-.19-.4-.43-.53-.7s-.2-.61-.2-1.01c0-.35.07-.69.22-1.02.15-.32.36-.61.64-.86.28-.25.62-.44,1.03-.59.41-.15.88-.22,1.41-.22.61,0,1.15.1,1.64.29.49.19.91.46,1.25.79l-.39.64Z"></path>
<path class="cls-3" d="m376.25,259.85c.67,0,1.28.11,1.82.33.54.22,1,.53,1.39.94.38.41.67.91.88,1.49.2.58.31,1.23.31,1.95s-.1,1.37-.31,1.95-.5,1.08-.88,1.49c-.38.41-.84.72-1.39.94s-1.15.33-1.82.33-1.29-.11-1.83-.33-1.01-.53-1.39-.94c-.38-.41-.68-.9-.89-1.49s-.31-1.23-.31-1.95.1-1.37.31-1.95c.21-.58.5-1.07.89-1.49.38-.41.85-.72,1.39-.94.54-.22,1.15-.33,1.83-.33Zm0,8.05c.86,0,1.51-.29,1.94-.87.43-.58.64-1.4.64-2.46s-.21-1.88-.64-2.46c-.43-.58-1.07-.88-1.94-.88s-1.53.29-1.96.88c-.43.58-.64,1.41-.64,2.46s.21,1.88.64,2.46c.43.58,1.08.87,1.96.87Z"></path>
<path class="cls-3" d="m384.26,261.75c.29-.6.65-1.07,1.06-1.41s.91-.51,1.49-.51c.2,0,.38.02.56.07.18.04.33.11.46.2l-.12,1.32c-.04.16-.14.24-.3.24-.08,0-.21-.02-.38-.05s-.35-.05-.54-.05c-.28,0-.53.04-.75.12-.22.08-.41.2-.58.36-.17.16-.32.36-.45.59-.13.23-.26.49-.37.79v5.72h-1.75v-9.14h1.01c.19,0,.32.04.39.1.07.07.12.19.15.37l.11,1.29Z"></path>
</g>
<rect class="cls-1" height="45" width="780" x="89" y="315"></rect>
<g>
<path class="cls-3" d="m379.8,332.78v4.33h5.18v1.56h-5.18v5.48h-1.93v-12.92h8.01v1.56h-6.08Z"></path>
<path class="cls-3" d="m389.83,332.17c0,.16-.03.32-.1.46-.07.15-.15.28-.27.39-.11.11-.24.2-.39.26-.15.06-.31.09-.47.09s-.31-.03-.46-.09c-.14-.06-.27-.15-.38-.26-.11-.11-.2-.24-.26-.39-.06-.15-.09-.3-.09-.46s.03-.33.09-.47c.06-.15.15-.28.26-.39.11-.11.24-.2.38-.26.14-.06.3-.09.46-.09s.32.03.47.09c.15.06.28.15.39.26.11.11.2.24.27.39.07.15.1.3.1.47Zm-.33,2.83v9.14h-1.75v-9.14h1.75Z"></path>
<path class="cls-3" d="m393.7,336.75c.29-.6.65-1.07,1.06-1.41s.91-.51,1.49-.51c.2,0,.38.02.56.07.18.04.33.11.46.2l-.12,1.32c-.04.16-.14.24-.3.24-.08,0-.21-.02-.38-.05s-.35-.05-.54-.05c-.28,0-.53.04-.75.12-.22.08-.41.2-.58.36-.17.16-.32.36-.45.59-.13.23-.26.49-.37.79v5.72h-1.75v-9.14h1.01c.19,0,.32.04.39.1.07.07.12.19.15.37l.11,1.29Z"></path>
<path class="cls-3" d="m398.64,344.14v-9.14h1.05c.25,0,.4.12.46.35l.13.87c.34-.4.71-.73,1.12-.99.41-.25.89-.38,1.44-.38.61,0,1.1.17,1.48.5s.65.79.83,1.35c.13-.32.3-.6.51-.84s.44-.43.7-.58.53-.26.82-.33c.29-.07.59-.11.89-.11.49,0,.92.08,1.3.23.38.15.7.38.97.67.26.29.46.66.6,1.09.14.43.21.92.21,1.47v5.82h-1.76v-5.82c0-.68-.15-1.2-.45-1.55s-.73-.52-1.3-.52c-.25,0-.49.04-.72.13-.23.09-.43.22-.6.39-.17.17-.31.39-.4.65-.1.26-.15.56-.15.9v5.82h-1.76v-5.82c0-.71-.14-1.23-.42-1.57-.28-.34-.7-.5-1.24-.5-.38,0-.73.1-1.05.3s-.62.47-.89.81v6.79h-1.75Z"></path>
<path class="cls-3" d="m426.18,335l-2.94,9.14h-1.4c-.17,0-.28-.11-.34-.33l-1.93-5.96c-.05-.15-.09-.3-.13-.45-.04-.15-.07-.3-.1-.45-.05.31-.13.62-.23.91l-1.95,5.94c-.06.22-.19.33-.39.33h-1.33l-2.95-9.14h1.39c.14,0,.25.03.35.1.09.07.15.15.18.25l1.65,5.62c.05.23.1.45.14.67.04.22.08.43.12.65.05-.22.11-.43.18-.65.06-.22.13-.44.19-.67l1.83-5.65c.03-.1.09-.18.17-.25s.19-.09.31-.09h.77c.13,0,.24.03.33.09s.15.15.18.25l1.78,5.65c.07.23.13.45.19.67.06.22.11.44.16.66.04-.22.08-.43.13-.65s.1-.45.16-.68l1.67-5.62c.03-.1.09-.19.18-.25.09-.07.2-.1.32-.1h1.32Z"></path>
<path class="cls-3" d="m427.33,336.28c.51-.49,1.06-.85,1.66-1.09.6-.24,1.25-.36,1.97-.36.52,0,.98.08,1.39.26.4.17.74.41,1.02.71.28.31.48.67.62,1.1.14.43.21.9.21,1.41v5.83h-.78c-.17,0-.31-.03-.4-.09-.09-.06-.16-.16-.22-.32l-.19-.8c-.23.22-.46.41-.69.57-.23.17-.47.31-.72.42-.25.12-.51.21-.8.27s-.59.09-.94.09-.7-.05-1.01-.15c-.32-.1-.59-.25-.82-.45-.23-.21-.42-.46-.55-.77-.14-.31-.2-.66-.2-1.07,0-.36.1-.71.29-1.04.19-.33.51-.63.95-.9.44-.26,1.02-.48,1.73-.65s1.59-.26,2.62-.29v-.67c0-.69-.15-1.21-.44-1.55s-.73-.51-1.3-.51c-.38,0-.71.05-.97.14-.26.1-.49.2-.67.32-.19.12-.35.22-.5.32-.14.1-.29.14-.44.14-.12,0-.22-.03-.31-.1s-.16-.14-.21-.23l-.32-.57Zm5.15,3.81c-.71.02-1.32.08-1.82.17-.5.09-.9.2-1.21.35-.31.14-.54.31-.67.51-.14.2-.21.41-.21.65,0,.23.04.42.11.59s.18.3.31.41c.13.1.28.18.46.23.17.05.36.07.57.07.27,0,.52-.03.74-.08.23-.05.44-.13.63-.23.2-.1.39-.22.57-.36.18-.14.36-.31.53-.5v-1.8Z"></path>
<path class="cls-3" d="m438.21,336.75c.29-.6.65-1.07,1.06-1.41s.91-.51,1.49-.51c.2,0,.38.02.56.07.18.04.33.11.46.2l-.12,1.32c-.04.16-.14.24-.3.24-.08,0-.21-.02-.38-.05s-.35-.05-.54-.05c-.28,0-.53.04-.75.12-.22.08-.41.2-.58.36-.17.16-.32.36-.45.59-.13.23-.26.49-.37.79v5.72h-1.75v-9.14h1.01c.19,0,.32.04.39.1.07.07.12.19.15.37l.11,1.29Z"></path>
<path class="cls-3" d="m450.32,342.84c-.22.25-.46.47-.75.65-.28.18-.58.33-.9.45-.32.11-.65.2-.99.25-.34.05-.67.08-1,.08-.63,0-1.21-.11-1.75-.32s-1-.53-1.4-.94c-.39-.41-.7-.92-.92-1.53-.22-.61-.33-1.31-.33-2.1,0-.64.1-1.23.3-1.78s.48-1.03.85-1.44.82-.73,1.35-.96,1.13-.35,1.8-.35c.56,0,1.07.09,1.54.28.47.18.88.45,1.22.8.34.35.61.78.8,1.29.2.51.29,1.09.29,1.75,0,.27-.03.45-.09.54-.06.09-.17.14-.33.14h-5.99c.02.54.1,1.02.23,1.43.14.41.33.74.57,1.01s.53.47.87.6c.34.13.71.2,1.12.2.39,0,.73-.05,1.01-.14s.53-.19.74-.29c.21-.11.38-.2.52-.29s.27-.13.37-.13c.14,0,.25.05.33.16l.5.65Zm-1.45-4.28c0-.35-.05-.67-.15-.96-.1-.29-.25-.55-.44-.76-.19-.22-.43-.38-.7-.5s-.59-.18-.95-.18c-.74,0-1.32.21-1.74.64-.42.43-.69,1.02-.81,1.77h4.79Z"></path>
<path class="cls-3" d="m453.39,344.29c-.08.23-.22.4-.4.51s-.37.17-.56.17h-.74l5.36-13.46c.08-.2.21-.36.36-.47.16-.11.34-.17.55-.17h.75l-5.34,13.43Z"></path>
<path class="cls-3" d="m467.59,333.32c-.06.1-.12.18-.19.22-.07.05-.15.07-.25.07s-.23-.05-.37-.15c-.14-.1-.31-.21-.52-.33s-.45-.23-.74-.33-.63-.15-1.04-.15c-.38,0-.71.05-.99.15s-.52.23-.72.4c-.19.17-.34.37-.44.6-.1.23-.15.48-.15.75,0,.35.09.64.27.86.18.23.41.42.7.59s.62.3.98.42c.37.12.74.25,1.12.37.38.13.76.28,1.12.45.37.17.69.38.98.63s.52.57.7.94c.18.37.26.82.26,1.35,0,.57-.1,1.1-.29,1.6-.2.5-.48.93-.85,1.3s-.83.67-1.37.88c-.54.21-1.16.32-1.85.32-.41,0-.82-.04-1.21-.12-.39-.08-.76-.19-1.11-.34-.35-.15-.67-.32-.98-.53s-.57-.44-.81-.7l.55-.92c.05-.07.12-.13.19-.18.08-.05.16-.07.26-.07.13,0,.27.07.44.2s.37.28.61.44c.24.16.53.3.87.44s.75.2,1.24.2c.4,0,.75-.05,1.06-.16.31-.1.58-.25.79-.45s.38-.43.49-.71c.11-.28.17-.58.17-.92,0-.38-.09-.69-.26-.93-.17-.24-.41-.44-.69-.6s-.62-.3-.98-.41c-.37-.11-.74-.23-1.12-.36s-.76-.27-1.12-.43c-.37-.16-.69-.37-.98-.63-.29-.26-.52-.59-.69-.98-.17-.39-.26-.88-.26-1.45,0-.46.09-.91.27-1.34s.44-.81.79-1.15.77-.6,1.27-.8c.5-.2,1.08-.3,1.73-.3.73,0,1.39.12,2,.35.61.23,1.14.56,1.59,1l-.47.91Z"></path>
<path class="cls-3" d="m477.8,342.84c-.22.25-.46.47-.75.65-.28.18-.58.33-.9.45-.32.11-.65.2-.99.25-.34.05-.67.08-1,.08-.63,0-1.21-.11-1.75-.32s-1-.53-1.4-.94c-.39-.41-.7-.92-.92-1.53-.22-.61-.33-1.31-.33-2.1,0-.64.1-1.23.3-1.78s.48-1.03.85-1.44.82-.73,1.35-.96,1.13-.35,1.8-.35c.56,0,1.07.09,1.54.28.47.18.88.45,1.22.8.34.35.61.78.8,1.29.2.51.29,1.09.29,1.75,0,.27-.03.45-.09.54-.06.09-.17.14-.33.14h-5.99c.02.54.1,1.02.23,1.43.14.41.33.74.57,1.01s.53.47.87.6c.34.13.71.2,1.12.2.39,0,.73-.05,1.01-.14s.53-.19.74-.29c.21-.11.38-.2.52-.29s.27-.13.37-.13c.14,0,.25.05.33.16l.5.65Zm-1.45-4.28c0-.35-.05-.67-.15-.96-.1-.29-.25-.55-.44-.76-.19-.22-.43-.38-.7-.5s-.59-.18-.95-.18c-.74,0-1.32.21-1.74.64-.42.43-.69,1.02-.81,1.77h4.79Z"></path>
<path class="cls-3" d="m486.23,336.71c-.05.07-.11.12-.16.16s-.12.06-.22.06-.2-.04-.3-.11c-.11-.08-.24-.16-.4-.24-.16-.09-.35-.17-.58-.24-.22-.08-.5-.11-.83-.11-.43,0-.81.08-1.14.23s-.6.38-.82.67c-.22.29-.39.64-.5,1.05-.11.41-.17.88-.17,1.39s.06,1.01.18,1.43c.12.42.29.77.51,1.05s.49.5.81.65c.32.15.67.22,1.06.22s.69-.05.94-.14c.25-.09.45-.19.61-.3.16-.11.3-.21.41-.3.11-.09.22-.14.33-.14.14,0,.25.05.33.16l.5.65c-.21.26-.45.48-.71.66-.26.18-.54.33-.83.44-.29.11-.6.2-.92.25-.32.05-.65.08-.98.08-.57,0-1.1-.1-1.6-.31s-.92-.52-1.29-.92c-.36-.4-.65-.9-.86-1.48-.21-.58-.32-1.25-.32-1.99,0-.68.09-1.3.28-1.88.19-.58.47-1.07.84-1.49.37-.42.82-.74,1.36-.98.54-.24,1.16-.36,1.85-.36.65,0,1.23.11,1.73.32s.94.51,1.33.89l-.47.65Z"></path>
<path class="cls-3" d="m496.04,335v9.14h-1.05c-.24,0-.4-.12-.47-.35l-.13-.92c-.2.21-.41.4-.62.58-.22.17-.45.32-.69.45s-.51.22-.78.29c-.28.07-.57.1-.89.1-.5,0-.95-.08-1.33-.25-.38-.17-.7-.4-.96-.71s-.45-.67-.58-1.09-.2-.9-.2-1.41v-5.82h1.76v5.82c0,.65.15,1.16.45,1.53.3.36.76.54,1.38.54.45,0,.87-.11,1.26-.32.39-.21.76-.51,1.1-.88v-6.7h1.75Z"></path>
<path class="cls-3" d="m500.15,336.75c.29-.6.65-1.07,1.06-1.41s.91-.51,1.49-.51c.2,0,.38.02.56.07.18.04.33.11.46.2l-.12,1.32c-.04.16-.14.24-.3.24-.08,0-.21-.02-.38-.05s-.35-.05-.54-.05c-.28,0-.53.04-.75.12-.22.08-.41.2-.58.36-.17.16-.32.36-.45.59-.13.23-.26.49-.37.79v5.72h-1.75v-9.14h1.01c.19,0,.32.04.39.1.07.07.12.19.15.37l.11,1.29Z"></path>
<path class="cls-3" d="m512.25,342.84c-.22.25-.46.47-.75.65-.28.18-.58.33-.9.45-.32.11-.65.2-.99.25-.34.05-.67.08-1,.08-.63,0-1.21-.11-1.75-.32s-1-.53-1.4-.94c-.39-.41-.7-.92-.92-1.53-.22-.61-.33-1.31-.33-2.1,0-.64.1-1.23.3-1.78s.48-1.03.85-1.44.82-.73,1.35-.96,1.13-.35,1.8-.35c.56,0,1.07.09,1.54.28.47.18.88.45,1.22.8.34.35.61.78.8,1.29.2.51.29,1.09.29,1.75,0,.27-.03.45-.09.54-.06.09-.17.14-.33.14h-5.99c.02.54.1,1.02.23,1.43.14.41.33.74.57,1.01s.53.47.87.6c.34.13.71.2,1.12.2.39,0,.73-.05,1.01-.14s.53-.19.74-.29c.21-.11.38-.2.52-.29s.27-.13.37-.13c.14,0,.25.05.33.16l.5.65Zm-1.45-4.28c0-.35-.05-.67-.15-.96-.1-.29-.25-.55-.44-.76-.19-.22-.43-.38-.7-.5s-.59-.18-.95-.18c-.74,0-1.32.21-1.74.64-.42.43-.69,1.02-.81,1.77h4.79Z"></path>
<path class="cls-3" d="m532.77,331.22v12.92h-1.67v-9.2c0-.14,0-.28.01-.44,0-.16.02-.32.03-.48l-4.3,7.89c-.15.29-.38.44-.69.44h-.27c-.31,0-.54-.15-.68-.44l-4.38-7.92c.04.34.05.65.05.94v9.2h-1.68v-12.92h1.42c.17,0,.3.02.39.05s.18.12.27.27l4.32,7.74c.08.16.16.32.23.5.07.17.14.35.21.52.13-.35.27-.7.44-1.03l4.24-7.73c.08-.15.16-.24.26-.27.09-.03.22-.05.39-.05h1.42Z"></path>
<path class="cls-3" d="m539.23,334.85c.67,0,1.28.11,1.82.33.54.22,1,.53,1.39.94.38.41.67.91.88,1.49.2.58.31,1.23.31,1.95s-.1,1.37-.31,1.95-.5,1.08-.88,1.49c-.38.41-.84.72-1.39.94s-1.15.33-1.82.33-1.29-.11-1.83-.33-1.01-.53-1.39-.94c-.38-.41-.68-.9-.89-1.49s-.31-1.23-.31-1.95.1-1.37.31-1.95c.21-.58.5-1.07.89-1.49.38-.41.85-.72,1.39-.94.54-.22,1.15-.33,1.83-.33Zm0,8.05c.86,0,1.51-.29,1.94-.87.43-.58.64-1.4.64-2.46s-.21-1.88-.64-2.46c-.43-.58-1.07-.88-1.94-.88s-1.53.29-1.96.88c-.43.58-.64,1.41-.64,2.46s.21,1.88.64,2.46c.43.58,1.08.87,1.96.87Z"></path>
<path class="cls-3" d="m547.22,336.27c.2-.21.41-.4.62-.58s.45-.32.69-.45.5-.22.78-.29c.28-.07.58-.1.9-.1.5,0,.95.08,1.33.25s.7.4.96.71c.26.3.45.67.58,1.09s.2.9.2,1.41v5.82h-1.76v-5.82c0-.65-.15-1.16-.45-1.53-.3-.36-.76-.54-1.38-.54-.45,0-.87.11-1.26.32-.39.21-.76.5-1.09.87v6.71h-1.75v-9.14h1.05c.25,0,.4.12.46.35l.13.92Z"></path>
<path class="cls-3" d="m557.81,332.17c0,.16-.03.32-.1.46-.07.15-.15.28-.27.39-.11.11-.24.2-.39.26-.15.06-.31.09-.47.09s-.31-.03-.46-.09c-.14-.06-.27-.15-.38-.26-.11-.11-.2-.24-.26-.39-.06-.15-.09-.3-.09-.46s.03-.33.09-.47c.06-.15.15-.28.26-.39.11-.11.24-.2.38-.26.14-.06.3-.09.46-.09s.32.03.47.09c.15.06.28.15.39.26.11.11.2.24.27.39.07.15.1.3.1.47Zm-.33,2.83v9.14h-1.75v-9.14h1.75Z"></path>
<path class="cls-3" d="m562.89,344.29c-.74,0-1.31-.21-1.71-.62-.4-.41-.6-1-.6-1.77v-5.47h-1.06c-.1,0-.19-.03-.26-.09-.07-.06-.1-.16-.1-.28v-.71l1.48-.21.4-2.73c.02-.1.07-.18.14-.24.07-.06.16-.08.27-.08h.89v3.07h2.59v1.28h-2.59v5.36c0,.36.09.63.27.8.18.18.4.27.68.27.16,0,.3-.02.42-.06.12-.04.22-.09.3-.14.08-.05.16-.1.22-.14.06-.04.11-.06.16-.06.06,0,.11.01.14.04.03.03.07.07.1.13l.52.85c-.29.26-.63.47-1.03.61-.4.14-.81.22-1.23.22Z"></path>
<path class="cls-3" d="m570.39,334.85c.67,0,1.28.11,1.82.33.54.22,1,.53,1.39.94.38.41.67.91.88,1.49.2.58.31,1.23.31,1.95s-.1,1.37-.31,1.95-.5,1.08-.88,1.49c-.38.41-.84.72-1.39.94s-1.15.33-1.82.33-1.29-.11-1.83-.33-1.01-.53-1.39-.94c-.38-.41-.68-.9-.89-1.49s-.31-1.23-.31-1.95.1-1.37.31-1.95c.21-.58.5-1.07.89-1.49.38-.41.85-.72,1.39-.94.54-.22,1.15-.33,1.83-.33Zm0,8.05c.86,0,1.51-.29,1.94-.87.43-.58.64-1.4.64-2.46s-.21-1.88-.64-2.46c-.43-.58-1.07-.88-1.94-.88s-1.53.29-1.96.88c-.43.58-.64,1.41-.64,2.46s.21,1.88.64,2.46c.43.58,1.08.87,1.96.87Z"></path>
<path class="cls-3" d="m578.39,336.75c.29-.6.65-1.07,1.06-1.41s.91-.51,1.49-.51c.2,0,.38.02.56.07.18.04.33.11.46.2l-.12,1.32c-.04.16-.14.24-.3.24-.08,0-.21-.02-.38-.05s-.35-.05-.54-.05c-.28,0-.53.04-.75.12-.22.08-.41.2-.58.36-.17.16-.32.36-.45.59-.13.23-.26.49-.37.79v5.72h-1.75v-9.14h1.01c.19,0,.32.04.39.1.07.07.12.19.15.37l.11,1.29Z"></path>
</g>
<g>
<path class="cls-4" d="m731.98,256.22v12.92h-.97c-.15,0-.27-.03-.37-.08-.1-.05-.2-.14-.3-.26l-7.3-9.44c.01.16.02.32.03.48s.01.3.01.44v8.87h-1.68v-12.92h.99c.17,0,.29.02.38.06.08.04.18.13.28.27l7.32,9.45c-.02-.17-.03-.34-.04-.51s-.01-.32-.01-.46v-8.8h1.67Z"></path>
<path class="cls-4" d="m738.44,259.85c.67,0,1.28.11,1.82.33.54.22,1,.53,1.39.94.38.41.67.91.88,1.49.2.58.31,1.23.31,1.95s-.1,1.37-.31,1.95-.5,1.08-.88,1.49c-.38.41-.84.72-1.39.94s-1.15.33-1.82.33-1.29-.11-1.83-.33-1.01-.53-1.39-.94c-.38-.41-.68-.9-.89-1.49s-.31-1.23-.31-1.95.1-1.37.31-1.95c.21-.58.5-1.07.89-1.49.38-.41.85-.72,1.39-.94.54-.22,1.15-.33,1.83-.33Zm0,8.05c.86,0,1.51-.29,1.94-.87.43-.58.64-1.4.64-2.46s-.21-1.88-.64-2.46c-.43-.58-1.07-.88-1.94-.88s-1.53.29-1.96.88c-.43.58-.64,1.41-.64,2.46s.21,1.88.64,2.46c.43.58,1.08.87,1.96.87Z"></path>
<path class="cls-4" d="m757.71,267.58v1.56h-8.02v-12.92h8.01v1.56h-6.08v4.09h4.9v1.5h-4.9v4.21h6.09Z"></path>
<path class="cls-4" d="m767.47,267.53v1.61h-7.4v-12.92h1.92v11.31h5.48Z"></path>
<path class="cls-4" d="m776.62,267.48c.19,0,.34.06.45.17.11.11.16.26.16.44v1.06h-8.68v-.6c0-.12.02-.25.07-.38s.13-.26.24-.36l4.09-4.09c.34-.34.65-.67.93-.99.28-.32.51-.63.7-.95.19-.32.34-.64.45-.97.11-.33.16-.68.16-1.04s-.06-.68-.17-.95c-.11-.27-.27-.5-.47-.68-.2-.18-.43-.31-.7-.41-.27-.09-.56-.13-.87-.13s-.6.04-.86.13c-.26.09-.49.22-.7.38s-.38.35-.51.58c-.14.22-.24.46-.3.72-.08.23-.19.38-.32.46-.13.08-.32.1-.56.05l-.92-.16c.08-.6.25-1.13.5-1.58s.56-.84.93-1.15c.37-.31.8-.54,1.28-.7.48-.16,1-.23,1.56-.23s1.08.08,1.56.25c.48.16.89.4,1.24.71s.62.69.82,1.14c.2.45.3.95.3,1.52,0,.48-.07.93-.21,1.34-.14.41-.33.8-.58,1.17-.24.37-.52.73-.85,1.08-.32.35-.66.71-1.02,1.07l-3.28,3.35c.25-.07.51-.12.76-.16s.5-.06.72-.06h4.08Z"></path>
</g>
<path class="cls-4" d="m209.83,150h-1v-5h1v5Zm0-8h-1v-5h1v5Zm0-8h-1v-5h1v5Zm0-8h-1v-5h1v5Zm0-8h-1v-5h1v5Zm0-8h-1v-5h1v5Z"></path>
<path class="cls-4" d="m345,210.5h-1v-1.5h1v1.5Zm0-4.5h-1v-5h1v5Zm0-8h-1v-5h1v5Zm0-8h-1v-5h1v5Zm0-8h-1v-5h1v5Zm0-8h-1v-5h1v5Zm0-8h-1v-5h1v5Zm0-8h-1v-5h1v5Zm0-8h-1v-5h1v5Zm0-8h-1v-5h1v5Zm0-8h-1v-5h1v5Zm0-8h-1v-5h1v5Zm0-8h-1v-5h1v5Zm0-8h-1v-5h1v5Z"></path>
<rect class="cls-2" height="45" width="105" x="359.33" y="105"></rect>
<g>
<path class="cls-3" d="m407.84,134.14h-1.48c-.17,0-.31-.04-.41-.13-.11-.08-.19-.19-.23-.32l-1.14-3h-5.7l-1.14,3c-.04.12-.12.22-.23.31-.11.09-.25.14-.41.14h-1.48l5.15-12.92h1.93l5.15,12.92Zm-3.79-4.82l-1.92-5.01c-.14-.34-.28-.77-.41-1.3-.07.26-.13.5-.2.72-.07.22-.14.42-.2.59l-1.91,5h4.64Z"></path>
<path class="cls-3" d="m410.72,126.37c.19-.23.4-.44.62-.63.22-.19.45-.35.71-.49.25-.13.52-.24.81-.31.29-.07.59-.11.91-.11.52,0,.99.1,1.42.31.42.2.78.5,1.08.9.3.4.53.88.7,1.47s.25,1.25.25,2.01c0,.68-.09,1.31-.27,1.88-.18.58-.44,1.08-.78,1.51s-.75.76-1.24,1c-.49.24-1.04.36-1.65.36-.55,0-1.01-.09-1.4-.27-.39-.18-.74-.43-1.04-.76v3.97h-1.75v-12.21h1.05c.25,0,.4.12.46.35l.15,1.02Zm.09,5.53c.29.38.6.64.93.79.33.15.71.23,1.12.23.8,0,1.43-.29,1.87-.87.44-.58.66-1.42.66-2.53,0-.58-.05-1.08-.15-1.49-.1-.41-.24-.75-.43-1.01-.19-.26-.42-.45-.7-.58s-.59-.18-.94-.18c-.51,0-.95.11-1.33.34-.38.23-.72.55-1.04.97v4.33Z"></path>
<path class="cls-3" d="m420.84,126.37c.19-.23.4-.44.62-.63.22-.19.45-.35.71-.49.25-.13.52-.24.81-.31.29-.07.59-.11.91-.11.52,0,.99.1,1.42.31.42.2.78.5,1.08.9.3.4.53.88.7,1.47s.25,1.25.25,2.01c0,.68-.09,1.31-.27,1.88-.18.58-.44,1.08-.78,1.51s-.75.76-1.24,1c-.49.24-1.04.36-1.65.36-.55,0-1.01-.09-1.4-.27-.39-.18-.74-.43-1.04-.76v3.97h-1.75v-12.21h1.05c.25,0,.4.12.46.35l.15,1.02Zm.09,5.53c.29.38.6.64.93.79.33.15.71.23,1.12.23.8,0,1.43-.29,1.87-.87.44-.58.66-1.42.66-2.53,0-.58-.05-1.08-.15-1.49-.1-.41-.24-.75-.43-1.01-.19-.26-.42-.45-.7-.58s-.59-.18-.94-.18c-.51,0-.95.11-1.33.34-.38.23-.72.55-1.04.97v4.33Z"></path>
</g>
<rect class="cls-2" height="45" width="105" x="494.33" y="105"></rect>
<g>
<path class="cls-3" d="m542.84,134.14h-1.48c-.17,0-.31-.04-.41-.13-.11-.08-.19-.19-.23-.32l-1.14-3h-5.7l-1.14,3c-.04.12-.12.22-.23.31-.11.09-.25.14-.41.14h-1.48l5.15-12.92h1.93l5.15,12.92Zm-3.79-4.82l-1.92-5.01c-.14-.34-.28-.77-.41-1.3-.07.26-.13.5-.2.72-.07.22-.14.42-.2.59l-1.91,5h4.64Z"></path>
<path class="cls-3" d="m545.72,126.37c.19-.23.4-.44.62-.63.22-.19.45-.35.71-.49.25-.13.52-.24.81-.31.29-.07.59-.11.91-.11.52,0,.99.1,1.42.31.42.2.78.5,1.08.9.3.4.53.88.7,1.47s.25,1.25.25,2.01c0,.68-.09,1.31-.27,1.88-.18.58-.44,1.08-.78,1.51s-.75.76-1.24,1c-.49.24-1.04.36-1.65.36-.55,0-1.01-.09-1.4-.27-.39-.18-.74-.43-1.04-.76v3.97h-1.75v-12.21h1.05c.25,0,.4.12.46.35l.15,1.02Zm.09,5.53c.29.38.6.64.93.79.33.15.71.23,1.12.23.8,0,1.43-.29,1.87-.87.44-.58.66-1.42.66-2.53,0-.58-.05-1.08-.15-1.49-.1-.41-.24-.75-.43-1.01-.19-.26-.42-.45-.7-.58s-.59-.18-.94-.18c-.51,0-.95.11-1.33.34-.38.23-.72.55-1.04.97v4.33Z"></path>
<path class="cls-3" d="m555.84,126.37c.19-.23.4-.44.62-.63.22-.19.45-.35.71-.49.25-.13.52-.24.81-.31.29-.07.59-.11.91-.11.52,0,.99.1,1.42.31.42.2.78.5,1.08.9.3.4.53.88.7,1.47s.25,1.25.25,2.01c0,.68-.09,1.31-.27,1.88-.18.58-.44,1.08-.78,1.51s-.75.76-1.24,1c-.49.24-1.04.36-1.65.36-.55,0-1.01-.09-1.4-.27-.39-.18-.74-.43-1.04-.76v3.97h-1.75v-12.21h1.05c.25,0,.4.12.46.35l.15,1.02Zm.09,5.53c.29.38.6.64.93.79.33.15.71.23,1.12.23.8,0,1.43-.29,1.87-.87.44-.58.66-1.42.66-2.53,0-.58-.05-1.08-.15-1.49-.1-.41-.24-.75-.43-1.01-.19-.26-.42-.45-.7-.58s-.59-.18-.94-.18c-.51,0-.95.11-1.33.34-.38.23-.72.55-1.04.97v4.33Z"></path>
</g>
<rect class="cls-2" height="45" width="240" x="359" y="165"></rect>
<g>
<path class="cls-3" d="m458.75,194.14h-1.71c-.34,0-.59-.13-.75-.41l-3.2-4.48c-.1-.15-.21-.26-.33-.32s-.3-.09-.54-.09h-1.25v5.3h-1.92v-12.92h3.73c.83,0,1.55.08,2.16.26.6.17,1.1.41,1.49.73.39.32.68.7.87,1.14.19.44.28.94.28,1.49,0,.45-.07.87-.21,1.27-.14.4-.34.75-.61,1.07-.27.31-.59.59-.98.81s-.82.4-1.3.52c.24.14.45.35.62.6l3.64,5.03Zm-6.03-6.7c.49,0,.93-.06,1.3-.18.38-.12.69-.29.94-.51s.44-.48.57-.78.19-.64.19-1c0-.74-.24-1.3-.73-1.68s-1.22-.57-2.2-.57h-1.81v4.73h1.75Z"></path>
<path class="cls-3" d="m462.09,182.17c0,.16-.03.32-.1.46-.07.15-.15.28-.27.39-.11.11-.24.2-.39.26-.15.06-.31.09-.47.09s-.31-.03-.46-.09c-.14-.06-.27-.15-.38-.26-.11-.11-.2-.24-.26-.39-.06-.15-.09-.3-.09-.46s.03-.33.09-.47c.06-.15.15-.28.26-.39.11-.11.24-.2.38-.26.14-.06.3-.09.46-.09s.32.03.47.09c.15.06.28.15.39.26.11.11.2.24.27.39.07.15.1.3.1.47Zm-.33,2.83v9.14h-1.75v-9.14h1.75Z"></path>
<path class="cls-3" d="m470.71,186.71c-.05.07-.11.12-.16.16s-.12.06-.22.06-.2-.04-.3-.11c-.11-.08-.24-.16-.4-.24-.16-.09-.35-.17-.58-.24-.22-.08-.5-.11-.83-.11-.43,0-.81.08-1.14.23s-.6.38-.82.67c-.22.29-.39.64-.5,1.05-.11.41-.17.88-.17,1.39s.06,1.01.18,1.43c.12.42.29.77.51,1.05s.49.5.81.65c.32.15.67.22,1.06.22s.69-.05.94-.14c.25-.09.45-.19.61-.3.16-.11.3-.21.41-.3.11-.09.22-.14.33-.14.14,0,.25.05.33.16l.5.65c-.21.26-.45.48-.71.66-.26.18-.54.33-.83.44-.29.11-.6.2-.92.25-.32.05-.65.08-.98.08-.57,0-1.1-.1-1.6-.31s-.92-.52-1.29-.92c-.36-.4-.65-.9-.86-1.48-.21-.58-.32-1.25-.32-1.99,0-.68.09-1.3.28-1.88.19-.58.47-1.07.84-1.49.37-.42.82-.74,1.36-.98.54-.24,1.16-.36,1.85-.36.65,0,1.23.11,1.73.32s.94.51,1.33.89l-.47.65Z"></path>
<path class="cls-3" d="m474.67,186.16c.38-.39.81-.71,1.27-.95.46-.24,1-.36,1.61-.36.5,0,.95.08,1.33.25s.7.4.96.71c.26.3.45.67.58,1.09s.2.9.2,1.41v5.82h-1.76v-5.82c0-.65-.15-1.16-.45-1.53-.3-.36-.76-.54-1.38-.54-.45,0-.87.11-1.26.32-.39.21-.76.5-1.09.87v6.71h-1.75v-13.29h1.75v5.3Z"></path>
<path class="cls-3" d="m499.93,187.68c0,.97-.15,1.85-.46,2.66-.31.81-.75,1.5-1.31,2.09-.56.58-1.24,1.04-2.03,1.36s-1.66.49-2.62.49-1.83-.16-2.61-.49-1.46-.78-2.03-1.36c-.56-.58-1-1.28-1.31-2.09-.31-.81-.47-1.69-.47-2.66s.16-1.84.47-2.65c.31-.81.75-1.51,1.31-2.09.56-.58,1.24-1.04,2.03-1.37.79-.33,1.66-.49,2.61-.49s1.83.16,2.62.49c.79.33,1.46.78,2.03,1.37.56.58,1,1.28,1.31,2.09.31.81.46,1.7.46,2.65Zm-1.96,0c0-.77-.1-1.46-.31-2.07-.21-.61-.51-1.13-.9-1.56-.39-.43-.86-.75-1.4-.98s-1.16-.34-1.84-.34-1.29.11-1.84.34c-.55.23-1.02.55-1.41.98-.39.43-.69.95-.9,1.56-.21.61-.32,1.3-.32,2.07s.11,1.47.32,2.07c.21.61.51,1.13.9,1.55.39.43.86.75,1.41.98.55.23,1.16.34,1.84.34s1.29-.11,1.84-.34c.55-.22,1.02-.55,1.4-.98.39-.43.68-.94.9-1.55.21-.61.31-1.3.31-2.07Z"></path>
<path class="cls-3" d="m509.02,183.32c-.06.1-.12.18-.19.22-.07.05-.15.07-.25.07s-.23-.05-.37-.15c-.14-.1-.31-.21-.52-.33s-.45-.23-.74-.33-.63-.15-1.04-.15c-.38,0-.71.05-.99.15s-.52.23-.72.4c-.19.17-.34.37-.44.6-.1.23-.15.48-.15.75,0,.35.09.64.27.86.18.23.41.42.7.59s.62.3.98.42c.37.12.74.25,1.12.37.38.13.76.28,1.12.45.37.17.69.38.98.63s.52.57.7.94c.18.37.26.82.26,1.35,0,.57-.1,1.1-.29,1.6-.2.5-.48.93-.85,1.3s-.83.67-1.37.88c-.54.21-1.16.32-1.85.32-.41,0-.82-.04-1.21-.12-.39-.08-.76-.19-1.11-.34-.35-.15-.67-.32-.98-.53s-.57-.44-.81-.7l.55-.92c.05-.07.12-.13.19-.18.08-.05.16-.07.26-.07.13,0,.27.07.44.2s.37.28.61.44c.24.16.53.3.87.44s.75.2,1.24.2c.4,0,.75-.05,1.06-.16.31-.1.58-.25.79-.45s.38-.43.49-.71c.11-.28.17-.58.17-.92,0-.38-.09-.69-.26-.93-.17-.24-.41-.44-.69-.6s-.62-.3-.98-.41c-.37-.11-.74-.23-1.12-.36s-.76-.27-1.12-.43c-.37-.16-.69-.37-.98-.63-.29-.26-.52-.59-.69-.98-.17-.39-.26-.88-.26-1.45,0-.46.09-.91.27-1.34s.44-.81.79-1.15.77-.6,1.27-.8c.5-.2,1.08-.3,1.73-.3.73,0,1.39.12,2,.35.61.23,1.14.56,1.59,1l-.47.91Z"></path>
</g>
<rect class="cls-1" height="45" width="240" x="629" y="105"></rect>
<g>
<path class="cls-3" d="m694.77,122.82h-4.1v11.32h-1.91v-11.32h-4.12v-1.6h10.13v1.6Z"></path>
<path class="cls-3" d="m695.99,126.75c.29-.6.65-1.07,1.06-1.41s.91-.51,1.49-.51c.2,0,.38.02.56.07.18.04.33.11.46.2l-.12,1.32c-.04.16-.14.24-.3.24-.08,0-.21-.02-.38-.05s-.35-.05-.54-.05c-.28,0-.53.04-.75.12-.22.08-.41.2-.58.36-.17.16-.32.36-.45.59-.13.23-.26.49-.37.79v5.72h-1.75v-9.14h1.01c.19,0,.32.04.39.1.07.07.12.19.15.37l.11,1.29Z"></path>
<path class="cls-3" d="m708.54,125v9.14h-1.05c-.24,0-.4-.12-.47-.35l-.13-.92c-.2.21-.41.4-.62.58-.22.17-.45.32-.69.45s-.51.22-.78.29c-.28.07-.57.1-.89.1-.5,0-.95-.08-1.33-.25-.38-.17-.7-.4-.96-.71s-.45-.67-.58-1.09-.2-.9-.2-1.41v-5.82h1.76v5.82c0,.65.15,1.16.45,1.53.3.36.76.54,1.38.54.45,0,.87-.11,1.26-.32.39-.21.76-.51,1.1-.88v-6.7h1.75Z"></path>
<path class="cls-3" d="m716.38,126.57c-.05.08-.1.13-.15.17-.05.03-.12.05-.21.05-.1,0-.2-.03-.32-.1-.12-.07-.26-.14-.42-.21s-.36-.15-.58-.22c-.22-.07-.49-.1-.79-.1-.25,0-.48.03-.69.09-.21.06-.38.15-.53.26-.14.11-.25.24-.33.4-.08.15-.12.32-.12.49,0,.23.07.42.2.57.13.15.31.28.53.39.22.11.47.21.75.29.28.09.56.18.85.27s.58.21.86.33c.28.12.53.28.75.46.22.18.4.4.53.66.14.26.2.57.2.95,0,.43-.08.82-.23,1.18-.15.36-.38.68-.67.94-.3.26-.67.47-1.1.62-.44.15-.94.23-1.5.23-.63,0-1.21-.1-1.75-.32-.53-.21-.98-.48-1.34-.8l.41-.67c.05-.08.11-.15.18-.19.07-.05.17-.07.29-.07.11,0,.23.04.35.12.12.08.26.18.43.28.17.1.37.19.61.27.24.08.54.12.9.12.3,0,.56-.04.78-.11.22-.08.41-.18.55-.31.15-.13.26-.28.33-.45.07-.17.11-.35.11-.53,0-.24-.07-.44-.2-.6-.13-.16-.31-.3-.53-.41-.22-.11-.47-.21-.75-.3-.28-.08-.57-.17-.86-.27-.29-.1-.58-.21-.86-.33-.28-.12-.53-.29-.75-.48-.22-.19-.4-.43-.53-.7s-.2-.61-.2-1.01c0-.35.07-.69.22-1.02.15-.32.36-.61.64-.86.28-.25.62-.44,1.03-.59.41-.15.88-.22,1.41-.22.61,0,1.15.1,1.64.29.49.19.91.46,1.25.79l-.39.64Z"></path>
<path class="cls-3" d="m721.68,134.29c-.74,0-1.31-.21-1.71-.62-.4-.41-.6-1-.6-1.77v-5.47h-1.06c-.1,0-.19-.03-.26-.09-.07-.06-.1-.16-.1-.28v-.71l1.48-.21.4-2.73c.02-.1.07-.18.14-.24.07-.06.16-.08.27-.08h.89v3.07h2.59v1.28h-2.59v5.36c0,.36.09.63.27.8.18.18.4.27.68.27.16,0,.3-.02.42-.06.12-.04.22-.09.3-.14.08-.05.16-.1.22-.14.06-.04.11-.06.16-.06.06,0,.11.01.14.04.03.03.07.07.1.13l.52.85c-.29.26-.63.47-1.03.61-.4.14-.81.22-1.23.22Z"></path>
<path class="cls-3" d="m732.78,132.84c-.22.25-.46.47-.75.65-.28.18-.58.33-.9.45-.32.11-.65.2-.99.25-.34.05-.67.08-1,.08-.63,0-1.21-.11-1.75-.32s-1-.53-1.4-.94c-.39-.41-.7-.92-.92-1.53-.22-.61-.33-1.31-.33-2.1,0-.64.1-1.23.3-1.78s.48-1.03.85-1.44.82-.73,1.35-.96,1.13-.35,1.8-.35c.56,0,1.07.09,1.54.28.47.18.88.45,1.22.8.34.35.61.78.8,1.29.2.51.29,1.09.29,1.75,0,.27-.03.45-.09.54-.06.09-.17.14-.33.14h-5.99c.02.54.1,1.02.23,1.43.14.41.33.74.57,1.01s.53.47.87.6c.34.13.71.2,1.12.2.39,0,.73-.05,1.01-.14s.53-.19.74-.29c.21-.11.38-.2.52-.29s.27-.13.37-.13c.14,0,.25.05.33.16l.5.65Zm-1.45-4.28c0-.35-.05-.67-.15-.96-.1-.29-.25-.55-.44-.76-.19-.22-.43-.38-.7-.5s-.59-.18-.95-.18c-.74,0-1.32.21-1.74.64-.42.43-.69,1.02-.81,1.77h4.79Z"></path>
<path class="cls-3" d="m742.46,120.86v13.29h-1.06c-.25,0-.4-.12-.46-.35l-.15-1.05c-.39.46-.83.83-1.33,1.11s-1.07.42-1.71.42c-.52,0-.99-.1-1.42-.31s-.79-.5-1.08-.9-.53-.88-.69-1.46c-.16-.58-.24-1.25-.24-2.01,0-.68.09-1.31.27-1.89.18-.58.44-1.09.78-1.51s.76-.76,1.24-1c.49-.24,1.04-.36,1.65-.36.55,0,1.02.09,1.41.27.39.18.73.43,1.04.76v-5h1.76Zm-1.76,6.35c-.29-.38-.6-.64-.93-.79s-.71-.22-1.12-.22c-.8,0-1.43.29-1.87.87-.44.58-.66,1.42-.66,2.53,0,.58.05,1.08.15,1.49.1.41.24.75.43,1.01.19.26.42.45.7.58.28.12.59.19.94.19.51,0,.95-.11,1.32-.34.37-.23.72-.55,1.04-.96v-4.34Z"></path>
<path class="cls-3" d="m756.51,123.32c-.06.1-.12.18-.19.22-.07.05-.15.07-.25.07s-.23-.05-.37-.15c-.14-.1-.31-.21-.52-.33s-.45-.23-.74-.33-.63-.15-1.04-.15c-.38,0-.71.05-.99.15s-.52.23-.72.4c-.19.17-.34.37-.44.6-.1.23-.15.48-.15.75,0,.35.09.64.27.86.18.23.41.42.7.59s.62.3.98.42c.37.12.74.25,1.12.37.38.13.76.28,1.12.45.37.17.69.38.98.63s.52.57.7.94c.18.37.26.82.26,1.35,0,.57-.1,1.1-.29,1.6-.2.5-.48.93-.85,1.3s-.83.67-1.37.88c-.54.21-1.16.32-1.85.32-.41,0-.82-.04-1.21-.12-.39-.08-.76-.19-1.11-.34-.35-.15-.67-.32-.98-.53s-.57-.44-.81-.7l.55-.92c.05-.07.12-.13.19-.18.08-.05.16-.07.26-.07.13,0,.27.07.44.2s.37.28.61.44c.24.16.53.3.87.44s.75.2,1.24.2c.4,0,.75-.05,1.06-.16.31-.1.58-.25.79-.45s.38-.43.49-.71c.11-.28.17-.58.17-.92,0-.38-.09-.69-.26-.93-.17-.24-.41-.44-.69-.6s-.62-.3-.98-.41c-.37-.11-.74-.23-1.12-.36s-.76-.27-1.12-.43c-.37-.16-.69-.37-.98-.63-.29-.26-.52-.59-.69-.98-.17-.39-.26-.88-.26-1.45,0-.46.09-.91.27-1.34s.44-.81.79-1.15.77-.6,1.27-.8c.5-.2,1.08-.3,1.73-.3.73,0,1.39.12,2,.35.61.23,1.14.56,1.59,1l-.47.91Z"></path>
<path class="cls-3" d="m766.72,132.84c-.22.25-.46.47-.75.65-.28.18-.58.33-.9.45-.32.11-.65.2-.99.25-.34.05-.67.08-1,.08-.63,0-1.21-.11-1.75-.32s-1-.53-1.4-.94c-.39-.41-.7-.92-.92-1.53-.22-.61-.33-1.31-.33-2.1,0-.64.1-1.23.3-1.78s.48-1.03.85-1.44.82-.73,1.35-.96,1.13-.35,1.8-.35c.56,0,1.07.09,1.54.28.47.18.88.45,1.22.8.34.35.61.78.8,1.29.2.51.29,1.09.29,1.75,0,.27-.03.45-.09.54-.06.09-.17.14-.33.14h-5.99c.02.54.1,1.02.23,1.43.14.41.33.74.57,1.01s.53.47.87.6c.34.13.71.2,1.12.2.39,0,.73-.05,1.01-.14s.53-.19.74-.29c.21-.11.38-.2.52-.29s.27-.13.37-.13c.14,0,.25.05.33.16l.5.65Zm-1.45-4.28c0-.35-.05-.67-.15-.96-.1-.29-.25-.55-.44-.76-.19-.22-.43-.38-.7-.5s-.59-.18-.95-.18c-.74,0-1.32.21-1.74.64-.42.43-.69,1.02-.81,1.77h4.79Z"></path>
<path class="cls-3" d="m770.4,126.75c.29-.6.65-1.07,1.06-1.41s.91-.51,1.49-.51c.2,0,.38.02.56.07.18.04.33.11.46.2l-.12,1.32c-.04.16-.14.24-.3.24-.08,0-.21-.02-.38-.05s-.35-.05-.54-.05c-.28,0-.53.04-.75.12-.22.08-.41.2-.58.36-.17.16-.32.36-.45.59-.13.23-.26.49-.37.79v5.72h-1.75v-9.14h1.01c.19,0,.32.04.39.1.07.07.12.19.15.37l.11,1.29Z"></path>
<path class="cls-3" d="m783.28,125l-3.71,9.14h-1.58l-3.71-9.14h1.45c.14,0,.25.03.34.1.09.07.15.15.18.25l2.19,5.62c.08.23.15.47.2.7.06.23.11.46.16.69.05-.23.1-.46.16-.68.06-.23.13-.46.22-.7l2.21-5.62c.04-.1.1-.19.19-.25.09-.07.2-.1.32-.1h1.38Z"></path>
<path class="cls-3" d="m786.85,122.17c0,.16-.03.32-.1.46-.07.15-.15.28-.27.39-.11.11-.24.2-.39.26-.15.06-.31.09-.47.09s-.31-.03-.46-.09c-.14-.06-.27-.15-.38-.26-.11-.11-.2-.24-.26-.39-.06-.15-.09-.3-.09-.46s.03-.33.09-.47c.06-.15.15-.28.26-.39.11-.11.24-.2.38-.26.14-.06.3-.09.46-.09s.32.03.47.09c.15.06.28.15.39.26.11.11.2.24.27.39.07.15.1.3.1.47Zm-.33,2.83v9.14h-1.75v-9.14h1.75Z"></path>
<path class="cls-3" d="m795.48,126.71c-.05.07-.11.12-.16.16s-.12.06-.22.06-.2-.04-.3-.11c-.11-.08-.24-.16-.4-.24-.16-.09-.35-.17-.58-.24-.22-.08-.5-.11-.83-.11-.43,0-.81.08-1.14.23s-.6.38-.82.67c-.22.29-.39.64-.5,1.05-.11.41-.17.88-.17,1.39s.06,1.01.18,1.43c.12.42.29.77.51,1.05s.49.5.81.65c.32.15.67.22,1.06.22s.69-.05.94-.14c.25-.09.45-.19.61-.3.16-.11.3-.21.41-.3.11-.09.22-.14.33-.14.14,0,.25.05.33.16l.5.65c-.21.26-.45.48-.71.66-.26.18-.54.33-.83.44-.29.11-.6.2-.92.25-.32.05-.65.08-.98.08-.57,0-1.1-.1-1.6-.31s-.92-.52-1.29-.92c-.36-.4-.65-.9-.86-1.48-.21-.58-.32-1.25-.32-1.99,0-.68.09-1.3.28-1.88.19-.58.47-1.07.84-1.49.37-.42.82-.74,1.36-.98.54-.24,1.16-.36,1.85-.36.65,0,1.23.11,1.73.32s.94.51,1.33.89l-.47.65Z"></path>
<path class="cls-3" d="m805.02,132.84c-.22.25-.46.47-.75.65-.28.18-.58.33-.9.45-.32.11-.65.2-.99.25-.34.05-.67.08-1,.08-.63,0-1.21-.11-1.75-.32s-1-.53-1.4-.94c-.39-.41-.7-.92-.92-1.53-.22-.61-.33-1.31-.33-2.1,0-.64.1-1.23.3-1.78s.48-1.03.85-1.44.82-.73,1.35-.96,1.13-.35,1.8-.35c.56,0,1.07.09,1.54.28.47.18.88.45,1.22.8.34.35.61.78.8,1.29.2.51.29,1.09.29,1.75,0,.27-.03.45-.09.54-.06.09-.17.14-.33.14h-5.99c.02.54.1,1.02.23,1.43.14.41.33.74.57,1.01s.53.47.87.6c.34.13.71.2,1.12.2.39,0,.73-.05,1.01-.14s.53-.19.74-.29c.21-.11.38-.2.52-.29s.27-.13.37-.13c.14,0,.25.05.33.16l.5.65Zm-1.45-4.28c0-.35-.05-.67-.15-.96-.1-.29-.25-.55-.44-.76-.19-.22-.43-.38-.7-.5s-.59-.18-.95-.18c-.74,0-1.32.21-1.74.64-.42.43-.69,1.02-.81,1.77h4.79Z"></path>
<path class="cls-3" d="m812.44,126.57c-.05.08-.1.13-.15.17-.05.03-.12.05-.21.05-.1,0-.2-.03-.32-.1-.12-.07-.26-.14-.42-.21s-.36-.15-.58-.22c-.22-.07-.49-.1-.79-.1-.25,0-.48.03-.69.09-.21.06-.38.15-.53.26-.14.11-.25.24-.33.4-.08.15-.12.32-.12.49,0,.23.07.42.2.57.13.15.31.28.53.39.22.11.47.21.75.29.28.09.56.18.85.27s.58.21.86.33c.28.12.53.28.75.46.22.18.4.4.53.66.14.26.2.57.2.95,0,.43-.08.82-.23,1.18-.15.36-.38.68-.67.94-.3.26-.67.47-1.1.62-.44.15-.94.23-1.5.23-.63,0-1.21-.1-1.75-.32-.53-.21-.98-.48-1.34-.8l.41-.67c.05-.08.11-.15.18-.19.07-.05.17-.07.29-.07.11,0,.23.04.35.12.12.08.26.18.43.28.17.1.37.19.61.27.24.08.54.12.9.12.3,0,.56-.04.78-.11.22-.08.41-.18.55-.31.15-.13.26-.28.33-.45.07-.17.11-.35.11-.53,0-.24-.07-.44-.2-.6-.13-.16-.31-.3-.53-.41-.22-.11-.47-.21-.75-.3-.28-.08-.57-.17-.86-.27-.29-.1-.58-.21-.86-.33-.28-.12-.53-.29-.75-.48-.22-.19-.4-.43-.53-.7s-.2-.61-.2-1.01c0-.35.07-.69.22-1.02.15-.32.36-.61.64-.86.28-.25.62-.44,1.03-.59.41-.15.88-.22,1.41-.22.61,0,1.15.1,1.64.29.49.19.91.46,1.25.79l-.39.64Z"></path>
</g>
<rect class="cls-1" height="45" width="240" x="629" y="165"></rect>
<g>
<path class="cls-3" d="m715.35,182.82h-4.1v11.32h-1.91v-11.32h-4.12v-1.6h10.13v1.6Z"></path>
<path class="cls-3" d="m716.57,186.75c.29-.6.65-1.07,1.06-1.41s.91-.51,1.49-.51c.2,0,.38.02.56.07.18.04.33.11.46.2l-.12,1.32c-.04.16-.14.24-.3.24-.08,0-.21-.02-.38-.05s-.35-.05-.54-.05c-.28,0-.53.04-.75.12-.22.08-.41.2-.58.36-.17.16-.32.36-.45.59-.13.23-.26.49-.37.79v5.72h-1.75v-9.14h1.01c.19,0,.32.04.39.1.07.07.12.19.15.37l.11,1.29Z"></path>
<path class="cls-3" d="m729.12,185v9.14h-1.05c-.24,0-.4-.12-.47-.35l-.13-.92c-.2.21-.41.4-.62.58-.22.17-.45.32-.69.45s-.51.22-.78.29c-.28.07-.57.1-.89.1-.5,0-.95-.08-1.33-.25-.38-.17-.7-.4-.96-.71s-.45-.67-.58-1.09-.2-.9-.2-1.41v-5.82h1.76v5.82c0,.65.15,1.16.45,1.53.3.36.76.54,1.38.54.45,0,.87-.11,1.26-.32.39-.21.76-.51,1.1-.88v-6.7h1.75Z"></path>
<path class="cls-3" d="m736.97,186.57c-.05.08-.1.13-.15.17-.05.03-.12.05-.21.05-.1,0-.2-.03-.32-.1-.12-.07-.26-.14-.42-.21s-.36-.15-.58-.22c-.22-.07-.49-.1-.79-.1-.25,0-.48.03-.69.09-.21.06-.38.15-.53.26-.14.11-.25.24-.33.4-.08.15-.12.32-.12.49,0,.23.07.42.2.57.13.15.31.28.53.39.22.11.47.21.75.29.28.09.56.18.85.27s.58.21.86.33c.28.12.53.28.75.46.22.18.4.4.53.66.14.26.2.57.2.95,0,.43-.08.82-.23,1.18-.15.36-.38.68-.67.94-.3.26-.67.47-1.1.62-.44.15-.94.23-1.5.23-.63,0-1.21-.1-1.75-.32-.53-.21-.98-.48-1.34-.8l.41-.67c.05-.08.11-.15.18-.19.07-.05.17-.07.29-.07.11,0,.23.04.35.12.12.08.26.18.43.28.17.1.37.19.61.27.24.08.54.12.9.12.3,0,.56-.04.78-.11.22-.08.41-.18.55-.31.15-.13.26-.28.33-.45.07-.17.11-.35.11-.53,0-.24-.07-.44-.2-.6-.13-.16-.31-.3-.53-.41-.22-.11-.47-.21-.75-.3-.28-.08-.57-.17-.86-.27-.29-.1-.58-.21-.86-.33-.28-.12-.53-.29-.75-.48-.22-.19-.4-.43-.53-.7s-.2-.61-.2-1.01c0-.35.07-.69.22-1.02.15-.32.36-.61.64-.86.28-.25.62-.44,1.03-.59.41-.15.88-.22,1.41-.22.61,0,1.15.1,1.64.29.49.19.91.46,1.25.79l-.39.64Z"></path>
<path class="cls-3" d="m742.26,194.29c-.74,0-1.31-.21-1.71-.62-.4-.41-.6-1-.6-1.77v-5.47h-1.06c-.1,0-.19-.03-.26-.09-.07-.06-.1-.16-.1-.28v-.71l1.48-.21.4-2.73c.02-.1.07-.18.14-.24.07-.06.16-.08.27-.08h.89v3.07h2.59v1.28h-2.59v5.36c0,.36.09.63.27.8.18.18.4.27.68.27.16,0,.3-.02.42-.06.12-.04.22-.09.3-.14.08-.05.16-.1.22-.14.06-.04.11-.06.16-.06.06,0,.11.01.14.04.03.03.07.07.1.13l.52.85c-.29.26-.63.47-1.03.61-.4.14-.81.22-1.23.22Z"></path>
<path class="cls-3" d="m753.36,192.84c-.22.25-.46.47-.75.65-.28.18-.58.33-.9.45-.32.11-.65.2-.99.25-.34.05-.67.08-1,.08-.63,0-1.21-.11-1.75-.32s-1-.53-1.4-.94c-.39-.41-.7-.92-.92-1.53-.22-.61-.33-1.31-.33-2.1,0-.64.1-1.23.3-1.78s.48-1.03.85-1.44.82-.73,1.35-.96,1.13-.35,1.8-.35c.56,0,1.07.09,1.54.28.47.18.88.45,1.22.8.34.35.61.78.8,1.29.2.51.29,1.09.29,1.75,0,.27-.03.45-.09.54-.06.09-.17.14-.33.14h-5.99c.02.54.1,1.02.23,1.43.14.41.33.74.57,1.01s.53.47.87.6c.34.13.71.2,1.12.2.39,0,.73-.05,1.01-.14s.53-.19.74-.29c.21-.11.38-.2.52-.29s.27-.13.37-.13c.14,0,.25.05.33.16l.5.65Zm-1.45-4.28c0-.35-.05-.67-.15-.96-.1-.29-.25-.55-.44-.76-.19-.22-.43-.38-.7-.5s-.59-.18-.95-.18c-.74,0-1.32.21-1.74.64-.42.43-.69,1.02-.81,1.77h4.79Z"></path>
<path class="cls-3" d="m763.05,180.86v13.29h-1.06c-.25,0-.4-.12-.46-.35l-.15-1.05c-.39.46-.83.83-1.33,1.11s-1.07.42-1.71.42c-.52,0-.99-.1-1.42-.31s-.79-.5-1.08-.9-.53-.88-.69-1.46c-.16-.58-.24-1.25-.24-2.01,0-.68.09-1.31.27-1.89.18-.58.44-1.09.78-1.51s.76-.76,1.24-1c.49-.24,1.04-.36,1.65-.36.55,0,1.02.09,1.41.27.39.18.73.43,1.04.76v-5h1.76Zm-1.76,6.35c-.29-.38-.6-.64-.93-.79s-.71-.22-1.12-.22c-.8,0-1.43.29-1.87.87-.44.58-.66,1.42-.66,2.53,0,.58.05,1.08.15,1.49.1.41.24.75.43,1.01.19.26.42.45.7.58.28.12.59.19.94.19.51,0,.95-.11,1.32-.34.37-.23.72-.55,1.04-.96v-4.34Z"></path>
<path class="cls-3" d="m782.45,187.68c0,.97-.15,1.85-.46,2.66-.31.81-.75,1.5-1.31,2.09-.56.58-1.24,1.04-2.03,1.36s-1.66.49-2.62.49-1.83-.16-2.61-.49-1.46-.78-2.03-1.36c-.56-.58-1-1.28-1.31-2.09-.31-.81-.47-1.69-.47-2.66s.16-1.84.47-2.65c.31-.81.75-1.51,1.31-2.09.56-.58,1.24-1.04,2.03-1.37.79-.33,1.66-.49,2.61-.49s1.83.16,2.62.49c.79.33,1.46.78,2.03,1.37.56.58,1,1.28,1.31,2.09.31.81.46,1.7.46,2.65Zm-1.96,0c0-.77-.1-1.46-.31-2.07-.21-.61-.51-1.13-.9-1.56-.39-.43-.86-.75-1.4-.98s-1.16-.34-1.84-.34-1.29.11-1.84.34c-.55.23-1.02.55-1.41.98-.39.43-.69.95-.9,1.56-.21.61-.32,1.3-.32,2.07s.11,1.47.32,2.07c.21.61.51,1.13.9,1.55.39.43.86.75,1.41.98.55.23,1.16.34,1.84.34s1.29-.11,1.84-.34c.55-.22,1.02-.55,1.4-.98.39-.43.68-.94.9-1.55.21-.61.31-1.3.31-2.07Z"></path>
<path class="cls-3" d="m791.54,183.32c-.06.1-.12.18-.19.22-.07.05-.15.07-.25.07s-.23-.05-.37-.15c-.14-.1-.31-.21-.52-.33s-.45-.23-.74-.33-.63-.15-1.04-.15c-.38,0-.71.05-.99.15s-.52.23-.72.4c-.19.17-.34.37-.44.6-.1.23-.15.48-.15.75,0,.35.09.64.27.86.18.23.41.42.7.59s.62.3.98.42c.37.12.74.25,1.12.37.38.13.76.28,1.12.45.37.17.69.38.98.63s.52.57.7.94c.18.37.26.82.26,1.35,0,.57-.1,1.1-.29,1.6-.2.5-.48.93-.85,1.3s-.83.67-1.37.88c-.54.21-1.16.32-1.85.32-.41,0-.82-.04-1.21-.12-.39-.08-.76-.19-1.11-.34-.35-.15-.67-.32-.98-.53s-.57-.44-.81-.7l.55-.92c.05-.07.12-.13.19-.18.08-.05.16-.07.26-.07.13,0,.27.07.44.2s.37.28.61.44c.24.16.53.3.87.44s.75.2,1.24.2c.4,0,.75-.05,1.06-.16.31-.1.58-.25.79-.45s.38-.43.49-.71c.11-.28.17-.58.17-.92,0-.38-.09-.69-.26-.93-.17-.24-.41-.44-.69-.6s-.62-.3-.98-.41c-.37-.11-.74-.23-1.12-.36s-.76-.27-1.12-.43c-.37-.16-.69-.37-.98-.63-.29-.26-.52-.59-.69-.98-.17-.39-.26-.88-.26-1.45,0-.46.09-.91.27-1.34s.44-.81.79-1.15.77-.6,1.27-.8c.5-.2,1.08-.3,1.73-.3.73,0,1.39.12,2,.35.61.23,1.14.56,1.59,1l-.47.91Z"></path>
</g>
<path class="cls-4" d="m479.83,150h-1v-5h1v5Zm0-8h-1v-5h1v5Zm0-8h-1v-5h1v5Zm0-8h-1v-5h1v5Zm0-8h-1v-5h1v5Zm0-8h-1v-5h1v5Z"></path>
<path class="cls-4" d="m615,301h-2v-1h1v-3h1v4Zm-5,0h-5v-1h5v1Zm-8,0h-5v-1h5v1Zm-8,0h-5v-1h5v1Zm-8,0h-5v-1h5v1Zm-8,0h-5v-1h5v1Zm-8,0h-5v-1h5v1Zm-8,0h-5v-1h5v1Zm-8,0h-5v-1h5v1Zm-8,0h-5v-1h5v1Zm-8,0h-5v-1h5v1Zm-8,0h-5v-1h5v1Zm-8,0h-5v-1h5v1Zm-8,0h-5v-1h5v1Zm-8,0h-5v-1h5v1Zm-8,0h-5v-1h5v1Zm-8,0h-5v-1h5v1Zm-8,0h-5v-1h5v1Zm-8,0h-5v-1h5v1Zm-8,0h-5v-1h5v1Zm-8,0h-5v-1h5v1Zm-8,0h-5v-1h5v1Zm-8,0h-5v-1h5v1Zm-8,0h-5v-1h5v1Zm-8,0h-5v-1h5v1Zm-8,0h-5v-1h5v1Zm-8,0h-5v-1h5v1Zm-8,0h-5v-1h5v1Zm-8,0h-5v-1h5v1Zm-8,0h-5v-1h5v1Zm-8,0h-5v-1h5v1Zm-8,0h-5v-1h5v1Zm-8,0h-5v-1h5v1Zm-8,0h-5v-1h5v1Zm-8,0h-5v-1h5v1Zm-8,0h-5v-1h5v1Zm-8,0h-5v-1h5v1Zm-8,0h-5v-1h5v1Zm-8,0h-5v-1h5v1Zm-8,0h-5v-1h5v1Zm-8,0h-5v-1h5v1Zm-8,0h-5v-1h5v1Zm-8,0h-5v-1h5v1Zm-8,0h-5v-1h5v1Zm-8,0h-5v-1h5v1Zm-8,0h-5v-1h5v1Zm-8,0h-5v-1h5v1Zm-8,0h-5v-1h5v1Zm-8,0h-5v-1h5v1Zm-8,0h-5v-1h5v1Zm-8,0h-5v-1h5v1Zm-8,0h-5v-1h5v1Zm-8,0h-5v-1h5v1Zm-8,0h-5v-1h5v1Zm-8,0h-5v-1h5v1Zm-8,0h-5v-1h5v1Zm-8,0h-5v-1h5v1Zm-8,0h-5v-1h5v1Zm-8,0h-5v-1h5v1Zm-8,0h-5v-1h5v1Zm-8,0h-5v-1h5v1Zm-8,0h-5v-1h5v1Zm-8,0h-5v-1h5v1Zm-8,0h-5v-1h5v1Zm-8,0h-5v-1h5v1Zm-8,0h-5v-1h5v1Zm-8,0h-1v-1h1v1Zm525-7h-1v-5h1v5Zm0-8h-1v-5h1v5Zm0-8h-1v-5h1v5Zm0-8h-1v-5h1v5Zm0-8h-1v-5h1v5Zm0-8h-1v-5h1v5Zm0-8h-1v-5h1v5Zm0-8h-1v-5h1v5Zm0-8h-1v-5h1v5Zm0-8h-1v-5h1v5Zm0-8h-1v-5h1v5Zm0-8h-1v-5h1v5Zm0-8h-1v-5h1v5Zm0-8h-1v-5h1v5Zm0-8h-1v-5h1v5Zm0-8h-1v-5h1v5Zm0-8h-1v-5h1v5Zm0-8h-1v-5h1v5Zm0-8h-1v-5h1v5Zm0-8h-1v-5h1v5Zm0-8h-1v-5h1v5Zm0-8h-1v-5h1v5Zm0-8h-1v-5h1v5Zm0-8h-1v-5h1v5Z"></path>
</svg>