<svg height="345" id="Layer_1" viewbox="0 0 810 345" width="810" xmlns="http://www.w3.org/2000/svg">
<defs>
<style>
      .cls-1 {
        fill: #0091bd;
      }

      .cls-2 {
        fill: #fff;
      }

      .cls-3 {
        fill: #ff6b00;
      }

      .cls-4 {
        fill: #333e48;
      }
    </style>
</defs>
<g>
<rect class="cls-2" height="45" width="135" x="60" y="105"></rect>
<path class="cls-4" d="m195.5,150.5H59.5v-46h136v46Zm-135-1h134v-44H60.5v44Z"></path>
</g>
<g>
<rect class="cls-2" height="45" width="180" x="195" y="105"></rect>
<path class="cls-4" d="m375.5,150.5h-181v-46h181v46Zm-180-1h179v-44h-179v44Z"></path>
</g>
<g>
<rect class="cls-2" height="45" width="180" x="195" y="150"></rect>
<path class="cls-4" d="m375.5,195.5h-181v-46h181v46Zm-180-1h179v-44h-179v44Z"></path>
</g>
<g>
<rect class="cls-2" height="45" width="180" x="195" y="195"></rect>
<path class="cls-4" d="m375.5,240.5h-181v-46h181v46Zm-180-1h179v-44h-179v44Z"></path>
</g>
<g>
<rect class="cls-1" height="45" width="135" x="60" y="60"></rect>
<path class="cls-4" d="m195.5,105.5H59.5v-46h136v46Zm-135-1h134v-44H60.5v44Z"></path>
</g>
<g>
<rect class="cls-1" height="45" width="180" x="195" y="60"></rect>
<path class="cls-4" d="m375.5,105.5h-181v-46h181v46Zm-180-1h179v-44h-179v44Z"></path>
</g>
<g>
<path class="cls-4" d="m96.34,127.68c0,1.13-.12,2.11-.36,2.93-.24.83-.58,1.51-1,2.06-.42.54-.92.95-1.49,1.21s-1.19.4-1.85.4-1.28-.13-1.85-.4-1.07-.67-1.49-1.21c-.42-.54-.75-1.23-.99-2.06-.24-.83-.36-1.81-.36-2.93s.12-2.11.36-2.94c.24-.83.57-1.52.99-2.06s.92-.95,1.49-1.21c.57-.26,1.19-.4,1.85-.4s1.28.13,1.85.4c.57.26,1.07.67,1.49,1.21s.76,1.23,1,2.06c.24.83.36,1.81.36,2.94Zm-1.82,0c0-.97-.08-1.79-.24-2.44s-.37-1.18-.64-1.58c-.27-.4-.58-.68-.92-.85s-.71-.25-1.09-.25-.74.08-1.09.25-.66.45-.92.85c-.27.4-.48.93-.63,1.58-.16.65-.23,1.47-.23,2.44s.08,1.79.23,2.44c.16.65.37,1.18.63,1.57.27.4.58.68.92.85s.71.25,1.09.25.74-.08,1.09-.25.66-.45.92-.85c.27-.4.48-.92.64-1.57s.24-1.47.24-2.44Z"></path>
<path class="cls-4" d="m105.77,134.14h-1.69c-.14,0-.25-.04-.33-.11-.08-.07-.15-.15-.19-.24l-2.2-3.48c-.03.09-.06.18-.09.26-.03.08-.07.16-.12.23l-2.03,2.99c-.06.08-.13.16-.21.24-.08.08-.18.11-.31.11h-1.57l3.19-4.71-3.06-4.44h1.69c.14,0,.24.02.3.06.06.04.12.11.17.19l2.17,3.34c.03-.09.06-.18.1-.26.04-.09.08-.18.14-.28l1.86-2.76c.11-.19.25-.29.43-.29h1.61l-3.06,4.36,3.19,4.79Z"></path>
<path class="cls-4" d="m113.09,127.4c.8.24,1.41.63,1.83,1.16.42.53.63,1.21.63,2.02,0,.56-.11,1.07-.32,1.53-.21.46-.51.84-.9,1.17-.39.32-.85.57-1.39.74s-1.13.26-1.78.26-1.24-.09-1.78-.26c-.54-.17-1-.42-1.39-.74-.39-.32-.69-.71-.9-1.17s-.32-.97-.32-1.53c0-.82.21-1.49.62-2.02.42-.53,1.03-.92,1.83-1.16-.67-.25-1.17-.63-1.5-1.13s-.5-1.1-.5-1.79c0-.48.09-.93.28-1.34s.46-.78.8-1.08c.34-.31.76-.54,1.25-.72.49-.17,1.02-.26,1.61-.26s1.12.09,1.61.26c.49.17.9.41,1.25.72.35.31.61.67.8,1.08.19.42.28.87.28,1.34,0,.69-.17,1.29-.5,1.79s-.84.88-1.5,1.13Zm-1.94,5.49c.41,0,.77-.06,1.09-.17.32-.12.59-.28.81-.48.22-.21.39-.45.5-.74s.17-.6.17-.95c0-.42-.07-.78-.21-1.08s-.32-.55-.56-.75c-.23-.19-.51-.34-.82-.43-.31-.09-.64-.14-.99-.14s-.69.05-1,.14c-.31.09-.58.24-.82.43-.23.19-.42.44-.55.75s-.2.66-.2,1.08c0,.34.06.66.17.95.11.29.28.54.5.74.22.21.49.37.81.48.32.11.68.17,1.09.17Zm0-10.47c-.37,0-.7.06-.98.17-.28.11-.51.26-.7.45-.19.19-.33.41-.42.67-.09.25-.14.52-.14.81s.04.56.12.82.21.5.39.71c.18.21.41.37.69.5.28.13.63.19,1.04.19s.75-.06,1.03-.19c.28-.12.52-.29.69-.5s.31-.44.39-.71.12-.54.12-.82-.05-.56-.14-.81-.23-.47-.42-.67c-.19-.19-.42-.34-.7-.45-.28-.11-.6-.17-.98-.17Z"></path>
<path class="cls-4" d="m126.29,127.68c0,1.13-.12,2.11-.36,2.93-.24.83-.58,1.51-1,2.06-.42.54-.92.95-1.49,1.21s-1.19.4-1.85.4-1.28-.13-1.85-.4-1.07-.67-1.49-1.21c-.42-.54-.75-1.23-.99-2.06-.24-.83-.36-1.81-.36-2.93s.12-2.11.36-2.94c.24-.83.57-1.52.99-2.06s.92-.95,1.49-1.21c.57-.26,1.19-.4,1.85-.4s1.28.13,1.85.4c.57.26,1.07.67,1.49,1.21s.76,1.23,1,2.06c.24.83.36,1.81.36,2.94Zm-1.82,0c0-.97-.08-1.79-.24-2.44s-.37-1.18-.64-1.58c-.27-.4-.58-.68-.92-.85s-.71-.25-1.09-.25-.74.08-1.09.25-.66.45-.92.85c-.27.4-.48.93-.63,1.58-.16.65-.23,1.47-.23,2.44s.08,1.79.23,2.44c.16.65.37,1.18.63,1.57.27.4.58.68.92.85s.71.25,1.09.25.74-.08,1.09-.25.66-.45.92-.85c.27-.4.48-.92.64-1.57s.24-1.47.24-2.44Z"></path>
<path class="cls-4" d="m136.73,127.68c0,1.13-.12,2.11-.36,2.93-.24.83-.58,1.51-1,2.06-.42.54-.92.95-1.49,1.21s-1.19.4-1.85.4-1.28-.13-1.85-.4-1.07-.67-1.49-1.21c-.42-.54-.75-1.23-.99-2.06-.24-.83-.36-1.81-.36-2.93s.12-2.11.36-2.94c.24-.83.57-1.52.99-2.06s.92-.95,1.49-1.21c.57-.26,1.19-.4,1.85-.4s1.28.13,1.85.4c.57.26,1.07.67,1.49,1.21s.76,1.23,1,2.06c.24.83.36,1.81.36,2.94Zm-1.82,0c0-.97-.08-1.79-.24-2.44s-.37-1.18-.64-1.58c-.27-.4-.58-.68-.92-.85s-.71-.25-1.09-.25-.74.08-1.09.25-.66.45-.92.85c-.27.4-.48.93-.63,1.58-.16.65-.23,1.47-.23,2.44s.08,1.79.23,2.44c.16.65.37,1.18.63,1.57.27.4.58.68.92.85s.71.25,1.09.25.74-.08,1.09-.25.66-.45.92-.85c.27-.4.48-.92.64-1.57s.24-1.47.24-2.44Z"></path>
<path class="cls-4" d="m147.17,127.68c0,1.13-.12,2.11-.36,2.93-.24.83-.58,1.51-1,2.06-.42.54-.92.95-1.49,1.21s-1.19.4-1.85.4-1.28-.13-1.85-.4-1.07-.67-1.49-1.21c-.42-.54-.75-1.23-.99-2.06-.24-.83-.36-1.81-.36-2.93s.12-2.11.36-2.94c.24-.83.57-1.52.99-2.06s.92-.95,1.49-1.21c.57-.26,1.19-.4,1.85-.4s1.28.13,1.85.4c.57.26,1.07.67,1.49,1.21s.76,1.23,1,2.06c.24.83.36,1.81.36,2.94Zm-1.82,0c0-.97-.08-1.79-.24-2.44s-.37-1.18-.64-1.58c-.27-.4-.58-.68-.92-.85s-.71-.25-1.09-.25-.74.08-1.09.25-.66.45-.92.85c-.27.4-.48.93-.63,1.58-.16.65-.23,1.47-.23,2.44s.08,1.79.23,2.44c.16.65.37,1.18.63,1.57.27.4.58.68.92.85s.71.25,1.09.25.74-.08,1.09-.25.66-.45.92-.85c.27-.4.48-.92.64-1.57s.24-1.47.24-2.44Z"></path>
<path class="cls-4" d="m157.61,127.68c0,1.13-.12,2.11-.36,2.93-.24.83-.58,1.51-1,2.06-.42.54-.92.95-1.49,1.21s-1.19.4-1.85.4-1.28-.13-1.85-.4-1.07-.67-1.49-1.21c-.42-.54-.75-1.23-.99-2.06-.24-.83-.36-1.81-.36-2.93s.12-2.11.36-2.94c.24-.83.57-1.52.99-2.06s.92-.95,1.49-1.21c.57-.26,1.19-.4,1.85-.4s1.28.13,1.85.4c.57.26,1.07.67,1.49,1.21s.76,1.23,1,2.06c.24.83.36,1.81.36,2.94Zm-1.82,0c0-.97-.08-1.79-.24-2.44s-.37-1.18-.64-1.58c-.27-.4-.58-.68-.92-.85s-.71-.25-1.09-.25-.74.08-1.09.25-.66.45-.92.85c-.27.4-.48.93-.63,1.58-.16.65-.23,1.47-.23,2.44s.08,1.79.23,2.44c.16.65.37,1.18.63,1.57.27.4.58.68.92.85s.71.25,1.09.25.74-.08,1.09-.25.66-.45.92-.85c.27-.4.48-.92.64-1.57s.24-1.47.24-2.44Z"></path>
<path class="cls-4" d="m168.05,127.68c0,1.13-.12,2.11-.36,2.93-.24.83-.58,1.51-1,2.06-.42.54-.92.95-1.49,1.21s-1.19.4-1.85.4-1.28-.13-1.85-.4-1.07-.67-1.49-1.21c-.42-.54-.75-1.23-.99-2.06-.24-.83-.36-1.81-.36-2.93s.12-2.11.36-2.94c.24-.83.57-1.52.99-2.06s.92-.95,1.49-1.21c.57-.26,1.19-.4,1.85-.4s1.28.13,1.85.4c.57.26,1.07.67,1.49,1.21s.76,1.23,1,2.06c.24.83.36,1.81.36,2.94Zm-1.82,0c0-.97-.08-1.79-.24-2.44s-.37-1.18-.64-1.58c-.27-.4-.58-.68-.92-.85s-.71-.25-1.09-.25-.74.08-1.09.25-.66.45-.92.85c-.27.4-.48.93-.63,1.58-.16.65-.23,1.47-.23,2.44s.08,1.79.23,2.44c.16.65.37,1.18.63,1.57.27.4.58.68.92.85s.71.25,1.09.25.74-.08,1.09-.25.66-.45.92-.85c.27-.4.48-.92.64-1.57s.24-1.47.24-2.44Z"></path>
</g>
<g>
<rect class="cls-2" height="45" width="135" x="60" y="150"></rect>
<path class="cls-4" d="m195.5,195.5H59.5v-46h136v46Zm-135-1h134v-44H60.5v44Z"></path>
</g>
<g>
<path class="cls-4" d="m96.34,172.68c0,1.13-.12,2.11-.36,2.93-.24.83-.58,1.51-1,2.06-.42.54-.92.95-1.49,1.21s-1.19.4-1.85.4-1.28-.13-1.85-.4-1.07-.67-1.49-1.21c-.42-.54-.75-1.23-.99-2.06-.24-.83-.36-1.81-.36-2.93s.12-2.11.36-2.94c.24-.83.57-1.52.99-2.06s.92-.95,1.49-1.21c.57-.26,1.19-.4,1.85-.4s1.28.13,1.85.4c.57.26,1.07.67,1.49,1.21s.76,1.23,1,2.06c.24.83.36,1.81.36,2.94Zm-1.82,0c0-.97-.08-1.79-.24-2.44s-.37-1.18-.64-1.58c-.27-.4-.58-.68-.92-.85s-.71-.25-1.09-.25-.74.08-1.09.25-.66.45-.92.85c-.27.4-.48.93-.63,1.58-.16.65-.23,1.47-.23,2.44s.08,1.79.23,2.44c.16.65.37,1.18.63,1.57.27.4.58.68.92.85s.71.25,1.09.25.74-.08,1.09-.25.66-.45.92-.85c.27-.4.48-.92.64-1.57s.24-1.47.24-2.44Z"></path>
<path class="cls-4" d="m105.77,179.14h-1.69c-.14,0-.25-.04-.33-.11-.08-.07-.15-.15-.19-.24l-2.2-3.48c-.03.09-.06.18-.09.26-.03.08-.07.16-.12.23l-2.03,2.99c-.06.08-.13.16-.21.24-.08.08-.18.11-.31.11h-1.57l3.19-4.71-3.06-4.44h1.69c.14,0,.24.02.3.06.06.04.12.11.17.19l2.17,3.34c.03-.09.06-.18.1-.26.04-.09.08-.18.14-.28l1.86-2.76c.11-.19.25-.29.43-.29h1.61l-3.06,4.36,3.19,4.79Z"></path>
<path class="cls-4" d="m109.29,171.04c.66-.14,1.26-.21,1.79-.21.67,0,1.27.1,1.78.3.52.2.95.48,1.3.83.35.35.62.76.79,1.24.18.48.27.99.27,1.55,0,.68-.12,1.3-.36,1.86s-.57,1.04-.99,1.43c-.42.4-.92.7-1.49.91s-1.19.32-1.85.32c-.39,0-.76-.04-1.11-.12-.35-.08-.68-.18-.99-.31-.31-.13-.59-.28-.85-.45s-.49-.34-.7-.53l.54-.76c.11-.17.27-.25.46-.25.13,0,.27.05.42.14.15.09.33.2.54.31.21.11.46.22.75.31.29.09.63.14,1.03.14.44,0,.83-.07,1.18-.21.35-.14.65-.34.89-.6.24-.26.43-.57.56-.93s.19-.76.19-1.2c0-.39-.06-.74-.17-1.05s-.29-.58-.51-.8c-.23-.22-.51-.39-.86-.51-.34-.12-.74-.17-1.2-.17-.64,0-1.31.11-2.03.34l-1.11-.32,1.05-6.1h6.19v.76c0,.25-.08.46-.24.62-.16.16-.42.24-.8.24h-3.93l-.56,3.2Z"></path>
<path class="cls-4" d="m126.29,172.68c0,1.13-.12,2.11-.36,2.93-.24.83-.58,1.51-1,2.06-.42.54-.92.95-1.49,1.21s-1.19.4-1.85.4-1.28-.13-1.85-.4-1.07-.67-1.49-1.21c-.42-.54-.75-1.23-.99-2.06-.24-.83-.36-1.81-.36-2.93s.12-2.11.36-2.94c.24-.83.57-1.52.99-2.06s.92-.95,1.49-1.21c.57-.26,1.19-.4,1.85-.4s1.28.13,1.85.4c.57.26,1.07.67,1.49,1.21s.76,1.23,1,2.06c.24.83.36,1.81.36,2.94Zm-1.82,0c0-.97-.08-1.79-.24-2.44s-.37-1.18-.64-1.58c-.27-.4-.58-.68-.92-.85s-.71-.25-1.09-.25-.74.08-1.09.25-.66.45-.92.85c-.27.4-.48.93-.63,1.58-.16.65-.23,1.47-.23,2.44s.08,1.79.23,2.44c.16.65.37,1.18.63,1.57.27.4.58.68.92.85s.71.25,1.09.25.74-.08,1.09-.25.66-.45.92-.85c.27-.4.48-.92.64-1.57s.24-1.47.24-2.44Z"></path>
<path class="cls-4" d="m136.73,172.68c0,1.13-.12,2.11-.36,2.93-.24.83-.58,1.51-1,2.06-.42.54-.92.95-1.49,1.21s-1.19.4-1.85.4-1.28-.13-1.85-.4-1.07-.67-1.49-1.21c-.42-.54-.75-1.23-.99-2.06-.24-.83-.36-1.81-.36-2.93s.12-2.11.36-2.94c.24-.83.57-1.52.99-2.06s.92-.95,1.49-1.21c.57-.26,1.19-.4,1.85-.4s1.28.13,1.85.4c.57.26,1.07.67,1.49,1.21s.76,1.23,1,2.06c.24.83.36,1.81.36,2.94Zm-1.82,0c0-.97-.08-1.79-.24-2.44s-.37-1.18-.64-1.58c-.27-.4-.58-.68-.92-.85s-.71-.25-1.09-.25-.74.08-1.09.25-.66.45-.92.85c-.27.4-.48.93-.63,1.58-.16.65-.23,1.47-.23,2.44s.08,1.79.23,2.44c.16.65.37,1.18.63,1.57.27.4.58.68.92.85s.71.25,1.09.25.74-.08,1.09-.25.66-.45.92-.85c.27-.4.48-.92.64-1.57s.24-1.47.24-2.44Z"></path>
<path class="cls-4" d="m147.17,172.68c0,1.13-.12,2.11-.36,2.93-.24.83-.58,1.51-1,2.06-.42.54-.92.95-1.49,1.21s-1.19.4-1.85.4-1.28-.13-1.85-.4-1.07-.67-1.49-1.21c-.42-.54-.75-1.23-.99-2.06-.24-.83-.36-1.81-.36-2.93s.12-2.11.36-2.94c.24-.83.57-1.52.99-2.06s.92-.95,1.49-1.21c.57-.26,1.19-.4,1.85-.4s1.28.13,1.85.4c.57.26,1.07.67,1.49,1.21s.76,1.23,1,2.06c.24.83.36,1.81.36,2.94Zm-1.82,0c0-.97-.08-1.79-.24-2.44s-.37-1.18-.64-1.58c-.27-.4-.58-.68-.92-.85s-.71-.25-1.09-.25-.74.08-1.09.25-.66.45-.92.85c-.27.4-.48.93-.63,1.58-.16.65-.23,1.47-.23,2.44s.08,1.79.23,2.44c.16.65.37,1.18.63,1.57.27.4.58.68.92.85s.71.25,1.09.25.74-.08,1.09-.25.66-.45.92-.85c.27-.4.48-.92.64-1.57s.24-1.47.24-2.44Z"></path>
<path class="cls-4" d="m157.61,172.68c0,1.13-.12,2.11-.36,2.93-.24.83-.58,1.51-1,2.06-.42.54-.92.95-1.49,1.21s-1.19.4-1.85.4-1.28-.13-1.85-.4-1.07-.67-1.49-1.21c-.42-.54-.75-1.23-.99-2.06-.24-.83-.36-1.81-.36-2.93s.12-2.11.36-2.94c.24-.83.57-1.52.99-2.06s.92-.95,1.49-1.21c.57-.26,1.19-.4,1.85-.4s1.28.13,1.85.4c.57.26,1.07.67,1.49,1.21s.76,1.23,1,2.06c.24.83.36,1.81.36,2.94Zm-1.82,0c0-.97-.08-1.79-.24-2.44s-.37-1.18-.64-1.58c-.27-.4-.58-.68-.92-.85s-.71-.25-1.09-.25-.74.08-1.09.25-.66.45-.92.85c-.27.4-.48.93-.63,1.58-.16.65-.23,1.47-.23,2.44s.08,1.79.23,2.44c.16.65.37,1.18.63,1.57.27.4.58.68.92.85s.71.25,1.09.25.74-.08,1.09-.25.66-.45.92-.85c.27-.4.48-.92.64-1.57s.24-1.47.24-2.44Z"></path>
<path class="cls-4" d="m168.05,172.68c0,1.13-.12,2.11-.36,2.93-.24.83-.58,1.51-1,2.06-.42.54-.92.95-1.49,1.21s-1.19.4-1.85.4-1.28-.13-1.85-.4-1.07-.67-1.49-1.21c-.42-.54-.75-1.23-.99-2.06-.24-.83-.36-1.81-.36-2.93s.12-2.11.36-2.94c.24-.83.57-1.52.99-2.06s.92-.95,1.49-1.21c.57-.26,1.19-.4,1.85-.4s1.28.13,1.85.4c.57.26,1.07.67,1.49,1.21s.76,1.23,1,2.06c.24.83.36,1.81.36,2.94Zm-1.82,0c0-.97-.08-1.79-.24-2.44s-.37-1.18-.64-1.58c-.27-.4-.58-.68-.92-.85s-.71-.25-1.09-.25-.74.08-1.09.25-.66.45-.92.85c-.27.4-.48.93-.63,1.58-.16.65-.23,1.47-.23,2.44s.08,1.79.23,2.44c.16.65.37,1.18.63,1.57.27.4.58.68.92.85s.71.25,1.09.25.74-.08,1.09-.25.66-.45.92-.85c.27-.4.48-.92.64-1.57s.24-1.47.24-2.44Z"></path>
</g>
<g>
<path class="cls-4" d="m70.4,302.82h-4.1v11.32h-1.91v-11.32h-4.12v-1.6h10.13v1.6Z"></path>
<path class="cls-4" d="m71.63,306.75c.29-.6.65-1.07,1.06-1.41s.91-.51,1.49-.51c.2,0,.38.02.56.07.18.04.33.11.46.2l-.12,1.32c-.04.16-.14.24-.3.24-.08,0-.21-.02-.38-.05s-.35-.05-.54-.05c-.28,0-.53.04-.75.12-.22.08-.41.2-.58.36-.17.16-.32.36-.45.59-.13.23-.26.49-.37.79v5.72h-1.75v-9.14h1.01c.19,0,.32.04.39.1.07.07.12.19.15.37l.11,1.29Z"></path>
<path class="cls-4" d="m76.19,306.28c.51-.49,1.06-.85,1.66-1.09.6-.24,1.25-.36,1.97-.36.52,0,.98.08,1.39.26.4.17.74.41,1.02.71.28.31.48.67.62,1.1.14.43.21.9.21,1.41v5.83h-.78c-.17,0-.31-.03-.4-.09-.09-.06-.16-.16-.22-.32l-.19-.8c-.23.22-.46.41-.69.57-.23.17-.47.31-.72.42-.25.12-.51.21-.8.27s-.59.09-.94.09-.7-.05-1.01-.15c-.32-.1-.59-.25-.82-.45-.23-.21-.42-.46-.55-.77-.14-.31-.2-.66-.2-1.07,0-.36.1-.71.29-1.04.19-.33.51-.63.95-.9.44-.26,1.02-.48,1.73-.65s1.59-.26,2.62-.29v-.67c0-.69-.15-1.21-.44-1.55s-.73-.51-1.3-.51c-.38,0-.71.05-.97.14-.26.1-.49.2-.67.32-.19.12-.35.22-.5.32-.14.1-.29.14-.44.14-.12,0-.22-.03-.31-.1s-.16-.14-.21-.23l-.32-.57Zm5.15,3.81c-.71.02-1.32.08-1.82.17-.5.09-.9.2-1.21.35-.31.14-.54.31-.67.51-.14.2-.21.41-.21.65,0,.23.04.42.11.59s.18.3.31.41c.13.1.28.18.46.23.17.05.36.07.57.07.27,0,.52-.03.74-.08.23-.05.44-.13.63-.23.2-.1.39-.22.57-.36.18-.14.36-.31.53-.5v-1.8Z"></path>
<path class="cls-4" d="m87.06,306.27c.2-.21.41-.4.62-.58s.45-.32.69-.45.5-.22.78-.29c.28-.07.58-.1.9-.1.5,0,.95.08,1.33.25s.7.4.96.71c.26.3.45.67.58,1.09s.2.9.2,1.41v5.82h-1.76v-5.82c0-.65-.15-1.16-.45-1.53-.3-.36-.76-.54-1.38-.54-.45,0-.87.11-1.26.32-.39.21-.76.5-1.09.87v6.71h-1.75v-9.14h1.05c.25,0,.4.12.46.35l.13.92Z"></path>
<path class="cls-4" d="m100.88,306.57c-.05.08-.1.13-.15.17-.05.03-.12.05-.21.05-.1,0-.2-.03-.32-.1-.12-.07-.26-.14-.42-.21s-.36-.15-.58-.22c-.22-.07-.49-.1-.79-.1-.25,0-.48.03-.69.09-.21.06-.38.15-.53.26-.14.11-.25.24-.33.4-.08.15-.12.32-.12.49,0,.23.07.42.2.57.13.15.31.28.53.39.22.11.47.21.75.29.28.09.56.18.85.27s.58.21.86.33c.28.12.53.28.75.46.22.18.4.4.53.66.14.26.2.57.2.95,0,.43-.08.82-.23,1.18-.15.36-.38.68-.67.94-.3.26-.67.47-1.1.62-.44.15-.94.23-1.5.23-.63,0-1.21-.1-1.75-.32-.53-.21-.98-.48-1.34-.8l.41-.67c.05-.08.11-.15.18-.19.07-.05.17-.07.29-.07.11,0,.23.04.35.12.12.08.26.18.43.28.17.1.37.19.61.27.24.08.54.12.9.12.3,0,.56-.04.78-.11.22-.08.41-.18.55-.31.15-.13.26-.28.33-.45.07-.17.11-.35.11-.53,0-.24-.07-.44-.2-.6-.13-.16-.31-.3-.53-.41-.22-.11-.47-.21-.75-.3-.28-.08-.57-.17-.86-.27-.29-.1-.58-.21-.86-.33-.28-.12-.53-.29-.75-.48-.22-.19-.4-.43-.53-.7s-.2-.61-.2-1.01c0-.35.07-.69.22-1.02.15-.32.36-.61.64-.86.28-.25.62-.44,1.03-.59.41-.15.88-.22,1.41-.22.61,0,1.15.1,1.64.29.49.19.91.46,1.25.79l-.39.64Z"></path>
<path class="cls-4" d="m105.11,300.86v13.29h-1.76v-13.29h1.76Z"></path>
<path class="cls-4" d="m107.38,306.28c.51-.49,1.06-.85,1.66-1.09.6-.24,1.25-.36,1.97-.36.52,0,.98.08,1.39.26.4.17.74.41,1.02.71.28.31.48.67.62,1.1.14.43.21.9.21,1.41v5.83h-.78c-.17,0-.31-.03-.4-.09-.09-.06-.16-.16-.22-.32l-.19-.8c-.23.22-.46.41-.69.57-.23.17-.47.31-.72.42-.25.12-.51.21-.8.27s-.59.09-.94.09-.7-.05-1.01-.15c-.32-.1-.59-.25-.82-.45-.23-.21-.42-.46-.55-.77-.14-.31-.2-.66-.2-1.07,0-.36.1-.71.29-1.04.19-.33.51-.63.95-.9.44-.26,1.02-.48,1.73-.65s1.59-.26,2.62-.29v-.67c0-.69-.15-1.21-.44-1.55s-.73-.51-1.3-.51c-.38,0-.71.05-.97.14-.26.1-.49.2-.67.32-.19.12-.35.22-.5.32-.14.1-.29.14-.44.14-.12,0-.22-.03-.31-.1s-.16-.14-.21-.23l-.32-.57Zm5.15,3.81c-.71.02-1.32.08-1.82.17-.5.09-.9.2-1.21.35-.31.14-.54.31-.67.51-.14.2-.21.41-.21.65,0,.23.04.42.11.59s.18.3.31.41c.13.1.28.18.46.23.17.05.36.07.57.07.27,0,.52-.03.74-.08.23-.05.44-.13.63-.23.2-.1.39-.22.57-.36.18-.14.36-.31.53-.5v-1.8Z"></path>
<path class="cls-4" d="m119.35,314.29c-.74,0-1.31-.21-1.71-.62-.4-.41-.6-1-.6-1.77v-5.47h-1.06c-.1,0-.19-.03-.26-.09-.07-.06-.1-.16-.1-.28v-.71l1.48-.21.4-2.73c.02-.1.07-.18.14-.24.07-.06.16-.08.27-.08h.89v3.07h2.59v1.28h-2.59v5.36c0,.36.09.63.27.8.18.18.4.27.68.27.16,0,.3-.02.42-.06.12-.04.22-.09.3-.14.08-.05.16-.1.22-.14.06-.04.11-.06.16-.06.06,0,.11.01.14.04.03.03.07.07.1.13l.52.85c-.29.26-.63.47-1.03.61-.4.14-.81.22-1.23.22Z"></path>
<path class="cls-4" d="m125.17,302.17c0,.16-.03.32-.1.46-.07.15-.15.28-.27.39-.11.11-.24.2-.39.26-.15.06-.31.09-.47.09s-.31-.03-.46-.09c-.14-.06-.27-.15-.38-.26-.11-.11-.2-.24-.26-.39-.06-.15-.09-.3-.09-.46s.03-.33.09-.47c.06-.15.15-.28.26-.39.11-.11.24-.2.38-.26.14-.06.3-.09.46-.09s.32.03.47.09c.15.06.28.15.39.26.11.11.2.24.27.39.07.15.1.3.1.47Zm-.33,2.83v9.14h-1.75v-9.14h1.75Z"></path>
<path class="cls-4" d="m131.28,304.85c.67,0,1.28.11,1.82.33.54.22,1,.53,1.39.94.38.41.67.91.88,1.49.2.58.31,1.23.31,1.95s-.1,1.37-.31,1.95-.5,1.08-.88,1.49c-.38.41-.84.72-1.39.94s-1.15.33-1.82.33-1.29-.11-1.83-.33-1.01-.53-1.39-.94c-.38-.41-.68-.9-.89-1.49s-.31-1.23-.31-1.95.1-1.37.31-1.95c.21-.58.5-1.07.89-1.49.38-.41.85-.72,1.39-.94.54-.22,1.15-.33,1.83-.33Zm0,8.05c.86,0,1.51-.29,1.94-.87.43-.58.64-1.4.64-2.46s-.21-1.88-.64-2.46c-.43-.58-1.07-.88-1.94-.88s-1.53.29-1.96.88c-.43.58-.64,1.41-.64,2.46s.21,1.88.64,2.46c.43.58,1.08.87,1.96.87Z"></path>
<path class="cls-4" d="m139.27,306.27c.2-.21.41-.4.62-.58s.45-.32.69-.45.5-.22.78-.29c.28-.07.58-.1.9-.1.5,0,.95.08,1.33.25s.7.4.96.71c.26.3.45.67.58,1.09s.2.9.2,1.41v5.82h-1.76v-5.82c0-.65-.15-1.16-.45-1.53-.3-.36-.76-.54-1.38-.54-.45,0-.87.11-1.26.32-.39.21-.76.5-1.09.87v6.71h-1.75v-9.14h1.05c.25,0,.4.12.46.35l.13.92Z"></path>
<path class="cls-4" d="m160,312.53v1.61h-7.4v-12.92h1.92v11.31h5.48Z"></path>
<path class="cls-4" d="m164.8,304.85c.67,0,1.28.11,1.82.33.54.22,1,.53,1.39.94.38.41.67.91.88,1.49.2.58.31,1.23.31,1.95s-.1,1.37-.31,1.95-.5,1.08-.88,1.49c-.38.41-.84.72-1.39.94s-1.15.33-1.82.33-1.29-.11-1.83-.33-1.01-.53-1.39-.94c-.38-.41-.68-.9-.89-1.49s-.31-1.23-.31-1.95.1-1.37.31-1.95c.21-.58.5-1.07.89-1.49.38-.41.85-.72,1.39-.94.54-.22,1.15-.33,1.83-.33Zm0,8.05c.86,0,1.51-.29,1.94-.87.43-.58.64-1.4.64-2.46s-.21-1.88-.64-2.46c-.43-.58-1.07-.88-1.94-.88s-1.53.29-1.96.88c-.43.58-.64,1.41-.64,2.46s.21,1.88.64,2.46c.43.58,1.08.87,1.96.87Z"></path>
<path class="cls-4" d="m175.05,304.85c.67,0,1.28.11,1.82.33.54.22,1,.53,1.39.94.38.41.67.91.88,1.49.2.58.31,1.23.31,1.95s-.1,1.37-.31,1.95-.5,1.08-.88,1.49c-.38.41-.84.72-1.39.94s-1.15.33-1.82.33-1.29-.11-1.83-.33-1.01-.53-1.39-.94c-.38-.41-.68-.9-.89-1.49s-.31-1.23-.31-1.95.1-1.37.31-1.95c.21-.58.5-1.07.89-1.49.38-.41.85-.72,1.39-.94.54-.22,1.15-.33,1.83-.33Zm0,8.05c.86,0,1.51-.29,1.94-.87.43-.58.64-1.4.64-2.46s-.21-1.88-.64-2.46c-.43-.58-1.07-.88-1.94-.88s-1.53.29-1.96.88c-.43.58-.64,1.41-.64,2.46s.21,1.88.64,2.46c.43.58,1.08.87,1.96.87Z"></path>
<path class="cls-4" d="m183.15,300.86v7.77h.41c.13,0,.23-.02.31-.05s.17-.11.26-.22l2.74-3.02c.08-.11.18-.2.28-.26.1-.06.23-.09.39-.09h1.6l-3.23,3.54c-.17.22-.36.39-.56.51.11.08.21.17.3.27s.17.21.26.33l3.44,4.49h-1.58c-.14,0-.27-.02-.37-.07-.1-.05-.2-.13-.28-.26l-2.83-3.67c-.09-.14-.18-.23-.27-.27s-.23-.06-.41-.06h-.47v4.33h-1.75v-13.29h1.75Z"></path>
<path class="cls-4" d="m190.12,307.99h4.5v1.49h-4.5v-1.49Z"></path>
<path class="cls-4" d="m196.72,306.28c.51-.49,1.06-.85,1.66-1.09.6-.24,1.25-.36,1.97-.36.52,0,.98.08,1.39.26.4.17.74.41,1.02.71.28.31.48.67.62,1.1.14.43.21.9.21,1.41v5.83h-.78c-.17,0-.31-.03-.4-.09-.09-.06-.16-.16-.22-.32l-.19-.8c-.23.22-.46.41-.69.57-.23.17-.47.31-.72.42-.25.12-.51.21-.8.27s-.59.09-.94.09-.7-.05-1.01-.15c-.32-.1-.59-.25-.82-.45-.23-.21-.42-.46-.55-.77-.14-.31-.2-.66-.2-1.07,0-.36.1-.71.29-1.04.19-.33.51-.63.95-.9.44-.26,1.02-.48,1.73-.65s1.59-.26,2.62-.29v-.67c0-.69-.15-1.21-.44-1.55s-.73-.51-1.3-.51c-.38,0-.71.05-.97.14-.26.1-.49.2-.67.32-.19.12-.35.22-.5.32-.14.1-.29.14-.44.14-.12,0-.22-.03-.31-.1s-.16-.14-.21-.23l-.32-.57Zm5.15,3.81c-.71.02-1.32.08-1.82.17-.5.09-.9.2-1.21.35-.31.14-.54.31-.67.51-.14.2-.21.41-.21.65,0,.23.04.42.11.59s.18.3.31.41c.13.1.28.18.46.23.17.05.36.07.57.07.27,0,.52-.03.74-.08.23-.05.44-.13.63-.23.2-.1.39-.22.57-.36.18-.14.36-.31.53-.5v-1.8Z"></path>
<path class="cls-4" d="m211.34,306.57c-.05.08-.1.13-.15.17-.05.03-.12.05-.21.05-.1,0-.2-.03-.32-.1-.12-.07-.26-.14-.42-.21s-.36-.15-.58-.22c-.22-.07-.49-.1-.79-.1-.25,0-.48.03-.69.09-.21.06-.38.15-.53.26-.14.11-.25.24-.33.4-.08.15-.12.32-.12.49,0,.23.07.42.2.57.13.15.31.28.53.39.22.11.47.21.75.29.28.09.56.18.85.27s.58.21.86.33c.28.12.53.28.75.46.22.18.4.4.53.66.14.26.2.57.2.95,0,.43-.08.82-.23,1.18-.15.36-.38.68-.67.94-.3.26-.67.47-1.1.62-.44.15-.94.23-1.5.23-.63,0-1.21-.1-1.75-.32-.53-.21-.98-.48-1.34-.8l.41-.67c.05-.08.11-.15.18-.19.07-.05.17-.07.29-.07.11,0,.23.04.35.12.12.08.26.18.43.28.17.1.37.19.61.27.24.08.54.12.9.12.3,0,.56-.04.78-.11.22-.08.41-.18.55-.31.15-.13.26-.28.33-.45.07-.17.11-.35.11-.53,0-.24-.07-.44-.2-.6-.13-.16-.31-.3-.53-.41-.22-.11-.47-.21-.75-.3-.28-.08-.57-.17-.86-.27-.29-.1-.58-.21-.86-.33-.28-.12-.53-.29-.75-.48-.22-.19-.4-.43-.53-.7s-.2-.61-.2-1.01c0-.35.07-.69.22-1.02.15-.32.36-.61.64-.86.28-.25.62-.44,1.03-.59.41-.15.88-.22,1.41-.22.61,0,1.15.1,1.64.29.49.19.91.46,1.25.79l-.39.64Z"></path>
<path class="cls-4" d="m215.94,302.17c0,.16-.03.32-.1.46-.07.15-.15.28-.27.39-.11.11-.24.2-.39.26-.15.06-.31.09-.47.09s-.31-.03-.46-.09c-.14-.06-.27-.15-.38-.26-.11-.11-.2-.24-.26-.39-.06-.15-.09-.3-.09-.46s.03-.33.09-.47c.06-.15.15-.28.26-.39.11-.11.24-.2.38-.26.14-.06.3-.09.46-.09s.32.03.47.09c.15.06.28.15.39.26.11.11.2.24.27.39.07.15.1.3.1.47Zm-.33,2.83v9.14h-1.75v-9.14h1.75Z"></path>
<path class="cls-4" d="m225.81,300.86v13.29h-1.06c-.25,0-.4-.12-.46-.35l-.15-1.05c-.39.46-.83.83-1.33,1.11s-1.07.42-1.71.42c-.52,0-.99-.1-1.42-.31s-.79-.5-1.08-.9-.53-.88-.69-1.46c-.16-.58-.24-1.25-.24-2.01,0-.68.09-1.31.27-1.89.18-.58.44-1.09.78-1.51s.76-.76,1.24-1c.49-.24,1.04-.36,1.65-.36.55,0,1.02.09,1.41.27.39.18.73.43,1.04.76v-5h1.76Zm-1.76,6.35c-.29-.38-.6-.64-.93-.79s-.71-.22-1.12-.22c-.8,0-1.43.29-1.87.87-.44.58-.66,1.42-.66,2.53,0,.58.05,1.08.15,1.49.1.41.24.75.43,1.01.19.26.42.45.7.58.28.12.59.19.94.19.51,0,.95-.11,1.32-.34.37-.23.72-.55,1.04-.96v-4.34Z"></path>
<path class="cls-4" d="m235.77,312.84c-.22.25-.46.47-.75.65-.28.18-.58.33-.9.45-.32.11-.65.2-.99.25-.34.05-.67.08-1,.08-.63,0-1.21-.11-1.75-.32s-1-.53-1.4-.94c-.39-.41-.7-.92-.92-1.53-.22-.61-.33-1.31-.33-2.1,0-.64.1-1.23.3-1.78s.48-1.03.85-1.44.82-.73,1.35-.96,1.13-.35,1.8-.35c.56,0,1.07.09,1.54.28.47.18.88.45,1.22.8.34.35.61.78.8,1.29.2.51.29,1.09.29,1.75,0,.27-.03.45-.09.54-.06.09-.17.14-.33.14h-5.99c.02.54.1,1.02.23,1.43.14.41.33.74.57,1.01s.53.47.87.6c.34.13.71.2,1.12.2.39,0,.73-.05,1.01-.14s.53-.19.74-.29c.21-.11.38-.2.52-.29s.27-.13.37-.13c.14,0,.25.05.33.16l.5.65Zm-1.45-4.28c0-.35-.05-.67-.15-.96-.1-.29-.25-.55-.44-.76-.19-.22-.43-.38-.7-.5s-.59-.18-.95-.18c-.74,0-1.32.21-1.74.64-.42.43-.69,1.02-.81,1.77h4.79Z"></path>
<path class="cls-4" d="m246.91,301.22c.81,0,1.5.08,2.08.23s1.05.38,1.43.67c.37.29.65.65.82,1.07.18.42.27.89.27,1.42,0,.31-.05.61-.14.9-.1.29-.24.56-.44.8-.2.25-.45.47-.75.67-.3.2-.65.36-1.06.5,1.88.37,2.82,1.35,2.82,2.94,0,.55-.1,1.05-.31,1.51-.2.45-.5.84-.89,1.17s-.87.58-1.44.76c-.57.18-1.22.27-1.94.27h-4.65v-12.92h4.21Zm-2.29,1.5v4.23h2.21c.94,0,1.64-.19,2.1-.57.46-.38.69-.89.69-1.54,0-.74-.22-1.28-.66-1.61-.44-.34-1.12-.5-2.04-.5h-2.29Zm2.7,9.9c.49,0,.9-.06,1.25-.17.35-.11.63-.27.85-.47.22-.2.38-.43.48-.71.1-.27.15-.57.15-.9,0-.64-.22-1.15-.67-1.52-.44-.37-1.13-.55-2.06-.55h-2.7v4.31h2.7Z"></path>
<path class="cls-4" d="m261.46,305v9.14h-1.05c-.24,0-.4-.12-.47-.35l-.13-.92c-.2.21-.41.4-.62.58-.22.17-.45.32-.69.45s-.51.22-.78.29c-.28.07-.57.1-.89.1-.5,0-.95-.08-1.33-.25-.38-.17-.7-.4-.96-.71s-.45-.67-.58-1.09-.2-.9-.2-1.41v-5.82h1.76v5.82c0,.65.15,1.16.45,1.53.3.36.76.54,1.38.54.45,0,.87-.11,1.26-.32.39-.21.76-.51,1.1-.88v-6.7h1.75Z"></path>
<path class="cls-4" d="m264.52,314.14v-7.71l-.95-.12c-.14-.03-.25-.08-.34-.15-.09-.07-.13-.17-.13-.3v-.73h1.42v-.83c0-.52.08-.99.22-1.4.15-.41.37-.75.64-1.04.28-.28.62-.5,1.01-.65.39-.15.83-.22,1.33-.22.41,0,.79.06,1.14.18l-.04.88c0,.08-.03.14-.07.17s-.1.07-.17.09c-.07.02-.15.03-.25.03-.1,0-.21,0-.32,0-.27,0-.52.03-.74.1-.22.07-.41.18-.57.33-.16.16-.28.36-.36.62-.08.26-.13.57-.13.95v.77h2.57v1.28h-2.51v7.72h-1.76Z"></path>
<path class="cls-4" d="m270.86,314.14v-7.71l-.95-.12c-.14-.03-.25-.08-.34-.15-.09-.07-.13-.17-.13-.3v-.73h1.42v-.83c0-.52.08-.99.22-1.4.15-.41.37-.75.64-1.04.28-.28.62-.5,1.01-.65.39-.15.83-.22,1.33-.22.41,0,.79.06,1.14.18l-.04.88c0,.08-.03.14-.07.17s-.1.07-.17.09c-.07.02-.15.03-.25.03-.1,0-.21,0-.32,0-.27,0-.52.03-.74.1-.22.07-.41.18-.57.33-.16.16-.28.36-.36.62-.08.26-.13.57-.13.95v.77h2.57v1.28h-2.51v7.72h-1.76Z"></path>
<path class="cls-4" d="m283.83,312.84c-.22.25-.46.47-.75.65-.28.18-.58.33-.9.45-.32.11-.65.2-.99.25-.34.05-.67.08-1,.08-.63,0-1.21-.11-1.75-.32s-1-.53-1.4-.94c-.39-.41-.7-.92-.92-1.53-.22-.61-.33-1.31-.33-2.1,0-.64.1-1.23.3-1.78s.48-1.03.85-1.44.82-.73,1.35-.96,1.13-.35,1.8-.35c.56,0,1.07.09,1.54.28.47.18.88.45,1.22.8.34.35.61.78.8,1.29.2.51.29,1.09.29,1.75,0,.27-.03.45-.09.54-.06.09-.17.14-.33.14h-5.99c.02.54.1,1.02.23,1.43.14.41.33.74.57,1.01s.53.47.87.6c.34.13.71.2,1.12.2.39,0,.73-.05,1.01-.14s.53-.19.74-.29c.21-.11.38-.2.52-.29s.27-.13.37-.13c.14,0,.25.05.33.16l.5.65Zm-1.45-4.28c0-.35-.05-.67-.15-.96-.1-.29-.25-.55-.44-.76-.19-.22-.43-.38-.7-.5s-.59-.18-.95-.18c-.74,0-1.32.21-1.74.64-.42.43-.69,1.02-.81,1.77h4.79Z"></path>
<path class="cls-4" d="m287.51,306.75c.29-.6.65-1.07,1.06-1.41s.91-.51,1.49-.51c.2,0,.38.02.56.07.18.04.33.11.46.2l-.12,1.32c-.04.16-.14.24-.3.24-.08,0-.21-.02-.38-.05s-.35-.05-.54-.05c-.28,0-.53.04-.75.12-.22.08-.41.2-.58.36-.17.16-.32.36-.45.59-.13.23-.26.49-.37.79v5.72h-1.75v-9.14h1.01c.19,0,.32.04.39.1.07.07.12.19.15.37l.11,1.29Z"></path>
<path class="cls-4" d="m297.69,308.49c0,1.27.16,2.51.48,3.72.32,1.21.78,2.35,1.39,3.43.1.2.13.35.08.46-.05.11-.12.19-.22.26l-.78.48c-.45-.69-.83-1.38-1.15-2.06-.32-.68-.57-1.36-.76-2.05-.2-.69-.34-1.38-.43-2.08-.09-.7-.13-1.42-.13-2.15s.04-1.46.13-2.16.23-1.4.43-2.08c.19-.69.45-1.37.76-2.05.31-.68.7-1.37,1.15-2.06l.78.48c.1.07.18.15.22.26s.02.26-.08.46c-.61,1.08-1.08,2.22-1.39,3.43-.32,1.21-.48,2.45-.48,3.72Z"></path>
<path class="cls-4" d="m310.63,302.82h-4.1v11.32h-1.91v-11.32h-4.12v-1.6h10.13v1.6Z"></path>
<path class="cls-4" d="m319.89,312.53v1.61h-7.4v-12.92h1.92v11.31h5.48Z"></path>
<path class="cls-4" d="m325.98,301.22c.81,0,1.5.08,2.08.23s1.05.38,1.43.67c.37.29.65.65.82,1.07.18.42.27.89.27,1.42,0,.31-.05.61-.14.9-.1.29-.24.56-.44.8-.2.25-.45.47-.75.67-.3.2-.65.36-1.06.5,1.88.37,2.82,1.35,2.82,2.94,0,.55-.1,1.05-.31,1.51-.2.45-.5.84-.89,1.17s-.87.58-1.44.76c-.57.18-1.22.27-1.94.27h-4.65v-12.92h4.21Zm-2.29,1.5v4.23h2.21c.94,0,1.64-.19,2.1-.57.46-.38.69-.89.69-1.54,0-.74-.22-1.28-.66-1.61-.44-.34-1.12-.5-2.04-.5h-2.29Zm2.7,9.9c.49,0,.9-.06,1.25-.17.35-.11.63-.27.85-.47.22-.2.38-.43.48-.71.1-.27.15-.57.15-.9,0-.64-.22-1.15-.67-1.52-.44-.37-1.13-.55-2.06-.55h-2.7v4.31h2.7Z"></path>
<path class="cls-4" d="m334.4,308.49c0-1.27-.16-2.51-.48-3.72-.32-1.21-.79-2.35-1.4-3.43-.1-.2-.13-.35-.08-.46.05-.11.13-.19.23-.26l.78-.48c.45.69.83,1.38,1.14,2.06.31.68.57,1.36.76,2.05.2.69.34,1.38.43,2.08.09.7.14,1.42.14,2.16s-.04,1.45-.14,2.15c-.09.7-.23,1.4-.43,2.08s-.45,1.37-.76,2.05c-.31.68-.69,1.37-1.14,2.06l-.78-.48c-.1-.07-.18-.15-.23-.26-.05-.11-.03-.26.08-.46.61-1.08,1.08-2.22,1.4-3.43.32-1.21.48-2.45.48-3.72Z"></path>
</g>
<g>
<rect class="cls-2" height="45" width="135" x="60" y="195"></rect>
<path class="cls-4" d="m195.5,240.5H59.5v-46h136v46Zm-135-1h134v-44H60.5v44Z"></path>
</g>
<g>
<path class="cls-4" d="m95.7,217.68c0,1.13-.12,2.11-.36,2.93-.24.83-.58,1.51-1,2.06-.42.54-.92.95-1.49,1.21s-1.19.4-1.85.4-1.28-.13-1.85-.4-1.07-.67-1.49-1.21c-.42-.54-.75-1.23-.99-2.06-.24-.83-.36-1.81-.36-2.93s.12-2.11.36-2.94c.24-.83.57-1.52.99-2.06s.92-.95,1.49-1.21c.57-.26,1.19-.4,1.85-.4s1.28.13,1.85.4c.57.26,1.07.67,1.49,1.21s.76,1.23,1,2.06c.24.83.36,1.81.36,2.94Zm-1.82,0c0-.97-.08-1.79-.24-2.44s-.37-1.18-.64-1.58c-.27-.4-.58-.68-.92-.85s-.71-.25-1.09-.25-.74.08-1.09.25-.66.45-.92.85c-.27.4-.48.93-.63,1.58-.16.65-.23,1.47-.23,2.44s.08,1.79.23,2.44c.16.65.37,1.18.63,1.57.27.4.58.68.92.85s.71.25,1.09.25.74-.08,1.09-.25.66-.45.92-.85c.27-.4.48-.92.64-1.57s.24-1.47.24-2.44Z"></path>
<path class="cls-4" d="m105.13,224.14h-1.69c-.14,0-.25-.04-.33-.11-.08-.07-.15-.15-.19-.24l-2.2-3.48c-.03.09-.06.18-.09.26-.03.08-.07.16-.12.23l-2.03,2.99c-.06.08-.13.16-.21.24-.08.08-.18.11-.31.11h-1.57l3.19-4.71-3.06-4.44h1.69c.14,0,.24.02.3.06.06.04.12.11.17.19l2.17,3.34c.03-.09.06-.18.1-.26.04-.09.08-.18.14-.28l1.86-2.76c.11-.19.25-.29.43-.29h1.61l-3.06,4.36,3.19,4.79Z"></path>
<path class="cls-4" d="m115.64,221.37c.11,0,.2.04.28.13l.76.83c-.53.62-1.17,1.11-1.93,1.45s-1.67.51-2.74.51c-.94,0-1.78-.16-2.54-.49-.76-.32-1.41-.78-1.94-1.36-.54-.58-.95-1.28-1.25-2.09-.29-.81-.44-1.7-.44-2.67s.16-1.86.46-2.67c.31-.81.74-1.51,1.3-2.09.56-.58,1.23-1.03,2-1.36.78-.32,1.64-.49,2.58-.49s1.73.15,2.45.45c.71.3,1.33.7,1.86,1.2l-.63.89c-.04.07-.09.12-.16.16-.06.04-.15.06-.25.06-.11,0-.25-.06-.4-.17-.15-.11-.35-.24-.6-.38-.25-.14-.56-.27-.92-.38-.37-.11-.82-.17-1.37-.17-.64,0-1.23.11-1.76.34-.53.23-.99.55-1.38.97-.39.42-.69.94-.9,1.56s-.32,1.31-.32,2.08.11,1.49.33,2.1c.22.61.53,1.13.92,1.56.39.43.85.75,1.38.97.53.22,1.1.33,1.71.33.37,0,.71-.02,1-.07.3-.05.57-.11.82-.2s.48-.21.71-.35c.22-.14.44-.31.66-.51.05-.04.1-.08.15-.1.05-.03.11-.04.17-.04Z"></path>
<path class="cls-4" d="m126.93,217.68c0,1.13-.12,2.11-.36,2.93-.24.83-.58,1.51-1,2.06-.42.54-.92.95-1.49,1.21s-1.19.4-1.85.4-1.28-.13-1.85-.4-1.07-.67-1.49-1.21c-.42-.54-.75-1.23-.99-2.06-.24-.83-.36-1.81-.36-2.93s.12-2.11.36-2.94c.24-.83.57-1.52.99-2.06s.92-.95,1.49-1.21c.57-.26,1.19-.4,1.85-.4s1.28.13,1.85.4c.57.26,1.07.67,1.49,1.21s.76,1.23,1,2.06c.24.83.36,1.81.36,2.94Zm-1.82,0c0-.97-.08-1.79-.24-2.44s-.37-1.18-.64-1.58c-.27-.4-.58-.68-.92-.85s-.71-.25-1.09-.25-.74.08-1.09.25-.66.45-.92.85c-.27.4-.48.93-.63,1.58-.16.65-.23,1.47-.23,2.44s.08,1.79.23,2.44c.16.65.37,1.18.63,1.57.27.4.58.68.92.85s.71.25,1.09.25.74-.08,1.09-.25.66-.45.92-.85c.27-.4.48-.92.64-1.57s.24-1.47.24-2.44Z"></path>
<path class="cls-4" d="m137.37,217.68c0,1.13-.12,2.11-.36,2.93-.24.83-.58,1.51-1,2.06-.42.54-.92.95-1.49,1.21s-1.19.4-1.85.4-1.28-.13-1.85-.4-1.07-.67-1.49-1.21c-.42-.54-.75-1.23-.99-2.06-.24-.83-.36-1.81-.36-2.93s.12-2.11.36-2.94c.24-.83.57-1.52.99-2.06s.92-.95,1.49-1.21c.57-.26,1.19-.4,1.85-.4s1.28.13,1.85.4c.57.26,1.07.67,1.49,1.21s.76,1.23,1,2.06c.24.83.36,1.81.36,2.94Zm-1.82,0c0-.97-.08-1.79-.24-2.44s-.37-1.18-.64-1.58c-.27-.4-.58-.68-.92-.85s-.71-.25-1.09-.25-.74.08-1.09.25-.66.45-.92.85c-.27.4-.48.93-.63,1.58-.16.65-.23,1.47-.23,2.44s.08,1.79.23,2.44c.16.65.37,1.18.63,1.57.27.4.58.68.92.85s.71.25,1.09.25.74-.08,1.09-.25.66-.45.92-.85c.27-.4.48-.92.64-1.57s.24-1.47.24-2.44Z"></path>
<path class="cls-4" d="m147.81,217.68c0,1.13-.12,2.11-.36,2.93-.24.83-.58,1.51-1,2.06-.42.54-.92.95-1.49,1.21s-1.19.4-1.85.4-1.28-.13-1.85-.4-1.07-.67-1.49-1.21c-.42-.54-.75-1.23-.99-2.06-.24-.83-.36-1.81-.36-2.93s.12-2.11.36-2.94c.24-.83.57-1.52.99-2.06s.92-.95,1.49-1.21c.57-.26,1.19-.4,1.85-.4s1.28.13,1.85.4c.57.26,1.07.67,1.49,1.21s.76,1.23,1,2.06c.24.83.36,1.81.36,2.94Zm-1.82,0c0-.97-.08-1.79-.24-2.44s-.37-1.18-.64-1.58c-.27-.4-.58-.68-.92-.85s-.71-.25-1.09-.25-.74.08-1.09.25-.66.45-.92.85c-.27.4-.48.93-.63,1.58-.16.65-.23,1.47-.23,2.44s.08,1.79.23,2.44c.16.65.37,1.18.63,1.57.27.4.58.68.92.85s.71.25,1.09.25.74-.08,1.09-.25.66-.45.92-.85c.27-.4.48-.92.64-1.57s.24-1.47.24-2.44Z"></path>
<path class="cls-4" d="m158.25,217.68c0,1.13-.12,2.11-.36,2.93-.24.83-.58,1.51-1,2.06-.42.54-.92.95-1.49,1.21s-1.19.4-1.85.4-1.28-.13-1.85-.4-1.07-.67-1.49-1.21c-.42-.54-.75-1.23-.99-2.06-.24-.83-.36-1.81-.36-2.93s.12-2.11.36-2.94c.24-.83.57-1.52.99-2.06s.92-.95,1.49-1.21c.57-.26,1.19-.4,1.85-.4s1.28.13,1.85.4c.57.26,1.07.67,1.49,1.21s.76,1.23,1,2.06c.24.83.36,1.81.36,2.94Zm-1.82,0c0-.97-.08-1.79-.24-2.44s-.37-1.18-.64-1.58c-.27-.4-.58-.68-.92-.85s-.71-.25-1.09-.25-.74.08-1.09.25-.66.45-.92.85c-.27.4-.48.93-.63,1.58-.16.65-.23,1.47-.23,2.44s.08,1.79.23,2.44c.16.65.37,1.18.63,1.57.27.4.58.68.92.85s.71.25,1.09.25.74-.08,1.09-.25.66-.45.92-.85c.27-.4.48-.92.64-1.57s.24-1.47.24-2.44Z"></path>
<path class="cls-4" d="m168.69,217.68c0,1.13-.12,2.11-.36,2.93-.24.83-.58,1.51-1,2.06-.42.54-.92.95-1.49,1.21s-1.19.4-1.85.4-1.28-.13-1.85-.4-1.07-.67-1.49-1.21c-.42-.54-.75-1.23-.99-2.06-.24-.83-.36-1.81-.36-2.93s.12-2.11.36-2.94c.24-.83.57-1.52.99-2.06s.92-.95,1.49-1.21c.57-.26,1.19-.4,1.85-.4s1.28.13,1.85.4c.57.26,1.07.67,1.49,1.21s.76,1.23,1,2.06c.24.83.36,1.81.36,2.94Zm-1.82,0c0-.97-.08-1.79-.24-2.44s-.37-1.18-.64-1.58c-.27-.4-.58-.68-.92-.85s-.71-.25-1.09-.25-.74.08-1.09.25-.66.45-.92.85c-.27.4-.48.93-.63,1.58-.16.65-.23,1.47-.23,2.44s.08,1.79.23,2.44c.16.65.37,1.18.63,1.57.27.4.58.68.92.85s.71.25,1.09.25.74-.08,1.09-.25.66-.45.92-.85c.27-.4.48-.92.64-1.57s.24-1.47.24-2.44Z"></path>
</g>
<g>
<path class="cls-2" d="m120.67,77.82h-4.1v11.32h-1.91v-11.32h-4.12v-1.6h10.13v1.6Z"></path>
<path class="cls-2" d="m131.93,89.14h-1.48c-.17,0-.31-.04-.41-.13-.11-.08-.19-.19-.23-.32l-1.14-3h-5.7l-1.14,3c-.04.12-.12.22-.23.31-.11.09-.25.14-.41.14h-1.48l5.15-12.92h1.93l5.15,12.92Zm-3.79-4.82l-1.92-5.01c-.14-.34-.28-.77-.41-1.3-.07.26-.13.5-.2.72-.07.22-.14.42-.2.59l-1.91,5h4.64Z"></path>
<path class="cls-2" d="m143.74,82.85v5.04c-.65.47-1.35.82-2.09,1.05-.74.23-1.54.35-2.41.35-1.04,0-1.99-.16-2.83-.49-.84-.32-1.56-.78-2.16-1.36-.59-.58-1.05-1.28-1.37-2.09-.32-.81-.48-1.7-.48-2.67s.15-1.87.46-2.69c.31-.81.75-1.51,1.33-2.09.58-.58,1.27-1.03,2.09-1.35s1.74-.48,2.76-.48c.52,0,.99.04,1.44.12.44.08.85.19,1.23.33.38.14.73.32,1.05.52.32.2.62.43.9.68l-.55.86c-.08.14-.2.23-.33.26-.14.04-.29,0-.45-.1-.16-.09-.33-.19-.52-.32-.19-.12-.41-.23-.67-.33-.26-.1-.57-.19-.91-.26-.35-.07-.76-.11-1.23-.11-.71,0-1.35.12-1.92.35-.57.23-1.06.56-1.46,1-.4.43-.71.95-.93,1.56s-.32,1.29-.32,2.05c0,.79.11,1.5.34,2.13.23.63.55,1.16.97,1.59.42.44.92.77,1.52,1,.6.23,1.26.34,2,.34.29,0,.56-.02.81-.05.25-.03.49-.08.72-.14.23-.06.45-.13.66-.22s.42-.19.63-.3v-2.71h-1.91c-.12,0-.22-.04-.29-.11-.08-.07-.11-.16-.11-.27v-1.09h4.05Z"></path>
</g>
<g>
<rect class="cls-2" height="45" width="150" x="600" y="105"></rect>
<path class="cls-4" d="m750.5,150.5h-151v-46h151v46Zm-150-1h149v-44h-149v44Z"></path>
</g>
<g>
<rect class="cls-1" height="45" width="150" x="600" y="60"></rect>
<path class="cls-4" d="m750.5,105.5h-151v-46h151v46Zm-150-1h149v-44h-149v44Z"></path>
</g>
<g>
<path class="cls-4" d="m631.5,121.22v12.92h-.97c-.15,0-.27-.03-.37-.08-.1-.05-.2-.14-.3-.26l-7.3-9.44c.01.16.02.32.03.48s.01.3.01.44v8.87h-1.68v-12.92h.99c.17,0,.29.02.38.06.08.04.18.13.28.27l7.32,9.45c-.02-.17-.03-.34-.04-.51s-.01-.32-.01-.46v-8.8h1.67Z"></path>
<path class="cls-4" d="m638.61,121.22c.83,0,1.55.1,2.16.29.61.19,1.12.46,1.52.81.4.35.7.78.9,1.27.19.5.29,1.05.29,1.66s-.11,1.16-.32,1.67c-.21.51-.52.94-.93,1.31-.41.37-.92.65-1.53.85s-1.31.3-2.1.3h-2v4.76h-1.92v-12.92h3.92Zm0,6.65c.49,0,.91-.06,1.28-.19.37-.12.68-.3.93-.54s.44-.51.56-.83c.13-.32.19-.68.19-1.07,0-.79-.24-1.4-.73-1.85-.49-.45-1.23-.68-2.23-.68h-2v5.15h2Z"></path>
<path class="cls-4" d="m645.08,126.43c0-.16.03-.32.09-.46.06-.14.14-.27.25-.38.1-.11.23-.19.37-.26.14-.06.3-.09.47-.09s.32.03.46.09c.14.06.27.15.38.26.11.11.19.23.26.38.06.14.09.3.09.46s-.03.32-.09.47c-.06.14-.15.27-.26.38-.11.11-.23.19-.38.25-.14.06-.3.09-.46.09s-.32-.03-.47-.09c-.14-.06-.27-.14-.37-.25-.11-.11-.19-.23-.25-.38-.06-.14-.09-.3-.09-.47Zm0,6.66c0-.16.03-.32.09-.46.06-.14.14-.27.25-.38.1-.11.23-.19.37-.26.14-.06.3-.1.47-.1s.32.03.46.1c.14.06.27.15.38.26.11.11.19.23.26.38.06.14.09.3.09.46s-.03.32-.09.47c-.06.14-.15.27-.26.38-.11.11-.23.19-.38.25-.14.06-.3.09-.46.09s-.32-.03-.47-.09c-.14-.06-.27-.14-.37-.25-.11-.11-.19-.23-.25-.38-.06-.14-.09-.3-.09-.47Z"></path>
<path class="cls-4" d="m658.44,127.68c0,1.13-.12,2.11-.36,2.93-.24.83-.58,1.51-1,2.06-.42.54-.92.95-1.49,1.21s-1.19.4-1.85.4-1.28-.13-1.85-.4-1.07-.67-1.49-1.21c-.42-.54-.75-1.23-.99-2.06-.24-.83-.36-1.81-.36-2.93s.12-2.11.36-2.94c.24-.83.57-1.52.99-2.06s.92-.95,1.49-1.21c.57-.26,1.19-.4,1.85-.4s1.28.13,1.85.4c.57.26,1.07.67,1.49,1.21s.76,1.23,1,2.06c.24.83.36,1.81.36,2.94Zm-1.82,0c0-.97-.08-1.79-.24-2.44s-.37-1.18-.64-1.58c-.27-.4-.58-.68-.92-.85s-.71-.25-1.09-.25-.74.08-1.09.25-.66.45-.92.85c-.27.4-.48.93-.63,1.58-.16.65-.23,1.47-.23,2.44s.08,1.79.23,2.44c.16.65.37,1.18.63,1.57.27.4.58.68.92.85s.71.25,1.09.25.74-.08,1.09-.25.66-.45.92-.85c.27-.4.48-.92.64-1.57s.24-1.47.24-2.44Z"></path>
<path class="cls-4" d="m667.87,134.14h-1.69c-.14,0-.25-.04-.33-.11-.08-.07-.15-.15-.19-.24l-2.2-3.48c-.03.09-.06.18-.09.26-.03.08-.07.16-.12.23l-2.03,2.99c-.06.08-.13.16-.21.24-.08.08-.18.11-.31.11h-1.57l3.19-4.71-3.06-4.44h1.69c.14,0,.24.02.3.06.06.04.12.11.17.19l2.17,3.34c.03-.09.06-.18.1-.26.04-.09.08-.18.14-.28l1.86-2.76c.11-.19.25-.29.43-.29h1.61l-3.06,4.36,3.19,4.79Z"></path>
<path class="cls-4" d="m674.24,129.03c.23-.31.45-.61.66-.9-.32.25-.69.43-1.08.56-.4.13-.82.19-1.27.19-.47,0-.93-.08-1.36-.24-.44-.16-.82-.4-1.15-.72-.33-.31-.6-.7-.8-1.17-.2-.46-.3-.99-.3-1.59,0-.56.11-1.1.32-1.59.21-.5.5-.93.89-1.3.38-.37.84-.66,1.37-.87.53-.21,1.11-.32,1.75-.32s1.2.1,1.71.31c.51.2.95.49,1.31.86.36.37.64.81.84,1.33.2.52.3,1.08.3,1.7,0,.38-.04.74-.1,1.08-.07.34-.17.68-.3,1-.13.32-.29.64-.47.96-.18.32-.39.64-.63.97l-3.11,4.46c-.08.12-.21.22-.36.3s-.34.12-.54.12h-1.61l3.95-5.11Zm-3.55-4c0,.8.22,1.41.65,1.84.43.43,1.03.65,1.8.65.41,0,.78-.07,1.1-.2.32-.13.59-.31.81-.54.22-.23.38-.49.5-.78s.17-.61.17-.93c0-.39-.06-.74-.18-1.06s-.29-.58-.52-.8c-.22-.22-.48-.39-.79-.5-.3-.12-.64-.17-1-.17s-.72.06-1.03.18c-.31.12-.58.29-.8.52s-.39.49-.51.79c-.12.31-.18.64-.18,1.01Z"></path>
<path class="cls-4" d="m688.4,127.68c0,1.13-.12,2.11-.36,2.93-.24.83-.58,1.51-1,2.06-.42.54-.92.95-1.49,1.21s-1.19.4-1.85.4-1.28-.13-1.85-.4-1.07-.67-1.49-1.21c-.42-.54-.75-1.23-.99-2.06-.24-.83-.36-1.81-.36-2.93s.12-2.11.36-2.94c.24-.83.57-1.52.99-2.06s.92-.95,1.49-1.21c.57-.26,1.19-.4,1.85-.4s1.28.13,1.85.4c.57.26,1.07.67,1.49,1.21s.76,1.23,1,2.06c.24.83.36,1.81.36,2.94Zm-1.82,0c0-.97-.08-1.79-.24-2.44s-.37-1.18-.64-1.58c-.27-.4-.58-.68-.92-.85s-.71-.25-1.09-.25-.74.08-1.09.25-.66.45-.92.85c-.27.4-.48.93-.63,1.58-.16.65-.23,1.47-.23,2.44s.08,1.79.23,2.44c.16.65.37,1.18.63,1.57.27.4.58.68.92.85s.71.25,1.09.25.74-.08,1.09-.25.66-.45.92-.85c.27-.4.48-.92.64-1.57s.24-1.47.24-2.44Z"></path>
<path class="cls-4" d="m698.83,127.68c0,1.13-.12,2.11-.36,2.93-.24.83-.58,1.51-1,2.06-.42.54-.92.95-1.49,1.21s-1.19.4-1.85.4-1.28-.13-1.85-.4-1.07-.67-1.49-1.21c-.42-.54-.75-1.23-.99-2.06-.24-.83-.36-1.81-.36-2.93s.12-2.11.36-2.94c.24-.83.57-1.52.99-2.06s.92-.95,1.49-1.21c.57-.26,1.19-.4,1.85-.4s1.28.13,1.85.4c.57.26,1.07.67,1.49,1.21s.76,1.23,1,2.06c.24.83.36,1.81.36,2.94Zm-1.82,0c0-.97-.08-1.79-.24-2.44s-.37-1.18-.64-1.58c-.27-.4-.58-.68-.92-.85s-.71-.25-1.09-.25-.74.08-1.09.25-.66.45-.92.85c-.27.4-.48.93-.63,1.58-.16.65-.23,1.47-.23,2.44s.08,1.79.23,2.44c.16.65.37,1.18.63,1.57.27.4.58.68.92.85s.71.25,1.09.25.74-.08,1.09-.25.66-.45.92-.85c.27-.4.48-.92.64-1.57s.24-1.47.24-2.44Z"></path>
<path class="cls-4" d="m709.27,127.68c0,1.13-.12,2.11-.36,2.93-.24.83-.58,1.51-1,2.06-.42.54-.92.95-1.49,1.21s-1.19.4-1.85.4-1.28-.13-1.85-.4-1.07-.67-1.49-1.21c-.42-.54-.75-1.23-.99-2.06-.24-.83-.36-1.81-.36-2.93s.12-2.11.36-2.94c.24-.83.57-1.52.99-2.06s.92-.95,1.49-1.21c.57-.26,1.19-.4,1.85-.4s1.28.13,1.85.4c.57.26,1.07.67,1.49,1.21s.76,1.23,1,2.06c.24.83.36,1.81.36,2.94Zm-1.82,0c0-.97-.08-1.79-.24-2.44s-.37-1.18-.64-1.58c-.27-.4-.58-.68-.92-.85s-.71-.25-1.09-.25-.74.08-1.09.25-.66.45-.92.85c-.27.4-.48.93-.63,1.58-.16.65-.23,1.47-.23,2.44s.08,1.79.23,2.44c.16.65.37,1.18.63,1.57.27.4.58.68.92.85s.71.25,1.09.25.74-.08,1.09-.25.66-.45.92-.85c.27-.4.48-.92.64-1.57s.24-1.47.24-2.44Z"></path>
<path class="cls-4" d="m719.71,127.68c0,1.13-.12,2.11-.36,2.93-.24.83-.58,1.51-1,2.06-.42.54-.92.95-1.49,1.21s-1.19.4-1.85.4-1.28-.13-1.85-.4-1.07-.67-1.49-1.21c-.42-.54-.75-1.23-.99-2.06-.24-.83-.36-1.81-.36-2.93s.12-2.11.36-2.94c.24-.83.57-1.52.99-2.06s.92-.95,1.49-1.21c.57-.26,1.19-.4,1.85-.4s1.28.13,1.85.4c.57.26,1.07.67,1.49,1.21s.76,1.23,1,2.06c.24.83.36,1.81.36,2.94Zm-1.82,0c0-.97-.08-1.79-.24-2.44s-.37-1.18-.64-1.58c-.27-.4-.58-.68-.92-.85s-.71-.25-1.09-.25-.74.08-1.09.25-.66.45-.92.85c-.27.4-.48.93-.63,1.58-.16.65-.23,1.47-.23,2.44s.08,1.79.23,2.44c.16.65.37,1.18.63,1.57.27.4.58.68.92.85s.71.25,1.09.25.74-.08,1.09-.25.66-.45.92-.85c.27-.4.48-.92.64-1.57s.24-1.47.24-2.44Z"></path>
<path class="cls-4" d="m730.15,127.68c0,1.13-.12,2.11-.36,2.93-.24.83-.58,1.51-1,2.06-.42.54-.92.95-1.49,1.21s-1.19.4-1.85.4-1.28-.13-1.85-.4-1.07-.67-1.49-1.21c-.42-.54-.75-1.23-.99-2.06-.24-.83-.36-1.81-.36-2.93s.12-2.11.36-2.94c.24-.83.57-1.52.99-2.06s.92-.95,1.49-1.21c.57-.26,1.19-.4,1.85-.4s1.28.13,1.85.4c.57.26,1.07.67,1.49,1.21s.76,1.23,1,2.06c.24.83.36,1.81.36,2.94Zm-1.82,0c0-.97-.08-1.79-.24-2.44s-.37-1.18-.64-1.58c-.27-.4-.58-.68-.92-.85s-.71-.25-1.09-.25-.74.08-1.09.25-.66.45-.92.85c-.27.4-.48.93-.63,1.58-.16.65-.23,1.47-.23,2.44s.08,1.79.23,2.44c.16.65.37,1.18.63,1.57.27.4.58.68.92.85s.71.25,1.09.25.74-.08,1.09-.25.66-.45.92-.85c.27-.4.48-.92.64-1.57s.24-1.47.24-2.44Z"></path>
</g>
<g>
<rect class="cls-2" height="45" width="150" x="600" y="150"></rect>
<path class="cls-4" d="m750.5,195.5h-151v-46h151v46Zm-150-1h149v-44h-149v44Z"></path>
</g>
<g>
<path class="cls-4" d="m628.68,168.32c-.06.1-.12.18-.19.22-.07.05-.15.07-.25.07s-.23-.05-.37-.15c-.14-.1-.31-.21-.52-.33s-.45-.23-.74-.33-.63-.15-1.04-.15c-.38,0-.71.05-.99.15s-.52.23-.72.4c-.19.17-.34.37-.44.6-.1.23-.15.48-.15.75,0,.35.09.64.27.86.18.23.41.42.7.59s.62.3.98.42c.37.12.74.25,1.12.37.38.13.76.28,1.12.45.37.17.69.38.98.63s.52.57.7.94c.18.37.26.82.26,1.35,0,.57-.1,1.1-.29,1.6-.2.5-.48.93-.85,1.3s-.83.67-1.37.88c-.54.21-1.16.32-1.85.32-.41,0-.82-.04-1.21-.12-.39-.08-.76-.19-1.11-.34-.35-.15-.67-.32-.98-.53s-.57-.44-.81-.7l.55-.92c.05-.07.12-.13.19-.18.08-.05.16-.07.26-.07.13,0,.27.07.44.2s.37.28.61.44c.24.16.53.3.87.44s.75.2,1.24.2c.4,0,.75-.05,1.06-.16.31-.1.58-.25.79-.45s.38-.43.49-.71c.11-.28.17-.58.17-.92,0-.38-.09-.69-.26-.93-.17-.24-.41-.44-.69-.6s-.62-.3-.98-.41c-.37-.11-.74-.23-1.12-.36s-.76-.27-1.12-.43c-.37-.16-.69-.37-.98-.63-.29-.26-.52-.59-.69-.98-.17-.39-.26-.88-.26-1.45,0-.46.09-.91.27-1.34s.44-.81.79-1.15.77-.6,1.27-.8c.5-.2,1.08-.3,1.73-.3.73,0,1.39.12,2,.35.61.23,1.14.56,1.59,1l-.47.91Z"></path>
<path class="cls-4" d="m635.7,166.22c.83,0,1.55.1,2.16.29.61.19,1.12.46,1.52.81.4.35.7.78.9,1.27.19.5.29,1.05.29,1.66s-.11,1.16-.32,1.67c-.21.51-.52.94-.93,1.31-.41.37-.92.65-1.53.85s-1.31.3-2.1.3h-2v4.76h-1.92v-12.92h3.92Zm0,6.65c.49,0,.91-.06,1.28-.19.37-.12.68-.3.93-.54s.44-.51.56-.83c.13-.32.19-.68.19-1.07,0-.79-.24-1.4-.73-1.85-.49-.45-1.23-.68-2.23-.68h-2v5.15h2Z"></path>
<path class="cls-4" d="m642.17,171.43c0-.16.03-.32.09-.46.06-.14.14-.27.25-.38.1-.11.23-.19.37-.26.14-.06.3-.09.47-.09s.32.03.46.09c.14.06.27.15.38.26.11.11.19.23.26.38.06.14.09.3.09.46s-.03.32-.09.47c-.06.14-.15.27-.26.38-.11.11-.23.19-.38.25-.14.06-.3.09-.46.09s-.32-.03-.47-.09c-.14-.06-.27-.14-.37-.25-.11-.11-.19-.23-.25-.38-.06-.14-.09-.3-.09-.47Zm0,6.66c0-.16.03-.32.09-.46.06-.14.14-.27.25-.38.1-.11.23-.19.37-.26.14-.06.3-.1.47-.1s.32.03.46.1c.14.06.27.15.38.26.11.11.19.23.26.38.06.14.09.3.09.46s-.03.32-.09.47c-.06.14-.15.27-.26.38-.11.11-.23.19-.38.25-.14.06-.3.09-.46.09s-.32-.03-.47-.09c-.14-.06-.27-.14-.37-.25-.11-.11-.19-.23-.25-.38-.06-.14-.09-.3-.09-.47Z"></path>
<path class="cls-4" d="m655.54,172.68c0,1.13-.12,2.11-.36,2.93-.24.83-.58,1.51-1,2.06-.42.54-.92.95-1.49,1.21s-1.19.4-1.85.4-1.28-.13-1.85-.4-1.07-.67-1.49-1.21c-.42-.54-.75-1.23-.99-2.06-.24-.83-.36-1.81-.36-2.93s.12-2.11.36-2.94c.24-.83.57-1.52.99-2.06s.92-.95,1.49-1.21c.57-.26,1.19-.4,1.85-.4s1.28.13,1.85.4c.57.26,1.07.67,1.49,1.21s.76,1.23,1,2.06c.24.83.36,1.81.36,2.94Zm-1.82,0c0-.97-.08-1.79-.24-2.44s-.37-1.18-.64-1.58c-.27-.4-.58-.68-.92-.85s-.71-.25-1.09-.25-.74.08-1.09.25-.66.45-.92.85c-.27.4-.48.93-.63,1.58-.16.65-.23,1.47-.23,2.44s.08,1.79.23,2.44c.16.65.37,1.18.63,1.57.27.4.58.68.92.85s.71.25,1.09.25.74-.08,1.09-.25.66-.45.92-.85c.27-.4.48-.92.64-1.57s.24-1.47.24-2.44Z"></path>
<path class="cls-4" d="m664.96,179.14h-1.69c-.14,0-.25-.04-.33-.11-.08-.07-.15-.15-.19-.24l-2.2-3.48c-.03.09-.06.18-.09.26-.03.08-.07.16-.12.23l-2.03,2.99c-.06.08-.13.16-.21.24-.08.08-.18.11-.31.11h-1.57l3.19-4.71-3.06-4.44h1.69c.14,0,.24.02.3.06.06.04.12.11.17.19l2.17,3.34c.03-.09.06-.18.1-.26.04-.09.08-.18.14-.28l1.86-2.76c.11-.19.25-.29.43-.29h1.61l-3.06,4.36,3.19,4.79Z"></path>
<path class="cls-4" d="m677.38,179.14h-1.48c-.17,0-.31-.04-.41-.13-.11-.08-.19-.19-.23-.32l-1.14-3h-5.7l-1.14,3c-.04.12-.12.22-.23.31-.11.09-.25.14-.41.14h-1.48l5.15-12.92h1.93l5.15,12.92Zm-3.79-4.82l-1.92-5.01c-.14-.34-.28-.77-.41-1.3-.07.26-.13.5-.2.72-.07.22-.14.42-.2.59l-1.91,5h4.64Z"></path>
<path class="cls-4" d="m687.32,172.68c0,1.13-.12,2.11-.36,2.93-.24.83-.58,1.51-1,2.06-.42.54-.92.95-1.49,1.21s-1.19.4-1.85.4-1.28-.13-1.85-.4-1.07-.67-1.49-1.21c-.42-.54-.75-1.23-.99-2.06-.24-.83-.36-1.81-.36-2.93s.12-2.11.36-2.94c.24-.83.57-1.52.99-2.06s.92-.95,1.49-1.21c.57-.26,1.19-.4,1.85-.4s1.28.13,1.85.4c.57.26,1.07.67,1.49,1.21s.76,1.23,1,2.06c.24.83.36,1.81.36,2.94Zm-1.82,0c0-.97-.08-1.79-.24-2.44s-.37-1.18-.64-1.58c-.27-.4-.58-.68-.92-.85s-.71-.25-1.09-.25-.74.08-1.09.25-.66.45-.92.85c-.27.4-.48.93-.63,1.58-.16.65-.23,1.47-.23,2.44s.08,1.79.23,2.44c.16.65.37,1.18.63,1.57.27.4.58.68.92.85s.71.25,1.09.25.74-.08,1.09-.25.66-.45.92-.85c.27-.4.48-.92.64-1.57s.24-1.47.24-2.44Z"></path>
<path class="cls-4" d="m697.76,172.68c0,1.13-.12,2.11-.36,2.93-.24.83-.58,1.51-1,2.06-.42.54-.92.95-1.49,1.21s-1.19.4-1.85.4-1.28-.13-1.85-.4-1.07-.67-1.49-1.21c-.42-.54-.75-1.23-.99-2.06-.24-.83-.36-1.81-.36-2.93s.12-2.11.36-2.94c.24-.83.57-1.52.99-2.06s.92-.95,1.49-1.21c.57-.26,1.19-.4,1.85-.4s1.28.13,1.85.4c.57.26,1.07.67,1.49,1.21s.76,1.23,1,2.06c.24.83.36,1.81.36,2.94Zm-1.82,0c0-.97-.08-1.79-.24-2.44s-.37-1.18-.64-1.58c-.27-.4-.58-.68-.92-.85s-.71-.25-1.09-.25-.74.08-1.09.25-.66.45-.92.85c-.27.4-.48.93-.63,1.58-.16.65-.23,1.47-.23,2.44s.08,1.79.23,2.44c.16.65.37,1.18.63,1.57.27.4.58.68.92.85s.71.25,1.09.25.74-.08,1.09-.25.66-.45.92-.85c.27-.4.48-.92.64-1.57s.24-1.47.24-2.44Z"></path>
<path class="cls-4" d="m708.2,172.68c0,1.13-.12,2.11-.36,2.93-.24.83-.58,1.51-1,2.06-.42.54-.92.95-1.49,1.21s-1.19.4-1.85.4-1.28-.13-1.85-.4-1.07-.67-1.49-1.21c-.42-.54-.75-1.23-.99-2.06-.24-.83-.36-1.81-.36-2.93s.12-2.11.36-2.94c.24-.83.57-1.52.99-2.06s.92-.95,1.49-1.21c.57-.26,1.19-.4,1.85-.4s1.28.13,1.85.4c.57.26,1.07.67,1.49,1.21s.76,1.23,1,2.06c.24.83.36,1.81.36,2.94Zm-1.82,0c0-.97-.08-1.79-.24-2.44s-.37-1.18-.64-1.58c-.27-.4-.58-.68-.92-.85s-.71-.25-1.09-.25-.74.08-1.09.25-.66.45-.92.85c-.27.4-.48.93-.63,1.58-.16.65-.23,1.47-.23,2.44s.08,1.79.23,2.44c.16.65.37,1.18.63,1.57.27.4.58.68.92.85s.71.25,1.09.25.74-.08,1.09-.25.66-.45.92-.85c.27-.4.48-.92.64-1.57s.24-1.47.24-2.44Z"></path>
<path class="cls-4" d="m718.63,172.68c0,1.13-.12,2.11-.36,2.93-.24.83-.58,1.51-1,2.06-.42.54-.92.95-1.49,1.21s-1.19.4-1.85.4-1.28-.13-1.85-.4-1.07-.67-1.49-1.21c-.42-.54-.75-1.23-.99-2.06-.24-.83-.36-1.81-.36-2.93s.12-2.11.36-2.94c.24-.83.57-1.52.99-2.06s.92-.95,1.49-1.21c.57-.26,1.19-.4,1.85-.4s1.28.13,1.85.4c.57.26,1.07.67,1.49,1.21s.76,1.23,1,2.06c.24.83.36,1.81.36,2.94Zm-1.82,0c0-.97-.08-1.79-.24-2.44s-.37-1.18-.64-1.58c-.27-.4-.58-.68-.92-.85s-.71-.25-1.09-.25-.74.08-1.09.25-.66.45-.92.85c-.27.4-.48.93-.63,1.58-.16.65-.23,1.47-.23,2.44s.08,1.79.23,2.44c.16.65.37,1.18.63,1.57.27.4.58.68.92.85s.71.25,1.09.25.74-.08,1.09-.25.66-.45.92-.85c.27-.4.48-.92.64-1.57s.24-1.47.24-2.44Z"></path>
<path class="cls-4" d="m729.07,172.68c0,1.13-.12,2.11-.36,2.93-.24.83-.58,1.51-1,2.06-.42.54-.92.95-1.49,1.21s-1.19.4-1.85.4-1.28-.13-1.85-.4-1.07-.67-1.49-1.21c-.42-.54-.75-1.23-.99-2.06-.24-.83-.36-1.81-.36-2.93s.12-2.11.36-2.94c.24-.83.57-1.52.99-2.06s.92-.95,1.49-1.21c.57-.26,1.19-.4,1.85-.4s1.28.13,1.85.4c.57.26,1.07.67,1.49,1.21s.76,1.23,1,2.06c.24.83.36,1.81.36,2.94Zm-1.82,0c0-.97-.08-1.79-.24-2.44s-.37-1.18-.64-1.58c-.27-.4-.58-.68-.92-.85s-.71-.25-1.09-.25-.74.08-1.09.25-.66.45-.92.85c-.27.4-.48.93-.63,1.58-.16.65-.23,1.47-.23,2.44s.08,1.79.23,2.44c.16.65.37,1.18.63,1.57.27.4.58.68.92.85s.71.25,1.09.25.74-.08,1.09-.25.66-.45.92-.85c.27-.4.48-.92.64-1.57s.24-1.47.24-2.44Z"></path>
</g>
<g>
<rect class="cls-2" height="45" width="150" x="600" y="195"></rect>
<path class="cls-4" d="m750.5,240.5h-151v-46h151v46Zm-150-1h149v-44h-149v44Z"></path>
</g>
<g>
<path class="cls-4" d="m631.5,211.22v12.92h-.97c-.15,0-.27-.03-.37-.08-.1-.05-.2-.14-.3-.26l-7.3-9.44c.01.16.02.32.03.48s.01.3.01.44v8.87h-1.68v-12.92h.99c.17,0,.29.02.38.06.08.04.18.13.28.27l7.32,9.45c-.02-.17-.03-.34-.04-.51s-.01-.32-.01-.46v-8.8h1.67Z"></path>
<path class="cls-4" d="m638.61,211.22c.83,0,1.55.1,2.16.29.61.19,1.12.46,1.52.81.4.35.7.78.9,1.27.19.5.29,1.05.29,1.66s-.11,1.16-.32,1.67c-.21.51-.52.94-.93,1.31-.41.37-.92.65-1.53.85s-1.31.3-2.1.3h-2v4.76h-1.92v-12.92h3.92Zm0,6.65c.49,0,.91-.06,1.28-.19.37-.12.68-.3.93-.54s.44-.51.56-.83c.13-.32.19-.68.19-1.07,0-.79-.24-1.4-.73-1.85-.49-.45-1.23-.68-2.23-.68h-2v5.15h2Z"></path>
<path class="cls-4" d="m645.08,216.43c0-.16.03-.32.09-.46.06-.14.14-.27.25-.38.1-.11.23-.19.37-.26.14-.06.3-.09.47-.09s.32.03.46.09c.14.06.27.15.38.26.11.11.19.23.26.38.06.14.09.3.09.46s-.03.32-.09.47c-.06.14-.15.27-.26.38-.11.11-.23.19-.38.25-.14.06-.3.09-.46.09s-.32-.03-.47-.09c-.14-.06-.27-.14-.37-.25-.11-.11-.19-.23-.25-.38-.06-.14-.09-.3-.09-.47Zm0,6.66c0-.16.03-.32.09-.46.06-.14.14-.27.25-.38.1-.11.23-.19.37-.26.14-.06.3-.1.47-.1s.32.03.46.1c.14.06.27.15.38.26.11.11.19.23.26.38.06.14.09.3.09.46s-.03.32-.09.47c-.06.14-.15.27-.26.38-.11.11-.23.19-.38.25-.14.06-.3.09-.46.09s-.32-.03-.47-.09c-.14-.06-.27-.14-.37-.25-.11-.11-.19-.23-.25-.38-.06-.14-.09-.3-.09-.47Z"></path>
<path class="cls-4" d="m658.44,217.68c0,1.13-.12,2.11-.36,2.93-.24.83-.58,1.51-1,2.06-.42.54-.92.95-1.49,1.21s-1.19.4-1.85.4-1.28-.13-1.85-.4-1.07-.67-1.49-1.21c-.42-.54-.75-1.23-.99-2.06-.24-.83-.36-1.81-.36-2.93s.12-2.11.36-2.94c.24-.83.57-1.52.99-2.06s.92-.95,1.49-1.21c.57-.26,1.19-.4,1.85-.4s1.28.13,1.85.4c.57.26,1.07.67,1.49,1.21s.76,1.23,1,2.06c.24.83.36,1.81.36,2.94Zm-1.82,0c0-.97-.08-1.79-.24-2.44s-.37-1.18-.64-1.58c-.27-.4-.58-.68-.92-.85s-.71-.25-1.09-.25-.74.08-1.09.25-.66.45-.92.85c-.27.4-.48.93-.63,1.58-.16.65-.23,1.47-.23,2.44s.08,1.79.23,2.44c.16.65.37,1.18.63,1.57.27.4.58.68.92.85s.71.25,1.09.25.74-.08,1.09-.25.66-.45.92-.85c.27-.4.48-.92.64-1.57s.24-1.47.24-2.44Z"></path>
<path class="cls-4" d="m667.87,224.14h-1.69c-.14,0-.25-.04-.33-.11-.08-.07-.15-.15-.19-.24l-2.2-3.48c-.03.09-.06.18-.09.26-.03.08-.07.16-.12.23l-2.03,2.99c-.06.08-.13.16-.21.24-.08.08-.18.11-.31.11h-1.57l3.19-4.71-3.06-4.44h1.69c.14,0,.24.02.3.06.06.04.12.11.17.19l2.17,3.34c.03-.09.06-.18.1-.26.04-.09.08-.18.14-.28l1.86-2.76c.11-.19.25-.29.43-.29h1.61l-3.06,4.36,3.19,4.79Z"></path>
<path class="cls-4" d="m671.4,216.04c.66-.14,1.26-.21,1.79-.21.67,0,1.27.1,1.78.3.52.2.95.48,1.3.83.35.35.62.76.79,1.24.18.48.27.99.27,1.55,0,.68-.12,1.3-.36,1.86s-.57,1.04-.99,1.43c-.42.4-.92.7-1.49.91s-1.19.32-1.85.32c-.39,0-.76-.04-1.11-.12-.35-.08-.68-.18-.99-.31-.31-.13-.59-.28-.85-.45s-.49-.34-.7-.53l.54-.76c.11-.17.27-.25.46-.25.13,0,.27.05.42.14.15.09.33.2.54.31.21.11.46.22.75.31.29.09.63.14,1.03.14.44,0,.83-.07,1.18-.21.35-.14.65-.34.89-.6.24-.26.43-.57.56-.93s.19-.76.19-1.2c0-.39-.06-.74-.17-1.05s-.29-.58-.51-.8c-.23-.22-.51-.39-.86-.51-.34-.12-.74-.17-1.2-.17-.64,0-1.31.11-2.03.34l-1.11-.32,1.05-6.1h6.19v.76c0,.25-.08.46-.24.62-.16.16-.42.24-.8.24h-3.93l-.56,3.2Z"></path>
<path class="cls-4" d="m688.4,217.68c0,1.13-.12,2.11-.36,2.93-.24.83-.58,1.51-1,2.06-.42.54-.92.95-1.49,1.21s-1.19.4-1.85.4-1.28-.13-1.85-.4-1.07-.67-1.49-1.21c-.42-.54-.75-1.23-.99-2.06-.24-.83-.36-1.81-.36-2.93s.12-2.11.36-2.94c.24-.83.57-1.52.99-2.06s.92-.95,1.49-1.21c.57-.26,1.19-.4,1.85-.4s1.28.13,1.85.4c.57.26,1.07.67,1.49,1.21s.76,1.23,1,2.06c.24.83.36,1.81.36,2.94Zm-1.82,0c0-.97-.08-1.79-.24-2.44s-.37-1.18-.64-1.58c-.27-.4-.58-.68-.92-.85s-.71-.25-1.09-.25-.74.08-1.09.25-.66.45-.92.85c-.27.4-.48.93-.63,1.58-.16.65-.23,1.47-.23,2.44s.08,1.79.23,2.44c.16.65.37,1.18.63,1.57.27.4.58.68.92.85s.71.25,1.09.25.74-.08,1.09-.25.66-.45.92-.85c.27-.4.48-.92.64-1.57s.24-1.47.24-2.44Z"></path>
<path class="cls-4" d="m698.83,217.68c0,1.13-.12,2.11-.36,2.93-.24.83-.58,1.51-1,2.06-.42.54-.92.95-1.49,1.21s-1.19.4-1.85.4-1.28-.13-1.85-.4-1.07-.67-1.49-1.21c-.42-.54-.75-1.23-.99-2.06-.24-.83-.36-1.81-.36-2.93s.12-2.11.36-2.94c.24-.83.57-1.52.99-2.06s.92-.95,1.49-1.21c.57-.26,1.19-.4,1.85-.4s1.28.13,1.85.4c.57.26,1.07.67,1.49,1.21s.76,1.23,1,2.06c.24.83.36,1.81.36,2.94Zm-1.82,0c0-.97-.08-1.79-.24-2.44s-.37-1.18-.64-1.58c-.27-.4-.58-.68-.92-.85s-.71-.25-1.09-.25-.74.08-1.09.25-.66.45-.92.85c-.27.4-.48.93-.63,1.58-.16.65-.23,1.47-.23,2.44s.08,1.79.23,2.44c.16.65.37,1.18.63,1.57.27.4.58.68.92.85s.71.25,1.09.25.74-.08,1.09-.25.66-.45.92-.85c.27-.4.48-.92.64-1.57s.24-1.47.24-2.44Z"></path>
<path class="cls-4" d="m709.27,217.68c0,1.13-.12,2.11-.36,2.93-.24.83-.58,1.51-1,2.06-.42.54-.92.95-1.49,1.21s-1.19.4-1.85.4-1.28-.13-1.85-.4-1.07-.67-1.49-1.21c-.42-.54-.75-1.23-.99-2.06-.24-.83-.36-1.81-.36-2.93s.12-2.11.36-2.94c.24-.83.57-1.52.99-2.06s.92-.95,1.49-1.21c.57-.26,1.19-.4,1.85-.4s1.28.13,1.85.4c.57.26,1.07.67,1.49,1.21s.76,1.23,1,2.06c.24.83.36,1.81.36,2.94Zm-1.82,0c0-.97-.08-1.79-.24-2.44s-.37-1.18-.64-1.58c-.27-.4-.58-.68-.92-.85s-.71-.25-1.09-.25-.74.08-1.09.25-.66.45-.92.85c-.27.4-.48.93-.63,1.58-.16.65-.23,1.47-.23,2.44s.08,1.79.23,2.44c.16.65.37,1.18.63,1.57.27.4.58.68.92.85s.71.25,1.09.25.74-.08,1.09-.25.66-.45.92-.85c.27-.4.48-.92.64-1.57s.24-1.47.24-2.44Z"></path>
<path class="cls-4" d="m719.71,217.68c0,1.13-.12,2.11-.36,2.93-.24.83-.58,1.51-1,2.06-.42.54-.92.95-1.49,1.21s-1.19.4-1.85.4-1.28-.13-1.85-.4-1.07-.67-1.49-1.21c-.42-.54-.75-1.23-.99-2.06-.24-.83-.36-1.81-.36-2.93s.12-2.11.36-2.94c.24-.83.57-1.52.99-2.06s.92-.95,1.49-1.21c.57-.26,1.19-.4,1.85-.4s1.28.13,1.85.4c.57.26,1.07.67,1.49,1.21s.76,1.23,1,2.06c.24.83.36,1.81.36,2.94Zm-1.82,0c0-.97-.08-1.79-.24-2.44s-.37-1.18-.64-1.58c-.27-.4-.58-.68-.92-.85s-.71-.25-1.09-.25-.74.08-1.09.25-.66.45-.92.85c-.27.4-.48.93-.63,1.58-.16.65-.23,1.47-.23,2.44s.08,1.79.23,2.44c.16.65.37,1.18.63,1.57.27.4.58.68.92.85s.71.25,1.09.25.74-.08,1.09-.25.66-.45.92-.85c.27-.4.48-.92.64-1.57s.24-1.47.24-2.44Z"></path>
<path class="cls-4" d="m730.15,217.68c0,1.13-.12,2.11-.36,2.93-.24.83-.58,1.51-1,2.06-.42.54-.92.95-1.49,1.21s-1.19.4-1.85.4-1.28-.13-1.85-.4-1.07-.67-1.49-1.21c-.42-.54-.75-1.23-.99-2.06-.24-.83-.36-1.81-.36-2.93s.12-2.11.36-2.94c.24-.83.57-1.52.99-2.06s.92-.95,1.49-1.21c.57-.26,1.19-.4,1.85-.4s1.28.13,1.85.4c.57.26,1.07.67,1.49,1.21s.76,1.23,1,2.06c.24.83.36,1.81.36,2.94Zm-1.82,0c0-.97-.08-1.79-.24-2.44s-.37-1.18-.64-1.58c-.27-.4-.58-.68-.92-.85s-.71-.25-1.09-.25-.74.08-1.09.25-.66.45-.92.85c-.27.4-.48.93-.63,1.58-.16.65-.23,1.47-.23,2.44s.08,1.79.23,2.44c.16.65.37,1.18.63,1.57.27.4.58.68.92.85s.71.25,1.09.25.74-.08,1.09-.25.66-.45.92-.85c.27-.4.48-.92.64-1.57s.24-1.47.24-2.44Z"></path>
</g>
<g>
<path class="cls-2" d="m646.15,82.68c0,.97-.15,1.85-.46,2.64-.31.79-.75,1.47-1.31,2.04-.56.57-1.24,1.01-2.02,1.32-.79.31-1.66.47-2.62.47h-4.86v-12.92h4.86c.96,0,1.83.16,2.62.47.79.31,1.46.75,2.02,1.32.56.57,1,1.25,1.31,2.04.31.8.46,1.67.46,2.63Zm-1.96,0c0-.77-.11-1.46-.32-2.06-.21-.61-.51-1.12-.9-1.55-.39-.42-.85-.75-1.4-.97-.55-.22-1.16-.33-1.84-.33h-2.93v9.83h2.93c.68,0,1.29-.11,1.84-.33.55-.22,1.02-.54,1.4-.97.39-.42.69-.94.9-1.54s.32-1.3.32-2.07Z"></path>
<path class="cls-2" d="m655.58,87.84c-.22.25-.46.47-.75.65-.28.18-.58.33-.9.45-.32.11-.65.2-.99.25-.34.05-.67.08-1,.08-.63,0-1.21-.11-1.75-.32s-1-.53-1.4-.94c-.39-.41-.7-.92-.92-1.53-.22-.61-.33-1.31-.33-2.1,0-.64.1-1.23.3-1.78s.48-1.03.85-1.44.82-.73,1.35-.96,1.13-.35,1.8-.35c.56,0,1.07.09,1.54.28.47.18.88.45,1.22.8.34.35.61.78.8,1.29.2.51.29,1.09.29,1.75,0,.27-.03.45-.09.54-.06.09-.17.14-.33.14h-5.99c.02.54.1,1.02.23,1.43.14.41.33.74.57,1.01s.53.47.87.6c.34.13.71.2,1.12.2.39,0,.73-.05,1.01-.14s.53-.19.74-.29c.21-.11.38-.2.52-.29s.27-.13.37-.13c.14,0,.25.05.33.16l.5.65Zm-1.45-4.28c0-.35-.05-.67-.15-.96-.1-.29-.25-.55-.44-.76-.19-.22-.43-.38-.7-.5s-.59-.18-.95-.18c-.74,0-1.32.21-1.74.64-.42.43-.69,1.02-.81,1.77h4.79Z"></path>
<path class="cls-2" d="m663,81.57c-.05.08-.1.13-.15.17-.05.03-.12.05-.21.05-.1,0-.2-.03-.32-.1-.12-.07-.26-.14-.42-.21s-.36-.15-.58-.22c-.22-.07-.49-.1-.79-.1-.25,0-.48.03-.69.09-.21.06-.38.15-.53.26-.14.11-.25.24-.33.4-.08.15-.12.32-.12.49,0,.23.07.42.2.57.13.15.31.28.53.39.22.11.47.21.75.29.28.09.56.18.85.27s.58.21.86.33c.28.12.53.28.75.46.22.18.4.4.53.66.14.26.2.57.2.95,0,.43-.08.82-.23,1.18-.15.36-.38.68-.67.94-.3.26-.67.47-1.1.62-.44.15-.94.23-1.5.23-.63,0-1.21-.1-1.75-.32-.53-.21-.98-.48-1.34-.8l.41-.67c.05-.08.11-.15.18-.19.07-.05.17-.07.29-.07.11,0,.23.04.35.12.12.08.26.18.43.28.17.1.37.19.61.27.24.08.54.12.9.12.3,0,.56-.04.78-.11.22-.08.41-.18.55-.31.15-.13.26-.28.33-.45.07-.17.11-.35.11-.53,0-.24-.07-.44-.2-.6-.13-.16-.31-.3-.53-.41-.22-.11-.47-.21-.75-.3-.28-.08-.57-.17-.86-.27-.29-.1-.58-.21-.86-.33-.28-.12-.53-.29-.75-.48-.22-.19-.4-.43-.53-.7s-.2-.61-.2-1.01c0-.35.07-.69.22-1.02.15-.32.36-.61.64-.86.28-.25.62-.44,1.03-.59.41-.15.88-.22,1.41-.22.61,0,1.15.1,1.64.29.49.19.91.46,1.25.79l-.39.64Z"></path>
<path class="cls-2" d="m671.84,81.71c-.05.07-.11.12-.16.16s-.12.06-.22.06-.2-.04-.3-.11c-.11-.08-.24-.16-.4-.24-.16-.09-.35-.17-.58-.24-.22-.08-.5-.11-.83-.11-.43,0-.81.08-1.14.23s-.6.38-.82.67c-.22.29-.39.64-.5,1.05-.11.41-.17.88-.17,1.39s.06,1.01.18,1.43c.12.42.29.77.51,1.05s.49.5.81.65c.32.15.67.22,1.06.22s.69-.05.94-.14c.25-.09.45-.19.61-.3.16-.11.3-.21.41-.3.11-.09.22-.14.33-.14.14,0,.25.05.33.16l.5.65c-.21.26-.45.48-.71.66-.26.18-.54.33-.83.44-.29.11-.6.2-.92.25-.32.05-.65.08-.98.08-.57,0-1.1-.1-1.6-.31s-.92-.52-1.29-.92c-.36-.4-.65-.9-.86-1.48-.21-.58-.32-1.25-.32-1.99,0-.68.09-1.3.28-1.88.19-.58.47-1.07.84-1.49.37-.42.82-.74,1.36-.98.54-.24,1.16-.36,1.85-.36.65,0,1.23.11,1.73.32s.94.51,1.33.89l-.47.65Z"></path>
<path class="cls-2" d="m675.7,81.75c.29-.6.65-1.07,1.06-1.41s.91-.51,1.49-.51c.2,0,.38.02.56.07.18.04.33.11.46.2l-.12,1.32c-.04.16-.14.24-.3.24-.08,0-.21-.02-.38-.05s-.35-.05-.54-.05c-.28,0-.53.04-.75.12-.22.08-.41.2-.58.36-.17.16-.32.36-.45.59-.13.23-.26.49-.37.79v5.72h-1.75v-9.14h1.01c.19,0,.32.04.39.1.07.07.12.19.15.37l.11,1.29Z"></path>
<path class="cls-2" d="m682.81,77.17c0,.16-.03.32-.1.46-.07.15-.15.28-.27.39-.11.11-.24.2-.39.26-.15.06-.31.09-.47.09s-.31-.03-.46-.09c-.14-.06-.27-.15-.38-.26-.11-.11-.2-.24-.26-.39-.06-.15-.09-.3-.09-.46s.03-.33.09-.47c.06-.15.15-.28.26-.39.11-.11.24-.2.38-.26.14-.06.3-.09.46-.09s.32.03.47.09c.15.06.28.15.39.26.11.11.2.24.27.39.07.15.1.3.1.47Zm-.33,2.83v9.14h-1.75v-9.14h1.75Z"></path>
<path class="cls-2" d="m686.69,81.37c.19-.23.4-.44.62-.63.22-.19.45-.35.71-.49.25-.13.52-.24.81-.31.29-.07.59-.11.91-.11.52,0,.99.1,1.42.31.42.2.78.5,1.08.9.3.4.53.88.7,1.47s.25,1.25.25,2.01c0,.68-.09,1.31-.27,1.88-.18.58-.44,1.08-.78,1.51s-.75.76-1.24,1c-.49.24-1.04.36-1.65.36-.55,0-1.01-.09-1.4-.27-.39-.18-.74-.43-1.04-.76v3.97h-1.75v-12.21h1.05c.25,0,.4.12.46.35l.15,1.02Zm.09,5.53c.29.38.6.64.93.79.33.15.71.23,1.12.23.8,0,1.43-.29,1.87-.87.44-.58.66-1.42.66-2.53,0-.58-.05-1.08-.15-1.49-.1-.41-.24-.75-.43-1.01-.19-.26-.42-.45-.7-.58s-.59-.18-.94-.18c-.51,0-.95.11-1.33.34-.38.23-.72.55-1.04.97v4.33Z"></path>
<path class="cls-2" d="m697.89,89.29c-.74,0-1.31-.21-1.71-.62-.4-.41-.6-1-.6-1.77v-5.47h-1.06c-.1,0-.19-.03-.26-.09-.07-.06-.1-.16-.1-.28v-.71l1.48-.21.4-2.73c.02-.1.07-.18.14-.24.07-.06.16-.08.27-.08h.89v3.07h2.59v1.28h-2.59v5.36c0,.36.09.63.27.8.18.18.4.27.68.27.16,0,.3-.02.42-.06.12-.04.22-.09.3-.14.08-.05.16-.1.22-.14.06-.04.11-.06.16-.06.06,0,.11.01.14.04.03.03.07.07.1.13l.52.85c-.29.26-.63.47-1.03.61-.4.14-.81.22-1.23.22Z"></path>
<path class="cls-2" d="m705.39,79.85c.67,0,1.28.11,1.82.33.54.22,1,.53,1.39.94.38.41.67.91.88,1.49.2.58.31,1.23.31,1.95s-.1,1.37-.31,1.95-.5,1.08-.88,1.49c-.38.41-.84.72-1.39.94s-1.15.33-1.82.33-1.29-.11-1.83-.33-1.01-.53-1.39-.94c-.38-.41-.68-.9-.89-1.49s-.31-1.23-.31-1.95.1-1.37.31-1.95c.21-.58.5-1.07.89-1.49.38-.41.85-.72,1.39-.94.54-.22,1.15-.33,1.83-.33Zm0,8.05c.86,0,1.51-.29,1.94-.87.43-.58.64-1.4.64-2.46s-.21-1.88-.64-2.46c-.43-.58-1.07-.88-1.94-.88s-1.53.29-1.96.88c-.43.58-.64,1.41-.64,2.46s.21,1.88.64,2.46c.43.58,1.08.87,1.96.87Z"></path>
<path class="cls-2" d="m713.39,81.75c.29-.6.65-1.07,1.06-1.41s.91-.51,1.49-.51c.2,0,.38.02.56.07.18.04.33.11.46.2l-.12,1.32c-.04.16-.14.24-.3.24-.08,0-.21-.02-.38-.05s-.35-.05-.54-.05c-.28,0-.53.04-.75.12-.22.08-.41.2-.58.36-.17.16-.32.36-.45.59-.13.23-.26.49-.37.79v5.72h-1.75v-9.14h1.01c.19,0,.32.04.39.1.07.07.12.19.15.37l.11,1.29Z"></path>
</g>
<g>
<rect class="cls-2" height="45" width="75" x="375" y="105"></rect>
<path class="cls-4" d="m450.5,150.5h-76v-46h76v46Zm-75-1h74v-44h-74v44Z"></path>
</g>
<g>
<rect class="cls-1" height="45" width="75" x="375" y="60"></rect>
<path class="cls-4" d="m450.5,105.5h-76v-46h76v46Zm-75-1h74v-44h-74v44Z"></path>
</g>
<path class="cls-4" d="m416.48,132.8v1.34h-6.98v-1.34h2.74v-8.47c0-.27,0-.55.03-.84l-2.2,1.86c-.08.07-.17.11-.25.13s-.16.02-.24,0c-.07-.01-.14-.04-.2-.08-.06-.04-.1-.08-.14-.12l-.55-.76,3.87-3.34h1.43v11.61h2.49Z"></path>
<g>
<rect class="cls-2" height="45" width="75" x="375" y="150"></rect>
<path class="cls-4" d="m450.5,195.5h-76v-46h76v46Zm-75-1h74v-44h-74v44Z"></path>
</g>
<path class="cls-4" d="m417.2,172.68c0,1.13-.12,2.11-.36,2.93-.24.83-.58,1.51-1,2.06-.42.54-.92.95-1.49,1.21s-1.19.4-1.85.4-1.28-.13-1.85-.4-1.07-.67-1.49-1.21c-.42-.54-.75-1.23-.99-2.06-.24-.83-.36-1.81-.36-2.93s.12-2.11.36-2.94c.24-.83.57-1.52.99-2.06s.92-.95,1.49-1.21c.57-.26,1.19-.4,1.85-.4s1.28.13,1.85.4c.57.26,1.07.67,1.49,1.21s.76,1.23,1,2.06c.24.83.36,1.81.36,2.94Zm-1.82,0c0-.97-.08-1.79-.24-2.44s-.37-1.18-.64-1.58c-.27-.4-.58-.68-.92-.85s-.71-.25-1.09-.25-.74.08-1.09.25-.66.45-.92.85c-.27.4-.48.93-.63,1.58-.16.65-.23,1.47-.23,2.44s.08,1.79.23,2.44c.16.65.37,1.18.63,1.57.27.4.58.68.92.85s.71.25,1.09.25.74-.08,1.09-.25.66-.45.92-.85c.27-.4.48-.92.64-1.57s.24-1.47.24-2.44Z"></path>
<g>
<rect class="cls-2" height="45" width="75" x="375" y="195"></rect>
<path class="cls-4" d="m450.5,240.5h-76v-46h76v46Zm-75-1h74v-44h-74v44Z"></path>
</g>
<path class="cls-4" d="m417.2,217.68c0,1.13-.12,2.11-.36,2.93-.24.83-.58,1.51-1,2.06-.42.54-.92.95-1.49,1.21s-1.19.4-1.85.4-1.28-.13-1.85-.4-1.07-.67-1.49-1.21c-.42-.54-.75-1.23-.99-2.06-.24-.83-.36-1.81-.36-2.93s.12-2.11.36-2.94c.24-.83.57-1.52.99-2.06s.92-.95,1.49-1.21c.57-.26,1.19-.4,1.85-.4s1.28.13,1.85.4c.57.26,1.07.67,1.49,1.21s.76,1.23,1,2.06c.24.83.36,1.81.36,2.94Zm-1.82,0c0-.97-.08-1.79-.24-2.44s-.37-1.18-.64-1.58c-.27-.4-.58-.68-.92-.85s-.71-.25-1.09-.25-.74.08-1.09.25-.66.45-.92.85c-.27.4-.48.93-.63,1.58-.16.65-.23,1.47-.23,2.44s.08,1.79.23,2.44c.16.65.37,1.18.63,1.57.27.4.58.68.92.85s.71.25,1.09.25.74-.08,1.09-.25.66-.45.92-.85c.27-.4.48-.92.64-1.57s.24-1.47.24-2.44Z"></path>
<g>
<path class="cls-2" d="m412.89,76.22v12.92h-.97c-.15,0-.27-.03-.37-.08-.1-.05-.2-.14-.3-.26l-7.3-9.44c.01.16.02.32.03.48s.01.3.01.44v8.87h-1.68v-12.92h.99c.17,0,.29.02.38.06.08.04.18.13.28.27l7.32,9.45c-.02-.17-.03-.34-.04-.51s-.01-.32-.01-.46v-8.8h1.67Z"></path>
<path class="cls-2" d="m422.77,78.32c-.06.1-.12.18-.19.22-.07.05-.15.07-.25.07s-.23-.05-.37-.15c-.14-.1-.31-.21-.52-.33s-.45-.23-.74-.33-.63-.15-1.04-.15c-.38,0-.71.05-.99.15s-.52.23-.72.4c-.19.17-.34.37-.44.6-.1.23-.15.48-.15.75,0,.35.09.64.27.86.18.23.41.42.7.59s.62.3.98.42c.37.12.74.25,1.12.37.38.13.76.28,1.12.45.37.17.69.38.98.63s.52.57.7.94c.18.37.26.82.26,1.35,0,.57-.1,1.1-.29,1.6-.2.5-.48.93-.85,1.3s-.83.67-1.37.88c-.54.21-1.16.32-1.85.32-.41,0-.82-.04-1.21-.12-.39-.08-.76-.19-1.11-.34-.35-.15-.67-.32-.98-.53s-.57-.44-.81-.7l.55-.92c.05-.07.12-.13.19-.18.08-.05.16-.07.26-.07.13,0,.27.07.44.2s.37.28.61.44c.24.16.53.3.87.44s.75.2,1.24.2c.4,0,.75-.05,1.06-.16.31-.1.58-.25.79-.45s.38-.43.49-.71c.11-.28.17-.58.17-.92,0-.38-.09-.69-.26-.93-.17-.24-.41-.44-.69-.6s-.62-.3-.98-.41c-.37-.11-.74-.23-1.12-.36s-.76-.27-1.12-.43c-.37-.16-.69-.37-.98-.63-.29-.26-.52-.59-.69-.98-.17-.39-.26-.88-.26-1.45,0-.46.09-.91.27-1.34s.44-.81.79-1.15.77-.6,1.27-.8c.5-.2,1.08-.3,1.73-.3.73,0,1.39.12,2,.35.61.23,1.14.56,1.59,1l-.47.91Z"></path>
</g>
<g>
<rect class="cls-2" height="45" width="75" x="450" y="105"></rect>
<path class="cls-4" d="m525.5,150.5h-76v-46h76v46Zm-75-1h74v-44h-74v44Z"></path>
</g>
<g>
<rect class="cls-1" height="45" width="75" x="450" y="60"></rect>
<path class="cls-4" d="m525.5,105.5h-76v-46h76v46Zm-75-1h74v-44h-74v44Z"></path>
</g>
<path class="cls-4" d="m492.2,127.68c0,1.13-.12,2.11-.36,2.93-.24.83-.58,1.51-1,2.06-.42.54-.92.95-1.49,1.21s-1.19.4-1.85.4-1.28-.13-1.85-.4-1.07-.67-1.49-1.21c-.42-.54-.75-1.23-.99-2.06-.24-.83-.36-1.81-.36-2.93s.12-2.11.36-2.94c.24-.83.57-1.52.99-2.06s.92-.95,1.49-1.21c.57-.26,1.19-.4,1.85-.4s1.28.13,1.85.4c.57.26,1.07.67,1.49,1.21s.76,1.23,1,2.06c.24.83.36,1.81.36,2.94Zm-1.82,0c0-.97-.08-1.79-.24-2.44s-.37-1.18-.64-1.58c-.27-.4-.58-.68-.92-.85s-.71-.25-1.09-.25-.74.08-1.09.25-.66.45-.92.85c-.27.4-.48.93-.63,1.58-.16.65-.23,1.47-.23,2.44s.08,1.79.23,2.44c.16.65.37,1.18.63,1.57.27.4.58.68.92.85s.71.25,1.09.25.74-.08,1.09-.25.66-.45.92-.85c.27-.4.48-.92.64-1.57s.24-1.47.24-2.44Z"></path>
<g>
<rect class="cls-2" height="45" width="75" x="450" y="150"></rect>
<path class="cls-4" d="m525.5,195.5h-76v-46h76v46Zm-75-1h74v-44h-74v44Z"></path>
</g>
<path class="cls-4" d="m481.48,173.17h12.03v1.28h-12.03v-1.28Z"></path>
<g>
<rect class="cls-2" height="45" width="75" x="450" y="195"></rect>
<path class="cls-4" d="m525.5,240.5h-76v-46h76v46Zm-75-1h74v-44h-74v44Z"></path>
</g>
<path class="cls-4" d="m485.64,216.04c.66-.14,1.26-.21,1.79-.21.67,0,1.27.1,1.78.3.52.2.95.48,1.3.83.35.35.62.76.79,1.24.18.48.27.99.27,1.55,0,.68-.12,1.3-.36,1.86s-.57,1.04-.99,1.43c-.42.4-.92.7-1.49.91s-1.19.32-1.85.32c-.39,0-.76-.04-1.11-.12-.35-.08-.68-.18-.99-.31-.31-.13-.59-.28-.85-.45s-.49-.34-.7-.53l.54-.76c.11-.17.27-.25.46-.25.13,0,.27.05.42.14.15.09.33.2.54.31.21.11.46.22.75.31.29.09.63.14,1.03.14.44,0,.83-.07,1.18-.21.35-.14.65-.34.89-.6.24-.26.43-.57.56-.93s.19-.76.19-1.2c0-.39-.06-.74-.17-1.05s-.29-.58-.51-.8c-.23-.22-.51-.39-.86-.51-.34-.12-.74-.17-1.2-.17-.64,0-1.31.11-2.03.34l-1.11-.32,1.05-6.1h6.19v.76c0,.25-.08.46-.24.62-.16.16-.42.24-.8.24h-3.93l-.56,3.2Z"></path>
<g>
<path class="cls-2" d="m220.67,77.82h-4.1v11.32h-1.91v-11.32h-4.12v-1.6h10.13v1.6Z"></path>
<path class="cls-2" d="m221.89,81.75c.29-.6.65-1.07,1.06-1.41s.91-.51,1.49-.51c.2,0,.38.02.56.07.18.04.33.11.46.2l-.12,1.32c-.04.16-.14.24-.3.24-.08,0-.21-.02-.38-.05s-.35-.05-.54-.05c-.28,0-.53.04-.75.12-.22.08-.41.2-.58.36-.17.16-.32.36-.45.59-.13.23-.26.49-.37.79v5.72h-1.75v-9.14h1.01c.19,0,.32.04.39.1.07.07.12.19.15.37l.11,1.29Z"></path>
<path class="cls-2" d="m226.45,81.28c.51-.49,1.06-.85,1.66-1.09.6-.24,1.25-.36,1.97-.36.52,0,.98.08,1.39.26.4.17.74.41,1.02.71.28.31.48.67.62,1.1.14.43.21.9.21,1.41v5.83h-.78c-.17,0-.31-.03-.4-.09-.09-.06-.16-.16-.22-.32l-.19-.8c-.23.22-.46.41-.69.57-.23.17-.47.31-.72.42-.25.12-.51.21-.8.27s-.59.09-.94.09-.7-.05-1.01-.15c-.32-.1-.59-.25-.82-.45-.23-.21-.42-.46-.55-.77-.14-.31-.2-.66-.2-1.07,0-.36.1-.71.29-1.04.19-.33.51-.63.95-.9.44-.26,1.02-.48,1.73-.65s1.59-.26,2.62-.29v-.67c0-.69-.15-1.21-.44-1.55s-.73-.51-1.3-.51c-.38,0-.71.05-.97.14-.26.1-.49.2-.67.32-.19.12-.35.22-.5.32-.14.1-.29.14-.44.14-.12,0-.22-.03-.31-.1s-.16-.14-.21-.23l-.32-.57Zm5.15,3.81c-.71.02-1.32.08-1.82.17-.5.09-.9.2-1.21.35-.31.14-.54.31-.67.51-.14.2-.21.41-.21.65,0,.23.04.42.11.59s.18.3.31.41c.13.1.28.18.46.23.17.05.36.07.57.07.27,0,.52-.03.74-.08.23-.05.44-.13.63-.23.2-.1.39-.22.57-.36.18-.14.36-.31.53-.5v-1.8Z"></path>
<path class="cls-2" d="m237.32,81.27c.2-.21.41-.4.62-.58s.45-.32.69-.45.5-.22.78-.29c.28-.07.58-.1.9-.1.5,0,.95.08,1.33.25s.7.4.96.71c.26.3.45.67.58,1.09s.2.9.2,1.41v5.82h-1.76v-5.82c0-.65-.15-1.16-.45-1.53-.3-.36-.76-.54-1.38-.54-.45,0-.87.11-1.26.32-.39.21-.76.5-1.09.87v6.71h-1.75v-9.14h1.05c.25,0,.4.12.46.35l.13.92Z"></path>
<path class="cls-2" d="m251.14,81.57c-.05.08-.1.13-.15.17-.05.03-.12.05-.21.05-.1,0-.2-.03-.32-.1-.12-.07-.26-.14-.42-.21s-.36-.15-.58-.22c-.22-.07-.49-.1-.79-.1-.25,0-.48.03-.69.09-.21.06-.38.15-.53.26-.14.11-.25.24-.33.4-.08.15-.12.32-.12.49,0,.23.07.42.2.57.13.15.31.28.53.39.22.11.47.21.75.29.28.09.56.18.85.27s.58.21.86.33c.28.12.53.28.75.46.22.18.4.4.53.66.14.26.2.57.2.95,0,.43-.08.82-.23,1.18-.15.36-.38.68-.67.94-.3.26-.67.47-1.1.62-.44.15-.94.23-1.5.23-.63,0-1.21-.1-1.75-.32-.53-.21-.98-.48-1.34-.8l.41-.67c.05-.08.11-.15.18-.19.07-.05.17-.07.29-.07.11,0,.23.04.35.12.12.08.26.18.43.28.17.1.37.19.61.27.24.08.54.12.9.12.3,0,.56-.04.78-.11.22-.08.41-.18.55-.31.15-.13.26-.28.33-.45.07-.17.11-.35.11-.53,0-.24-.07-.44-.2-.6-.13-.16-.31-.3-.53-.41-.22-.11-.47-.21-.75-.3-.28-.08-.57-.17-.86-.27-.29-.1-.58-.21-.86-.33-.28-.12-.53-.29-.75-.48-.22-.19-.4-.43-.53-.7s-.2-.61-.2-1.01c0-.35.07-.69.22-1.02.15-.32.36-.61.64-.86.28-.25.62-.44,1.03-.59.41-.15.88-.22,1.41-.22.61,0,1.15.1,1.64.29.49.19.91.46,1.25.79l-.39.64Z"></path>
<path class="cls-2" d="m255.37,75.86v13.29h-1.76v-13.29h1.76Z"></path>
<path class="cls-2" d="m257.64,81.28c.51-.49,1.06-.85,1.66-1.09.6-.24,1.25-.36,1.97-.36.52,0,.98.08,1.39.26.4.17.74.41,1.02.71.28.31.48.67.62,1.1.14.43.21.9.21,1.41v5.83h-.78c-.17,0-.31-.03-.4-.09-.09-.06-.16-.16-.22-.32l-.19-.8c-.23.22-.46.41-.69.57-.23.17-.47.31-.72.42-.25.12-.51.21-.8.27s-.59.09-.94.09-.7-.05-1.01-.15c-.32-.1-.59-.25-.82-.45-.23-.21-.42-.46-.55-.77-.14-.31-.2-.66-.2-1.07,0-.36.1-.71.29-1.04.19-.33.51-.63.95-.9.44-.26,1.02-.48,1.73-.65s1.59-.26,2.62-.29v-.67c0-.69-.15-1.21-.44-1.55s-.73-.51-1.3-.51c-.38,0-.71.05-.97.14-.26.1-.49.2-.67.32-.19.12-.35.22-.5.32-.14.1-.29.14-.44.14-.12,0-.22-.03-.31-.1s-.16-.14-.21-.23l-.32-.57Zm5.15,3.81c-.71.02-1.32.08-1.82.17-.5.09-.9.2-1.21.35-.31.14-.54.31-.67.51-.14.2-.21.41-.21.65,0,.23.04.42.11.59s.18.3.31.41c.13.1.28.18.46.23.17.05.36.07.57.07.27,0,.52-.03.74-.08.23-.05.44-.13.63-.23.2-.1.39-.22.57-.36.18-.14.36-.31.53-.5v-1.8Z"></path>
<path class="cls-2" d="m269.61,89.29c-.74,0-1.31-.21-1.71-.62-.4-.41-.6-1-.6-1.77v-5.47h-1.06c-.1,0-.19-.03-.26-.09-.07-.06-.1-.16-.1-.28v-.71l1.48-.21.4-2.73c.02-.1.07-.18.14-.24.07-.06.16-.08.27-.08h.89v3.07h2.59v1.28h-2.59v5.36c0,.36.09.63.27.8.18.18.4.27.68.27.16,0,.3-.02.42-.06.12-.04.22-.09.3-.14.08-.05.16-.1.22-.14.06-.04.11-.06.16-.06.06,0,.11.01.14.04.03.03.07.07.1.13l.52.85c-.29.26-.63.47-1.03.61-.4.14-.81.22-1.23.22Z"></path>
<path class="cls-2" d="m275.43,77.17c0,.16-.03.32-.1.46-.07.15-.15.28-.27.39-.11.11-.24.2-.39.26-.15.06-.31.09-.47.09s-.31-.03-.46-.09c-.14-.06-.27-.15-.38-.26-.11-.11-.2-.24-.26-.39-.06-.15-.09-.3-.09-.46s.03-.33.09-.47c.06-.15.15-.28.26-.39.11-.11.24-.2.38-.26.14-.06.3-.09.46-.09s.32.03.47.09c.15.06.28.15.39.26.11.11.2.24.27.39.07.15.1.3.1.47Zm-.33,2.83v9.14h-1.75v-9.14h1.75Z"></path>
<path class="cls-2" d="m281.54,79.85c.67,0,1.28.11,1.82.33.54.22,1,.53,1.39.94.38.41.67.91.88,1.49.2.58.31,1.23.31,1.95s-.1,1.37-.31,1.95-.5,1.08-.88,1.49c-.38.41-.84.72-1.39.94s-1.15.33-1.82.33-1.29-.11-1.83-.33-1.01-.53-1.39-.94c-.38-.41-.68-.9-.89-1.49s-.31-1.23-.31-1.95.1-1.37.31-1.95c.21-.58.5-1.07.89-1.49.38-.41.85-.72,1.39-.94.54-.22,1.15-.33,1.83-.33Zm0,8.05c.86,0,1.51-.29,1.94-.87.43-.58.64-1.4.64-2.46s-.21-1.88-.64-2.46c-.43-.58-1.07-.88-1.94-.88s-1.53.29-1.96.88c-.43.58-.64,1.41-.64,2.46s.21,1.88.64,2.46c.43.58,1.08.87,1.96.87Z"></path>
<path class="cls-2" d="m289.53,81.27c.2-.21.41-.4.62-.58s.45-.32.69-.45.5-.22.78-.29c.28-.07.58-.1.9-.1.5,0,.95.08,1.33.25s.7.4.96.71c.26.3.45.67.58,1.09s.2.9.2,1.41v5.82h-1.76v-5.82c0-.65-.15-1.16-.45-1.53-.3-.36-.76-.54-1.38-.54-.45,0-.87.11-1.26.32-.39.21-.76.5-1.09.87v6.71h-1.75v-9.14h1.05c.25,0,.4.12.46.35l.13.92Z"></path>
<path class="cls-2" d="m312.56,89.14h-1.71c-.34,0-.59-.13-.75-.41l-3.2-4.48c-.1-.15-.21-.26-.33-.32s-.3-.09-.54-.09h-1.25v5.3h-1.92v-12.92h3.73c.83,0,1.55.08,2.16.26.6.17,1.1.41,1.49.73.39.32.68.7.87,1.14.19.44.28.94.28,1.49,0,.45-.07.87-.21,1.27-.14.4-.34.75-.61,1.07-.27.31-.59.59-.98.81s-.82.4-1.3.52c.24.14.45.35.62.6l3.64,5.03Zm-6.03-6.7c.49,0,.93-.06,1.3-.18.38-.12.69-.29.94-.51s.44-.48.57-.78.19-.64.19-1c0-.74-.24-1.3-.73-1.68s-1.22-.57-2.2-.57h-1.81v4.73h1.75Z"></path>
<path class="cls-2" d="m320.76,87.84c-.22.25-.46.47-.75.65-.28.18-.58.33-.9.45-.32.11-.65.2-.99.25-.34.05-.67.08-1,.08-.63,0-1.21-.11-1.75-.32s-1-.53-1.4-.94c-.39-.41-.7-.92-.92-1.53-.22-.61-.33-1.31-.33-2.1,0-.64.1-1.23.3-1.78s.48-1.03.85-1.44.82-.73,1.35-.96,1.13-.35,1.8-.35c.56,0,1.07.09,1.54.28.47.18.88.45,1.22.8.34.35.61.78.8,1.29.2.51.29,1.09.29,1.75,0,.27-.03.45-.09.54-.06.09-.17.14-.33.14h-5.99c.02.54.1,1.02.23,1.43.14.41.33.74.57,1.01s.53.47.87.6c.34.13.71.2,1.12.2.39,0,.73-.05,1.01-.14s.53-.19.74-.29c.21-.11.38-.2.52-.29s.27-.13.37-.13c.14,0,.25.05.33.16l.5.65Zm-1.45-4.28c0-.35-.05-.67-.15-.96-.1-.29-.25-.55-.44-.76-.19-.22-.43-.38-.7-.5s-.59-.18-.95-.18c-.74,0-1.32.21-1.74.64-.42.43-.69,1.02-.81,1.77h4.79Z"></path>
<path class="cls-2" d="m330.58,80.34v.66c0,.22-.14.35-.41.41l-.98.14c.08.19.15.38.2.59s.07.42.07.65c0,.45-.09.86-.26,1.22-.17.36-.41.67-.72.93-.31.26-.67.46-1.09.59-.42.14-.89.21-1.39.21-.41,0-.8-.04-1.16-.13-.18.11-.32.23-.41.36-.09.13-.14.26-.14.38,0,.21.09.37.27.47.18.1.41.18.69.22s.61.07.98.09.74.03,1.12.06c.38.03.76.07,1.12.14.37.07.7.18.98.33.29.15.52.36.69.63.18.27.27.61.27,1.04,0,.4-.1.78-.29,1.15-.19.37-.48.7-.85.99s-.83.52-1.36.69c-.53.17-1.14.26-1.82.26s-1.27-.07-1.77-.2c-.5-.13-.92-.31-1.25-.53-.33-.22-.58-.48-.75-.77s-.25-.6-.25-.92c0-.44.14-.82.41-1.13.28-.31.66-.55,1.14-.72-.26-.12-.47-.28-.63-.49s-.23-.48-.23-.82c0-.13.02-.27.07-.41s.12-.28.22-.42c.1-.14.22-.27.37-.4.15-.12.32-.24.51-.34-.45-.25-.8-.59-1.06-1-.26-.42-.39-.9-.39-1.46,0-.45.09-.85.26-1.21s.42-.67.72-.93c.31-.26.68-.46,1.11-.59.43-.14.9-.21,1.41-.21.79,0,1.47.16,2.04.49h2.54Zm-1.78,9.28c0-.22-.06-.39-.18-.52-.12-.13-.28-.23-.49-.31-.21-.07-.45-.13-.72-.16-.28-.03-.57-.06-.87-.08-.3-.02-.61-.03-.93-.05-.32-.02-.62-.04-.92-.09-.31.16-.57.35-.77.57s-.3.48-.3.78c0,.19.05.37.15.54.1.17.25.31.46.44s.47.22.78.29c.32.07.69.1,1.13.1s.81-.04,1.14-.11c.33-.07.61-.18.83-.31.22-.13.4-.3.51-.48.12-.19.18-.39.18-.61Zm-2.8-5.04c.31,0,.59-.04.82-.13s.43-.2.59-.36.28-.34.36-.55.12-.45.12-.71c0-.53-.16-.95-.48-1.26-.32-.31-.79-.47-1.42-.47s-1.09.16-1.41.47c-.32.32-.48.74-.48,1.26,0,.26.04.49.12.71s.2.4.36.55c.16.15.36.27.59.36.24.09.51.13.81.13Z"></path>
<path class="cls-2" d="m334.35,77.17c0,.16-.03.32-.1.46-.07.15-.15.28-.27.39-.11.11-.24.2-.39.26-.15.06-.31.09-.47.09s-.31-.03-.46-.09c-.14-.06-.27-.15-.38-.26-.11-.11-.2-.24-.26-.39-.06-.15-.09-.3-.09-.46s.03-.33.09-.47c.06-.15.15-.28.26-.39.11-.11.24-.2.38-.26.14-.06.3-.09.46-.09s.32.03.47.09c.15.06.28.15.39.26.11.11.2.24.27.39.07.15.1.3.1.47Zm-.33,2.83v9.14h-1.75v-9.14h1.75Z"></path>
<path class="cls-2" d="m336.57,89.14v-9.14h1.05c.25,0,.4.12.46.35l.13.87c.34-.4.71-.73,1.12-.99.41-.25.89-.38,1.44-.38.61,0,1.1.17,1.48.5s.65.79.83,1.35c.13-.32.3-.6.51-.84s.44-.43.7-.58.53-.26.82-.33c.29-.07.59-.11.89-.11.49,0,.92.08,1.3.23.38.15.7.38.97.67.26.29.46.66.6,1.09.14.43.21.92.21,1.47v5.82h-1.76v-5.82c0-.68-.15-1.2-.45-1.55s-.73-.52-1.3-.52c-.25,0-.49.04-.72.13-.23.09-.43.22-.6.39-.17.17-.31.39-.4.65-.1.26-.15.56-.15.9v5.82h-1.76v-5.82c0-.71-.14-1.23-.42-1.57-.28-.34-.7-.5-1.24-.5-.38,0-.73.1-1.05.3s-.62.47-.89.81v6.79h-1.75Z"></path>
<path class="cls-2" d="m358.95,87.84c-.22.25-.46.47-.75.65-.28.18-.58.33-.9.45-.32.11-.65.2-.99.25-.34.05-.67.08-1,.08-.63,0-1.21-.11-1.75-.32s-1-.53-1.4-.94c-.39-.41-.7-.92-.92-1.53-.22-.61-.33-1.31-.33-2.1,0-.64.1-1.23.3-1.78s.48-1.03.85-1.44.82-.73,1.35-.96,1.13-.35,1.8-.35c.56,0,1.07.09,1.54.28.47.18.88.45,1.22.8.34.35.61.78.8,1.29.2.51.29,1.09.29,1.75,0,.27-.03.45-.09.54-.06.09-.17.14-.33.14h-5.99c.02.54.1,1.02.23,1.43.14.41.33.74.57,1.01s.53.47.87.6c.34.13.71.2,1.12.2.39,0,.73-.05,1.01-.14s.53-.19.74-.29c.21-.11.38-.2.52-.29s.27-.13.37-.13c.14,0,.25.05.33.16l.5.65Zm-1.45-4.28c0-.35-.05-.67-.15-.96-.1-.29-.25-.55-.44-.76-.19-.22-.43-.38-.7-.5s-.59-.18-.95-.18c-.74,0-1.32.21-1.74.64-.42.43-.69,1.02-.81,1.77h4.79Z"></path>
</g>
<g>
<polygon class="cls-4" points="780.5 270.5 777.5 270.5 777.5 269.5 779.5 269.5 779.5 267.5 780.5 267.5 780.5 270.5"></polygon>
<path class="cls-4" d="m774.51,270.5h-4.99v-1h4.99v1Zm-7.98,0h-4.99v-1h4.99v1Zm-7.98,0h-4.99v-1h4.99v1Zm-7.98,0h-4.99v-1h4.99v1Zm-7.98,0h-4.99v-1h4.99v1Zm-7.98,0h-4.99v-1h4.99v1Zm-7.98,0h-4.99v-1h4.99v1Zm-7.98,0h-4.99v-1h4.99v1Zm-7.98,0h-4.99v-1h4.99v1Zm-7.98,0h-4.99v-1h4.99v1Zm-7.98,0h-4.99v-1h4.99v1Zm-7.98,0h-4.99v-1h4.99v1Zm-7.98,0h-4.99v-1h4.99v1Zm-7.98,0h-4.99v-1h4.99v1Zm-7.98,0h-4.99v-1h4.99v1Zm-7.98,0h-4.99v-1h4.99v1Zm-7.98,0h-4.99v-1h4.99v1Zm-7.98,0h-4.99v-1h4.99v1Zm-7.98,0h-4.99v-1h4.99v1Zm-7.98,0h-4.99v-1h4.99v1Zm-7.98,0h-4.99v-1h4.99v1Zm-7.98,0h-4.99v-1h4.99v1Zm-7.98,0h-4.99v-1h4.99v1Zm-7.98,0h-4.99v-1h4.99v1Zm-7.98,0h-4.99v-1h4.99v1Zm-7.98,0h-4.99v-1h4.99v1Zm-7.98,0h-4.99v-1h4.99v1Zm-7.98,0h-4.99v-1h4.99v1Zm-7.98,0h-4.99v-1h4.99v1Zm-7.98,0h-4.99v-1h4.99v1Zm-7.98,0h-4.99v-1h4.99v1Zm-7.98,0h-4.99v-1h4.99v1Zm-7.98,0h-4.99v-1h4.99v1Zm-7.98,0h-4.99v-1h4.99v1Zm-7.98,0h-4.99v-1h4.99v1Zm-7.98,0h-4.99v-1h4.99v1Zm-7.98,0h-4.99v-1h4.99v1Zm-7.98,0h-4.99v-1h4.99v1Zm-7.98,0h-4.99v-1h4.99v1Zm-7.98,0h-4.99v-1h4.99v1Zm-7.98,0h-4.99v-1h4.99v1Zm-7.98,0h-4.99v-1h4.99v1Zm-7.98,0h-4.99v-1h4.99v1Zm-7.98,0h-4.99v-1h4.99v1Zm-7.98,0h-4.99v-1h4.99v1Zm-7.98,0h-4.99v-1h4.99v1Zm-7.98,0h-4.99v-1h4.99v1Zm-7.98,0h-4.99v-1h4.99v1Zm-7.98,0h-4.99v-1h4.99v1Zm-7.98,0h-4.99v-1h4.99v1Zm-7.98,0h-4.99v-1h4.99v1Zm-7.98,0h-4.99v-1h4.99v1Zm-7.98,0h-4.99v-1h4.99v1Zm-7.98,0h-4.99v-1h4.99v1Zm-7.98,0h-4.99v-1h4.99v1Zm-7.98,0h-4.99v-1h4.99v1Zm-7.98,0h-4.99v-1h4.99v1Zm-7.98,0h-4.99v-1h4.99v1Zm-7.98,0h-4.99v-1h4.99v1Zm-7.98,0h-4.99v-1h4.99v1Zm-7.98,0h-4.99v-1h4.99v1Zm-7.98,0h-4.99v-1h4.99v1Zm-7.98,0h-4.99v-1h4.99v1Zm-7.98,0h-4.99v-1h4.99v1Zm-7.98,0h-4.99v-1h4.99v1Zm-7.98,0h-4.99v-1h4.99v1Zm-7.98,0h-4.99v-1h4.99v1Zm-7.98,0h-4.99v-1h4.99v1Zm-7.98,0h-4.99v-1h4.99v1Zm-7.98,0h-4.99v-1h4.99v1Zm-7.98,0h-4.99v-1h4.99v1Zm-7.98,0h-4.99v-1h4.99v1Zm-7.98,0h-4.99v-1h4.99v1Zm-7.98,0h-4.99v-1h4.99v1Zm-7.98,0h-4.99v-1h4.99v1Zm-7.98,0h-4.99v-1h4.99v1Zm-7.98,0h-4.99v-1h4.99v1Zm-7.98,0h-4.99v-1h4.99v1Zm-7.98,0h-4.99v-1h4.99v1Zm-7.98,0h-4.99v-1h4.99v1Zm-7.98,0h-4.99v-1h4.99v1Zm-7.98,0h-4.99v-1h4.99v1Zm-7.98,0h-4.99v-1h4.99v1Zm-7.98,0h-4.99v-1h4.99v1Zm-7.98,0h-4.99v-1h4.99v1Zm-7.98,0h-4.99v-1h4.99v1Zm-7.98,0h-4.99v-1h4.99v1Zm-7.98,0h-4.99v-1h4.99v1Zm-7.98,0h-4.99v-1h4.99v1Zm-7.98,0h-4.99v-1h4.99v1Zm-7.98,0h-4.99v-1h4.99v1Zm-7.98,0h-4.99v-1h4.99v1Zm-7.98,0h-4.99v-1h4.99v1Z"></path>
<polygon class="cls-4" points="32.5 270.5 29.5 270.5 29.5 267.5 30.5 267.5 30.5 269.5 32.5 269.5 32.5 270.5"></polygon>
<path class="cls-4" d="m30.5,264.5h-1v-5h1v5Zm0-8h-1v-5h1v5Zm0-8h-1v-5h1v5Zm0-8h-1v-5h1v5Zm0-8h-1v-5h1v5Zm0-8h-1v-5h1v5Zm0-8h-1v-5h1v5Zm0-8h-1v-5h1v5Zm0-8h-1v-5h1v5Zm0-8h-1v-5h1v5Zm0-8h-1v-5h1v5Zm0-8h-1v-5h1v5Zm0-8h-1v-5h1v5Zm0-8h-1v-5h1v5Zm0-8h-1v-5h1v5Zm0-8h-1v-5h1v5Zm0-8h-1v-5h1v5Zm0-8h-1v-5h1v5Zm0-8h-1v-5h1v5Zm0-8h-1v-5h1v5Zm0-8h-1v-5h1v5Zm0-8h-1v-5h1v5Zm0-8h-1v-5h1v5Zm0-8h-1v-5h1v5Zm0-8h-1v-5h1v5Zm0-8h-1v-5h1v5Zm0-8h-1v-5h1v5Zm0-8h-1v-5h1v5Zm0-8h-1v-5h1v5Z"></path>
<polygon class="cls-4" points="30.5 32.5 29.5 32.5 29.5 29.5 32.5 29.5 32.5 30.5 30.5 30.5 30.5 32.5"></polygon>
<path class="cls-4" d="m774.51,30.5h-4.99v-1h4.99v1Zm-7.98,0h-4.99v-1h4.99v1Zm-7.98,0h-4.99v-1h4.99v1Zm-7.98,0h-4.99v-1h4.99v1Zm-7.98,0h-4.99v-1h4.99v1Zm-7.98,0h-4.99v-1h4.99v1Zm-7.98,0h-4.99v-1h4.99v1Zm-7.98,0h-4.99v-1h4.99v1Zm-7.98,0h-4.99v-1h4.99v1Zm-7.98,0h-4.99v-1h4.99v1Zm-7.98,0h-4.99v-1h4.99v1Zm-7.98,0h-4.99v-1h4.99v1Zm-7.98,0h-4.99v-1h4.99v1Zm-7.98,0h-4.99v-1h4.99v1Zm-7.98,0h-4.99v-1h4.99v1Zm-7.98,0h-4.99v-1h4.99v1Zm-7.98,0h-4.99v-1h4.99v1Zm-7.98,0h-4.99v-1h4.99v1Zm-7.98,0h-4.99v-1h4.99v1Zm-7.98,0h-4.99v-1h4.99v1Zm-7.98,0h-4.99v-1h4.99v1Zm-7.98,0h-4.99v-1h4.99v1Zm-7.98,0h-4.99v-1h4.99v1Zm-7.98,0h-4.99v-1h4.99v1Zm-7.98,0h-4.99v-1h4.99v1Zm-7.98,0h-4.99v-1h4.99v1Zm-7.98,0h-4.99v-1h4.99v1Zm-7.98,0h-4.99v-1h4.99v1Zm-7.98,0h-4.99v-1h4.99v1Zm-7.98,0h-4.99v-1h4.99v1Zm-7.98,0h-4.99v-1h4.99v1Zm-7.98,0h-4.99v-1h4.99v1Zm-7.98,0h-4.99v-1h4.99v1Zm-7.98,0h-4.99v-1h4.99v1Zm-7.98,0h-4.99v-1h4.99v1Zm-7.98,0h-4.99v-1h4.99v1Zm-7.98,0h-4.99v-1h4.99v1Zm-7.98,0h-4.99v-1h4.99v1Zm-7.98,0h-4.99v-1h4.99v1Zm-7.98,0h-4.99v-1h4.99v1Zm-7.98,0h-4.99v-1h4.99v1Zm-7.98,0h-4.99v-1h4.99v1Zm-7.98,0h-4.99v-1h4.99v1Zm-7.98,0h-4.99v-1h4.99v1Zm-7.98,0h-4.99v-1h4.99v1Zm-7.98,0h-4.99v-1h4.99v1Zm-7.98,0h-4.99v-1h4.99v1Zm-7.98,0h-4.99v-1h4.99v1Zm-7.98,0h-4.99v-1h4.99v1Zm-7.98,0h-4.99v-1h4.99v1Zm-7.98,0h-4.99v-1h4.99v1Zm-7.98,0h-4.99v-1h4.99v1Zm-7.98,0h-4.99v-1h4.99v1Zm-7.98,0h-4.99v-1h4.99v1Zm-7.98,0h-4.99v-1h4.99v1Zm-7.98,0h-4.99v-1h4.99v1Zm-7.98,0h-4.99v-1h4.99v1Zm-7.98,0h-4.99v-1h4.99v1Zm-7.98,0h-4.99v-1h4.99v1Zm-7.98,0h-4.99v-1h4.99v1Zm-7.98,0h-4.99v-1h4.99v1Zm-7.98,0h-4.99v-1h4.99v1Zm-7.98,0h-4.99v-1h4.99v1Zm-7.98,0h-4.99v-1h4.99v1Zm-7.98,0h-4.99v-1h4.99v1Zm-7.98,0h-4.99v-1h4.99v1Zm-7.98,0h-4.99v-1h4.99v1Zm-7.98,0h-4.99v-1h4.99v1Zm-7.98,0h-4.99v-1h4.99v1Zm-7.98,0h-4.99v-1h4.99v1Zm-7.98,0h-4.99v-1h4.99v1Zm-7.98,0h-4.99v-1h4.99v1Zm-7.98,0h-4.99v-1h4.99v1Zm-7.98,0h-4.99v-1h4.99v1Zm-7.98,0h-4.99v-1h4.99v1Zm-7.98,0h-4.99v-1h4.99v1Zm-7.98,0h-4.99v-1h4.99v1Zm-7.98,0h-4.99v-1h4.99v1Zm-7.98,0h-4.99v-1h4.99v1Zm-7.98,0h-4.99v-1h4.99v1Zm-7.98,0h-4.99v-1h4.99v1Zm-7.98,0h-4.99v-1h4.99v1Zm-7.98,0h-4.99v-1h4.99v1Zm-7.98,0h-4.99v-1h4.99v1Zm-7.98,0h-4.99v-1h4.99v1Zm-7.98,0h-4.99v-1h4.99v1Zm-7.98,0h-4.99v-1h4.99v1Zm-7.98,0h-4.99v-1h4.99v1Zm-7.98,0h-4.99v-1h4.99v1Zm-7.98,0h-4.99v-1h4.99v1Zm-7.98,0h-4.99v-1h4.99v1Zm-7.98,0h-4.99v-1h4.99v1Zm-7.98,0h-4.99v-1h4.99v1Z"></path>
<polygon class="cls-4" points="780.5 32.5 779.5 32.5 779.5 30.5 777.5 30.5 777.5 29.5 780.5 29.5 780.5 32.5"></polygon>
<path class="cls-4" d="m780.5,264.5h-1v-5h1v5Zm0-8h-1v-5h1v5Zm0-8h-1v-5h1v5Zm0-8h-1v-5h1v5Zm0-8h-1v-5h1v5Zm0-8h-1v-5h1v5Zm0-8h-1v-5h1v5Zm0-8h-1v-5h1v5Zm0-8h-1v-5h1v5Zm0-8h-1v-5h1v5Zm0-8h-1v-5h1v5Zm0-8h-1v-5h1v5Zm0-8h-1v-5h1v5Zm0-8h-1v-5h1v5Zm0-8h-1v-5h1v5Zm0-8h-1v-5h1v5Zm0-8h-1v-5h1v5Zm0-8h-1v-5h1v5Zm0-8h-1v-5h1v5Zm0-8h-1v-5h1v5Zm0-8h-1v-5h1v5Zm0-8h-1v-5h1v5Zm0-8h-1v-5h1v5Zm0-8h-1v-5h1v5Zm0-8h-1v-5h1v5Zm0-8h-1v-5h1v5Zm0-8h-1v-5h1v5Zm0-8h-1v-5h1v5Zm0-8h-1v-5h1v5Z"></path>
</g>
<path class="cls-3" d="m435.5,255.5h-226V44.5h226v211Zm-225-1h224V45.5h-224v209Z"></path>
<g>
<path class="cls-4" d="m279.56,177.58v1.56h-8.02v-12.92h8.01v1.56h-6.08v4.09h4.9v1.5h-4.9v4.21h6.09Z"></path>
<path class="cls-4" d="m289.33,177.53v1.61h-7.4v-12.92h1.92v11.31h5.48Z"></path>
<path class="cls-4" d="m298.48,177.48c.19,0,.34.06.45.17.11.11.16.26.16.44v1.06h-8.68v-.6c0-.12.02-.25.07-.38s.13-.26.24-.36l4.09-4.09c.34-.34.65-.67.93-.99.28-.32.51-.63.7-.95.19-.32.34-.64.45-.97.11-.33.16-.68.16-1.04s-.06-.68-.17-.95c-.11-.27-.27-.5-.47-.68-.2-.18-.43-.31-.7-.41-.27-.09-.56-.13-.87-.13s-.6.04-.86.13c-.26.09-.49.22-.7.38s-.38.35-.51.58c-.14.22-.24.46-.3.72-.08.23-.19.38-.32.46-.13.08-.32.1-.56.05l-.92-.16c.08-.6.25-1.13.5-1.58s.56-.84.93-1.15c.37-.31.8-.54,1.28-.7.48-.16,1-.23,1.56-.23s1.08.08,1.56.25c.48.16.89.4,1.24.71s.62.69.82,1.14c.2.45.3.95.3,1.52,0,.48-.07.93-.21,1.34-.14.41-.33.8-.58,1.17-.24.37-.52.73-.85,1.08-.32.35-.66.71-1.02,1.07l-3.28,3.35c.25-.07.51-.12.76-.16s.5-.06.72-.06h4.08Z"></path>
</g>
<g>
<path class="cls-4" d="m279.56,132.58v1.56h-8.02v-12.92h8.01v1.56h-6.08v4.09h4.9v1.5h-4.9v4.21h6.09Z"></path>
<path class="cls-4" d="m289.33,132.53v1.61h-7.4v-12.92h1.92v11.31h5.48Z"></path>
<path class="cls-4" d="m298.81,132.8v1.34h-6.98v-1.34h2.74v-8.47c0-.27,0-.55.03-.84l-2.2,1.86c-.08.07-.17.11-.25.13s-.16.02-.24,0c-.07-.01-.14-.04-.2-.08-.06-.04-.1-.08-.14-.12l-.55-.76,3.87-3.34h1.43v11.61h2.49Z"></path>
</g>
<g>
<path class="cls-4" d="m279.56,222.58v1.56h-8.02v-12.92h8.01v1.56h-6.08v4.09h4.9v1.5h-4.9v4.21h6.09Z"></path>
<path class="cls-4" d="m289.33,222.53v1.61h-7.4v-12.92h1.92v11.31h5.48Z"></path>
<path class="cls-4" d="m298.81,222.8v1.34h-6.98v-1.34h2.74v-8.47c0-.27,0-.55.03-.84l-2.2,1.86c-.08.07-.17.11-.25.13s-.16.02-.24,0c-.07-.01-.14-.04-.2-.08-.06-.04-.1-.08-.14-.12l-.55-.76,3.87-3.34h1.43v11.61h2.49Z"></path>
</g>
<g>
<path class="cls-2" d="m475.82,76.22l-5.26,12.92h-1.72l-5.26-12.92h1.53c.17,0,.3.04.41.12.11.08.18.19.24.32l3.49,8.78c.08.22.17.45.25.71s.15.53.22.81c.06-.28.13-.55.2-.81.07-.26.15-.5.23-.71l3.48-8.78c.04-.12.12-.22.23-.31.11-.09.25-.13.41-.13h1.54Z"></path>
<path class="cls-2" d="m491.02,76.22v12.92h-1.67v-9.2c0-.14,0-.28.01-.44,0-.16.02-.32.03-.48l-4.3,7.89c-.15.29-.38.44-.69.44h-.27c-.31,0-.54-.15-.68-.44l-4.38-7.92c.04.34.05.65.05.94v9.2h-1.68v-12.92h1.42c.17,0,.3.02.39.05s.18.12.27.27l4.32,7.74c.08.16.16.32.23.5.07.17.14.35.21.52.13-.35.27-.7.44-1.03l4.24-7.73c.08-.15.16-.24.26-.27.09-.03.22-.05.39-.05h1.42Z"></path>
<path class="cls-2" d="m496.14,89.14h-1.93v-12.92h1.93v12.92Z"></path>
<path class="cls-2" d="m510.61,82.68c0,.97-.15,1.85-.46,2.64-.31.79-.75,1.47-1.31,2.04-.56.57-1.24,1.01-2.02,1.32-.79.31-1.66.47-2.62.47h-4.86v-12.92h4.86c.96,0,1.83.16,2.62.47.79.31,1.46.75,2.02,1.32.56.57,1,1.25,1.31,2.04.31.8.46,1.67.46,2.63Zm-1.96,0c0-.77-.11-1.46-.32-2.06-.21-.61-.51-1.12-.9-1.55-.39-.42-.85-.75-1.4-.97-.55-.22-1.16-.33-1.84-.33h-2.93v9.83h2.93c.68,0,1.29-.11,1.84-.33.55-.22,1.02-.54,1.4-.97.39-.42.69-.94.9-1.54s.32-1.3.32-2.07Z"></path>
</g>
<g>
<rect class="cls-2" height="45" width="75" x="525" y="105"></rect>
<path class="cls-4" d="m600.5,150.5h-76v-46h76v46Zm-75-1h74v-44h-74v44Z"></path>
</g>
<g>
<rect class="cls-1" height="45" width="75" x="525" y="60"></rect>
<path class="cls-4" d="m600.5,105.5h-76v-46h76v46Zm-75-1h74v-44h-74v44Z"></path>
</g>
<path class="cls-4" d="m560.64,126.04c.66-.14,1.26-.21,1.79-.21.67,0,1.27.1,1.78.3.52.2.95.48,1.3.83.35.35.62.76.79,1.24.18.48.27.99.27,1.55,0,.68-.12,1.3-.36,1.86s-.57,1.04-.99,1.43c-.42.4-.92.7-1.49.91s-1.19.32-1.85.32c-.39,0-.76-.04-1.11-.12-.35-.08-.68-.18-.99-.31-.31-.13-.59-.28-.85-.45s-.49-.34-.7-.53l.54-.76c.11-.17.27-.25.46-.25.13,0,.27.05.42.14.15.09.33.2.54.31.21.11.46.22.75.31.29.09.63.14,1.03.14.44,0,.83-.07,1.18-.21.35-.14.65-.34.89-.6.24-.26.43-.57.56-.93s.19-.76.19-1.2c0-.39-.06-.74-.17-1.05s-.29-.58-.51-.8c-.23-.22-.51-.39-.86-.51-.34-.12-.74-.17-1.2-.17-.64,0-1.31.11-2.03.34l-1.11-.32,1.05-6.1h6.19v.76c0,.25-.08.46-.24.62-.16.16-.42.24-.8.24h-3.93l-.56,3.2Z"></path>
<g>
<rect class="cls-2" height="45" width="75" x="525" y="150"></rect>
<path class="cls-4" d="m600.5,195.5h-76v-46h76v46Zm-75-1h74v-44h-74v44Z"></path>
</g>
<path class="cls-4" d="m556.48,173.17h12.03v1.28h-12.03v-1.28Z"></path>
<g>
<rect class="cls-2" height="45" width="75" x="525" y="195"></rect>
<path class="cls-4" d="m600.5,240.5h-76v-46h76v46Zm-75-1h74v-44h-74v44Z"></path>
</g>
<path class="cls-4" d="m558.4,214.74c.09-.6.26-1.13.5-1.58s.55-.84.93-1.15.8-.54,1.28-.7c.48-.16,1-.23,1.56-.23s1.07.08,1.54.24c.47.16.87.38,1.2.68s.59.64.78,1.05c.19.41.28.86.28,1.35,0,.41-.05.78-.15,1.1-.1.32-.25.6-.44.84-.19.24-.42.44-.69.61-.27.17-.57.3-.91.41.82.23,1.44.6,1.85,1.11.41.51.62,1.16.62,1.95,0,.61-.11,1.15-.34,1.63-.23.48-.54.89-.94,1.22-.4.33-.86.59-1.38.76s-1.08.27-1.68.27c-.68,0-1.26-.08-1.75-.25-.49-.17-.9-.4-1.24-.69-.34-.3-.63-.65-.85-1.07-.23-.42-.42-.87-.57-1.37l.77-.32c.2-.08.39-.11.58-.07.19.04.32.14.4.32.09.18.19.38.31.61.12.23.27.44.47.64.2.2.45.37.74.51.3.14.67.21,1.12.21s.81-.07,1.13-.21c.32-.14.59-.32.81-.55.22-.23.38-.48.49-.75.11-.28.16-.55.16-.82,0-.34-.04-.65-.13-.93-.08-.28-.24-.52-.48-.72s-.57-.36-.99-.47-.97-.17-1.64-.17v-1.28c.55,0,1.02-.06,1.4-.17.38-.11.69-.26.92-.45.23-.19.4-.42.51-.68.1-.26.16-.56.16-.88,0-.35-.05-.66-.16-.93-.11-.26-.26-.48-.45-.66-.2-.18-.43-.31-.69-.4-.27-.09-.56-.13-.87-.13s-.6.04-.86.13c-.26.09-.5.22-.7.38s-.38.35-.51.58c-.14.22-.24.46-.3.72-.08.23-.19.38-.32.46s-.31.1-.55.05l-.93-.16Z"></path>
<g>
<path class="cls-2" d="m554.32,89.14h-1.48c-.17,0-.31-.04-.41-.13-.11-.08-.19-.19-.23-.32l-1.14-3h-5.7l-1.14,3c-.04.12-.12.22-.23.31-.11.09-.25.14-.41.14h-1.48l5.15-12.92h1.93l5.15,12.92Zm-3.79-4.82l-1.92-5.01c-.14-.34-.28-.77-.41-1.3-.07.26-.13.5-.2.72-.07.22-.14.42-.2.59l-1.91,5h4.64Z"></path>
<path class="cls-2" d="m562.62,78.32c-.06.1-.12.18-.19.22-.07.05-.15.07-.25.07s-.23-.05-.37-.15c-.14-.1-.31-.21-.52-.33s-.45-.23-.74-.33-.63-.15-1.04-.15c-.38,0-.71.05-.99.15s-.52.23-.72.4c-.19.17-.34.37-.44.6-.1.23-.15.48-.15.75,0,.35.09.64.27.86.18.23.41.42.7.59s.62.3.98.42c.37.12.74.25,1.12.37.38.13.76.28,1.12.45.37.17.69.38.98.63s.52.57.7.94c.18.37.26.82.26,1.35,0,.57-.1,1.1-.29,1.6-.2.5-.48.93-.85,1.3s-.83.67-1.37.88c-.54.21-1.16.32-1.85.32-.41,0-.82-.04-1.21-.12-.39-.08-.76-.19-1.11-.34-.35-.15-.67-.32-.98-.53s-.57-.44-.81-.7l.55-.92c.05-.07.12-.13.19-.18.08-.05.16-.07.26-.07.13,0,.27.07.44.2s.37.28.61.44c.24.16.53.3.87.44s.75.2,1.24.2c.4,0,.75-.05,1.06-.16.31-.1.58-.25.79-.45s.38-.43.49-.71c.11-.28.17-.58.17-.92,0-.38-.09-.69-.26-.93-.17-.24-.41-.44-.69-.6s-.62-.3-.98-.41c-.37-.11-.74-.23-1.12-.36s-.76-.27-1.12-.43c-.37-.16-.69-.37-.98-.63-.29-.26-.52-.59-.69-.98-.17-.39-.26-.88-.26-1.45,0-.46.09-.91.27-1.34s.44-.81.79-1.15.77-.6,1.27-.8c.5-.2,1.08-.3,1.73-.3.73,0,1.39.12,2,.35.61.23,1.14.56,1.59,1l-.47.91Z"></path>
<path class="cls-2" d="m567.65,89.14h-1.93v-12.92h1.93v12.92Z"></path>
<path class="cls-2" d="m582.11,82.68c0,.97-.15,1.85-.46,2.64-.31.79-.75,1.47-1.31,2.04-.56.57-1.24,1.01-2.02,1.32-.79.31-1.66.47-2.62.47h-4.86v-12.92h4.86c.96,0,1.83.16,2.62.47.79.31,1.46.75,2.02,1.32.56.57,1,1.25,1.31,2.04.31.8.46,1.67.46,2.63Zm-1.96,0c0-.77-.11-1.46-.32-2.06-.21-.61-.51-1.12-.9-1.55-.39-.42-.85-.75-1.4-.97-.55-.22-1.16-.33-1.84-.33h-2.93v9.83h2.93c.68,0,1.29-.11,1.84-.33.55-.22,1.02-.54,1.4-.97.39-.42.69-.94.9-1.54s.32-1.3.32-2.07Z"></path>
</g>
</svg>