<svg height="525" id="Layer_1" viewbox="0 0 660 525" width="660" xmlns="http://www.w3.org/2000/svg"><rect fill="#fff" height="90" stroke="#333e48" stroke-miterlimit="10" width="150" x="240" y="75"></rect><g><path d="m285.4,104.52h-4.1v11.32h-1.91v-11.32h-4.12v-1.6h10.13v1.6Z" fill="#333e48"></path><path d="m286.62,108.45c.29-.6.65-1.07,1.06-1.41.41-.34.91-.51,1.49-.51.2,0,.38.02.56.07.18.04.33.11.46.2l-.12,1.32c-.04.16-.14.24-.3.24-.08,0-.21-.02-.38-.05-.17-.03-.35-.05-.54-.05-.28,0-.53.04-.75.12-.22.08-.41.2-.58.36-.17.16-.32.35-.45.58-.13.23-.26.49-.37.79v5.72h-1.75v-9.14h1.01c.19,0,.32.03.39.1.07.07.12.19.15.36l.11,1.29Z" fill="#333e48"></path><path d="m299.17,106.7v9.14h-1.05c-.24,0-.4-.12-.47-.35l-.13-.92c-.2.21-.41.4-.62.58-.22.17-.45.32-.69.45s-.51.22-.78.29c-.28.07-.57.1-.89.1-.5,0-.95-.08-1.33-.25-.38-.17-.7-.4-.96-.71-.26-.3-.45-.67-.58-1.09-.13-.43-.2-.9-.2-1.41v-5.82h1.76v5.82c0,.65.15,1.16.45,1.53.3.36.76.54,1.38.54.45,0,.87-.11,1.26-.32.39-.21.76-.51,1.1-.88v-6.7h1.75Z" fill="#333e48"></path><path d="m307.02,108.27c-.05.08-.1.13-.15.17-.05.03-.12.05-.21.05-.1,0-.2-.03-.32-.1-.12-.07-.26-.14-.42-.22s-.36-.15-.58-.22c-.22-.07-.49-.1-.79-.1-.25,0-.48.03-.69.09s-.38.15-.53.26c-.14.11-.25.24-.33.4-.08.15-.12.32-.12.49,0,.23.07.42.2.57s.31.28.53.39c.22.11.47.21.75.29.28.09.56.18.85.27.29.1.58.21.86.33.28.12.53.28.75.46.22.18.4.4.53.66.14.26.2.57.2.94,0,.43-.08.82-.23,1.18-.15.36-.38.68-.67.94-.3.26-.67.47-1.1.62-.44.15-.94.23-1.5.23-.63,0-1.21-.1-1.75-.31-.53-.21-.98-.48-1.34-.8l.41-.67c.05-.08.11-.15.18-.19.07-.05.17-.07.29-.07.11,0,.23.04.35.13.12.08.26.18.43.27.17.1.37.19.61.27.24.08.54.12.9.12.3,0,.56-.04.78-.11.22-.07.41-.18.55-.31.15-.13.26-.28.33-.45.07-.17.11-.35.11-.53,0-.24-.07-.44-.2-.6-.13-.16-.31-.3-.53-.41-.22-.11-.47-.21-.75-.3-.28-.08-.57-.17-.86-.27s-.58-.21-.86-.33-.53-.29-.75-.48c-.22-.19-.4-.43-.53-.7-.13-.28-.2-.61-.2-1.01,0-.35.07-.69.22-1.02.15-.32.36-.61.64-.85.28-.25.62-.44,1.03-.59s.88-.22,1.41-.22c.61,0,1.15.1,1.64.29.49.19.91.46,1.25.79l-.39.64Z" fill="#333e48"></path><path d="m312.31,115.99c-.74,0-1.31-.21-1.71-.62-.4-.41-.6-1-.6-1.77v-5.47h-1.06c-.1,0-.19-.03-.26-.09-.07-.06-.1-.16-.1-.28v-.71l1.48-.21.4-2.73c.02-.1.07-.18.14-.24.07-.06.16-.09.27-.09h.89v3.07h2.59v1.28h-2.59v5.35c0,.36.09.63.27.81.18.18.4.27.68.27.16,0,.3-.02.42-.06.12-.04.22-.09.3-.14.08-.05.16-.1.22-.14.06-.04.11-.06.16-.06.06,0,.11.01.14.04.03.03.07.07.1.13l.52.85c-.29.26-.63.47-1.03.61-.4.14-.81.22-1.23.22Z" fill="#333e48"></path><path d="m325.03,103.63c0,.22-.07.42-.2.62l-7.14,10.03h7.21v1.56h-9.72v-.76c0-.1.02-.2.05-.29.03-.09.08-.18.13-.26l7.16-10.06h-6.98v-1.56h9.49v.71Z" fill="#333e48"></path><path d="m330.29,106.55c.67,0,1.28.11,1.82.33.54.22,1,.53,1.39.94.38.41.67.91.88,1.49s.31,1.23.31,1.95-.1,1.37-.31,1.95-.5,1.08-.88,1.48c-.38.41-.84.72-1.39.94-.54.22-1.15.33-1.82.33s-1.29-.11-1.83-.33c-.54-.22-1.01-.53-1.39-.94-.38-.41-.68-.9-.89-1.48s-.31-1.23-.31-1.95.1-1.37.31-1.95.5-1.07.89-1.49c.38-.41.85-.73,1.39-.94.54-.22,1.15-.33,1.83-.33Zm0,8.05c.86,0,1.51-.29,1.94-.87.43-.58.64-1.4.64-2.46s-.21-1.88-.64-2.46c-.43-.58-1.07-.88-1.94-.88s-1.53.29-1.96.88c-.43.58-.64,1.41-.64,2.46s.21,1.88.64,2.46c.43.58,1.08.87,1.96.87Z" fill="#333e48"></path><path d="m338.28,107.97c.2-.21.41-.4.62-.58.22-.17.45-.32.69-.45s.5-.22.78-.29c.28-.07.58-.1.9-.1.5,0,.95.08,1.33.25s.7.4.96.71c.26.3.45.67.58,1.09.13.43.2.9.2,1.41v5.82h-1.76v-5.82c0-.65-.15-1.16-.45-1.53-.3-.36-.76-.54-1.38-.54-.45,0-.87.11-1.26.32-.39.21-.76.5-1.09.87v6.71h-1.75v-9.14h1.05c.25,0,.4.12.46.35l.13.92Z" fill="#333e48"></path><path d="m354.21,114.54c-.22.25-.46.47-.75.65s-.58.33-.9.45c-.32.11-.65.2-.99.25-.34.05-.67.08-1,.08-.63,0-1.21-.11-1.75-.32s-1-.52-1.4-.94c-.39-.41-.7-.92-.92-1.53-.22-.61-.33-1.31-.33-2.1,0-.64.1-1.23.3-1.78.2-.55.48-1.03.85-1.44.37-.41.82-.73,1.35-.96s1.13-.35,1.8-.35c.56,0,1.07.09,1.54.27.47.18.88.45,1.22.8.34.35.61.78.8,1.29.2.51.29,1.09.29,1.75,0,.27-.03.45-.09.54-.06.09-.17.14-.33.14h-5.99c.02.55.1,1.02.23,1.43.14.41.33.74.57,1.01s.53.47.87.6.71.2,1.12.2c.39,0,.73-.05,1.01-.14s.53-.19.74-.29.38-.2.52-.29.27-.14.37-.14c.14,0,.25.05.33.16l.5.65Zm-1.45-4.28c0-.35-.05-.67-.15-.96s-.25-.55-.44-.77c-.19-.22-.43-.38-.7-.5s-.59-.18-.95-.18c-.74,0-1.32.21-1.74.64-.42.43-.69,1.02-.81,1.77h4.79Z" fill="#333e48"></path><path d="m292.1,129.58c.51-.49,1.06-.85,1.66-1.09.6-.24,1.25-.36,1.97-.36.52,0,.98.09,1.39.26.4.17.74.41,1.02.72.28.31.48.67.62,1.1.14.43.21.9.21,1.41v5.83h-.78c-.17,0-.31-.03-.4-.09-.09-.06-.16-.16-.22-.32l-.19-.8c-.23.22-.46.41-.69.57-.23.17-.47.31-.72.42-.25.12-.51.21-.8.27-.28.06-.59.09-.94.09s-.7-.05-1.01-.15c-.32-.1-.59-.25-.82-.45-.23-.2-.42-.46-.55-.77-.14-.31-.2-.66-.2-1.07,0-.36.1-.71.29-1.04.19-.33.51-.63.95-.9.44-.26,1.02-.48,1.73-.65s1.59-.26,2.62-.29v-.67c0-.69-.15-1.21-.44-1.55-.29-.34-.73-.51-1.3-.51-.38,0-.71.05-.97.14-.26.1-.49.2-.67.32-.19.12-.35.22-.5.32-.14.1-.29.14-.44.14-.12,0-.22-.03-.31-.1s-.16-.14-.21-.23l-.32-.57Zm5.15,3.81c-.71.02-1.32.08-1.82.17s-.9.2-1.21.35c-.31.14-.54.31-.67.51-.14.2-.21.41-.21.65s.04.42.11.59.18.3.31.4.28.18.46.23c.17.05.36.07.57.07.27,0,.52-.03.74-.08.23-.05.44-.13.63-.23s.39-.22.57-.36c.18-.14.36-.31.53-.49v-1.8Z" fill="#333e48"></path><path d="m313.98,128.3l-2.94,9.14h-1.4c-.17,0-.28-.11-.34-.33l-1.93-5.96c-.05-.15-.09-.3-.13-.45s-.07-.3-.1-.45c-.05.31-.13.62-.23.91l-1.95,5.94c-.06.22-.19.33-.39.33h-1.33l-2.95-9.14h1.39c.14,0,.25.03.35.1.09.07.15.15.18.25l1.65,5.62c.05.23.1.45.14.67.04.22.08.43.12.65.05-.22.11-.43.18-.65.06-.22.13-.44.19-.67l1.83-5.65c.03-.1.09-.18.17-.25s.19-.09.31-.09h.77c.13,0,.24.03.33.09s.15.15.18.25l1.78,5.65c.07.23.13.45.19.67.06.22.11.44.16.66.04-.22.08-.43.13-.65.05-.22.1-.45.16-.68l1.67-5.62c.03-.1.09-.19.18-.25s.2-.1.32-.1h1.32Z" fill="#333e48"></path><path d="m315.13,129.58c.51-.49,1.06-.85,1.66-1.09.6-.24,1.25-.36,1.97-.36.52,0,.98.09,1.39.26.4.17.74.41,1.02.72.28.31.48.67.62,1.1.14.43.21.9.21,1.41v5.83h-.78c-.17,0-.31-.03-.4-.09-.09-.06-.16-.16-.22-.32l-.19-.8c-.23.22-.46.41-.69.57-.23.17-.47.31-.72.42-.25.12-.51.21-.8.27-.28.06-.59.09-.94.09s-.7-.05-1.01-.15c-.32-.1-.59-.25-.82-.45-.23-.2-.42-.46-.55-.77-.14-.31-.2-.66-.2-1.07,0-.36.1-.71.29-1.04.19-.33.51-.63.95-.9.44-.26,1.02-.48,1.73-.65s1.59-.26,2.62-.29v-.67c0-.69-.15-1.21-.44-1.55-.29-.34-.73-.51-1.3-.51-.38,0-.71.05-.97.14-.26.1-.49.2-.67.32-.19.12-.35.22-.5.32-.14.1-.29.14-.44.14-.12,0-.22-.03-.31-.1s-.16-.14-.21-.23l-.32-.57Zm5.15,3.81c-.71.02-1.32.08-1.82.17s-.9.2-1.21.35c-.31.14-.54.31-.67.51-.14.2-.21.41-.21.65s.04.42.11.59.18.3.31.4.28.18.46.23c.17.05.36.07.57.07.27,0,.52-.03.74-.08.23-.05.44-.13.63-.23s.39-.22.57-.36c.18-.14.36-.31.53-.49v-1.8Z" fill="#333e48"></path><path d="m326.01,130.05c.29-.6.65-1.07,1.06-1.41.41-.34.91-.51,1.49-.51.2,0,.38.02.56.07.18.04.33.11.46.2l-.12,1.32c-.04.16-.14.24-.3.24-.08,0-.21-.02-.38-.05-.17-.03-.35-.05-.54-.05-.28,0-.53.04-.75.12-.22.08-.41.2-.58.36-.17.16-.32.35-.45.58-.13.23-.26.49-.37.79v5.72h-1.75v-9.14h1.01c.19,0,.32.03.39.1.07.07.12.19.15.36l.11,1.29Z" fill="#333e48"></path><path d="m338.11,136.14c-.22.25-.46.47-.75.65s-.58.33-.9.45c-.32.11-.65.2-.99.25-.34.05-.67.08-1,.08-.63,0-1.21-.11-1.75-.32s-1-.52-1.4-.94c-.39-.41-.7-.92-.92-1.53-.22-.61-.33-1.31-.33-2.1,0-.64.1-1.23.3-1.78.2-.55.48-1.03.85-1.44.37-.41.82-.73,1.35-.96s1.13-.35,1.8-.35c.56,0,1.07.09,1.54.27.47.18.88.45,1.22.8.34.35.61.78.8,1.29.2.51.29,1.09.29,1.75,0,.27-.03.45-.09.54-.06.09-.17.14-.33.14h-5.99c.02.55.1,1.02.23,1.43.14.41.33.74.57,1.01s.53.47.87.6.71.2,1.12.2c.39,0,.73-.05,1.01-.14s.53-.19.74-.29.38-.2.52-.29.27-.14.37-.14c.14,0,.25.05.33.16l.5.65Zm-1.45-4.28c0-.35-.05-.67-.15-.96s-.25-.55-.44-.77c-.19-.22-.43-.38-.7-.5s-.59-.18-.95-.18c-.74,0-1.32.21-1.74.64-.42.43-.69,1.02-.81,1.77h4.79Z" fill="#333e48"></path></g><g><path d="m268.19,59.14h-1.93v-12.92h1.93v12.92Z" fill="#333e48"></path><path d="m272.53,51.27c.2-.21.41-.4.62-.58.22-.17.45-.32.69-.45s.5-.22.78-.29c.28-.07.58-.1.9-.1.5,0,.95.08,1.33.25s.7.4.96.71c.26.3.45.67.58,1.09.13.43.2.9.2,1.41v5.82h-1.76v-5.82c0-.65-.15-1.16-.45-1.53-.3-.36-.76-.54-1.38-.54-.45,0-.87.11-1.26.32-.39.21-.76.5-1.09.87v6.71h-1.75v-9.14h1.05c.25,0,.4.12.46.35l.13.92Z" fill="#333e48"></path><path d="m283.69,59.29c-.74,0-1.31-.21-1.71-.62-.4-.41-.6-1-.6-1.77v-5.47h-1.06c-.1,0-.19-.03-.26-.09-.07-.06-.1-.16-.1-.28v-.71l1.48-.21.4-2.73c.02-.1.07-.18.14-.24.07-.06.16-.09.27-.09h.89v3.07h2.59v1.28h-2.59v5.35c0,.36.09.63.27.81.18.18.4.27.68.27.16,0,.3-.02.42-.06.12-.04.22-.09.3-.14.08-.05.16-.1.22-.14.06-.04.11-.06.16-.06.06,0,.11.01.14.04.03.03.07.07.1.13l.52.85c-.29.26-.63.47-1.03.61-.4.14-.81.22-1.23.22Z" fill="#333e48"></path><path d="m294.79,57.84c-.22.25-.46.47-.75.65s-.58.33-.9.45c-.32.11-.65.2-.99.25-.34.05-.67.08-1,.08-.63,0-1.21-.11-1.75-.32s-1-.52-1.4-.94c-.39-.41-.7-.92-.92-1.53-.22-.61-.33-1.31-.33-2.1,0-.64.1-1.23.3-1.78.2-.55.48-1.03.85-1.44.37-.41.82-.73,1.35-.96s1.13-.35,1.8-.35c.56,0,1.07.09,1.54.27.47.18.88.45,1.22.8.34.35.61.78.8,1.29.2.51.29,1.09.29,1.75,0,.27-.03.45-.09.54-.06.09-.17.14-.33.14h-5.99c.02.55.1,1.02.23,1.43.14.41.33.74.57,1.01s.53.47.87.6.71.2,1.12.2c.39,0,.73-.05,1.01-.14s.53-.19.74-.29.38-.2.52-.29.27-.14.37-.14c.14,0,.25.05.33.16l.5.65Zm-1.45-4.28c0-.35-.05-.67-.15-.96s-.25-.55-.44-.77c-.19-.22-.43-.38-.7-.5s-.59-.18-.95-.18c-.74,0-1.32.21-1.74.64-.42.43-.69,1.02-.81,1.77h4.79Z" fill="#333e48"></path><path d="m298.47,51.75c.29-.6.65-1.07,1.06-1.41.41-.34.91-.51,1.49-.51.2,0,.38.02.56.07.18.04.33.11.46.2l-.12,1.32c-.04.16-.14.24-.3.24-.08,0-.21-.02-.38-.05-.17-.03-.35-.05-.54-.05-.28,0-.53.04-.75.12-.22.08-.41.2-.58.36-.17.16-.32.35-.45.58-.13.23-.26.49-.37.79v5.72h-1.75v-9.14h1.01c.19,0,.32.03.39.1.07.07.12.19.15.36l.11,1.29Z" fill="#333e48"></path><path d="m309.48,51.71c-.05.07-.11.12-.16.16s-.12.06-.22.06-.2-.04-.3-.11c-.11-.07-.24-.16-.4-.24-.16-.09-.35-.17-.58-.24-.22-.08-.5-.11-.83-.11-.43,0-.81.08-1.14.23-.33.16-.6.38-.82.67-.22.29-.39.64-.5,1.05-.11.41-.17.88-.17,1.4s.06,1.01.18,1.43.29.77.51,1.05c.22.29.49.5.81.65.32.15.67.22,1.06.22s.69-.05.94-.14c.25-.09.45-.19.61-.3.16-.11.3-.21.41-.3.11-.09.22-.14.33-.14.14,0,.25.05.33.16l.5.65c-.21.26-.45.48-.71.66-.26.18-.54.33-.83.44-.29.11-.6.2-.92.25-.32.05-.65.08-.98.08-.57,0-1.1-.1-1.6-.31s-.92-.52-1.29-.92c-.36-.4-.65-.9-.86-1.48-.21-.58-.32-1.25-.32-1.99,0-.68.09-1.31.28-1.88.19-.58.47-1.07.84-1.49.37-.42.82-.74,1.36-.98.54-.24,1.16-.36,1.85-.36.65,0,1.23.1,1.73.31.5.21.94.51,1.33.89l-.47.65Z" fill="#333e48"></path><path d="m315.42,49.85c.67,0,1.28.11,1.82.33.54.22,1,.53,1.39.94.38.41.67.91.88,1.49s.31,1.23.31,1.95-.1,1.37-.31,1.95-.5,1.08-.88,1.48c-.38.41-.84.72-1.39.94-.54.22-1.15.33-1.82.33s-1.29-.11-1.83-.33c-.54-.22-1.01-.53-1.39-.94-.38-.41-.68-.9-.89-1.48s-.31-1.23-.31-1.95.1-1.37.31-1.95.5-1.07.89-1.49c.38-.41.85-.73,1.39-.94.54-.22,1.15-.33,1.83-.33Zm0,8.05c.86,0,1.51-.29,1.94-.87.43-.58.64-1.4.64-2.46s-.21-1.88-.64-2.46c-.43-.58-1.07-.88-1.94-.88s-1.53.29-1.96.88c-.43.58-.64,1.41-.64,2.46s.21,1.88.64,2.46c.43.58,1.08.87,1.96.87Z" fill="#333e48"></path><path d="m323.41,51.27c.2-.21.41-.4.62-.58.22-.17.45-.32.69-.45s.5-.22.78-.29c.28-.07.58-.1.9-.1.5,0,.95.08,1.33.25s.7.4.96.71c.26.3.45.67.58,1.09.13.43.2.9.2,1.41v5.82h-1.76v-5.82c0-.65-.15-1.16-.45-1.53-.3-.36-.76-.54-1.38-.54-.45,0-.87.11-1.26.32-.39.21-.76.5-1.09.87v6.71h-1.75v-9.14h1.05c.25,0,.4.12.46.35l.13.92Z" fill="#333e48"></path><path d="m333.48,51.27c.2-.21.41-.4.62-.58.22-.17.45-.32.69-.45s.5-.22.78-.29c.28-.07.58-.1.9-.1.5,0,.95.08,1.33.25s.7.4.96.71c.26.3.45.67.58,1.09.13.43.2.9.2,1.41v5.82h-1.76v-5.82c0-.65-.15-1.16-.45-1.53-.3-.36-.76-.54-1.38-.54-.45,0-.87.11-1.26.32-.39.21-.76.5-1.09.87v6.71h-1.75v-9.14h1.05c.25,0,.4.12.46.35l.13.92Z" fill="#333e48"></path><path d="m349.41,57.84c-.22.25-.46.47-.75.65s-.58.33-.9.45c-.32.11-.65.2-.99.25-.34.05-.67.08-1,.08-.63,0-1.21-.11-1.75-.32s-1-.52-1.4-.94c-.39-.41-.7-.92-.92-1.53-.22-.61-.33-1.31-.33-2.1,0-.64.1-1.23.3-1.78.2-.55.48-1.03.85-1.44.37-.41.82-.73,1.35-.96s1.13-.35,1.8-.35c.56,0,1.07.09,1.54.27.47.18.88.45,1.22.8.34.35.61.78.8,1.29.2.51.29,1.09.29,1.75,0,.27-.03.45-.09.54-.06.09-.17.14-.33.14h-5.99c.02.55.1,1.02.23,1.43.14.41.33.74.57,1.01s.53.47.87.6.71.2,1.12.2c.39,0,.73-.05,1.01-.14s.53-.19.74-.29.38-.2.52-.29.27-.14.37-.14c.14,0,.25.05.33.16l.5.65Zm-1.45-4.28c0-.35-.05-.67-.15-.96s-.25-.55-.44-.77c-.19-.22-.43-.38-.7-.5s-.59-.18-.95-.18c-.74,0-1.32.21-1.74.64-.42.43-.69,1.02-.81,1.77h4.79Z" fill="#333e48"></path><path d="m357.85,51.71c-.05.07-.11.12-.16.16s-.12.06-.22.06-.2-.04-.3-.11c-.11-.07-.24-.16-.4-.24-.16-.09-.35-.17-.58-.24-.22-.08-.5-.11-.83-.11-.43,0-.81.08-1.14.23-.33.16-.6.38-.82.67-.22.29-.39.64-.5,1.05-.11.41-.17.88-.17,1.4s.06,1.01.18,1.43.29.77.51,1.05c.22.29.49.5.81.65.32.15.67.22,1.06.22s.69-.05.94-.14c.25-.09.45-.19.61-.3.16-.11.3-.21.41-.3.11-.09.22-.14.33-.14.14,0,.25.05.33.16l.5.65c-.21.26-.45.48-.71.66-.26.18-.54.33-.83.44-.29.11-.6.2-.92.25-.32.05-.65.08-.98.08-.57,0-1.1-.1-1.6-.31s-.92-.52-1.29-.92c-.36-.4-.65-.9-.86-1.48-.21-.58-.32-1.25-.32-1.99,0-.68.09-1.31.28-1.88.19-.58.47-1.07.84-1.49.37-.42.82-.74,1.36-.98.54-.24,1.16-.36,1.85-.36.65,0,1.23.1,1.73.31.5.21.94.51,1.33.89l-.47.65Z" fill="#333e48"></path><path d="m362.91,59.29c-.74,0-1.31-.21-1.71-.62-.4-.41-.6-1-.6-1.77v-5.47h-1.06c-.1,0-.19-.03-.26-.09-.07-.06-.1-.16-.1-.28v-.71l1.48-.21.4-2.73c.02-.1.07-.18.14-.24.07-.06.16-.09.27-.09h.89v3.07h2.59v1.28h-2.59v5.35c0,.36.09.63.27.81.18.18.4.27.68.27.16,0,.3-.02.42-.06.12-.04.22-.09.3-.14.08-.05.16-.1.22-.14.06-.04.11-.06.16-.06.06,0,.11.01.14.04.03.03.07.07.1.13l.52.85c-.29.26-.63.47-1.03.61-.4.14-.81.22-1.23.22Z" fill="#333e48"></path></g><g><path d="m563.51,82.68c0,.97-.15,1.84-.46,2.64-.31.79-.75,1.47-1.31,2.04-.56.57-1.24,1.01-2.02,1.32s-1.66.47-2.62.47h-4.86v-12.92h4.86c.96,0,1.83.16,2.62.47s1.46.75,2.02,1.32c.56.57,1,1.25,1.31,2.04.31.8.46,1.67.46,2.63Zm-1.96,0c0-.77-.11-1.46-.32-2.07s-.51-1.12-.9-1.55c-.39-.42-.85-.75-1.4-.97-.55-.22-1.16-.33-1.84-.33h-2.93v9.83h2.93c.68,0,1.29-.11,1.84-.33.55-.22,1.02-.54,1.4-.97.39-.42.69-.94.9-1.54s.32-1.3.32-2.07Z" fill="#333e48"></path><path d="m577.2,82.68c0,.97-.15,1.84-.46,2.64-.31.79-.75,1.47-1.31,2.04-.56.57-1.24,1.01-2.02,1.32s-1.66.47-2.62.47h-4.86v-12.92h4.86c.96,0,1.83.16,2.62.47s1.46.75,2.02,1.32c.56.57,1,1.25,1.31,2.04.31.8.46,1.67.46,2.63Zm-1.96,0c0-.77-.11-1.46-.32-2.07s-.51-1.12-.9-1.55c-.39-.42-.85-.75-1.4-.97-.55-.22-1.16-.33-1.84-.33h-2.93v9.83h2.93c.68,0,1.29-.11,1.84-.33.55-.22,1.02-.54,1.4-.97.39-.42.69-.94.9-1.54s.32-1.3.32-2.07Z" fill="#333e48"></path><path d="m589.3,89.14h-1.71c-.34,0-.59-.13-.75-.4l-3.2-4.48c-.1-.15-.21-.26-.33-.32s-.3-.09-.54-.09h-1.25v5.3h-1.92v-12.92h3.73c.83,0,1.55.09,2.16.26.6.17,1.1.41,1.49.73.39.31.68.69.87,1.14.19.44.28.94.28,1.49,0,.45-.07.87-.21,1.27s-.34.75-.61,1.07c-.27.32-.59.59-.98.81s-.82.4-1.3.52c.24.14.45.34.62.6l3.64,5.03Zm-6.03-6.7c.49,0,.93-.06,1.3-.18s.69-.29.94-.51c.25-.22.44-.48.57-.78.13-.3.19-.64.19-1,0-.74-.24-1.31-.73-1.68s-1.22-.57-2.2-.57h-1.81v4.73h1.75Z" fill="#333e48"></path></g><rect fill="none" height="465" stroke="#333e48" stroke-miterlimit="10" width="210" x="210" y="30"></rect><rect fill="#0091bd" height="120" width="150" x="30" y="210"></rect><g><path d="m81.42,265.84h-1.48c-.17,0-.31-.04-.41-.13-.11-.08-.19-.19-.23-.32l-1.14-3h-5.7l-1.14,3c-.04.11-.12.22-.23.31-.11.09-.25.14-.41.14h-1.48l5.15-12.92h1.93l5.15,12.92Zm-3.79-4.81l-1.92-5.01c-.14-.34-.28-.77-.41-1.3-.07.26-.13.5-.2.72-.07.22-.14.42-.2.59l-1.91,5h4.64Z" fill="#fff"></path><path d="m84.29,258.45c.29-.6.65-1.07,1.06-1.41.41-.34.91-.51,1.49-.51.2,0,.38.02.56.07.18.04.33.11.46.2l-.12,1.32c-.04.16-.14.24-.3.24-.08,0-.21-.02-.38-.05-.17-.03-.35-.05-.54-.05-.28,0-.53.04-.75.12-.22.08-.41.2-.58.36-.17.16-.32.35-.45.58-.13.23-.26.49-.37.79v5.72h-1.75v-9.14h1.01c.19,0,.32.03.39.1.07.07.12.19.15.36l.11,1.29Z" fill="#fff"></path><path d="m89.24,265.84v-9.14h1.05c.25,0,.4.12.46.35l.13.87c.34-.4.71-.73,1.12-.99.41-.26.89-.38,1.44-.38.61,0,1.1.17,1.48.5s.65.78.83,1.35c.13-.32.3-.6.51-.84s.44-.43.7-.58c.26-.15.53-.26.82-.33.29-.07.59-.11.89-.11.49,0,.92.08,1.3.23.38.15.7.38.97.67.26.29.46.66.6,1.09.14.43.21.92.21,1.48v5.82h-1.76v-5.82c0-.68-.15-1.2-.45-1.55-.3-.35-.73-.52-1.3-.52-.25,0-.49.04-.72.13-.23.09-.43.22-.6.39-.17.17-.31.39-.4.65-.1.26-.15.56-.15.9v5.82h-1.76v-5.82c0-.71-.14-1.23-.42-1.57-.28-.34-.7-.5-1.24-.5-.38,0-.73.1-1.05.3-.32.2-.62.47-.89.81v6.79h-1.75Z" fill="#fff"></path><path d="m111.85,256.7l-3.71,9.14h-1.58l-3.71-9.14h1.45c.14,0,.25.03.34.1s.15.15.18.25l2.19,5.62c.08.23.15.47.2.7.06.23.11.46.16.69.05-.23.1-.46.16-.68.06-.23.13-.46.22-.7l2.21-5.62c.04-.1.1-.19.19-.25s.2-.1.32-.1h1.38Z" fill="#fff"></path><path d="m119.18,259.1c.8.24,1.41.63,1.83,1.16.42.53.63,1.21.63,2.02,0,.56-.11,1.07-.32,1.53-.21.46-.51.84-.9,1.17s-.85.57-1.39.74c-.54.17-1.13.26-1.78.26s-1.24-.09-1.78-.26c-.54-.17-1-.42-1.39-.74-.39-.32-.69-.71-.9-1.17s-.32-.97-.32-1.53c0-.82.21-1.49.62-2.02.42-.53,1.03-.92,1.83-1.16-.67-.25-1.17-.63-1.5-1.13s-.5-1.1-.5-1.79c0-.48.09-.93.28-1.35s.46-.78.8-1.08.76-.55,1.25-.72c.49-.17,1.02-.26,1.61-.26s1.12.09,1.61.26c.49.17.9.41,1.25.72.35.31.61.67.8,1.08.19.42.28.87.28,1.35,0,.69-.17,1.29-.5,1.79s-.84.88-1.5,1.13Zm-1.94,5.49c.41,0,.77-.06,1.09-.17.32-.11.59-.27.81-.48.22-.21.39-.45.5-.74s.17-.6.17-.94c0-.42-.07-.78-.21-1.08-.14-.3-.32-.55-.56-.75-.23-.19-.51-.34-.82-.43-.31-.09-.64-.14-.99-.14s-.69.05-1,.14c-.31.09-.58.24-.82.43-.23.19-.42.44-.55.75-.13.3-.2.66-.2,1.08,0,.34.06.66.17.94.11.29.28.54.5.74.22.21.49.37.81.48.32.11.68.17,1.09.17Zm0-10.47c-.37,0-.7.06-.98.17-.28.11-.51.26-.7.45-.19.19-.33.41-.42.67-.09.25-.14.52-.14.81s.04.56.12.82.21.5.39.71c.18.21.41.37.69.5.28.13.63.19,1.04.19s.75-.06,1.03-.19c.28-.13.52-.29.69-.5s.31-.44.39-.71.12-.54.12-.82-.05-.56-.14-.81-.23-.47-.42-.67c-.19-.19-.42-.34-.7-.45-.28-.11-.6-.17-.98-.17Z" fill="#fff"></path><path d="m123.56,259.69h4.5v1.49h-4.5v-1.49Z" fill="#fff"></path><path d="m141.41,265.84h-1.48c-.17,0-.31-.04-.41-.13-.11-.08-.19-.19-.23-.32l-1.14-3h-5.7l-1.14,3c-.04.11-.12.22-.23.31-.11.09-.25.14-.41.14h-1.48l5.15-12.92h1.93l5.15,12.92Zm-3.79-4.81l-1.92-5.01c-.14-.34-.28-.77-.41-1.3-.07.26-.13.5-.2.72-.07.22-.14.42-.2.59l-1.91,5h4.64Z" fill="#fff"></path><path d="m67.78,274.52c.83,0,1.55.1,2.16.29.61.19,1.12.46,1.52.81.4.35.7.78.9,1.27.19.5.29,1.05.29,1.66s-.11,1.16-.32,1.67c-.21.51-.52.94-.93,1.31-.41.37-.92.65-1.53.85s-1.31.3-2.1.3h-2v4.76h-1.92v-12.92h3.92Zm0,6.65c.49,0,.91-.06,1.28-.19.37-.13.68-.3.93-.54s.44-.51.56-.83c.13-.32.19-.68.19-1.07,0-.79-.24-1.4-.73-1.85-.49-.45-1.23-.67-2.23-.67h-2v5.15h2Z" fill="#fff"></path><path d="m75.89,280.05c.29-.6.65-1.07,1.06-1.41.41-.34.91-.51,1.49-.51.2,0,.38.02.56.07.18.04.33.11.46.2l-.12,1.32c-.04.16-.14.24-.3.24-.08,0-.21-.02-.38-.05-.17-.03-.35-.05-.54-.05-.28,0-.53.04-.75.12-.22.08-.41.2-.58.36-.17.16-.32.35-.45.58-.13.23-.26.49-.37.79v5.72h-1.75v-9.14h1.01c.19,0,.32.03.39.1.07.07.12.19.15.36l.11,1.29Z" fill="#fff"></path><path d="m84.39,278.15c.67,0,1.28.11,1.82.33.54.22,1,.53,1.39.94.38.41.67.91.88,1.49s.31,1.23.31,1.95-.1,1.37-.31,1.95-.5,1.08-.88,1.48c-.38.41-.84.72-1.39.94-.54.22-1.15.33-1.82.33s-1.29-.11-1.83-.33c-.54-.22-1.01-.53-1.39-.94-.38-.41-.68-.9-.89-1.48s-.31-1.23-.31-1.95.1-1.37.31-1.95.5-1.07.89-1.49c.38-.41.85-.73,1.39-.94.54-.22,1.15-.33,1.83-.33Zm0,8.05c.86,0,1.51-.29,1.94-.87.43-.58.64-1.4.64-2.46s-.21-1.88-.64-2.46c-.43-.58-1.07-.88-1.94-.88s-1.53.29-1.96.88c-.43.58-.64,1.41-.64,2.46s.21,1.88.64,2.46c.43.58,1.08.87,1.96.87Z" fill="#fff"></path><path d="m97.14,280.01c-.05.07-.11.12-.16.16s-.12.06-.22.06-.2-.04-.3-.11c-.11-.07-.24-.16-.4-.24-.16-.09-.35-.17-.58-.24-.22-.08-.5-.11-.83-.11-.43,0-.81.08-1.14.23-.33.16-.6.38-.82.67-.22.29-.39.64-.5,1.05-.11.41-.17.88-.17,1.4s.06,1.01.18,1.43.29.77.51,1.05c.22.29.49.5.81.65.32.15.67.22,1.06.22s.69-.05.94-.14c.25-.09.45-.19.61-.3.16-.11.3-.21.41-.3.11-.09.22-.14.33-.14.14,0,.25.05.33.16l.5.65c-.21.26-.45.48-.71.66-.26.18-.54.33-.83.44-.29.11-.6.2-.92.25-.32.05-.65.08-.98.08-.57,0-1.1-.1-1.6-.31s-.92-.52-1.29-.92c-.36-.4-.65-.9-.86-1.48-.21-.58-.32-1.25-.32-1.99,0-.68.09-1.31.28-1.88.19-.58.47-1.07.84-1.49.37-.42.82-.74,1.36-.98.54-.24,1.16-.36,1.85-.36.65,0,1.23.1,1.73.31.5.21.94.51,1.33.89l-.47.65Z" fill="#fff"></path><path d="m106.69,286.14c-.22.25-.46.47-.75.65s-.58.33-.9.45c-.32.11-.65.2-.99.25-.34.05-.67.08-1,.08-.63,0-1.21-.11-1.75-.32s-1-.52-1.4-.94c-.39-.41-.7-.92-.92-1.53-.22-.61-.33-1.31-.33-2.1,0-.64.1-1.23.3-1.78.2-.55.48-1.03.85-1.44.37-.41.82-.73,1.35-.96s1.13-.35,1.8-.35c.56,0,1.07.09,1.54.27.47.18.88.45,1.22.8.34.35.61.78.8,1.29.2.51.29,1.09.29,1.75,0,.27-.03.45-.09.54-.06.09-.17.14-.33.14h-5.99c.02.55.1,1.02.23,1.43.14.41.33.74.57,1.01s.53.47.87.6.71.2,1.12.2c.39,0,.73-.05,1.01-.14s.53-.19.74-.29.38-.2.52-.29.27-.14.37-.14c.14,0,.25.05.33.16l.5.65Zm-1.45-4.28c0-.35-.05-.67-.15-.96s-.25-.55-.44-.77c-.19-.22-.43-.38-.7-.5s-.59-.18-.95-.18c-.74,0-1.32.21-1.74.64-.42.43-.69,1.02-.81,1.77h4.79Z" fill="#fff"></path><path d="m114.1,279.87c-.05.08-.1.13-.15.17-.05.03-.12.05-.21.05-.1,0-.2-.03-.32-.1-.12-.07-.26-.14-.42-.22s-.36-.15-.58-.22c-.22-.07-.49-.1-.79-.1-.25,0-.48.03-.69.09s-.38.15-.53.26c-.14.11-.25.24-.33.4-.08.15-.12.32-.12.49,0,.23.07.42.2.57s.31.28.53.39c.22.11.47.21.75.29.28.09.56.18.85.27.29.1.58.21.86.33.28.12.53.28.75.46.22.18.4.4.53.66.14.26.2.57.2.94,0,.43-.08.82-.23,1.18-.15.36-.38.68-.67.94-.3.26-.67.47-1.1.62-.44.15-.94.23-1.5.23-.63,0-1.21-.1-1.75-.31-.53-.21-.98-.48-1.34-.8l.41-.67c.05-.08.11-.15.18-.19.07-.05.17-.07.29-.07.11,0,.23.04.35.13.12.08.26.18.43.27.17.1.37.19.61.27.24.08.54.12.9.12.3,0,.56-.04.78-.11.22-.07.41-.18.55-.31.15-.13.26-.28.33-.45.07-.17.11-.35.11-.53,0-.24-.07-.44-.2-.6-.13-.16-.31-.3-.53-.41-.22-.11-.47-.21-.75-.3-.28-.08-.57-.17-.86-.27s-.58-.21-.86-.33-.53-.29-.75-.48c-.22-.19-.4-.43-.53-.7-.13-.28-.2-.61-.2-1.01,0-.35.07-.69.22-1.02.15-.32.36-.61.64-.85.28-.25.62-.44,1.03-.59s.88-.22,1.41-.22c.61,0,1.15.1,1.64.29.49.19.91.46,1.25.79l-.39.64Z" fill="#fff"></path><path d="m121.93,279.87c-.05.08-.1.13-.15.17-.05.03-.12.05-.21.05-.1,0-.2-.03-.32-.1-.12-.07-.26-.14-.42-.22s-.36-.15-.58-.22c-.22-.07-.49-.1-.79-.1-.25,0-.48.03-.69.09s-.38.15-.53.26c-.14.11-.25.24-.33.4-.08.15-.12.32-.12.49,0,.23.07.42.2.57s.31.28.53.39c.22.11.47.21.75.29.28.09.56.18.85.27.29.1.58.21.86.33.28.12.53.28.75.46.22.18.4.4.53.66.14.26.2.57.2.94,0,.43-.08.82-.23,1.18-.15.36-.38.68-.67.94-.3.26-.67.47-1.1.62-.44.15-.94.23-1.5.23-.63,0-1.21-.1-1.75-.31-.53-.21-.98-.48-1.34-.8l.41-.67c.05-.08.11-.15.18-.19.07-.05.17-.07.29-.07.11,0,.23.04.35.13.12.08.26.18.43.27.17.1.37.19.61.27.24.08.54.12.9.12.3,0,.56-.04.78-.11.22-.07.41-.18.55-.31.15-.13.26-.28.33-.45.07-.17.11-.35.11-.53,0-.24-.07-.44-.2-.6-.13-.16-.31-.3-.53-.41-.22-.11-.47-.21-.75-.3-.28-.08-.57-.17-.86-.27s-.58-.21-.86-.33-.53-.29-.75-.48c-.22-.19-.4-.43-.53-.7-.13-.28-.2-.61-.2-1.01,0-.35.07-.69.22-1.02.15-.32.36-.61.64-.85.28-.25.62-.44,1.03-.59s.88-.22,1.41-.22c.61,0,1.15.1,1.64.29.49.19.91.46,1.25.79l-.39.64Z" fill="#fff"></path><path d="m128.25,278.15c.67,0,1.28.11,1.82.33.54.22,1,.53,1.39.94.38.41.67.91.88,1.49s.31,1.23.31,1.95-.1,1.37-.31,1.95-.5,1.08-.88,1.48c-.38.41-.84.72-1.39.94-.54.22-1.15.33-1.82.33s-1.29-.11-1.83-.33c-.54-.22-1.01-.53-1.39-.94-.38-.41-.68-.9-.89-1.48s-.31-1.23-.31-1.95.1-1.37.31-1.95.5-1.07.89-1.49c.38-.41.85-.73,1.39-.94.54-.22,1.15-.33,1.83-.33Zm0,8.05c.86,0,1.51-.29,1.94-.87.43-.58.64-1.4.64-2.46s-.21-1.88-.64-2.46c-.43-.58-1.07-.88-1.94-.88s-1.53.29-1.96.88c-.43.58-.64,1.41-.64,2.46s.21,1.88.64,2.46c.43.58,1.08.87,1.96.87Z" fill="#fff"></path><path d="m136.25,280.05c.29-.6.65-1.07,1.06-1.41.41-.34.91-.51,1.49-.51.2,0,.38.02.56.07.18.04.33.11.46.2l-.12,1.32c-.04.16-.14.24-.3.24-.08,0-.21-.02-.38-.05-.17-.03-.35-.05-.54-.05-.28,0-.53.04-.75.12-.22.08-.41.2-.58.36-.17.16-.32.35-.45.58-.13.23-.26.49-.37.79v5.72h-1.75v-9.14h1.01c.19,0,.32.03.39.1.07.07.12.19.15.36l.11,1.29Z" fill="#fff"></path><path d="m146.53,279.87c-.05.08-.1.13-.15.17-.05.03-.12.05-.21.05-.1,0-.2-.03-.32-.1-.12-.07-.26-.14-.42-.22s-.36-.15-.58-.22c-.22-.07-.49-.1-.79-.1-.25,0-.48.03-.69.09s-.38.15-.53.26c-.14.11-.25.24-.33.4-.08.15-.12.32-.12.49,0,.23.07.42.2.57s.31.28.53.39c.22.11.47.21.75.29.28.09.56.18.85.27.29.1.58.21.86.33.28.12.53.28.75.46.22.18.4.4.53.66.14.26.2.57.2.94,0,.43-.08.82-.23,1.18-.15.36-.38.68-.67.94-.3.26-.67.47-1.1.62-.44.15-.94.23-1.5.23-.63,0-1.21-.1-1.75-.31-.53-.21-.98-.48-1.34-.8l.41-.67c.05-.08.11-.15.18-.19.07-.05.17-.07.29-.07.11,0,.23.04.35.13.12.08.26.18.43.27.17.1.37.19.61.27.24.08.54.12.9.12.3,0,.56-.04.78-.11.22-.07.41-.18.55-.31.15-.13.26-.28.33-.45.07-.17.11-.35.11-.53,0-.24-.07-.44-.2-.6-.13-.16-.31-.3-.53-.41-.22-.11-.47-.21-.75-.3-.28-.08-.57-.17-.86-.27s-.58-.21-.86-.33-.53-.29-.75-.48c-.22-.19-.4-.43-.53-.7-.13-.28-.2-.61-.2-1.01,0-.35.07-.69.22-1.02.15-.32.36-.61.64-.85.28-.25.62-.44,1.03-.59s.88-.22,1.41-.22c.61,0,1.15.1,1.64.29.49.19.91.46,1.25.79l-.39.64Z" fill="#fff"></path></g><rect fill="#002b49" height="30" width="120" x="510" y="105"></rect><g><path d="m551.41,115.82c-.06.1-.12.18-.19.23-.07.05-.15.07-.25.07s-.23-.05-.37-.15c-.14-.1-.31-.21-.52-.33s-.45-.23-.74-.33-.63-.15-1.04-.15c-.38,0-.71.05-.99.15s-.52.23-.72.4c-.19.17-.34.37-.44.6-.1.23-.15.48-.15.75,0,.35.09.64.27.86s.41.42.7.58.62.3.98.42c.37.12.74.24,1.12.37.38.13.76.28,1.12.45.37.17.69.38.98.63s.52.57.7.94c.18.37.26.82.26,1.35,0,.57-.1,1.1-.29,1.6-.2.5-.48.93-.85,1.3-.37.37-.83.67-1.37.88-.54.21-1.16.32-1.85.32-.41,0-.82-.04-1.21-.12-.39-.08-.76-.19-1.11-.34s-.67-.32-.98-.53-.57-.44-.81-.7l.55-.92c.05-.07.12-.13.19-.18.08-.05.16-.07.26-.07.13,0,.27.07.44.2s.37.28.61.44c.24.16.53.3.87.44s.75.2,1.24.2c.4,0,.75-.05,1.06-.16.31-.1.58-.25.79-.45.21-.19.38-.43.49-.71.11-.28.17-.58.17-.92,0-.38-.09-.69-.26-.93-.17-.24-.41-.44-.69-.6s-.62-.3-.98-.41c-.37-.11-.74-.23-1.12-.36s-.76-.27-1.12-.43c-.37-.16-.69-.37-.98-.63-.29-.26-.52-.59-.69-.98-.17-.39-.26-.88-.26-1.45,0-.46.09-.91.27-1.34.18-.43.44-.81.79-1.15s.77-.6,1.27-.8c.5-.2,1.08-.3,1.73-.3.73,0,1.39.12,2,.35.61.23,1.14.56,1.59.99l-.47.91Z" fill="#fff"></path><path d="m561.62,125.34c-.22.25-.46.47-.75.65s-.58.33-.9.45c-.32.11-.65.2-.99.25-.34.05-.67.08-1,.08-.63,0-1.21-.11-1.75-.32s-1-.52-1.4-.94c-.39-.41-.7-.92-.92-1.53-.22-.61-.33-1.31-.33-2.1,0-.64.1-1.23.3-1.78.2-.55.48-1.03.85-1.44.37-.41.82-.73,1.35-.96s1.13-.35,1.8-.35c.56,0,1.07.09,1.54.27.47.18.88.45,1.22.8.34.35.61.78.8,1.29.2.51.29,1.09.29,1.75,0,.27-.03.45-.09.54-.06.09-.17.14-.33.14h-5.99c.02.55.1,1.02.23,1.43.14.41.33.74.57,1.01s.53.47.87.6.71.2,1.12.2c.39,0,.73-.05,1.01-.14s.53-.19.74-.29.38-.2.52-.29.27-.14.37-.14c.14,0,.25.05.33.16l.5.65Zm-1.45-4.28c0-.35-.05-.67-.15-.96s-.25-.55-.44-.77c-.19-.22-.43-.38-.7-.5s-.59-.18-.95-.18c-.74,0-1.32.21-1.74.64-.42.43-.69,1.02-.81,1.77h4.79Z" fill="#fff"></path><path d="m570.05,119.21c-.05.07-.11.12-.16.16s-.12.06-.22.06-.2-.04-.3-.11c-.11-.07-.24-.16-.4-.24-.16-.09-.35-.17-.58-.24-.22-.08-.5-.11-.83-.11-.43,0-.81.08-1.14.23-.33.16-.6.38-.82.67-.22.29-.39.64-.5,1.05-.11.41-.17.88-.17,1.4s.06,1.01.18,1.43.29.77.51,1.05c.22.29.49.5.81.65.32.15.67.22,1.06.22s.69-.05.94-.14c.25-.09.45-.19.61-.3.16-.11.3-.21.41-.3.11-.09.22-.14.33-.14.14,0,.25.05.33.16l.5.65c-.21.26-.45.48-.71.66-.26.18-.54.33-.83.44-.29.11-.6.2-.92.25-.32.05-.65.08-.98.08-.57,0-1.1-.1-1.6-.31s-.92-.52-1.29-.92c-.36-.4-.65-.9-.86-1.48-.21-.58-.32-1.25-.32-1.99,0-.68.09-1.31.28-1.88.19-.58.47-1.07.84-1.49.37-.42.82-.74,1.36-.98.54-.24,1.16-.36,1.85-.36.65,0,1.23.1,1.73.31.5.21.94.51,1.33.89l-.47.65Z" fill="#fff"></path><path d="m579.86,117.5v9.14h-1.05c-.24,0-.4-.12-.47-.35l-.13-.92c-.2.21-.41.4-.62.58-.22.17-.45.32-.69.45s-.51.22-.78.29c-.28.07-.57.1-.89.1-.5,0-.95-.08-1.33-.25-.38-.17-.7-.4-.96-.71-.26-.3-.45-.67-.58-1.09-.13-.43-.2-.9-.2-1.41v-5.82h1.76v5.82c0,.65.15,1.16.45,1.53.3.36.76.54,1.38.54.45,0,.87-.11,1.26-.32.39-.21.76-.51,1.1-.88v-6.7h1.75Z" fill="#fff"></path><path d="m583.97,119.25c.29-.6.65-1.07,1.06-1.41.41-.34.91-.51,1.49-.51.2,0,.38.02.56.07.18.04.33.11.46.2l-.12,1.32c-.04.16-.14.24-.3.24-.08,0-.21-.02-.38-.05-.17-.03-.35-.05-.54-.05-.28,0-.53.04-.75.12-.22.08-.41.2-.58.36-.17.16-.32.35-.45.58-.13.23-.26.49-.37.79v5.72h-1.75v-9.14h1.01c.19,0,.32.03.39.1.07.07.12.19.15.36l.11,1.29Z" fill="#fff"></path><path d="m596.08,125.34c-.22.25-.46.47-.75.65s-.58.33-.9.45c-.32.11-.65.2-.99.25-.34.05-.67.08-1,.08-.63,0-1.21-.11-1.75-.32s-1-.52-1.4-.94c-.39-.41-.7-.92-.92-1.53-.22-.61-.33-1.31-.33-2.1,0-.64.1-1.23.3-1.78.2-.55.48-1.03.85-1.44.37-.41.82-.73,1.35-.96s1.13-.35,1.8-.35c.56,0,1.07.09,1.54.27.47.18.88.45,1.22.8.34.35.61.78.8,1.29.2.51.29,1.09.29,1.75,0,.27-.03.45-.09.54-.06.09-.17.14-.33.14h-5.99c.02.55.1,1.02.23,1.43.14.41.33.74.57,1.01s.53.47.87.6.71.2,1.12.2c.39,0,.73-.05,1.01-.14s.53-.19.74-.29.38-.2.52-.29.27-.14.37-.14c.14,0,.25.05.33.16l.5.65Zm-1.45-4.28c0-.35-.05-.67-.15-.96s-.25-.55-.44-.77c-.19-.22-.43-.38-.7-.5s-.59-.18-.95-.18c-.74,0-1.32.21-1.74.64-.42.43-.69,1.02-.81,1.77h4.79Z" fill="#fff"></path></g><rect fill="#333e48" height="45" width="120" x="510" y="150"></rect><g><path d="m536.02,166.22v12.92h-.97c-.15,0-.27-.03-.37-.08-.1-.05-.2-.14-.3-.26l-7.3-9.44c.01.16.02.32.03.48,0,.16.01.3.01.44v8.87h-1.68v-12.92h.99c.17,0,.29.02.38.06.08.04.18.13.28.27l7.32,9.45c-.02-.17-.03-.34-.04-.51,0-.16-.01-.32-.01-.46v-8.8h1.67Z" fill="#fff"></path><path d="m542.47,169.85c.67,0,1.28.11,1.82.33.54.22,1,.53,1.39.94.38.41.67.91.88,1.49s.31,1.23.31,1.95-.1,1.37-.31,1.95-.5,1.08-.88,1.48c-.38.41-.84.72-1.39.94-.54.22-1.15.33-1.82.33s-1.29-.11-1.83-.33c-.54-.22-1.01-.53-1.39-.94-.38-.41-.68-.9-.89-1.48s-.31-1.23-.31-1.95.1-1.37.31-1.95.5-1.07.89-1.49c.38-.41.85-.73,1.39-.94.54-.22,1.15-.33,1.83-.33Zm0,8.05c.86,0,1.51-.29,1.94-.87.43-.58.64-1.4.64-2.46s-.21-1.88-.64-2.46c-.43-.58-1.07-.88-1.94-.88s-1.53.29-1.96.88c-.43.58-.64,1.41-.64,2.46s.21,1.88.64,2.46c.43.58,1.08.87,1.96.87Z" fill="#fff"></path><path d="m550.46,171.27c.2-.21.41-.4.62-.58.22-.17.45-.32.69-.45s.5-.22.78-.29c.28-.07.58-.1.9-.1.5,0,.95.08,1.33.25s.7.4.96.71c.26.3.45.67.58,1.09.13.43.2.9.2,1.41v5.82h-1.76v-5.82c0-.65-.15-1.16-.45-1.53-.3-.36-.76-.54-1.38-.54-.45,0-.87.11-1.26.32-.39.21-.76.5-1.09.87v6.71h-1.75v-9.14h1.05c.25,0,.4.12.46.35l.13.92Z" fill="#fff"></path><path d="m558.75,172.99h4.5v1.49h-4.5v-1.49Z" fill="#fff"></path><path d="m570.97,171.57c-.05.08-.1.13-.15.17-.05.03-.12.05-.21.05-.1,0-.2-.03-.32-.1-.12-.07-.26-.14-.42-.22s-.36-.15-.58-.22c-.22-.07-.49-.1-.79-.1-.25,0-.48.03-.69.09s-.38.15-.53.26c-.14.11-.25.24-.33.4-.08.15-.12.32-.12.49,0,.23.07.42.2.57s.31.28.53.39c.22.11.47.21.75.29.28.09.56.18.85.27.29.1.58.21.86.33.28.12.53.28.75.46.22.18.4.4.53.66.14.26.2.57.2.94,0,.43-.08.82-.23,1.18-.15.36-.38.68-.67.94-.3.26-.67.47-1.1.62-.44.15-.94.23-1.5.23-.63,0-1.21-.1-1.75-.31-.53-.21-.98-.48-1.34-.8l.41-.67c.05-.08.11-.15.18-.19.07-.05.17-.07.29-.07.11,0,.23.04.35.13.12.08.26.18.43.27.17.1.37.19.61.27.24.08.54.12.9.12.3,0,.56-.04.78-.11.22-.07.41-.18.55-.31.15-.13.26-.28.33-.45.07-.17.11-.35.11-.53,0-.24-.07-.44-.2-.6-.13-.16-.31-.3-.53-.41-.22-.11-.47-.21-.75-.3-.28-.08-.57-.17-.86-.27s-.58-.21-.86-.33-.53-.29-.75-.48c-.22-.19-.4-.43-.53-.7-.13-.28-.2-.61-.2-1.01,0-.35.07-.69.22-1.02.15-.32.36-.61.64-.85.28-.25.62-.44,1.03-.59s.88-.22,1.41-.22c.61,0,1.15.1,1.64.29.49.19.91.46,1.25.79l-.39.64Z" fill="#fff"></path><path d="m580.91,177.84c-.22.25-.46.47-.75.65s-.58.33-.9.45c-.32.11-.65.2-.99.25-.34.05-.67.08-1,.08-.63,0-1.21-.11-1.75-.32s-1-.52-1.4-.94c-.39-.41-.7-.92-.92-1.53-.22-.61-.33-1.31-.33-2.1,0-.64.1-1.23.3-1.78.2-.55.48-1.03.85-1.44.37-.41.82-.73,1.35-.96s1.13-.35,1.8-.35c.56,0,1.07.09,1.54.27.47.18.88.45,1.22.8.34.35.61.78.8,1.29.2.51.29,1.09.29,1.75,0,.27-.03.45-.09.54-.06.09-.17.14-.33.14h-5.99c.02.55.1,1.02.23,1.43.14.41.33.74.57,1.01s.53.47.87.6.71.2,1.12.2c.39,0,.73-.05,1.01-.14s.53-.19.74-.29.38-.2.52-.29.27-.14.37-.14c.14,0,.25.05.33.16l.5.65Zm-1.45-4.28c0-.35-.05-.67-.15-.96s-.25-.55-.44-.77c-.19-.22-.43-.38-.7-.5s-.59-.18-.95-.18c-.74,0-1.32.21-1.74.64-.42.43-.69,1.02-.81,1.77h4.79Z" fill="#fff"></path><path d="m589.34,171.71c-.05.07-.11.12-.16.16s-.12.06-.22.06-.2-.04-.3-.11c-.11-.07-.24-.16-.4-.24-.16-.09-.35-.17-.58-.24-.22-.08-.5-.11-.83-.11-.43,0-.81.08-1.14.23-.33.16-.6.38-.82.67-.22.29-.39.64-.5,1.05-.11.41-.17.88-.17,1.4s.06,1.01.18,1.43.29.77.51,1.05c.22.29.49.5.81.65.32.15.67.22,1.06.22s.69-.05.94-.14c.25-.09.45-.19.61-.3.16-.11.3-.21.41-.3.11-.09.22-.14.33-.14.14,0,.25.05.33.16l.5.65c-.21.26-.45.48-.71.66-.26.18-.54.33-.83.44-.29.11-.6.2-.92.25-.32.05-.65.08-.98.08-.57,0-1.1-.1-1.6-.31s-.92-.52-1.29-.92c-.36-.4-.65-.9-.86-1.48-.21-.58-.32-1.25-.32-1.99,0-.68.09-1.31.28-1.88.19-.58.47-1.07.84-1.49.37-.42.82-.74,1.36-.98.54-.24,1.16-.36,1.85-.36.65,0,1.23.1,1.73.31.5.21.94.51,1.33.89l-.47.65Z" fill="#fff"></path><path d="m599.15,170v9.14h-1.05c-.24,0-.4-.12-.47-.35l-.13-.92c-.2.21-.41.4-.62.58-.22.17-.45.32-.69.45s-.51.22-.78.29c-.28.07-.57.1-.89.1-.5,0-.95-.08-1.33-.25-.38-.17-.7-.4-.96-.71-.26-.3-.45-.67-.58-1.09-.13-.43-.2-.9-.2-1.41v-5.82h1.76v5.82c0,.65.15,1.16.45,1.53.3.36.76.54,1.38.54.45,0,.87-.11,1.26-.32.39-.21.76-.51,1.1-.88v-6.7h1.75Z" fill="#fff"></path><path d="m603.26,171.75c.29-.6.65-1.07,1.06-1.41.41-.34.91-.51,1.49-.51.2,0,.38.02.56.07.18.04.33.11.46.2l-.12,1.32c-.04.16-.14.24-.3.24-.08,0-.21-.02-.38-.05-.17-.03-.35-.05-.54-.05-.28,0-.53.04-.75.12-.22.08-.41.2-.58.36-.17.16-.32.35-.45.58-.13.23-.26.49-.37.79v5.72h-1.75v-9.14h1.01c.19,0,.32.03.39.1.07.07.12.19.15.36l.11,1.29Z" fill="#fff"></path><path d="m615.37,177.84c-.22.25-.46.47-.75.65s-.58.33-.9.45c-.32.11-.65.2-.99.25-.34.05-.67.08-1,.08-.63,0-1.21-.11-1.75-.32s-1-.52-1.4-.94c-.39-.41-.7-.92-.92-1.53-.22-.61-.33-1.31-.33-2.1,0-.64.1-1.23.3-1.78.2-.55.48-1.03.85-1.44.37-.41.82-.73,1.35-.96s1.13-.35,1.8-.35c.56,0,1.07.09,1.54.27.47.18.88.45,1.22.8.34.35.61.78.8,1.29.2.51.29,1.09.29,1.75,0,.27-.03.45-.09.54-.06.09-.17.14-.33.14h-5.99c.02.55.1,1.02.23,1.43.14.41.33.74.57,1.01s.53.47.87.6.71.2,1.12.2c.39,0,.73-.05,1.01-.14s.53-.19.74-.29.38-.2.52-.29.27-.14.37-.14c.14,0,.25.05.33.16l.5.65Zm-1.45-4.28c0-.35-.05-.67-.15-.96s-.25-.55-.44-.77c-.19-.22-.43-.38-.7-.5s-.59-.18-.95-.18c-.74,0-1.32.21-1.74.64-.42.43-.69,1.02-.81,1.77h4.79Z" fill="#fff"></path></g><rect fill="#002b49" height="30" width="120" x="510" y="210"></rect><g><path d="m551.41,220.82c-.06.1-.12.18-.19.23-.07.05-.15.07-.25.07s-.23-.05-.37-.15c-.14-.1-.31-.21-.52-.33s-.45-.23-.74-.33-.63-.15-1.04-.15c-.38,0-.71.05-.99.15s-.52.23-.72.4c-.19.17-.34.37-.44.6-.1.23-.15.48-.15.75,0,.35.09.64.27.86s.41.42.7.58.62.3.98.42c.37.12.74.24,1.12.37.38.13.76.28,1.12.45.37.17.69.38.98.63s.52.57.7.94c.18.37.26.82.26,1.35,0,.57-.1,1.1-.29,1.6-.2.5-.48.93-.85,1.3-.37.37-.83.67-1.37.88-.54.21-1.16.32-1.85.32-.41,0-.82-.04-1.21-.12-.39-.08-.76-.19-1.11-.34s-.67-.32-.98-.53-.57-.44-.81-.7l.55-.92c.05-.07.12-.13.19-.18.08-.05.16-.07.26-.07.13,0,.27.07.44.2s.37.28.61.44c.24.16.53.3.87.44s.75.2,1.24.2c.4,0,.75-.05,1.06-.16.31-.1.58-.25.79-.45.21-.19.38-.43.49-.71.11-.28.17-.58.17-.92,0-.38-.09-.69-.26-.93-.17-.24-.41-.44-.69-.6s-.62-.3-.98-.41c-.37-.11-.74-.23-1.12-.36s-.76-.27-1.12-.43c-.37-.16-.69-.37-.98-.63-.29-.26-.52-.59-.69-.98-.17-.39-.26-.88-.26-1.45,0-.46.09-.91.27-1.34.18-.43.44-.81.79-1.15s.77-.6,1.27-.8c.5-.2,1.08-.3,1.73-.3.73,0,1.39.12,2,.35.61.23,1.14.56,1.59.99l-.47.91Z" fill="#fff"></path><path d="m561.62,230.34c-.22.25-.46.47-.75.65s-.58.33-.9.45c-.32.11-.65.2-.99.25-.34.05-.67.08-1,.08-.63,0-1.21-.11-1.75-.32s-1-.52-1.4-.94c-.39-.41-.7-.92-.92-1.53-.22-.61-.33-1.31-.33-2.1,0-.64.1-1.23.3-1.78.2-.55.48-1.03.85-1.44.37-.41.82-.73,1.35-.96s1.13-.35,1.8-.35c.56,0,1.07.09,1.54.27.47.18.88.45,1.22.8.34.35.61.78.8,1.29.2.51.29,1.09.29,1.75,0,.27-.03.45-.09.54-.06.09-.17.14-.33.14h-5.99c.02.55.1,1.02.23,1.43.14.41.33.74.57,1.01s.53.47.87.6.71.2,1.12.2c.39,0,.73-.05,1.01-.14s.53-.19.74-.29.38-.2.52-.29.27-.14.37-.14c.14,0,.25.05.33.16l.5.65Zm-1.45-4.28c0-.35-.05-.67-.15-.96s-.25-.55-.44-.77c-.19-.22-.43-.38-.7-.5s-.59-.18-.95-.18c-.74,0-1.32.21-1.74.64-.42.43-.69,1.02-.81,1.77h4.79Z" fill="#fff"></path><path d="m570.05,224.21c-.05.07-.11.12-.16.16s-.12.06-.22.06-.2-.04-.3-.11c-.11-.07-.24-.16-.4-.24-.16-.09-.35-.17-.58-.24-.22-.08-.5-.11-.83-.11-.43,0-.81.08-1.14.23-.33.16-.6.38-.82.67-.22.29-.39.64-.5,1.05-.11.41-.17.88-.17,1.4s.06,1.01.18,1.43.29.77.51,1.05c.22.29.49.5.81.65.32.15.67.22,1.06.22s.69-.05.94-.14c.25-.09.45-.19.61-.3.16-.11.3-.21.41-.3.11-.09.22-.14.33-.14.14,0,.25.05.33.16l.5.65c-.21.26-.45.48-.71.66-.26.18-.54.33-.83.44-.29.11-.6.2-.92.25-.32.05-.65.08-.98.08-.57,0-1.1-.1-1.6-.31s-.92-.52-1.29-.92c-.36-.4-.65-.9-.86-1.48-.21-.58-.32-1.25-.32-1.99,0-.68.09-1.31.28-1.88.19-.58.47-1.07.84-1.49.37-.42.82-.74,1.36-.98.54-.24,1.16-.36,1.85-.36.65,0,1.23.1,1.73.31.5.21.94.51,1.33.89l-.47.65Z" fill="#fff"></path><path d="m579.86,222.5v9.14h-1.05c-.24,0-.4-.12-.47-.35l-.13-.92c-.2.21-.41.4-.62.58-.22.17-.45.32-.69.45s-.51.22-.78.29c-.28.07-.57.1-.89.1-.5,0-.95-.08-1.33-.25-.38-.17-.7-.4-.96-.71-.26-.3-.45-.67-.58-1.09-.13-.43-.2-.9-.2-1.41v-5.82h1.76v5.82c0,.65.15,1.16.45,1.53.3.36.76.54,1.38.54.45,0,.87-.11,1.26-.32.39-.21.76-.51,1.1-.88v-6.7h1.75Z" fill="#fff"></path><path d="m583.97,224.25c.29-.6.65-1.07,1.06-1.41.41-.34.91-.51,1.49-.51.2,0,.38.02.56.07.18.04.33.11.46.2l-.12,1.32c-.04.16-.14.24-.3.24-.08,0-.21-.02-.38-.05-.17-.03-.35-.05-.54-.05-.28,0-.53.04-.75.12-.22.08-.41.2-.58.36-.17.16-.32.35-.45.58-.13.23-.26.49-.37.79v5.72h-1.75v-9.14h1.01c.19,0,.32.03.39.1.07.07.12.19.15.36l.11,1.29Z" fill="#fff"></path><path d="m596.08,230.34c-.22.25-.46.47-.75.65s-.58.33-.9.45c-.32.11-.65.2-.99.25-.34.05-.67.08-1,.08-.63,0-1.21-.11-1.75-.32s-1-.52-1.4-.94c-.39-.41-.7-.92-.92-1.53-.22-.61-.33-1.31-.33-2.1,0-.64.1-1.23.3-1.78.2-.55.48-1.03.85-1.44.37-.41.82-.73,1.35-.96s1.13-.35,1.8-.35c.56,0,1.07.09,1.54.27.47.18.88.45,1.22.8.34.35.61.78.8,1.29.2.51.29,1.09.29,1.75,0,.27-.03.45-.09.54-.06.09-.17.14-.33.14h-5.99c.02.55.1,1.02.23,1.43.14.41.33.74.57,1.01s.53.47.87.6.71.2,1.12.2c.39,0,.73-.05,1.01-.14s.53-.19.74-.29.38-.2.52-.29.27-.14.37-.14c.14,0,.25.05.33.16l.5.65Zm-1.45-4.28c0-.35-.05-.67-.15-.96s-.25-.55-.44-.77c-.19-.22-.43-.38-.7-.5s-.59-.18-.95-.18c-.74,0-1.32.21-1.74.64-.42.43-.69,1.02-.81,1.77h4.79Z" fill="#fff"></path></g><rect fill="#333e48" height="45" width="120" x="510" y="255"></rect><g><path d="m536.02,271.22v12.92h-.97c-.15,0-.27-.03-.37-.08-.1-.05-.2-.14-.3-.26l-7.3-9.44c.01.16.02.32.03.48,0,.16.01.3.01.44v8.87h-1.68v-12.92h.99c.17,0,.29.02.38.06.08.04.18.13.28.27l7.32,9.45c-.02-.17-.03-.34-.04-.51,0-.16-.01-.32-.01-.46v-8.8h1.67Z" fill="#fff"></path><path d="m542.47,274.85c.67,0,1.28.11,1.82.33.54.22,1,.53,1.39.94.38.41.67.91.88,1.49s.31,1.23.31,1.95-.1,1.37-.31,1.95-.5,1.08-.88,1.48c-.38.41-.84.72-1.39.94-.54.22-1.15.33-1.82.33s-1.29-.11-1.83-.33c-.54-.22-1.01-.53-1.39-.94-.38-.41-.68-.9-.89-1.48s-.31-1.23-.31-1.95.1-1.37.31-1.95.5-1.07.89-1.49c.38-.41.85-.73,1.39-.94.54-.22,1.15-.33,1.83-.33Zm0,8.05c.86,0,1.51-.29,1.94-.87.43-.58.64-1.4.64-2.46s-.21-1.88-.64-2.46c-.43-.58-1.07-.88-1.94-.88s-1.53.29-1.96.88c-.43.58-.64,1.41-.64,2.46s.21,1.88.64,2.46c.43.58,1.08.87,1.96.87Z" fill="#fff"></path><path d="m550.46,276.27c.2-.21.41-.4.62-.58.22-.17.45-.32.69-.45s.5-.22.78-.29c.28-.07.58-.1.9-.1.5,0,.95.08,1.33.25s.7.4.96.71c.26.3.45.67.58,1.09.13.43.2.9.2,1.41v5.82h-1.76v-5.82c0-.65-.15-1.16-.45-1.53-.3-.36-.76-.54-1.38-.54-.45,0-.87.11-1.26.32-.39.21-.76.5-1.09.87v6.71h-1.75v-9.14h1.05c.25,0,.4.12.46.35l.13.92Z" fill="#fff"></path><path d="m558.75,277.99h4.5v1.49h-4.5v-1.49Z" fill="#fff"></path><path d="m570.97,276.57c-.05.08-.1.13-.15.17-.05.03-.12.05-.21.05-.1,0-.2-.03-.32-.1-.12-.07-.26-.14-.42-.22s-.36-.15-.58-.22c-.22-.07-.49-.1-.79-.1-.25,0-.48.03-.69.09s-.38.15-.53.26c-.14.11-.25.24-.33.4-.08.15-.12.32-.12.49,0,.23.07.42.2.57s.31.28.53.39c.22.11.47.21.75.29.28.09.56.18.85.27.29.1.58.21.86.33.28.12.53.28.75.46.22.18.4.4.53.66.14.26.2.57.2.94,0,.43-.08.82-.23,1.18-.15.36-.38.68-.67.94-.3.26-.67.47-1.1.62-.44.15-.94.23-1.5.23-.63,0-1.21-.1-1.75-.31-.53-.21-.98-.48-1.34-.8l.41-.67c.05-.08.11-.15.18-.19.07-.05.17-.07.29-.07.11,0,.23.04.35.13.12.08.26.18.43.27.17.1.37.19.61.27.24.08.54.12.9.12.3,0,.56-.04.78-.11.22-.07.41-.18.55-.31.15-.13.26-.28.33-.45.07-.17.11-.35.11-.53,0-.24-.07-.44-.2-.6-.13-.16-.31-.3-.53-.41-.22-.11-.47-.21-.75-.3-.28-.08-.57-.17-.86-.27s-.58-.21-.86-.33-.53-.29-.75-.48c-.22-.19-.4-.43-.53-.7-.13-.28-.2-.61-.2-1.01,0-.35.07-.69.22-1.02.15-.32.36-.61.64-.85.28-.25.62-.44,1.03-.59s.88-.22,1.41-.22c.61,0,1.15.1,1.64.29.49.19.91.46,1.25.79l-.39.64Z" fill="#fff"></path><path d="m580.91,282.84c-.22.25-.46.47-.75.65s-.58.33-.9.45c-.32.11-.65.2-.99.25-.34.05-.67.08-1,.08-.63,0-1.21-.11-1.75-.32s-1-.52-1.4-.94c-.39-.41-.7-.92-.92-1.53-.22-.61-.33-1.31-.33-2.1,0-.64.1-1.23.3-1.78.2-.55.48-1.03.85-1.44.37-.41.82-.73,1.35-.96s1.13-.35,1.8-.35c.56,0,1.07.09,1.54.27.47.18.88.45,1.22.8.34.35.61.78.8,1.29.2.51.29,1.09.29,1.75,0,.27-.03.45-.09.54-.06.09-.17.14-.33.14h-5.99c.02.55.1,1.02.23,1.43.14.41.33.74.57,1.01s.53.47.87.6.71.2,1.12.2c.39,0,.73-.05,1.01-.14s.53-.19.74-.29.38-.2.52-.29.27-.14.37-.14c.14,0,.25.05.33.16l.5.65Zm-1.45-4.28c0-.35-.05-.67-.15-.96s-.25-.55-.44-.77c-.19-.22-.43-.38-.7-.5s-.59-.18-.95-.18c-.74,0-1.32.21-1.74.64-.42.43-.69,1.02-.81,1.77h4.79Z" fill="#fff"></path><path d="m589.34,276.71c-.05.07-.11.12-.16.16s-.12.06-.22.06-.2-.04-.3-.11c-.11-.07-.24-.16-.4-.24-.16-.09-.35-.17-.58-.24-.22-.08-.5-.11-.83-.11-.43,0-.81.08-1.14.23-.33.16-.6.38-.82.67-.22.29-.39.64-.5,1.05-.11.41-.17.88-.17,1.4s.06,1.01.18,1.43.29.77.51,1.05c.22.29.49.5.81.65.32.15.67.22,1.06.22s.69-.05.94-.14c.25-.09.45-.19.61-.3.16-.11.3-.21.41-.3.11-.09.22-.14.33-.14.14,0,.25.05.33.16l.5.65c-.21.26-.45.48-.71.66-.26.18-.54.33-.83.44-.29.11-.6.2-.92.25-.32.05-.65.08-.98.08-.57,0-1.1-.1-1.6-.31s-.92-.52-1.29-.92c-.36-.4-.65-.9-.86-1.48-.21-.58-.32-1.25-.32-1.99,0-.68.09-1.31.28-1.88.19-.58.47-1.07.84-1.49.37-.42.82-.74,1.36-.98.54-.24,1.16-.36,1.85-.36.65,0,1.23.1,1.73.31.5.21.94.51,1.33.89l-.47.65Z" fill="#fff"></path><path d="m599.15,275v9.14h-1.05c-.24,0-.4-.12-.47-.35l-.13-.92c-.2.21-.41.4-.62.58-.22.17-.45.32-.69.45s-.51.22-.78.29c-.28.07-.57.1-.89.1-.5,0-.95-.08-1.33-.25-.38-.17-.7-.4-.96-.71-.26-.3-.45-.67-.58-1.09-.13-.43-.2-.9-.2-1.41v-5.82h1.76v5.82c0,.65.15,1.16.45,1.53.3.36.76.54,1.38.54.45,0,.87-.11,1.26-.32.39-.21.76-.51,1.1-.88v-6.7h1.75Z" fill="#fff"></path><path d="m603.26,276.75c.29-.6.65-1.07,1.06-1.41.41-.34.91-.51,1.49-.51.2,0,.38.02.56.07.18.04.33.11.46.2l-.12,1.32c-.04.16-.14.24-.3.24-.08,0-.21-.02-.38-.05-.17-.03-.35-.05-.54-.05-.28,0-.53.04-.75.12-.22.08-.41.2-.58.36-.17.16-.32.35-.45.58-.13.23-.26.49-.37.79v5.72h-1.75v-9.14h1.01c.19,0,.32.03.39.1.07.07.12.19.15.36l.11,1.29Z" fill="#fff"></path><path d="m615.37,282.84c-.22.25-.46.47-.75.65s-.58.33-.9.45c-.32.11-.65.2-.99.25-.34.05-.67.08-1,.08-.63,0-1.21-.11-1.75-.32s-1-.52-1.4-.94c-.39-.41-.7-.92-.92-1.53-.22-.61-.33-1.31-.33-2.1,0-.64.1-1.23.3-1.78.2-.55.48-1.03.85-1.44.37-.41.82-.73,1.35-.96s1.13-.35,1.8-.35c.56,0,1.07.09,1.54.27.47.18.88.45,1.22.8.34.35.61.78.8,1.29.2.51.29,1.09.29,1.75,0,.27-.03.45-.09.54-.06.09-.17.14-.33.14h-5.99c.02.55.1,1.02.23,1.43.14.41.33.74.57,1.01s.53.47.87.6.71.2,1.12.2c.39,0,.73-.05,1.01-.14s.53-.19.74-.29.38-.2.52-.29.27-.14.37-.14c.14,0,.25.05.33.16l.5.65Zm-1.45-4.28c0-.35-.05-.67-.15-.96s-.25-.55-.44-.77c-.19-.22-.43-.38-.7-.5s-.59-.18-.95-.18c-.74,0-1.32.21-1.74.64-.42.43-.69,1.02-.81,1.77h4.79Z" fill="#fff"></path></g><rect fill="#002b49" height="30" width="120" x="510" y="315"></rect><g><path d="m551.41,325.82c-.06.1-.12.18-.19.23-.07.05-.15.07-.25.07s-.23-.05-.37-.15c-.14-.1-.31-.21-.52-.33s-.45-.23-.74-.33-.63-.15-1.04-.15c-.38,0-.71.05-.99.15s-.52.23-.72.4c-.19.17-.34.37-.44.6-.1.23-.15.48-.15.75,0,.35.09.64.27.86s.41.42.7.58.62.3.98.42c.37.12.74.24,1.12.37.38.13.76.28,1.12.45.37.17.69.38.98.63s.52.57.7.94c.18.37.26.82.26,1.35,0,.57-.1,1.1-.29,1.6-.2.5-.48.93-.85,1.3-.37.37-.83.67-1.37.88-.54.21-1.16.32-1.85.32-.41,0-.82-.04-1.21-.12-.39-.08-.76-.19-1.11-.34s-.67-.32-.98-.53-.57-.44-.81-.7l.55-.92c.05-.07.12-.13.19-.18.08-.05.16-.07.26-.07.13,0,.27.07.44.2s.37.28.61.44c.24.16.53.3.87.44s.75.2,1.24.2c.4,0,.75-.05,1.06-.16.31-.1.58-.25.79-.45.21-.19.38-.43.49-.71.11-.28.17-.58.17-.92,0-.38-.09-.69-.26-.93-.17-.24-.41-.44-.69-.6s-.62-.3-.98-.41c-.37-.11-.74-.23-1.12-.36s-.76-.27-1.12-.43c-.37-.16-.69-.37-.98-.63-.29-.26-.52-.59-.69-.98-.17-.39-.26-.88-.26-1.45,0-.46.09-.91.27-1.34.18-.43.44-.81.79-1.15s.77-.6,1.27-.8c.5-.2,1.08-.3,1.73-.3.73,0,1.39.12,2,.35.61.23,1.14.56,1.59.99l-.47.91Z" fill="#fff"></path><path d="m561.62,335.34c-.22.25-.46.47-.75.65s-.58.33-.9.45c-.32.11-.65.2-.99.25-.34.05-.67.08-1,.08-.63,0-1.21-.11-1.75-.32s-1-.52-1.4-.94c-.39-.41-.7-.92-.92-1.53-.22-.61-.33-1.31-.33-2.1,0-.64.1-1.23.3-1.78.2-.55.48-1.03.85-1.44.37-.41.82-.73,1.35-.96s1.13-.35,1.8-.35c.56,0,1.07.09,1.54.27.47.18.88.45,1.22.8.34.35.61.78.8,1.29.2.51.29,1.09.29,1.75,0,.27-.03.45-.09.54-.06.09-.17.14-.33.14h-5.99c.02.55.1,1.02.23,1.43.14.41.33.74.57,1.01s.53.47.87.6.71.2,1.12.2c.39,0,.73-.05,1.01-.14s.53-.19.74-.29.38-.2.52-.29.27-.14.37-.14c.14,0,.25.05.33.16l.5.65Zm-1.45-4.28c0-.35-.05-.67-.15-.96s-.25-.55-.44-.77c-.19-.22-.43-.38-.7-.5s-.59-.18-.95-.18c-.74,0-1.32.21-1.74.64-.42.43-.69,1.02-.81,1.77h4.79Z" fill="#fff"></path><path d="m570.05,329.21c-.05.07-.11.12-.16.16s-.12.06-.22.06-.2-.04-.3-.11c-.11-.07-.24-.16-.4-.24-.16-.09-.35-.17-.58-.24-.22-.08-.5-.11-.83-.11-.43,0-.81.08-1.14.23-.33.16-.6.38-.82.67-.22.29-.39.64-.5,1.05-.11.41-.17.88-.17,1.4s.06,1.01.18,1.43.29.77.51,1.05c.22.29.49.5.81.65.32.15.67.22,1.06.22s.69-.05.94-.14c.25-.09.45-.19.61-.3.16-.11.3-.21.41-.3.11-.09.22-.14.33-.14.14,0,.25.05.33.16l.5.65c-.21.26-.45.48-.71.66-.26.18-.54.33-.83.44-.29.11-.6.2-.92.25-.32.05-.65.08-.98.08-.57,0-1.1-.1-1.6-.31s-.92-.52-1.29-.92c-.36-.4-.65-.9-.86-1.48-.21-.58-.32-1.25-.32-1.99,0-.68.09-1.31.28-1.88.19-.58.47-1.07.84-1.49.37-.42.82-.74,1.36-.98.54-.24,1.16-.36,1.85-.36.65,0,1.23.1,1.73.31.5.21.94.51,1.33.89l-.47.65Z" fill="#fff"></path><path d="m579.86,327.5v9.14h-1.05c-.24,0-.4-.12-.47-.35l-.13-.92c-.2.21-.41.4-.62.58-.22.17-.45.32-.69.45s-.51.22-.78.29c-.28.07-.57.1-.89.1-.5,0-.95-.08-1.33-.25-.38-.17-.7-.4-.96-.71-.26-.3-.45-.67-.58-1.09-.13-.43-.2-.9-.2-1.41v-5.82h1.76v5.82c0,.65.15,1.16.45,1.53.3.36.76.54,1.38.54.45,0,.87-.11,1.26-.32.39-.21.76-.51,1.1-.88v-6.7h1.75Z" fill="#fff"></path><path d="m583.97,329.25c.29-.6.65-1.07,1.06-1.41.41-.34.91-.51,1.49-.51.2,0,.38.02.56.07.18.04.33.11.46.2l-.12,1.32c-.04.16-.14.24-.3.24-.08,0-.21-.02-.38-.05-.17-.03-.35-.05-.54-.05-.28,0-.53.04-.75.12-.22.08-.41.2-.58.36-.17.16-.32.35-.45.58-.13.23-.26.49-.37.79v5.72h-1.75v-9.14h1.01c.19,0,.32.03.39.1.07.07.12.19.15.36l.11,1.29Z" fill="#fff"></path><path d="m596.08,335.34c-.22.25-.46.47-.75.65s-.58.33-.9.45c-.32.11-.65.2-.99.25-.34.05-.67.08-1,.08-.63,0-1.21-.11-1.75-.32s-1-.52-1.4-.94c-.39-.41-.7-.92-.92-1.53-.22-.61-.33-1.31-.33-2.1,0-.64.1-1.23.3-1.78.2-.55.48-1.03.85-1.44.37-.41.82-.73,1.35-.96s1.13-.35,1.8-.35c.56,0,1.07.09,1.54.27.47.18.88.45,1.22.8.34.35.61.78.8,1.29.2.51.29,1.09.29,1.75,0,.27-.03.45-.09.54-.06.09-.17.14-.33.14h-5.99c.02.55.1,1.02.23,1.43.14.41.33.74.57,1.01s.53.47.87.6.71.2,1.12.2c.39,0,.73-.05,1.01-.14s.53-.19.74-.29.38-.2.52-.29.27-.14.37-.14c.14,0,.25.05.33.16l.5.65Zm-1.45-4.28c0-.35-.05-.67-.15-.96s-.25-.55-.44-.77c-.19-.22-.43-.38-.7-.5s-.59-.18-.95-.18c-.74,0-1.32.21-1.74.64-.42.43-.69,1.02-.81,1.77h4.79Z" fill="#fff"></path></g><rect fill="#333e48" height="45" width="120" x="510" y="360"></rect><g><path d="m536.02,376.22v12.92h-.97c-.15,0-.27-.03-.37-.08-.1-.05-.2-.14-.3-.26l-7.3-9.44c.01.16.02.32.03.48,0,.16.01.3.01.44v8.87h-1.68v-12.92h.99c.17,0,.29.02.38.06.08.04.18.13.28.27l7.32,9.45c-.02-.17-.03-.34-.04-.51,0-.16-.01-.32-.01-.46v-8.8h1.67Z" fill="#fff"></path><path d="m542.47,379.85c.67,0,1.28.11,1.82.33.54.22,1,.53,1.39.94.38.41.67.91.88,1.49s.31,1.23.31,1.95-.1,1.37-.31,1.95-.5,1.08-.88,1.48c-.38.41-.84.72-1.39.94-.54.22-1.15.33-1.82.33s-1.29-.11-1.83-.33c-.54-.22-1.01-.53-1.39-.94-.38-.41-.68-.9-.89-1.48s-.31-1.23-.31-1.95.1-1.37.31-1.95.5-1.07.89-1.49c.38-.41.85-.73,1.39-.94.54-.22,1.15-.33,1.83-.33Zm0,8.05c.86,0,1.51-.29,1.94-.87.43-.58.64-1.4.64-2.46s-.21-1.88-.64-2.46c-.43-.58-1.07-.88-1.94-.88s-1.53.29-1.96.88c-.43.58-.64,1.41-.64,2.46s.21,1.88.64,2.46c.43.58,1.08.87,1.96.87Z" fill="#fff"></path><path d="m550.46,381.27c.2-.21.41-.4.62-.58.22-.17.45-.32.69-.45s.5-.22.78-.29c.28-.07.58-.1.9-.1.5,0,.95.08,1.33.25s.7.4.96.71c.26.3.45.67.58,1.09.13.43.2.9.2,1.41v5.82h-1.76v-5.82c0-.65-.15-1.16-.45-1.53-.3-.36-.76-.54-1.38-.54-.45,0-.87.11-1.26.32-.39.21-.76.5-1.09.87v6.71h-1.75v-9.14h1.05c.25,0,.4.12.46.35l.13.92Z" fill="#fff"></path><path d="m558.75,382.99h4.5v1.49h-4.5v-1.49Z" fill="#fff"></path><path d="m570.97,381.57c-.05.08-.1.13-.15.17-.05.03-.12.05-.21.05-.1,0-.2-.03-.32-.1-.12-.07-.26-.14-.42-.22s-.36-.15-.58-.22c-.22-.07-.49-.1-.79-.1-.25,0-.48.03-.69.09s-.38.15-.53.26c-.14.11-.25.24-.33.4-.08.15-.12.32-.12.49,0,.23.07.42.2.57s.31.28.53.39c.22.11.47.21.75.29.28.09.56.18.85.27.29.1.58.21.86.33.28.12.53.28.75.46.22.18.4.4.53.66.14.26.2.57.2.94,0,.43-.08.82-.23,1.18-.15.36-.38.68-.67.94-.3.26-.67.47-1.1.62-.44.15-.94.23-1.5.23-.63,0-1.21-.1-1.75-.31-.53-.21-.98-.48-1.34-.8l.41-.67c.05-.08.11-.15.18-.19.07-.05.17-.07.29-.07.11,0,.23.04.35.13.12.08.26.18.43.27.17.1.37.19.61.27.24.08.54.12.9.12.3,0,.56-.04.78-.11.22-.07.41-.18.55-.31.15-.13.26-.28.33-.45.07-.17.11-.35.11-.53,0-.24-.07-.44-.2-.6-.13-.16-.31-.3-.53-.41-.22-.11-.47-.21-.75-.3-.28-.08-.57-.17-.86-.27s-.58-.21-.86-.33-.53-.29-.75-.48c-.22-.19-.4-.43-.53-.7-.13-.28-.2-.61-.2-1.01,0-.35.07-.69.22-1.02.15-.32.36-.61.64-.85.28-.25.62-.44,1.03-.59s.88-.22,1.41-.22c.61,0,1.15.1,1.64.29.49.19.91.46,1.25.79l-.39.64Z" fill="#fff"></path><path d="m580.91,387.84c-.22.25-.46.47-.75.65s-.58.33-.9.45c-.32.11-.65.2-.99.25-.34.05-.67.08-1,.08-.63,0-1.21-.11-1.75-.32s-1-.52-1.4-.94c-.39-.41-.7-.92-.92-1.53-.22-.61-.33-1.31-.33-2.1,0-.64.1-1.23.3-1.78.2-.55.48-1.03.85-1.44.37-.41.82-.73,1.35-.96s1.13-.35,1.8-.35c.56,0,1.07.09,1.54.27.47.18.88.45,1.22.8.34.35.61.78.8,1.29.2.51.29,1.09.29,1.75,0,.27-.03.45-.09.54-.06.09-.17.14-.33.14h-5.99c.02.55.1,1.02.23,1.43.14.41.33.74.57,1.01s.53.47.87.6.71.2,1.12.2c.39,0,.73-.05,1.01-.14s.53-.19.74-.29.38-.2.52-.29.27-.14.37-.14c.14,0,.25.05.33.16l.5.65Zm-1.45-4.28c0-.35-.05-.67-.15-.96s-.25-.55-.44-.77c-.19-.22-.43-.38-.7-.5s-.59-.18-.95-.18c-.74,0-1.32.21-1.74.64-.42.43-.69,1.02-.81,1.77h4.79Z" fill="#fff"></path><path d="m589.34,381.71c-.05.07-.11.12-.16.16s-.12.06-.22.06-.2-.04-.3-.11c-.11-.07-.24-.16-.4-.24-.16-.09-.35-.17-.58-.24-.22-.08-.5-.11-.83-.11-.43,0-.81.08-1.14.23-.33.16-.6.38-.82.67-.22.29-.39.64-.5,1.05-.11.41-.17.88-.17,1.4s.06,1.01.18,1.43.29.77.51,1.05c.22.29.49.5.81.65.32.15.67.22,1.06.22s.69-.05.94-.14c.25-.09.45-.19.61-.3.16-.11.3-.21.41-.3.11-.09.22-.14.33-.14.14,0,.25.05.33.16l.5.65c-.21.26-.45.48-.71.66-.26.18-.54.33-.83.44-.29.11-.6.2-.92.25-.32.05-.65.08-.98.08-.57,0-1.1-.1-1.6-.31s-.92-.52-1.29-.92c-.36-.4-.65-.9-.86-1.48-.21-.58-.32-1.25-.32-1.99,0-.68.09-1.31.28-1.88.19-.58.47-1.07.84-1.49.37-.42.82-.74,1.36-.98.54-.24,1.16-.36,1.85-.36.65,0,1.23.1,1.73.31.5.21.94.51,1.33.89l-.47.65Z" fill="#fff"></path><path d="m599.15,380v9.14h-1.05c-.24,0-.4-.12-.47-.35l-.13-.92c-.2.21-.41.4-.62.58-.22.17-.45.32-.69.45s-.51.22-.78.29c-.28.07-.57.1-.89.1-.5,0-.95-.08-1.33-.25-.38-.17-.7-.4-.96-.71-.26-.3-.45-.67-.58-1.09-.13-.43-.2-.9-.2-1.41v-5.82h1.76v5.82c0,.65.15,1.16.45,1.53.3.36.76.54,1.38.54.45,0,.87-.11,1.26-.32.39-.21.76-.51,1.1-.88v-6.7h1.75Z" fill="#fff"></path><path d="m603.26,381.75c.29-.6.65-1.07,1.06-1.41.41-.34.91-.51,1.49-.51.2,0,.38.02.56.07.18.04.33.11.46.2l-.12,1.32c-.04.16-.14.24-.3.24-.08,0-.21-.02-.38-.05-.17-.03-.35-.05-.54-.05-.28,0-.53.04-.75.12-.22.08-.41.2-.58.36-.17.16-.32.35-.45.58-.13.23-.26.49-.37.79v5.72h-1.75v-9.14h1.01c.19,0,.32.03.39.1.07.07.12.19.15.36l.11,1.29Z" fill="#fff"></path><path d="m615.37,387.84c-.22.25-.46.47-.75.65s-.58.33-.9.45c-.32.11-.65.2-.99.25-.34.05-.67.08-1,.08-.63,0-1.21-.11-1.75-.32s-1-.52-1.4-.94c-.39-.41-.7-.92-.92-1.53-.22-.61-.33-1.31-.33-2.1,0-.64.1-1.23.3-1.78.2-.55.48-1.03.85-1.44.37-.41.82-.73,1.35-.96s1.13-.35,1.8-.35c.56,0,1.07.09,1.54.27.47.18.88.45,1.22.8.34.35.61.78.8,1.29.2.51.29,1.09.29,1.75,0,.27-.03.45-.09.54-.06.09-.17.14-.33.14h-5.99c.02.55.1,1.02.23,1.43.14.41.33.74.57,1.01s.53.47.87.6.71.2,1.12.2c.39,0,.73-.05,1.01-.14s.53-.19.74-.29.38-.2.52-.29.27-.14.37-.14c.14,0,.25.05.33.16l.5.65Zm-1.45-4.28c0-.35-.05-.67-.15-.96s-.25-.55-.44-.77c-.19-.22-.43-.38-.7-.5s-.59-.18-.95-.18c-.74,0-1.32.21-1.74.64-.42.43-.69,1.02-.81,1.77h4.79Z" fill="#fff"></path></g><polyline fill="none" points="390 420 465 420 465 195" stroke="#333e48" stroke-miterlimit="10"></polyline><line fill="none" stroke="#333e48" stroke-miterlimit="10" x1="390" x2="510" y1="120" y2="120"></line><rect fill="#fff" height="90" stroke="#333e48" stroke-miterlimit="10" width="150" x="240" y="375"></rect><g><path d="m277.39,415.82c-.06.1-.12.18-.19.23-.07.05-.15.07-.25.07s-.23-.05-.37-.15c-.14-.1-.31-.21-.52-.33s-.45-.23-.74-.33-.63-.15-1.04-.15c-.38,0-.71.05-.99.15s-.52.23-.72.4c-.19.17-.34.37-.44.6-.1.23-.15.48-.15.75,0,.35.09.64.27.86s.41.42.7.58.62.3.98.42c.37.12.74.24,1.12.37.38.13.76.28,1.12.45.37.17.69.38.98.63s.52.57.7.94c.18.37.26.82.26,1.35,0,.57-.1,1.1-.29,1.6-.2.5-.48.93-.85,1.3-.37.37-.83.67-1.37.88-.54.21-1.16.32-1.85.32-.41,0-.82-.04-1.21-.12-.39-.08-.76-.19-1.11-.34s-.67-.32-.98-.53-.57-.44-.81-.7l.55-.92c.05-.07.12-.13.19-.18.08-.05.16-.07.26-.07.13,0,.27.07.44.2s.37.28.61.44c.24.16.53.3.87.44s.75.2,1.24.2c.4,0,.75-.05,1.06-.16.31-.1.58-.25.79-.45.21-.19.38-.43.49-.71.11-.28.17-.58.17-.92,0-.38-.09-.69-.26-.93-.17-.24-.41-.44-.69-.6s-.62-.3-.98-.41c-.37-.11-.74-.23-1.12-.36s-.76-.27-1.12-.43c-.37-.16-.69-.37-.98-.63-.29-.26-.52-.59-.69-.98-.17-.39-.26-.88-.26-1.45,0-.46.09-.91.27-1.34.18-.43.44-.81.79-1.15s.77-.6,1.27-.8c.5-.2,1.08-.3,1.73-.3.73,0,1.39.12,2,.35.61.23,1.14.56,1.59.99l-.47.91Z" fill="#333e48"></path><path d="m287.59,425.34c-.22.25-.46.47-.75.65s-.58.33-.9.45c-.32.11-.65.2-.99.25-.34.05-.67.08-1,.08-.63,0-1.21-.11-1.75-.32s-1-.52-1.4-.94c-.39-.41-.7-.92-.92-1.53-.22-.61-.33-1.31-.33-2.1,0-.64.1-1.23.3-1.78.2-.55.48-1.03.85-1.44.37-.41.82-.73,1.35-.96s1.13-.35,1.8-.35c.56,0,1.07.09,1.54.27.47.18.88.45,1.22.8.34.35.61.78.8,1.29.2.51.29,1.09.29,1.75,0,.27-.03.45-.09.54-.06.09-.17.14-.33.14h-5.99c.02.55.1,1.02.23,1.43.14.41.33.74.57,1.01s.53.47.87.6.71.2,1.12.2c.39,0,.73-.05,1.01-.14s.53-.19.74-.29.38-.2.52-.29.27-.14.37-.14c.14,0,.25.05.33.16l.5.65Zm-1.45-4.28c0-.35-.05-.67-.15-.96s-.25-.55-.44-.77c-.19-.22-.43-.38-.7-.5s-.59-.18-.95-.18c-.74,0-1.32.21-1.74.64-.42.43-.69,1.02-.81,1.77h4.79Z" fill="#333e48"></path><path d="m296.02,419.21c-.05.07-.11.12-.16.16s-.12.06-.22.06-.2-.04-.3-.11c-.11-.07-.24-.16-.4-.24-.16-.09-.35-.17-.58-.24-.22-.08-.5-.11-.83-.11-.43,0-.81.08-1.14.23-.33.16-.6.38-.82.67-.22.29-.39.64-.5,1.05-.11.41-.17.88-.17,1.4s.06,1.01.18,1.43.29.77.51,1.05c.22.29.49.5.81.65.32.15.67.22,1.06.22s.69-.05.94-.14c.25-.09.45-.19.61-.3.16-.11.3-.21.41-.3.11-.09.22-.14.33-.14.14,0,.25.05.33.16l.5.65c-.21.26-.45.48-.71.66-.26.18-.54.33-.83.44-.29.11-.6.2-.92.25-.32.05-.65.08-.98.08-.57,0-1.1-.1-1.6-.31s-.92-.52-1.29-.92c-.36-.4-.65-.9-.86-1.48-.21-.58-.32-1.25-.32-1.99,0-.68.09-1.31.28-1.88.19-.58.47-1.07.84-1.49.37-.42.82-.74,1.36-.98.54-.24,1.16-.36,1.85-.36.65,0,1.23.1,1.73.31.5.21.94.51,1.33.89l-.47.65Z" fill="#333e48"></path><path d="m305.83,417.5v9.14h-1.05c-.24,0-.4-.12-.47-.35l-.13-.92c-.2.21-.41.4-.62.58-.22.17-.45.32-.69.45s-.51.22-.78.29c-.28.07-.57.1-.89.1-.5,0-.95-.08-1.33-.25-.38-.17-.7-.4-.96-.71-.26-.3-.45-.67-.58-1.09-.13-.43-.2-.9-.2-1.41v-5.82h1.76v5.82c0,.65.15,1.16.45,1.53.3.36.76.54,1.38.54.45,0,.87-.11,1.26-.32.39-.21.76-.51,1.1-.88v-6.7h1.75Z" fill="#333e48"></path><path d="m309.95,419.25c.29-.6.65-1.07,1.06-1.41.41-.34.91-.51,1.49-.51.2,0,.38.02.56.07.18.04.33.11.46.2l-.12,1.32c-.04.16-.14.24-.3.24-.08,0-.21-.02-.38-.05-.17-.03-.35-.05-.54-.05-.28,0-.53.04-.75.12-.22.08-.41.2-.58.36-.17.16-.32.35-.45.58-.13.23-.26.49-.37.79v5.72h-1.75v-9.14h1.01c.19,0,.32.03.39.1.07.07.12.19.15.36l.11,1.29Z" fill="#333e48"></path><path d="m322.05,425.34c-.22.25-.46.47-.75.65s-.58.33-.9.45c-.32.11-.65.2-.99.25-.34.05-.67.08-1,.08-.63,0-1.21-.11-1.75-.32s-1-.52-1.4-.94c-.39-.41-.7-.92-.92-1.53-.22-.61-.33-1.31-.33-2.1,0-.64.1-1.23.3-1.78.2-.55.48-1.03.85-1.44.37-.41.82-.73,1.35-.96s1.13-.35,1.8-.35c.56,0,1.07.09,1.54.27.47.18.88.45,1.22.8.34.35.61.78.8,1.29.2.51.29,1.09.29,1.75,0,.27-.03.45-.09.54-.06.09-.17.14-.33.14h-5.99c.02.55.1,1.02.23,1.43.14.41.33.74.57,1.01s.53.47.87.6.71.2,1.12.2c.39,0,.73-.05,1.01-.14s.53-.19.74-.29.38-.2.52-.29.27-.14.37-.14c.14,0,.25.05.33.16l.5.65Zm-1.45-4.28c0-.35-.05-.67-.15-.96s-.25-.55-.44-.77c-.19-.22-.43-.38-.7-.5s-.59-.18-.95-.18c-.74,0-1.32.21-1.74.64-.42.43-.69,1.02-.81,1.77h4.79Z" fill="#333e48"></path><path d="m332.52,417.35c.67,0,1.28.11,1.82.33.54.22,1,.53,1.39.94.38.41.67.91.88,1.49s.31,1.23.31,1.95-.1,1.37-.31,1.95-.5,1.08-.88,1.48c-.38.41-.84.72-1.39.94-.54.22-1.15.33-1.82.33s-1.29-.11-1.83-.33c-.54-.22-1.01-.53-1.39-.94-.38-.41-.68-.9-.89-1.48s-.31-1.23-.31-1.95.1-1.37.31-1.95.5-1.07.89-1.49c.38-.41.85-.73,1.39-.94.54-.22,1.15-.33,1.83-.33Zm0,8.05c.86,0,1.51-.29,1.94-.87.43-.58.64-1.4.64-2.46s-.21-1.88-.64-2.46c-.43-.58-1.07-.88-1.94-.88s-1.53.29-1.96.88c-.43.58-.64,1.41-.64,2.46s.21,1.88.64,2.46c.43.58,1.08.87,1.96.87Z" fill="#333e48"></path><path d="m340.51,418.77c.2-.21.41-.4.62-.58.22-.17.45-.32.69-.45s.5-.22.78-.29c.28-.07.58-.1.9-.1.5,0,.95.08,1.33.25s.7.4.96.71c.26.3.45.67.58,1.09.13.43.2.9.2,1.41v5.82h-1.76v-5.82c0-.65-.15-1.16-.45-1.53-.3-.36-.76-.54-1.38-.54-.45,0-.87.11-1.26.32-.39.21-.76.5-1.09.87v6.71h-1.75v-9.14h1.05c.25,0,.4.12.46.35l.13.92Z" fill="#333e48"></path><path d="m350.74,413.36v13.28h-1.76v-13.28h1.76Z" fill="#333e48"></path><path d="m361.23,417.5l-5.08,11.8c-.05.13-.13.23-.22.31-.09.07-.22.11-.4.11h-1.3l1.67-3.65-3.75-8.57h1.53c.15,0,.27.04.35.11.08.07.14.15.18.24l2.32,5.49c.05.14.09.28.14.42.04.14.08.28.11.42.04-.14.09-.29.13-.43.05-.14.1-.28.15-.42l2.24-5.48c.04-.1.11-.19.2-.25.09-.07.19-.1.31-.1h1.4Z" fill="#333e48"></path></g><polyline fill="none" points="240 120 225 120 225 420 240 420" stroke="#333e48" stroke-miterlimit="10"></polyline><line fill="none" stroke="#333e48" stroke-miterlimit="10" x1="225" x2="180" y1="270" y2="270"></line><rect fill="#0091bd" height="60" transform="translate(346.1 583.9) rotate(-90)" width="152.2" x="388.9" y="88.9"></rect><g><path d="m460.14,136.25v4.1h11.32v1.91h-11.32v4.12h-1.6v-10.13h1.6Z" fill="#fff"></path><path d="m459.25,125.69c.22,0,.42.07.62.2l10.04,7.14v-7.21h1.56v9.72h-.76c-.1,0-.2-.02-.29-.05-.09-.03-.18-.08-.26-.13l-10.06-7.16v6.98h-1.56v-9.49h.71Z" fill="#fff"></path><path d="m471.46,112.88v1.48c0,.17-.04.31-.13.41-.08.11-.19.19-.32.23l-3,1.14v5.7l3,1.14c.11.04.22.12.31.23.09.11.14.25.14.41v1.48l-12.92-5.15v-1.93l12.92-5.15Zm-4.81,3.79l-5.01,1.92c-.34.14-.77.28-1.3.41.26.07.5.13.72.2.22.07.42.14.59.2l5,1.91v-4.64Z" fill="#fff"></path><path d="m460.64,104.58c.1.06.18.12.22.19.05.07.07.15.07.25s-.05.23-.15.37c-.1.14-.21.31-.33.52s-.23.45-.33.74c-.1.29-.15.63-.15,1.04,0,.38.05.71.15.99.1.29.23.52.4.72.17.19.37.34.6.44.23.1.48.15.75.15.35,0,.64-.09.86-.27.23-.18.42-.41.58-.7s.3-.62.42-.98c.12-.37.25-.74.37-1.12s.28-.76.45-1.12c.17-.37.38-.69.63-.98s.57-.52.94-.7c.37-.18.82-.26,1.35-.26.57,0,1.1.1,1.6.29.5.2.93.48,1.3.85s.67.83.88,1.37c.21.54.32,1.16.32,1.85,0,.41-.04.82-.12,1.21-.08.39-.19.76-.34,1.11-.15.35-.32.67-.53.98s-.44.57-.7.81l-.92-.55c-.07-.05-.13-.12-.18-.19-.05-.08-.07-.16-.07-.26,0-.13.07-.27.2-.44s.28-.37.44-.61.3-.53.44-.87.2-.75.2-1.24c0-.4-.05-.75-.16-1.06-.1-.31-.25-.58-.45-.79-.19-.21-.43-.38-.71-.49s-.58-.17-.92-.17c-.38,0-.69.09-.93.26-.24.17-.44.41-.6.69s-.3.62-.41.98c-.11.37-.23.74-.36,1.12s-.27.76-.43,1.12c-.16.37-.37.69-.63.98-.26.29-.59.52-.98.69-.39.17-.88.26-1.45.26-.46,0-.91-.09-1.34-.27-.43-.18-.81-.44-1.15-.79s-.6-.77-.8-1.27c-.2-.5-.3-1.08-.3-1.73,0-.73.12-1.39.35-2,.23-.61.56-1.14,1-1.59l.91.47Z" fill="#fff"></path><path d="m468.69,92.45c0-.11.04-.2.13-.28l.83-.76c.62.53,1.11,1.17,1.45,1.93.34.76.51,1.67.51,2.74,0,.94-.16,1.78-.49,2.54s-.78,1.41-1.36,1.94c-.58.54-1.28.95-2.09,1.25-.81.29-1.7.44-2.67.44s-1.86-.16-2.67-.46-1.51-.74-2.09-1.3c-.58-.56-1.04-1.23-1.36-2-.32-.78-.49-1.64-.49-2.58s.15-1.73.45-2.45c.3-.71.7-1.33,1.2-1.86l.89.63c.07.04.12.09.16.16.04.06.06.15.06.25,0,.11-.06.25-.17.4-.11.15-.24.35-.38.6-.14.25-.27.56-.38.92-.11.37-.17.82-.17,1.37,0,.64.11,1.23.34,1.76s.55.99.97,1.38c.42.39.94.69,1.56.9s1.31.32,2.08.32,1.49-.11,2.1-.33c.61-.22,1.13-.53,1.56-.92.43-.39.75-.85.97-1.38.22-.53.33-1.1.33-1.71,0-.37-.02-.71-.07-1s-.11-.57-.2-.82-.21-.48-.35-.71c-.14-.22-.31-.44-.51-.66-.04-.05-.08-.1-.1-.15-.03-.05-.04-.11-.04-.17Z" fill="#fff"></path></g><g><path d="m81.42,265.84h-1.48c-.17,0-.31-.04-.41-.13-.11-.08-.19-.19-.23-.32l-1.14-3h-5.7l-1.14,3c-.04.11-.12.22-.23.31-.11.09-.25.14-.41.14h-1.48l5.15-12.92h1.93l5.15,12.92Zm-3.79-4.81l-1.92-5.01c-.14-.34-.28-.77-.41-1.3-.07.26-.13.5-.2.72-.07.22-.14.42-.2.59l-1.91,5h4.64Z" fill="#fff"></path><path d="m84.29,258.45c.29-.6.65-1.07,1.06-1.41.41-.34.91-.51,1.49-.51.2,0,.38.02.56.07.18.04.33.11.46.2l-.12,1.32c-.04.16-.14.24-.3.24-.08,0-.21-.02-.38-.05-.17-.03-.35-.05-.54-.05-.28,0-.53.04-.75.12-.22.08-.41.2-.58.36-.17.16-.32.35-.45.58-.13.23-.26.49-.37.79v5.72h-1.75v-9.14h1.01c.19,0,.32.03.39.1.07.07.12.19.15.36l.11,1.29Z" fill="#fff"></path><path d="m89.24,265.84v-9.14h1.05c.25,0,.4.12.46.35l.13.87c.34-.4.71-.73,1.12-.99.41-.26.89-.38,1.44-.38.61,0,1.1.17,1.48.5s.65.78.83,1.35c.13-.32.3-.6.51-.84s.44-.43.7-.58c.26-.15.53-.26.82-.33.29-.07.59-.11.89-.11.49,0,.92.08,1.3.23.38.15.7.38.97.67.26.29.46.66.6,1.09.14.43.21.92.21,1.48v5.82h-1.76v-5.82c0-.68-.15-1.2-.45-1.55-.3-.35-.73-.52-1.3-.52-.25,0-.49.04-.72.13-.23.09-.43.22-.6.39-.17.17-.31.39-.4.65-.1.26-.15.56-.15.9v5.82h-1.76v-5.82c0-.71-.14-1.23-.42-1.57-.28-.34-.7-.5-1.24-.5-.38,0-.73.1-1.05.3-.32.2-.62.47-.89.81v6.79h-1.75Z" fill="#fff"></path><path d="m111.85,256.7l-3.71,9.14h-1.58l-3.71-9.14h1.45c.14,0,.25.03.34.1s.15.15.18.25l2.19,5.62c.08.23.15.47.2.7.06.23.11.46.16.69.05-.23.1-.46.16-.68.06-.23.13-.46.22-.7l2.21-5.62c.04-.1.1-.19.19-.25s.2-.1.32-.1h1.38Z" fill="#fff"></path><path d="m119.18,259.1c.8.24,1.41.63,1.83,1.16.42.53.63,1.21.63,2.02,0,.56-.11,1.07-.32,1.53-.21.46-.51.84-.9,1.17s-.85.57-1.39.74c-.54.17-1.13.26-1.78.26s-1.24-.09-1.78-.26c-.54-.17-1-.42-1.39-.74-.39-.32-.69-.71-.9-1.17s-.32-.97-.32-1.53c0-.82.21-1.49.62-2.02.42-.53,1.03-.92,1.83-1.16-.67-.25-1.17-.63-1.5-1.13s-.5-1.1-.5-1.79c0-.48.09-.93.28-1.35s.46-.78.8-1.08.76-.55,1.25-.72c.49-.17,1.02-.26,1.61-.26s1.12.09,1.61.26c.49.17.9.41,1.25.72.35.31.61.67.8,1.08.19.42.28.87.28,1.35,0,.69-.17,1.29-.5,1.79s-.84.88-1.5,1.13Zm-1.94,5.49c.41,0,.77-.06,1.09-.17.32-.11.59-.27.81-.48.22-.21.39-.45.5-.74s.17-.6.17-.94c0-.42-.07-.78-.21-1.08-.14-.3-.32-.55-.56-.75-.23-.19-.51-.34-.82-.43-.31-.09-.64-.14-.99-.14s-.69.05-1,.14c-.31.09-.58.24-.82.43-.23.19-.42.44-.55.75-.13.3-.2.66-.2,1.08,0,.34.06.66.17.94.11.29.28.54.5.74.22.21.49.37.81.48.32.11.68.17,1.09.17Zm0-10.47c-.37,0-.7.06-.98.17-.28.11-.51.26-.7.45-.19.19-.33.41-.42.67-.09.25-.14.52-.14.81s.04.56.12.82.21.5.39.71c.18.21.41.37.69.5.28.13.63.19,1.04.19s.75-.06,1.03-.19c.28-.13.52-.29.69-.5s.31-.44.39-.71.12-.54.12-.82-.05-.56-.14-.81-.23-.47-.42-.67c-.19-.19-.42-.34-.7-.45-.28-.11-.6-.17-.98-.17Z" fill="#fff"></path><path d="m123.56,259.69h4.5v1.49h-4.5v-1.49Z" fill="#fff"></path><path d="m141.41,265.84h-1.48c-.17,0-.31-.04-.41-.13-.11-.08-.19-.19-.23-.32l-1.14-3h-5.7l-1.14,3c-.04.11-.12.22-.23.31-.11.09-.25.14-.41.14h-1.48l5.15-12.92h1.93l5.15,12.92Zm-3.79-4.81l-1.92-5.01c-.14-.34-.28-.77-.41-1.3-.07.26-.13.5-.2.72-.07.22-.14.42-.2.59l-1.91,5h4.64Z" fill="#fff"></path><path d="m67.78,274.52c.83,0,1.55.1,2.16.29.61.19,1.12.46,1.52.81.4.35.7.78.9,1.27.19.5.29,1.05.29,1.66s-.11,1.16-.32,1.67c-.21.51-.52.94-.93,1.31-.41.37-.92.65-1.53.85s-1.31.3-2.1.3h-2v4.76h-1.92v-12.92h3.92Zm0,6.65c.49,0,.91-.06,1.28-.19.37-.13.68-.3.93-.54s.44-.51.56-.83c.13-.32.19-.68.19-1.07,0-.79-.24-1.4-.73-1.85-.49-.45-1.23-.67-2.23-.67h-2v5.15h2Z" fill="#fff"></path><path d="m75.89,280.05c.29-.6.65-1.07,1.06-1.41.41-.34.91-.51,1.49-.51.2,0,.38.02.56.07.18.04.33.11.46.2l-.12,1.32c-.04.16-.14.24-.3.24-.08,0-.21-.02-.38-.05-.17-.03-.35-.05-.54-.05-.28,0-.53.04-.75.12-.22.08-.41.2-.58.36-.17.16-.32.35-.45.58-.13.23-.26.49-.37.79v5.72h-1.75v-9.14h1.01c.19,0,.32.03.39.1.07.07.12.19.15.36l.11,1.29Z" fill="#fff"></path><path d="m84.39,278.15c.67,0,1.28.11,1.82.33.54.22,1,.53,1.39.94.38.41.67.91.88,1.49s.31,1.23.31,1.95-.1,1.37-.31,1.95-.5,1.08-.88,1.48c-.38.41-.84.72-1.39.94-.54.22-1.15.33-1.82.33s-1.29-.11-1.83-.33c-.54-.22-1.01-.53-1.39-.94-.38-.41-.68-.9-.89-1.48s-.31-1.23-.31-1.95.1-1.37.31-1.95.5-1.07.89-1.49c.38-.41.85-.73,1.39-.94.54-.22,1.15-.33,1.83-.33Zm0,8.05c.86,0,1.51-.29,1.94-.87.43-.58.64-1.4.64-2.46s-.21-1.88-.64-2.46c-.43-.58-1.07-.88-1.94-.88s-1.53.29-1.96.88c-.43.58-.64,1.41-.64,2.46s.21,1.88.64,2.46c.43.58,1.08.87,1.96.87Z" fill="#fff"></path><path d="m97.14,280.01c-.05.07-.11.12-.16.16s-.12.06-.22.06-.2-.04-.3-.11c-.11-.07-.24-.16-.4-.24-.16-.09-.35-.17-.58-.24-.22-.08-.5-.11-.83-.11-.43,0-.81.08-1.14.23-.33.16-.6.38-.82.67-.22.29-.39.64-.5,1.05-.11.41-.17.88-.17,1.4s.06,1.01.18,1.43.29.77.51,1.05c.22.29.49.5.81.65.32.15.67.22,1.06.22s.69-.05.94-.14c.25-.09.45-.19.61-.3.16-.11.3-.21.41-.3.11-.09.22-.14.33-.14.14,0,.25.05.33.16l.5.65c-.21.26-.45.48-.71.66-.26.18-.54.33-.83.44-.29.11-.6.2-.92.25-.32.05-.65.08-.98.08-.57,0-1.1-.1-1.6-.31s-.92-.52-1.29-.92c-.36-.4-.65-.9-.86-1.48-.21-.58-.32-1.25-.32-1.99,0-.68.09-1.31.28-1.88.19-.58.47-1.07.84-1.49.37-.42.82-.74,1.36-.98.54-.24,1.16-.36,1.85-.36.65,0,1.23.1,1.73.31.5.21.94.51,1.33.89l-.47.65Z" fill="#fff"></path><path d="m106.69,286.14c-.22.25-.46.47-.75.65s-.58.33-.9.45c-.32.11-.65.2-.99.25-.34.05-.67.08-1,.08-.63,0-1.21-.11-1.75-.32s-1-.52-1.4-.94c-.39-.41-.7-.92-.92-1.53-.22-.61-.33-1.31-.33-2.1,0-.64.1-1.23.3-1.78.2-.55.48-1.03.85-1.44.37-.41.82-.73,1.35-.96s1.13-.35,1.8-.35c.56,0,1.07.09,1.54.27.47.18.88.45,1.22.8.34.35.61.78.8,1.29.2.51.29,1.09.29,1.75,0,.27-.03.45-.09.54-.06.09-.17.14-.33.14h-5.99c.02.55.1,1.02.23,1.43.14.41.33.74.57,1.01s.53.47.87.6.71.2,1.12.2c.39,0,.73-.05,1.01-.14s.53-.19.74-.29.38-.2.52-.29.27-.14.37-.14c.14,0,.25.05.33.16l.5.65Zm-1.45-4.28c0-.35-.05-.67-.15-.96s-.25-.55-.44-.77c-.19-.22-.43-.38-.7-.5s-.59-.18-.95-.18c-.74,0-1.32.21-1.74.64-.42.43-.69,1.02-.81,1.77h4.79Z" fill="#fff"></path><path d="m114.1,279.87c-.05.08-.1.13-.15.17-.05.03-.12.05-.21.05-.1,0-.2-.03-.32-.1-.12-.07-.26-.14-.42-.22s-.36-.15-.58-.22c-.22-.07-.49-.1-.79-.1-.25,0-.48.03-.69.09s-.38.15-.53.26c-.14.11-.25.24-.33.4-.08.15-.12.32-.12.49,0,.23.07.42.2.57s.31.28.53.39c.22.11.47.21.75.29.28.09.56.18.85.27.29.1.58.21.86.33.28.12.53.28.75.46.22.18.4.4.53.66.14.26.2.57.2.94,0,.43-.08.82-.23,1.18-.15.36-.38.68-.67.94-.3.26-.67.47-1.1.62-.44.15-.94.23-1.5.23-.63,0-1.21-.1-1.75-.31-.53-.21-.98-.48-1.34-.8l.41-.67c.05-.08.11-.15.18-.19.07-.05.17-.07.29-.07.11,0,.23.04.35.13.12.08.26.18.43.27.17.1.37.19.61.27.24.08.54.12.9.12.3,0,.56-.04.78-.11.22-.07.41-.18.55-.31.15-.13.26-.28.33-.45.07-.17.11-.35.11-.53,0-.24-.07-.44-.2-.6-.13-.16-.31-.3-.53-.41-.22-.11-.47-.21-.75-.3-.28-.08-.57-.17-.86-.27s-.58-.21-.86-.33-.53-.29-.75-.48c-.22-.19-.4-.43-.53-.7-.13-.28-.2-.61-.2-1.01,0-.35.07-.69.22-1.02.15-.32.36-.61.64-.85.28-.25.62-.44,1.03-.59s.88-.22,1.41-.22c.61,0,1.15.1,1.64.29.49.19.91.46,1.25.79l-.39.64Z" fill="#fff"></path><path d="m121.93,279.87c-.05.08-.1.13-.15.17-.05.03-.12.05-.21.05-.1,0-.2-.03-.32-.1-.12-.07-.26-.14-.42-.22s-.36-.15-.58-.22c-.22-.07-.49-.1-.79-.1-.25,0-.48.03-.69.09s-.38.15-.53.26c-.14.11-.25.24-.33.4-.08.15-.12.32-.12.49,0,.23.07.42.2.57s.31.28.53.39c.22.11.47.21.75.29.28.09.56.18.85.27.29.1.58.21.86.33.28.12.53.28.75.46.22.18.4.4.53.66.14.26.2.57.2.94,0,.43-.08.82-.23,1.18-.15.36-.38.68-.67.94-.3.26-.67.47-1.1.62-.44.15-.94.23-1.5.23-.63,0-1.21-.1-1.75-.31-.53-.21-.98-.48-1.34-.8l.41-.67c.05-.08.11-.15.18-.19.07-.05.17-.07.29-.07.11,0,.23.04.35.13.12.08.26.18.43.27.17.1.37.19.61.27.24.08.54.12.9.12.3,0,.56-.04.78-.11.22-.07.41-.18.55-.31.15-.13.26-.28.33-.45.07-.17.11-.35.11-.53,0-.24-.07-.44-.2-.6-.13-.16-.31-.3-.53-.41-.22-.11-.47-.21-.75-.3-.28-.08-.57-.17-.86-.27s-.58-.21-.86-.33-.53-.29-.75-.48c-.22-.19-.4-.43-.53-.7-.13-.28-.2-.61-.2-1.01,0-.35.07-.69.22-1.02.15-.32.36-.61.64-.85.28-.25.62-.44,1.03-.59s.88-.22,1.41-.22c.61,0,1.15.1,1.64.29.49.19.91.46,1.25.79l-.39.64Z" fill="#fff"></path><path d="m128.25,278.15c.67,0,1.28.11,1.82.33.54.22,1,.53,1.39.94.38.41.67.91.88,1.49s.31,1.23.31,1.95-.1,1.37-.31,1.95-.5,1.08-.88,1.48c-.38.41-.84.72-1.39.94-.54.22-1.15.33-1.82.33s-1.29-.11-1.83-.33c-.54-.22-1.01-.53-1.39-.94-.38-.41-.68-.9-.89-1.48s-.31-1.23-.31-1.95.1-1.37.31-1.95.5-1.07.89-1.49c.38-.41.85-.73,1.39-.94.54-.22,1.15-.33,1.83-.33Zm0,8.05c.86,0,1.51-.29,1.94-.87.43-.58.64-1.4.64-2.46s-.21-1.88-.64-2.46c-.43-.58-1.07-.88-1.94-.88s-1.53.29-1.96.88c-.43.58-.64,1.41-.64,2.46s.21,1.88.64,2.46c.43.58,1.08.87,1.96.87Z" fill="#fff"></path><path d="m136.25,280.05c.29-.6.65-1.07,1.06-1.41.41-.34.91-.51,1.49-.51.2,0,.38.02.56.07.18.04.33.11.46.2l-.12,1.32c-.04.16-.14.24-.3.24-.08,0-.21-.02-.38-.05-.17-.03-.35-.05-.54-.05-.28,0-.53.04-.75.12-.22.08-.41.2-.58.36-.17.16-.32.35-.45.58-.13.23-.26.49-.37.79v5.72h-1.75v-9.14h1.01c.19,0,.32.03.39.1.07.07.12.19.15.36l.11,1.29Z" fill="#fff"></path><path d="m146.53,279.87c-.05.08-.1.13-.15.17-.05.03-.12.05-.21.05-.1,0-.2-.03-.32-.1-.12-.07-.26-.14-.42-.22s-.36-.15-.58-.22c-.22-.07-.49-.1-.79-.1-.25,0-.48.03-.69.09s-.38.15-.53.26c-.14.11-.25.24-.33.4-.08.15-.12.32-.12.49,0,.23.07.42.2.57s.31.28.53.39c.22.11.47.21.75.29.28.09.56.18.85.27.29.1.58.21.86.33.28.12.53.28.75.46.22.18.4.4.53.66.14.26.2.57.2.94,0,.43-.08.82-.23,1.18-.15.36-.38.68-.67.94-.3.26-.67.47-1.1.62-.44.15-.94.23-1.5.23-.63,0-1.21-.1-1.75-.31-.53-.21-.98-.48-1.34-.8l.41-.67c.05-.08.11-.15.18-.19.07-.05.17-.07.29-.07.11,0,.23.04.35.13.12.08.26.18.43.27.17.1.37.19.61.27.24.08.54.12.9.12.3,0,.56-.04.78-.11.22-.07.41-.18.55-.31.15-.13.26-.28.33-.45.07-.17.11-.35.11-.53,0-.24-.07-.44-.2-.6-.13-.16-.31-.3-.53-.41-.22-.11-.47-.21-.75-.3-.28-.08-.57-.17-.86-.27s-.58-.21-.86-.33-.53-.29-.75-.48c-.22-.19-.4-.43-.53-.7-.13-.28-.2-.61-.2-1.01,0-.35.07-.69.22-1.02.15-.32.36-.61.64-.85.28-.25.62-.44,1.03-.59s.88-.22,1.41-.22c.61,0,1.15.1,1.64.29.49.19.91.46,1.25.79l-.39.64Z" fill="#fff"></path></g><g><path d="m98.51,30.18c0,.97-.15,1.84-.46,2.64-.31.79-.75,1.47-1.31,2.04-.56.57-1.24,1.01-2.02,1.32s-1.66.47-2.62.47h-4.86v-12.92h4.86c.96,0,1.83.16,2.62.47s1.46.75,2.02,1.32c.56.57,1,1.25,1.31,2.04.31.8.46,1.67.46,2.63Zm-1.96,0c0-.77-.11-1.46-.32-2.07s-.51-1.12-.9-1.55c-.39-.42-.85-.75-1.4-.97-.55-.22-1.16-.33-1.84-.33h-2.93v9.83h2.93c.68,0,1.29-.11,1.84-.33.55-.22,1.02-.54,1.4-.97.39-.42.69-.94.9-1.54s.32-1.3.32-2.07Z" fill="#fff"></path><path d="m112.2,30.18c0,.97-.15,1.84-.46,2.64-.31.79-.75,1.47-1.31,2.04-.56.57-1.24,1.01-2.02,1.32s-1.66.47-2.62.47h-4.86v-12.92h4.86c.96,0,1.83.16,2.62.47s1.46.75,2.02,1.32c.56.57,1,1.25,1.31,2.04.31.8.46,1.67.46,2.63Zm-1.96,0c0-.77-.11-1.46-.32-2.07s-.51-1.12-.9-1.55c-.39-.42-.85-.75-1.4-.97-.55-.22-1.16-.33-1.84-.33h-2.93v9.83h2.93c.68,0,1.29-.11,1.84-.33.55-.22,1.02-.54,1.4-.97.39-.42.69-.94.9-1.54s.32-1.3.32-2.07Z" fill="#fff"></path><path d="m124.3,36.64h-1.71c-.34,0-.59-.13-.75-.4l-3.2-4.48c-.1-.15-.21-.26-.33-.32s-.3-.09-.54-.09h-1.25v5.3h-1.92v-12.92h3.73c.83,0,1.55.09,2.16.26.6.17,1.1.41,1.49.73.39.31.68.69.87,1.14.19.44.28.94.28,1.49,0,.45-.07.87-.21,1.27s-.34.75-.61,1.07c-.27.32-.59.59-.98.81s-.82.4-1.3.52c.24.14.45.34.62.6l3.64,5.03Zm-6.03-6.7c.49,0,.93-.06,1.3-.18s.69-.29.94-.51c.25-.22.44-.48.57-.78.13-.3.19-.64.19-1,0-.74-.24-1.31-.73-1.68s-1.22-.57-2.2-.57h-1.81v4.73h1.75Z" fill="#fff"></path></g></svg>